<svg height="32" viewBox="0 0 8.467 8.467" width="32" xmlns="http://www.w3.org/2000/svg">
    <path d="M.91 9.065.904 4.826a2.912 2.912 0 0 1 2.912-2.914 2.784 2.784 0 0 1 2.648 2.914l.005 4.24z" fill="#fbda74"/>
    <path d="M6.436 5.09h-.662v-.53h.662zM1.567 5.09H.905v-.53h.662z" fill="#b28a8d" fill-rule="evenodd"/>
    <path d="M2.028 6.945a1.663 1.613 0 0 0 1.66 1.518 1.663 1.613 0 0 0 1.658-1.518z" fill="#586597"/>
    <path d="M5.21 6.945H2.164v.65h3.048z" fill="#fff" fill-rule="evenodd"/>
    <path d="M3.687 4.825a1.06 1.06 0 0 1-1.06 1.06 1.06 1.06 0 0 1-1.06-1.06 1.06 1.06 0 0 1 1.06-1.06 1.06 1.06 0 0 1 1.06 1.06z" fill="#e2e0e1"/>
    <path d="M3.09 4.825a.464.464 0 0 1-.463.464.464.464 0 0 1-.464-.464.464.464 0 0 1 .464-.463.464.464 0 0 1 .464.463z" fill="#e0a696"/>
    <path d="M5.807 4.825a1.06 1.06 0 0 1-1.06 1.06 1.06 1.06 0 0 1-1.06-1.06 1.06 1.06 0 0 1 1.06-1.06 1.06 1.06 0 0 1 1.06 1.06z" fill="#e2e0e1"/>
    <path d="M5.21 4.825a.464.464 0 0 1-.463.464.464.464 0 0 1-.464-.464.464.464 0 0 1 .464-.463.464.464 0 0 1 .464.463z" fill="#e0a696"/>
    <g fill="none" stroke="#586597">
        <path d="M.91 8.93.904 4.693a2.912 2.912 0 0 1 2.912-2.914h0a2.784 2.784 0 0 1 2.648 2.914l.005 4.239" stroke-linecap="round" stroke-linejoin="round" stroke-width=".265"/>
        <path d="M.905 4.56h.662M.905 5.09h.662M5.74 4.56h.73M5.74 5.09h.73" stroke-width=".265"/>
        <path d="M3.687 4.825a1.06 1.06 0 0 1-1.06 1.06 1.06 1.06 0 0 1-1.06-1.06 1.06 1.06 0 0 1 1.06-1.06 1.06 1.06 0 0 1 1.06 1.06z" stroke-linejoin="round" stroke-width=".265"/>
        <path d="M3.09 4.825a.464.464 0 0 1-.463.464.464.464 0 0 1-.464-.464.464.464 0 0 1 .464-.463.464.464 0 0 1 .464.463z" stroke-linejoin="round" stroke-width=".265"/>
    </g>
    <path d="M2.826 4.759a.133.133 0 0 1-.133.133.133.133 0 0 1-.132-.133.133.133 0 0 1 .132-.132.133.133 0 0 1 .133.132z" fill="#586597"/>
    <path d="M5.807 4.825a1.06 1.06 0 0 1-1.06 1.06 1.06 1.06 0 0 1-1.06-1.06 1.06 1.06 0 0 1 1.06-1.06 1.06 1.06 0 0 1 1.06 1.06z" fill="none" stroke="#586597" stroke-linejoin="round" stroke-width=".265"/>
    <path d="M5.21 4.825a.464.464 0 0 1-.463.464.464.464 0 0 1-.464-.464.464.464 0 0 1 .464-.463.464.464 0 0 1 .464.463z" fill="none" stroke="#586597" stroke-linejoin="round" stroke-width=".265"/>
    <path d="M4.946 4.759a.133.133 0 0 1-.133.133.133.133 0 0 1-.132-.133.133.133 0 0 1 .132-.132.133.133 0 0 1 .133.132z" fill="#586597"/>
    <path d="M2.028 6.945a1.663 1.613 0 0 0 1.66 1.518 1.663 1.613 0 0 0 1.658-1.518z" fill="none" stroke="#586597" stroke-linecap="round" stroke-linejoin="round" stroke-width=".265"/>
</svg>
