<svg height="512pt" viewBox="-1 0 512 512.002" width="512pt" xmlns="http://www.w3.org/2000/svg">
    <path d="M26.344 301.91v202.586h119.05l109.243-19.726 112.672 19.726h115.617V301.91zm0 0" fill="#eee07d"/>
    <path d="M123.633 21.32C107.43 11.977 86.324 3.496 67.48 9.543c-15.203 4.879-19.164 16.625-21.753 30.941-1.407 7.75-5.375 14.43-10.118 20.59-5.605 7.285-13.02 15.082-13.105 24.867-.09 9.97 7.8 18.868 16.906 22.051 17.055 5.961 36.078-6.406 48.406-17.097a85.892 85.892 0 0 0 4.297-3.965zM218.39 21.32c16.204-9.343 37.31-17.824 56.157-11.777 15.2 4.879 19.164 16.625 21.754 30.941 1.402 7.75 5.375 14.43 10.117 20.59 5.605 7.285 13.016 15.082 13.105 24.867.09 9.97-7.804 18.868-16.91 22.051-17.054 5.961-36.074-6.406-48.402-17.097a85.976 85.976 0 0 1-4.3-3.965zm0 0" fill="#d2614c"/>
    <path d="M283.344 211.297c0-92.274-12.703-200.59-112.332-200.59-99.625 0-112.332 108.316-112.332 200.59l112.332 26.914zm0 0" fill="#e08778"/>
    <path d="M276.656 157.473s-23.664-23.356-14.949-68.258a7.647 7.647 0 0 1 6.012-6.043c44.531-8.86 62.535 12.738 62.535 12.738zM469.895 157.473s23.664-23.356 14.949-68.258a7.642 7.642 0 0 0-6.012-6.043c-44.531-8.86-62.535 12.738-62.535 12.738zm0 0" fill="#e1ba68"/>
    <path d="M373.277 86.93c-59.27 0-107.316 48.05-107.316 107.316v37.11h214.633v-37.11c0-59.27-48.051-107.316-107.317-107.316zm0 0" fill="#eee07d"/>
    <path d="M26.344 350.953h456.582V301.91H26.344zm0 0" fill="#e1ba68"/>
    <path d="M482.926 211.297H26.344c-10.407 0-18.844 8.437-18.844 18.844v71.968c0 10.407 8.438 18.844 18.844 18.844h456.582c10.41 0 18.847-8.433 18.847-18.844v-71.968c-.003-10.407-8.437-18.844-18.847-18.844zM367.309 400.418v104.078H254.637l-35.774-57.84 35.774-71.21h87.707c13.793 0 24.965 11.183 24.965 24.972zm0 0" fill="#80c0e4"/>
    <path d="M254.637 375.445v129.051H145.395V400.418c0-13.79 11.171-24.973 24.964-24.973zm0 0" fill="#5ba0d3"/>
    <path d="M322.512 140.965c-4.14 0-7.5 3.36-7.5 7.5v9.187a7.5 7.5 0 1 0 15 0v-9.187c0-4.14-3.36-7.5-7.5-7.5zM424.04 165.152a7.5 7.5 0 0 0 7.5-7.5v-9.187c0-4.14-3.36-7.5-7.5-7.5-4.142 0-7.5 3.36-7.5 7.5v9.187a7.5 7.5 0 0 0 7.5 7.5zM359.492 161.145c4.192 1.804 8.86 2.812 13.785 2.812 4.922 0 9.594-1.008 13.782-2.812 4.398-1.895 3.058-8.454-1.73-8.454h-24.106c-4.79 0-6.13 6.559-1.73 8.454zM345.164 179.832c4.184 4.785 10.336 7.531 16.879 7.531 4.012 0 7.875-1.035 11.23-2.941a22.737 22.737 0 0 0 11.235 2.941c6.543 0 12.695-2.746 16.879-7.531a7.501 7.501 0 0 0-.711-10.586 7.5 7.5 0 0 0-10.582.711c-2.797 3.203-8.375 3.2-11.172 0-2.938-3.36-8.356-3.352-11.293 0-2.805 3.203-8.371 3.203-11.172 0a7.501 7.501 0 0 0-11.293 9.875zM116.238 96.602a7.5 7.5 0 0 0-7.5 7.5v9.91a7.5 7.5 0 0 0 7.5 7.5c4.145 0 7.5-3.356 7.5-7.5v-9.91c0-4.145-3.355-7.5-7.5-7.5zM225.785 96.602a7.5 7.5 0 0 0-7.5 7.5v9.91a7.5 7.5 0 1 0 15 0v-9.91a7.5 7.5 0 0 0-7.5-7.5zM156.14 117.781c4.52 1.946 9.56 3.035 14.872 3.035s10.351-1.09 14.87-3.035c4.747-2.047 3.302-9.12-1.866-9.12h-26.008c-5.164 0-6.613 7.073-1.867 9.12zM200.188 126.965a7.5 7.5 0 0 0-10.583.715c-3.417 3.906-9.472 3.472-12.945 0-3.11-3.114-8.195-3.547-11.293 0-3.254 3.718-9.695 3.718-12.945 0a7.497 7.497 0 0 0-10.582-.715 7.498 7.498 0 0 0-.711 10.586c4.402 5.035 10.879 7.926 17.766 7.926 4.343 0 8.52-1.153 12.117-3.262 3.601 2.113 7.777 3.262 12.12 3.262 6.888 0 13.364-2.891 17.766-7.926a7.505 7.505 0 0 0-.71-10.586zM80.16 229.2H59.848c-3.434 0-5.692 2.16-5.692 4.613v62.414c0 3.14 3.828 4.71 7.653 4.71 3.828 0 7.656-1.574 7.656-4.71V275.03h9.715c13.543 0 24.14-6.281 24.14-22.77v-.491c0-16.485-10.203-22.57-23.16-22.57zm7.852 24.241c0 6.672-3.336 9.813-8.832 9.813h-9.715v-20.707h9.715c5.496 0 8.832 3.14 8.832 9.812zM151.602 242.547c2.941 0 4.609-3.14 4.609-6.77 0-3.14-1.371-6.578-4.61-6.578h-34.937c-3.336 0-6.672 1.57-6.672 4.711v62.317c0 3.14 3.336 4.71 6.672 4.71h34.938c3.238 0 4.609-3.437 4.609-6.578 0-3.629-1.668-6.77-4.61-6.77h-26.3v-16.683h14.719c3.238 0 4.613-3.14 4.613-5.789 0-3.14-1.668-5.988-4.613-5.988H125.3v-16.586h26.302zM205.375 229.2H162.98c-3.238 0-4.613 3.534-4.613 6.773 0 3.726 1.672 6.968 4.613 6.968h13.543v53.286c0 3.14 3.829 4.71 7.657 4.71s7.652-1.574 7.652-4.71V242.94h13.543c2.945 0 4.613-3.242 4.613-6.968 0-3.239-1.375-6.774-4.613-6.774zM249.336 247.453c0-3.043 2.844-5.887 9.812-5.887 8.047 0 9.914 3.727 13.446 3.727 4.316 0 6.082-5.395 6.082-8.047 0-7.652-14.324-8.633-19.528-8.633-12.265 0-25.12 5.594-25.12 20.313 0 22.965 31.109 20.902 31.109 32.777 0 4.711-5.004 6.477-9.52 6.477-9.125 0-12.07-7.262-16.683-7.262-3.727 0-6.672 4.906-6.672 8.242 0 6.477 10.793 12.758 23.648 12.758 14.23 0 24.535-7.652 24.535-21.785 0-24.73-31.11-22.867-31.11-32.68zM330.488 229.2c-3.824 0-7.652 1.374-7.652 4.613v24.042h-19.527v-24.043c0-3.238-3.829-4.613-7.657-4.613S288 230.574 288 233.812v62.415c0 3.14 3.824 4.71 7.652 4.71s7.657-1.574 7.657-4.71v-26.594h19.527v26.594c0 3.14 3.828 4.71 7.652 4.71 3.828 0 7.657-1.574 7.657-4.71v-62.415c0-3.238-3.829-4.613-7.657-4.613zM371.996 229.2c-13.539 0-24.039 6.28-24.039 23.16v26.007c0 16.88 10.5 23.156 24.04 23.156 13.542 0 24.144-6.277 24.144-23.156V252.36c0-16.879-10.602-23.16-24.145-23.16zm8.832 49.167c0 6.77-3.336 9.813-8.832 9.813-5.492 0-8.734-3.043-8.734-9.813V252.36c0-6.77 3.242-9.812 8.734-9.812 5.496 0 8.832 3.043 8.832 9.812zM431.957 229.2h-20.316c-3.434 0-5.692 2.16-5.692 4.613v62.414c0 3.14 3.828 4.71 7.656 4.71s7.653-1.574 7.653-4.71V275.03h9.715c13.543 0 24.144-6.281 24.144-22.77v-.491c0-16.485-10.207-22.57-23.16-22.57zm7.852 24.241c0 6.672-3.336 9.813-8.832 9.813h-9.715v-20.707h9.715c5.496 0 8.832 3.14 8.832 9.812zM482.926 512.004a7.5 7.5 0 0 0 7.5-7.5V389.727c0-4.145-3.356-7.5-7.5-7.5a7.5 7.5 0 0 0-7.5 7.5v107.277H374.809v-96.578c0-17.906-14.563-32.473-32.465-32.473H170.359c-17.902 0-32.464 14.567-32.464 32.473v96.578H33.844v-33.281a7.5 7.5 0 1 0-15 0v40.78c0 4.142 3.36 7.5 7.5 7.5zM359.809 400.426v96.578h-97.672v-114.05h80.207c9.629 0 17.465 7.835 17.465 17.472zm-206.914 0c0-9.637 7.832-17.477 17.464-17.477h76.778V497h-94.242zm0 0"/>
    <path d="M488.09 204.316v-10.062c0-13.754-2.434-26.95-6.887-39.18 6.992-10.719 17.55-33.535 11.004-67.281a15.092 15.092 0 0 0-11.91-11.969c-21.918-4.363-47.469-3.297-65.582 11.356-12.86-4.996-26.836-7.743-41.442-7.743-14.605 0-28.578 2.747-41.441 7.743a50.533 50.533 0 0 0-4.926-3.512c-1.617-17.781-20.125-27.383-23.226-44.516-2.614-14.449-7.063-30.394-26.844-36.746C271.89.82 266.574.016 261.043.016c-12.797 0-27.215 4.324-42.902 12.855-13.774-6.422-29.493-9.66-47.13-9.66-17.632 0-33.355 3.234-47.136 9.656-17.57-9.555-38.797-16.844-58.688-10.46-19.78 6.347-24.226 22.296-26.843 36.745-.992 5.496-3.672 10.848-8.68 17.356C22.902 65.293 15.11 74.133 15 85.878c-.16 17.833 16.867 31.173 33.777 31.173 3.141 0 6.383-.41 9.7-1.18-3.926 20.86-6.922 49.004-7.266 87.93H26.344C11.82 203.8 0 215.62 0 230.148v71.965c0 11.922 7.965 22.016 18.844 25.254v106.356a7.5 7.5 0 1 0 15 0V328.46h441.582v31.266a7.5 7.5 0 1 0 15 0v-32.36c10.883-3.238 18.844-13.328 18.844-25.25v-71.969c0-12.757-9.118-23.425-21.18-25.832zM430.44 94.684c5.856-3.067 14.954-6.137 27.914-6.137 5.98 0 12.38.668 19.012 1.988a.141.141 0 0 1 .113.117c4.122 21.23.418 37.082-4.09 47.403a111.53 111.53 0 0 0-2.93-4.868c-9.972-15.773-23.855-29.167-40.019-38.503zm-57.164-.246c54.145 0 99.817 45.636 99.817 99.816v9.55H273.457v-9.55c0-54.156 45.66-99.816 99.82-99.816zm-97.73-4.95c13.598-1.742 28.012-1.297 40.414 5.16.039.02.082.032.121.051a116.24 116.24 0 0 0-32 27.344 116.976 116.976 0 0 0-10.922 16.008l-.047-.106c-6.402-14.664-7.218-31.722-4.043-47.293.008-.039 6.457-1.16 6.477-1.164zm-42.031-67.543c15.125-6.851 28.18-8.644 38.738-5.254 10.875 3.493 14.144 11.204 16.668 25.137 1.851 10.242 7.617 18.918 13.984 26.918 1.864 2.34 3.75 4.715 5.324 7.113-3.566-.879-7.292-1.5-11.156-1.879-8.285-.812-16.742-.43-24.996.825-.035.007-2.875-6.594-4.027-9.047-6.914-14.758-15.492-26.922-25.703-36.485a94.27 94.27 0 0 0-8.832-7.328zm-184.739 80.11c-8.699 0-18.863-6.422-18.777-16.04.074-8.019 6.984-14.421 11.55-20.359 4.063-5.277 9.684-13.492 11.555-23.828 2.852-15.77 10.583-26.812 27.875-26.812 8.137 0 17.356 2.324 27.512 6.921-.289.211-.574.434-.86.649C91.95 34.312 79.548 51.332 70.536 73.594c-2.637 6.511-5.547 14.644-8.293 25.285-4.86 2.11-9.375 3.176-13.465 3.176zm35.66-22.836c16.618-41.051 44.938-61.008 86.575-61.008 36.254 0 65.656 18.281 81.86 50.578 1.233 2.465 4.636 10.227 5.19 11.637-.015.015-.03.035-.046.05-3.414 3.747-4.098 9.06-4.754 13.926-2.79 20.676.554 42.957 12.07 60.657-4.46 12.265-6.777 25.328-6.871 38.382-.024 3.454 0 6.91 0 10.364H66.207c.281-36.852 2.934-86.785 18.23-124.586zm409.836 222.898c0 6.254-5.09 11.344-11.347 11.344H26.344C20.09 313.46 15 308.37 15 302.117v-71.969c0-6.253 5.09-11.343 11.344-11.343h456.582c6.258 0 11.347 5.09 11.347 11.343zm0 0"/>
</svg>
