<svg height="512" viewBox="0 0 512.012 512.012" width="512" xmlns="http://www.w3.org/2000/svg">
    <path d="M309.551 173.238C297.22 53.607 234.003 26.649 210.338 20.731c-4.264-1.067-8.2 2.649-7.437 6.979l1.024 5.808s-11.47-13.773-37.028-21.222c-4.669-1.36-9.001 2.956-7.585 7.609l4.565 15.003s-10.47-18.221-30.076-26.89a6.014 6.014 0 0 0-6.569 1.158c-15.458 14.852-19.066 35.555-19.066 35.555l-.841-15.66c-.261-4.857-5.81-7.431-9.732-4.556-21.469 15.742-27.537 32.608-27.537 32.608l-1.024-5.808c-.763-4.33-5.733-6.475-9.375-4.014C39.444 60.956-10.74 107.91 18.588 224.544z" fill="#e7896e"/>
    <path d="M143.092 156.453c-22.163-13.484-38.636-36.072-43.495-63.629-3.571-20.25-.326-40.122 8.076-57.275l-.348-6.477c-.261-4.857-5.81-7.431-9.732-4.556-21.469 15.741-27.537 32.607-27.537 32.607l-1.024-5.808c-.763-4.33-5.733-6.475-9.375-4.014C39.444 60.956-10.74 107.91 18.588 224.544l132.394-23.345z" fill="#dd6642"/>
    <circle cx="39.546" cy="213.388" fill="#f9bbaf" r="32.032"/>
    <path d="m247.407 109.946-.104-.256c-3.109-7.724-10.666-12.726-18.981-12.321-9.608.468-19.197 4.215-26.91 11.458-12.226 11.48-29.31 20.138-49.059 23.62-19.746 3.482-38.758 1.191-54.172-5.414-10.492-4.496-21.609-4.421-31.297-.836-7.43 2.749-12.315 9.782-12.604 17.699l-.004.103c-.456 11.961-4.292 22.768-10.265 30.963-3.56 4.884-5.034 10.997-4.312 16.998.225 1.871.495 3.746.81 5.624 11.223 66.899 75.839 111.902 142.482 99.247 65.171-12.376 108.477-74.887 96.922-140.413a122.063 122.063 0 0 0-1.042-5.236c-1.376-6.207-5.108-11.695-10.453-15.137-8.741-5.629-16.352-14.676-21.011-26.099z" fill="#ffddcf"/>
    <path d="M101.227 186.879a122.194 122.194 0 0 1-.81-5.624c-.722-6.001.752-12.113 4.312-16.998 5.973-8.196 9.809-19.002 10.265-30.963l.004-.103c.012-.33.044-.656.072-.983-5.969-1.191-11.641-2.926-16.888-5.174-10.492-4.496-21.609-4.421-31.297-.836-7.43 2.749-12.315 9.782-12.604 17.699l-.004.103c-.456 11.961-4.292 22.768-10.265 30.963-3.56 4.884-5.034 10.997-4.312 16.998.225 1.871.495 3.746.81 5.624 11.223 66.899 75.839 111.902 142.482 99.247a121.483 121.483 0 0 0 28.165-8.997c-53.937-4.492-100.556-45.083-109.93-100.956z" fill="#ffcbbe"/>
    <path d="M200.008 200.301c-2.639-14.969-18.384-13.643-37.501-10.272-19.116 3.371-34.365 7.51-31.726 22.479s20.276 24.371 39.392 21c19.117-3.371 32.474-18.238 29.835-33.207z" fill="#495560"/>
    <path d="M162.515 241.684c-19.524 0-36.204-11.342-39.119-27.875-1.241-7.034-.271-16.807 11.393-23.417 6.577-3.727 15.316-5.793 26.416-7.751 11.1-1.957 20.02-3.004 27.475-1.751 13.221 2.222 17.475 11.073 18.715 18.108 1.686 9.559-1.355 19.243-8.565 27.268-6.75 7.513-16.464 12.708-27.352 14.628-3.028.533-6.029.79-8.963.79zm19.186-46.314c-4.189 0-9.953.645-17.892 2.045-8.284 1.46-16.637 3.202-21.626 6.029-4.139 2.345-4.6 4.454-4.017 7.762 1.886 10.688 15.952 17.521 30.704 14.917 7.603-1.34 14.279-4.849 18.799-9.88 4.061-4.52 5.819-9.718 4.952-14.638-.688-3.908-2.963-6.235-10.92-6.235zM107.944 188.258H86.312c-4.143 0-7.5-3.358-7.5-7.5s3.357-7.5 7.5-7.5h21.632a7.5 7.5 0 0 1 0 15zM101.022 217.25a7.502 7.502 0 0 1-7.377-6.199l-2.102-11.918a7.499 7.499 0 1 1 14.771-2.604l2.102 11.918a7.499 7.499 0 0 1-7.394 8.803z"/>
    <path d="M423.815 23.368c-12.205-6.316-26.451-6.323-39.117-.989-1.974.831-4.068 1.122-6.16.753-2.091-.369-3.96-1.358-5.531-2.814-10.077-9.344-23.467-14.21-37.096-12.449-63.071 8.147-116.291 56.294-127.918 122.23-3.178 18.024-2.975 35.86.143 52.864l275.863 48.642c8.745-14.912 15.037-31.603 18.215-49.627 11.626-65.936-21.917-129.381-78.399-158.61z" fill="#47477f"/>
    <path d="M353.393 182.06c-22.54-22.659-34.077-55.56-28.105-89.427 5.471-31.03 24.478-56.273 49.876-70.733a11.678 11.678 0 0 1-2.156-1.583c-10.077-9.344-23.467-14.21-37.096-12.449-63.072 8.148-116.292 56.295-127.919 122.231-3.178 18.024-2.974 35.86.143 52.864l140.722 24.813z" fill="#3b3868"/>
    <circle cx="228.809" cy="170.58" fill="#c98b7f" r="31.386"/>
    <circle cx="468.808" cy="212.898" fill="#d79b8c" r="31.386"/>
    <path d="M415.073 144.272c-3.843-3.964-10.486-3.072-12.938 1.874-1.429 2.883-3.384 5.255-5.886 7.006-15.917 11.145-47.823-6.956-71.262-40.431-4.144-5.918-7.743-11.92-10.775-17.853-3.239-6.339-11.671-7.826-16.883-2.977-4.878 4.538-10.313 8.947-16.231 13.091-6.918 4.844-13.951 8.945-20.854 12.264-9.839 4.731-17.514 13.115-21.205 23.39a119.19 119.19 0 0 0-5.245 19.837c-11.491 65.87 34.38 128.724 100.603 137.964 62.977 8.788 122.09-33.829 133.221-96.958a119.464 119.464 0 0 0 1.733-16.22c.301-7.919-5.403-14.819-13.256-15.884-12.145-1.646-27.091-10.735-41.022-25.103z" fill="#e0aea2"/>
    <path d="M287.831 137.798c3.111-17.644 9.164-34.027 17.554-48.749a10.65 10.65 0 0 0-8.055 2.842c-4.878 4.538-10.313 8.947-16.231 13.091-6.918 4.844-13.951 8.945-20.854 12.264-9.839 4.731-17.514 13.115-21.205 23.39a119.19 119.19 0 0 0-5.245 19.837c-11.491 65.87 34.38 128.724 100.603 137.964a118.394 118.394 0 0 0 32.449.054c-56.99-29.793-90.778-93.988-79.016-160.693z" fill="#d79b8c"/>
    <path d="M379.737 218.738c2.639-14.969-12.609-19.108-31.726-22.479-19.116-3.371-34.861-4.697-37.501 10.272-2.639 14.969 10.718 29.836 29.834 33.207 19.117 3.372 36.754-6.031 39.393-21z" fill="#495560"/>
    <path d="M348.004 247.915c-2.936 0-5.934-.256-8.962-.79-10.888-1.92-20.602-7.115-27.352-14.628-7.21-8.024-10.251-17.708-8.565-27.268 1.24-7.034 5.494-15.886 18.715-18.107 7.455-1.252 16.374-.206 27.475 1.751 11.1 1.958 19.839 4.024 26.416 7.751 11.664 6.609 12.634 16.382 11.393 23.417-2.916 16.531-19.597 27.874-39.12 27.874zm-19.186-46.314c-7.959 0-10.231 2.328-10.921 6.233-.867 4.92.892 10.119 4.952 14.638 4.52 5.031 11.196 8.54 18.799 9.88 14.751 2.605 28.819-4.228 30.704-14.917.583-3.308.122-5.417-4.017-7.762-4.989-2.827-13.342-4.568-21.626-6.029-7.936-1.398-13.702-2.043-17.891-2.043zm50.919 17.137h.01zM299.908 176.387a7.486 7.486 0 0 1-2.564-.454l-20.327-7.398a7.5 7.5 0 0 1-4.482-9.613 7.498 7.498 0 0 1 9.613-4.483l20.327 7.398a7.5 7.5 0 0 1-2.567 14.55zM424.207 194.488h-21.632c-4.143 0-7.5-3.358-7.5-7.5s3.357-7.5 7.5-7.5h21.632c4.143 0 7.5 3.358 7.5 7.5s-3.357 7.5-7.5 7.5zM283.507 201.265a7.5 7.5 0 0 1-7.395-8.803l2.102-11.917a7.5 7.5 0 1 1 14.771 2.604l-2.102 11.917a7.5 7.5 0 0 1-7.376 6.199zM409.496 223.481a7.5 7.5 0 0 1-7.395-8.803l2.102-11.918a7.5 7.5 0 1 1 14.771 2.604l-2.102 11.918a7.499 7.499 0 0 1-7.376 6.199z"/>
    <path d="M302.213 221.784c-13.083-4.09-27.078-1.63-38.595 5.803-1.795 1.158-3.802 1.806-5.92 1.806s-4.125-.648-5.92-1.807c-11.517-7.433-25.512-9.893-38.595-5.803C152.639 240.712 108.7 297.224 108.7 364.006c0 18.255 3.289 35.74 9.297 51.903h279.402c6.008-16.163 9.297-33.648 9.297-51.903 0-66.782-43.939-123.294-104.483-142.222z" fill="#fdcb89"/>
    <path d="M260.525 389.863c-26.065-18.354-43.097-48.674-43.097-82.975 0-31.429 14.298-59.516 36.742-78.119-.83-.297-1.631-.69-2.392-1.181-11.517-7.433-25.512-9.893-38.595-5.803C152.639 240.712 108.7 297.224 108.7 364.006c0 18.255 3.289 35.74 9.297 51.903h142.528z" fill="#fab658"/>
    <path d="M318.061 368.979c-42.972 0-80.633-34.475-101.996-59.896-13.051-15.529-36.964-15.536-49.95.047-17.216 20.658-27.573 47.229-27.574 76.223-.001 65.9 53.289 119.177 119.189 119.16 65.794-.017 119.126-53.359 119.126-119.158 0-5.079-.321-10.084-.94-14.995-.671-5.324-5.848-8.837-11.027-7.436-14.409 3.899-30.228 6.055-46.828 6.055z" fill="#ffddcf"/>
    <path d="M204.293 385.353c0-24.669 7.503-47.583 20.344-66.594a247.269 247.269 0 0 1-8.572-9.676c-13.051-15.529-36.964-15.536-49.951.047-17.216 20.658-27.573 47.229-27.574 76.223-.001 65.9 53.289 119.177 119.189 119.16a119.234 119.234 0 0 0 32.822-4.589c-49.846-14.253-86.259-60.099-86.258-114.571z" fill="#ffcbbe"/>
    <path d="M196.004 408.485a28.485 28.485 0 0 1-21.474-9.779 7.5 7.5 0 0 1 11.309-9.856c2.566 2.945 6.271 4.635 10.165 4.635s7.6-1.689 10.166-4.635a7.501 7.501 0 0 1 11.309 9.856 28.488 28.488 0 0 1-21.475 9.779zM316.012 408.485a28.486 28.486 0 0 1-21.475-9.779 7.5 7.5 0 0 1 11.309-9.856c2.566 2.945 6.272 4.635 10.166 4.635s7.599-1.689 10.165-4.635a7.501 7.501 0 0 1 11.309 9.856 28.489 28.489 0 0 1-21.474 9.779zM271.297 430.161a7.48 7.48 0 0 1-5.657-2.573 12.775 12.775 0 0 0-9.632-4.391 12.78 12.78 0 0 0-9.632 4.391 7.5 7.5 0 0 1-11.309-9.855c5.281-6.061 12.914-9.537 20.94-9.537s15.659 3.476 20.94 9.537a7.5 7.5 0 0 1-.727 10.582 7.466 7.466 0 0 1-4.923 1.846z"/>
    <path d="m343.343 270.417 12.649 6.577c6.646 3.455 14.498 3.525 21.289.363 11.37-5.293 24.035-8.269 37.392-8.317 49.324-.177 89.788 40.095 89.835 89.419.047 49.501-40.09 89.639-89.592 89.593-49.325-.046-89.597-40.509-89.421-89.834.048-13.357 3.024-26.023 8.317-37.393 3.161-6.791 3.092-14.643-.363-21.289l-6.577-12.649a12.212 12.212 0 0 1 16.471-16.47zM168.786 270.417l-12.649 6.577c-6.646 3.455-14.498 3.525-21.289.363-11.37-5.293-24.035-8.269-37.392-8.317-49.324-.177-89.788 40.095-89.835 89.419-.047 49.501 40.09 89.639 89.592 89.593 49.325-.046 89.597-40.509 89.421-89.834-.048-13.357-3.024-26.023-8.317-37.393-3.161-6.791-3.092-14.643.363-21.289l6.577-12.649a12.212 12.212 0 0 0-16.471-16.47z" fill="#e9efff"/>
    <path d="M73.312 358.459c.036-37.654 23.626-70.029 56.73-83.164a89.212 89.212 0 0 0-32.587-6.255c-49.324-.177-89.788 40.095-89.835 89.419-.047 49.501 40.09 89.639 89.592 89.593a88.703 88.703 0 0 0 32.688-6.249c-33.169-13.125-56.624-45.497-56.588-83.344zM390.008 358.386c0-37.927 23.547-70.353 56.819-83.459a88.708 88.708 0 0 0-32.154-5.887c-13.357.048-26.022 3.024-37.392 8.317-6.791 3.161-14.643 3.092-21.289-.363l-12.649-6.577a12.214 12.214 0 0 0-16.471 16.47l6.577 12.649c3.456 6.646 3.525 14.498.363 21.289-5.293 11.37-8.269 24.036-8.317 37.393-.177 49.324 40.096 89.788 89.421 89.834 11.429.011 22.356-2.125 32.407-6.019-33.532-12.978-57.315-45.533-57.315-83.647z" fill="#d3dcfb"/>
    <path d="M483.365 289.875c-11.265-11.213-24.752-19.325-39.433-23.926a125.045 125.045 0 0 0 12.573-16.166 39.23 39.23 0 0 0 5.55 1.41c2.281.402 4.566.601 6.836.601 7.905 0 15.61-2.414 22.221-7.043 8.509-5.958 14.188-14.872 15.991-25.101a38.632 38.632 0 0 0-1.509-19.32 158.91 158.91 0 0 0 4.006-17.05c8.131-46.108-4.597-93.048-34.918-128.786a7.5 7.5 0 1 0-11.437 9.704c27.425 32.324 38.937 74.778 31.584 116.477-.168.954-.362 1.905-.55 2.857a38.644 38.644 0 0 0-18.719-8.93c-.362-.064-.727-.117-1.091-.171-3.261-6.598-9.595-11.435-17.365-12.488-10.418-1.413-24.117-9.97-36.646-22.893a15.666 15.666 0 0 0-13.649-4.576 15.374 15.374 0 0 0-11.393 8.34c-.902 1.82-2.036 3.192-3.467 4.194-10.705 7.496-38.989-7.416-60.817-38.589-3.86-5.514-7.305-11.222-10.239-16.964-2.624-5.134-7.391-8.654-13.077-9.658-5.688-1.001-11.371.674-15.594 4.602-4.726 4.396-9.915 8.581-15.424 12.438-6.435 4.506-13.098 8.425-19.803 11.649-9.611 4.621-17.51 12.333-22.385 21.654a38.636 38.636 0 0 0-19.691 2.134c.149-.959.292-1.92.461-2.874 10.836-61.452 59.66-108.107 121.494-116.095 10.986-1.418 22.301 2.412 31.035 10.511 2.662 2.469 5.888 4.094 9.326 4.7 3.444.61 7.029.183 10.375-1.227 10.978-4.623 22.916-4.354 32.759.739a141.334 141.334 0 0 1 22.354 14.392 7.498 7.498 0 0 0 10.531-1.26 7.499 7.499 0 0 0-1.26-10.531 156.355 156.355 0 0 0-24.731-15.923c-13.806-7.146-30.382-7.598-45.475-1.241-.7.295-1.337.388-1.946.279-.609-.107-1.177-.411-1.733-.927C366.099 3.683 350.372-1.562 334.951.43c-29.179 3.77-57.233 16.055-80.003 34.877-16.34-13.196-32.073-19.172-42.79-21.852a13.492 13.492 0 0 0-12.515 3.234 13.743 13.743 0 0 0-1.709 1.919c-6.646-4.588-16.209-9.803-28.939-13.513a13.642 13.642 0 0 0-15.716 6.403c-4.585-3.829-10.075-7.522-16.445-10.339a13.443 13.443 0 0 0-14.799 2.609c-5.023 4.826-8.918 10.173-11.917 15.34a13.644 13.644 0 0 0-16.96-.642c-10.692 7.839-17.895 16.01-22.572 22.595a13.684 13.684 0 0 0-2.259-1.218 13.495 13.495 0 0 0-12.869 1.239C35.373 54.655-9.477 96.644 4.894 194.365c-4.34 7.87-5.863 16.912-4.28 25.888 3.378 19.156 20.098 32.672 38.912 32.672a39.695 39.695 0 0 0 14.386-2.706 129.186 129.186 0 0 0 13.082 16.112c-14.216 4.662-27.275 12.639-38.231 23.545C10.318 308.238.145 332.592.12 358.452c-.032 34.104 17.339 65.099 46.467 82.909 3.531 2.162 8.149 1.048 10.311-2.486a7.5 7.5 0 0 0-2.486-10.311c-24.63-15.061-39.318-41.266-39.291-70.098.021-21.846 8.624-42.43 24.226-57.96 15.604-15.533 36.22-24.09 58.082-23.966 11.966.043 23.49 2.605 34.255 7.616 9.034 4.205 19.206 4.019 27.914-.509l12.649-6.577a4.693 4.693 0 0 1 5.507.851 4.693 4.693 0 0 1 .849 5.506l-6.576 12.649c-4.527 8.708-4.713 18.882-.509 27.914 5.011 10.764 7.573 22.289 7.616 34.255.078 21.851-8.434 42.479-23.967 58.082-15.53 15.601-36.115 24.204-57.961 24.225h-.077a82.687 82.687 0 0 1-16.822-1.725 7.5 7.5 0 0 0-3.061 14.684 97.683 97.683 0 0 0 19.883 2.041h.091c16.948-.016 33.248-4.39 47.64-12.596 21.522 42.175 65.041 69.056 112.84 69.056h.033c47.041-.013 90.271-26.361 112.055-67.676 13.763 7.312 29.155 11.2 45.123 11.215h.094c25.911 0 50.269-10.088 68.593-28.413 18.347-18.347 28.437-42.741 28.412-68.688-.026-25.858-10.199-50.212-28.645-68.575zm8.966-72.829a23.73 23.73 0 0 1-9.823 15.418c-5.226 3.66-11.566 5.064-17.848 3.957-.173-.03-.341-.078-.512-.112 5.103-10.477 8.773-21.71 10.856-33.527.727-4.121 1.246-8.3 1.564-12.474 10.926 3.746 17.83 15.013 15.763 26.738zm-228.837-93.04c7.437-3.576 14.807-7.909 21.906-12.88 6.075-4.254 11.807-8.878 17.037-13.744 1.025-.952 2.178-.917 2.771-.812.596.105 1.689.467 2.325 1.711 3.248 6.357 7.053 12.663 11.31 18.742 11.962 17.084 26.485 30.995 40.895 39.17 16.117 9.145 30.61 10.247 40.814 3.103 3.492-2.446 6.285-5.75 8.302-9.818.037-.074.075-.152.268-.182a.618.618 0 0 1 .566.197c15.011 15.482 31.559 25.438 45.399 27.315 4.015.544 6.925 4.056 6.77 8.167a112.579 112.579 0 0 1-1.625 15.203c-4.25 24.104-15.904 45.489-33.726 62.043a97.823 97.823 0 0 0-11.505-.682h-.354c-11.627.042-22.905 2.102-33.628 6.125-19.506-24.898-46.495-43.637-76.568-53.039-14.808-4.63-31.172-2.201-44.9 6.66-1.268.818-2.438.818-3.706 0a57.106 57.106 0 0 0-10.538-5.353 110.532 110.532 0 0 1-4.125-54.171 112.004 112.004 0 0 1 4.915-18.59c2.981-8.296 9.323-15.282 17.397-19.165zm-58.208 42.426c2.067-11.724 12.409-19.95 23.957-19.734a127.488 127.488 0 0 0-2.838 12.487 125.471 125.471 0 0 0-1.121 35.002c-.207-.031-.415-.047-.622-.084-12.97-2.287-21.662-14.7-19.376-27.671zM62.028 54.787l.642 3.639c.587 3.331 3.34 5.833 6.707 6.143 3.367.319 6.534-1.695 7.72-4.863.054-.145 5.404-14.049 22.88-27.595l.7 13.024a7.499 7.499 0 0 0 7.044 7.084c3.798.212 7.179-2.441 7.834-6.199.031-.18 3.223-17.775 16.144-30.718 16.417 7.68 25.594 23.203 25.676 23.344a7.501 7.501 0 0 0 13.678-5.92l-3.797-12.478C188.31 27 198.092 38.235 198.162 38.317a7.5 7.5 0 0 0 13.15-6.102l-.641-3.635c7.611 2.146 19.966 6.88 33.055 16.971-13.953 14.023-24.955 30.299-32.656 48.18a49.692 49.692 0 0 0-14.791 9.63c-11.605 10.898-27.667 18.605-45.228 21.701-17.557 3.096-35.283 1.348-49.915-4.921-11.802-5.057-24.891-5.404-36.854-.977-10.226 3.784-17.093 13.385-17.499 24.551-.382 10.012-3.519 19.541-8.833 26.832a30.579 30.579 0 0 0-2.202 3.506c-1.026.1-2.05.226-3.066.405a39.46 39.46 0 0 0-14.447 5.612C10.504 102.253 44.459 67.382 62.028 54.787zM43.806 237.548c-13.323 2.354-26.07-6.578-28.42-19.899-1.138-6.454.306-12.963 4.063-18.331 3.113-4.446 7.508-7.662 12.591-9.284.031.937.1 1.878.213 2.821a128.087 128.087 0 0 0 13.736 44.203 25.1 25.1 0 0 1-2.183.49zm53.321 23.991a97.53 97.53 0 0 0-12.634.824c-19.348-17.229-32.314-40.553-36.587-66.021a113.38 113.38 0 0 1-.76-5.277c-.511-4.245.528-8.395 2.926-11.685 7.051-9.673 11.205-22.137 11.7-35.107l.004-.104c.181-4.979 3.208-9.272 7.711-10.938 8.345-3.087 17.487-2.842 25.74.697 17.283 7.405 38.035 9.502 58.429 5.906 18.725-3.302 36.076-11.225 49.402-22.457a160.532 160.532 0 0 0-2.451 11.42 158.873 158.873 0 0 0-2.067 17.394 38.621 38.621 0 0 0-8.025 17.636c-3.724 21.116 10.427 41.324 31.543 45.048 1.936.341 3.883.527 5.83.575.231.985.463 1.969.719 2.949-5.959-.288-11.927.434-17.662 2.226-30.5 9.535-57.756 28.619-77.33 54.019-11.466-4.669-23.597-7.06-36.132-7.105h-.356zm68.199 2.223-12.649 6.576c-.546.284-1.104.531-1.671.749 17.148-19.626 39.594-34.386 64.415-42.145 10.541-3.295 22.312-1.493 32.289 4.946 3.046 1.966 6.5 3.005 9.988 3.005s6.941-1.039 9.987-3.005c9.977-6.44 21.746-8.242 32.289-4.946 25.201 7.878 48.013 23.013 65.263 43.119a16.143 16.143 0 0 1-5.785-1.723l-12.649-6.576a19.64 19.64 0 0 0-23.034 3.551 19.638 19.638 0 0 0-3.551 23.033l6.576 12.65c2.362 4.542 2.442 9.887.219 14.664-5.933 12.745-8.967 26.382-9.018 40.531a97.138 97.138 0 0 0 .05 3.287c-41.901-.009-78.281-35.853-96.238-57.221-7.6-9.042-18.464-14.051-29.7-14.328 3.724-7.584 2.254-16.616-3.747-22.617a19.639 19.639 0 0 0-23.034-3.55zm92.402 233.25h-.029c-42.771 0-81.673-24.407-100.334-62.55a99.193 99.193 0 0 0 8.433-7.553c18.365-18.448 28.429-42.853 28.336-68.718-.051-14.151-3.085-27.788-9.017-40.531-1.764-3.788-2.054-7.928-.931-11.748a25.036 25.036 0 0 1 26.138 7.995c19.638 23.368 59.749 62.571 107.737 62.571.531 0 1.064-.012 1.597-.016 3.549 18.941 12.708 36.417 26.674 50.447a99.166 99.166 0 0 0 10.756 9.356c-19.019 37.048-57.479 60.736-99.36 60.747zm215.261-80.48c-15.492 15.492-36.081 24.02-57.987 24.02h-.079c-21.846-.021-42.43-8.624-57.961-24.225-15.533-15.604-24.045-36.231-23.967-58.082.043-11.965 2.605-23.49 7.617-34.255 4.204-9.032 4.019-19.207-.51-27.914l-6.576-12.65a4.695 4.695 0 0 1 .85-5.507 4.694 4.694 0 0 1 5.507-.848l12.649 6.576c8.709 4.528 18.884 4.713 27.914.509 10.764-5.011 22.288-7.573 34.254-7.616h.299c21.74 0 42.251 8.504 57.783 23.966 15.602 15.531 24.205 36.115 24.226 57.96.02 21.935-8.51 42.557-24.019 58.066z"/>
    <path d="M450.53 338.033a7.5 7.5 0 0 0-10.245-2.745l-17.784 10.268V325.02c0-4.142-3.357-7.5-7.5-7.5s-7.5 3.358-7.5 7.5v20.535l-17.783-10.267a7.5 7.5 0 0 0-7.5 12.99l17.784 10.268-17.784 10.268a7.5 7.5 0 0 0 7.5 12.99l17.783-10.267v20.535c0 4.142 3.357 7.5 7.5 7.5s7.5-3.358 7.5-7.5v-20.535l17.784 10.268a7.499 7.499 0 0 0 10.245-2.745 7.5 7.5 0 0 0-2.745-10.245l-17.784-10.268 17.784-10.268a7.5 7.5 0 0 0 2.745-10.246zM74.903 399.183c3.479 0 6.6-2.435 7.335-5.975l2.625-12.629h11.248l-1.991 9.577a7.5 7.5 0 0 0 14.685 3.053l2.625-12.629h6.406c4.143 0 7.5-3.358 7.5-7.5s-3.357-7.5-7.5-7.5h-3.288l3-14.431h5.004c4.143 0 7.5-3.358 7.5-7.5s-3.357-7.5-7.5-7.5h-1.886l1.915-9.211a7.5 7.5 0 0 0-14.685-3.053l-2.549 12.264H94.1l1.915-9.211a7.5 7.5 0 1 0-14.685-3.053l-2.549 12.264h-6.364c-4.143 0-7.5 3.358-7.5 7.5s3.357 7.5 7.5 7.5h3.246l-3 14.431H67.7c-4.143 0-7.5 3.358-7.5 7.5s3.357 7.5 7.5 7.5h1.843l-1.991 9.577a7.5 7.5 0 0 0 7.351 9.026zm16.079-48.036h11.248l-3 14.431H87.982z"/>
</svg>
