<svg xmlns="http://www.w3.org/2000/svg" width="512" height="512" viewBox="0 0 60 60">
    <g fill-rule="nonzero" fill="none">
        <path d="M55.79 26.57c-.133.28-.263.58-.39.9l-4.69 11.32-1.51-2.17L45.28 31l2.73-6.6c.12-.3.24-.59.34-.86l5.37 2.19 2.07.84Z" fill="#C81E1E"/>
        <path d="M53.72 25.73c-.11.23-.21.48-.32.74l-4.2 10.15L45.28 31l2.73-6.6c.12-.3.24-.59.34-.86l5.37 2.19Z" fill="#F44335"/>
        <path d="M40.72 23.09c-.1 2-.31 4-.61 6l-6.98 1.13c-.01-.11-.01-.21-.02-.32-.12-2.384-.07-4.773.15-7.15 0-.04.01-.08.01-.12v-.01l7.45.47Z" fill="#0377BC"/>
        <path d="M38.72 23.09c-.1 2-.31 4-.61 6l-5 .81c-.12-2.384-.07-4.773.15-7.15l5.46.34Z" fill="#02A9F4"/>
        <path d="M21.75 19.31c-.196.05-.4.06-.6.03-2.7-.31-5.15-6.66-5.15-6.66l.19-5.12c.44.16.67-.72.93-1.62.23-.8.48-1.63.92-1.73.94-.22 2.7 2.78 3.31 2.14l2.44 4.5s.88 7.78-2.04 8.46Z" fill="#DFC49C"/>
        <path d="M21.15 19.34c-2.7-.31-5.15-6.66-5.15-6.66l.19-5.12c.44.16.67-.72.93-1.62.87.77 1.85 2.07 2.27 1.63l2.44 4.5s.56 4.91-.68 7.27Z" fill="#FFE0B2"/>
        <path d="M29.05 33.34 27 40l-.56-.48-1.81-1.57-3.4-2.95-4.74-20.22-.49-2.1a5.075 5.075 0 0 0 2.16 1.81 3.859 3.859 0 0 0 2.42.19c.355-.082.698-.21 1.02-.38a4.709 4.709 0 0 0 2.19-3.45l5.26 22.49Z" fill="#C81E1E"/>
        <path d="m26.05 33.34-1.42 4.61-3.4-2.95-4.74-20.22a3.818 3.818 0 0 0 1.67-.29 3.859 3.859 0 0 0 2.42.19c.355-.082.698-.21 1.02-.38l4.45 19.04Z" fill="#F44335"/>
        <path d="M17.08 35.57 17 48l-2.99-1.11-4.9-1.81-7.98-19.25a1 1 0 0 1 .54-1.31l5.99-2.48 2.33-.96a1.008 1.008 0 0 1 1.31.54l.76 1.85.38.92.38.92.77 1.85.38.92.39.93.76 1.85.38.92.38.92 1.16 2.78.04.09Z" fill="#FEC108"/>
        <path d="m14.08 36.57-.07 10.32-4.9-1.81-7.98-19.25a1 1 0 0 1 .54-1.31l5.99-2.48a1.1 1.1 0 0 1 .64.58l.76 1.85.38.92.38.92.77 1.85.38.92.39.93.76 1.85.38.92.38.92 1.16 2.78.04.09Z" fill="#FFDC00"/>
        <path d="M59 52a7 7 0 0 1-7 7H8a7 7 0 0 1-1.49-13.84h.01c.16-.042.325-.069.49-.08.327-.057.658-.084.99-.08a6.908 6.908 0 0 1 2 .29A10.5 10.5 0 0 1 20.5 35c1.34-.002 2.668.256 3.91.76.851.341 1.655.791 2.39 1.34a12.512 12.512 0 0 1 10.23-8.01c.488-.06.979-.09 1.47-.09a12.514 12.514 0 0 1 11.96 16.15c-.01.01-.01.01-.01.02.02 0 .03-.01.05-.01A7.41 7.41 0 0 1 52 45a7 7 0 0 1 7 7Z" fill="#CFD8DC"/>
        <path d="M56 52a7 7 0 0 1-7 7H8a7 7 0 0 1-1.49-13.84h.01c.16.04.32.08.48.13-.002-.07.002-.14.01-.21.327-.057.658-.084.99-.08a6.908 6.908 0 0 1 2 .29 10.5 10.5 0 0 1 8.99-10.18c1.79.25 3.419-.19 4.8.84.17-.46.381.24.621-.19.851.341 1.654.791 2.389 1.34a12.512 12.512 0 0 1 10.23-8.01c6.263.78 10.965 6.1 10.97 12.41a12.348 12.348 0 0 1-.55 3.67 7.217 7.217 0 0 1 3.01-.02A7 7 0 0 1 56 52Z" fill="#F5F5F5"/>
        <path d="M21.35 6.35a5.069 5.069 0 0 1-2.37 1.52 5.075 5.075 0 0 1-2.79-.31l.19-5.28c.02-.588.429-1.09 1-1.23.095-.02.193-.03.29-.03.484-.001.93.264 1.16.69l2.52 4.64Z" fill="#37474F"/>
        <path d="M40.72 23.09c-.918.078-1.84.091-2.76.04-1.68-.07-3.22-.32-4.69-.51.15-1.59.36-3.16.61-4.73.01-.04.01-.08.02-.12 2.25.14 4.52.28 6.83.42a44.5 44.5 0 0 1-.01 4.9Z" fill="#707070"/>
        <path d="M38.72 23.09c-.26.02-.51.04-.76.04-1.68-.07-3.22-.32-4.69-.51.15-1.59.36-3.16.61-4.73 1.6.1 3.21.2 4.85.3a44.5 44.5 0 0 1-.01 4.9Z" fill="#9E9E9E"/>
        <path d="m40.68 18.19-2.86-.18-3.92-.24s-4.02-3.65-.37-7.67c2.21-2.43 3.45-4.31 3.92-5.98a5.51 5.51 0 0 0 .24-1.81.491.491 0 0 1 .84-.37c2.46 2.41 8.02 9.14 2.15 16.25Z" fill="#624421"/>
        <path d="m37.82 18.01-3.92-.24s-4.02-3.65-.37-7.67c2.21-2.43 3.45-4.31 3.92-5.98 2.41 3.18 4.76 8.41.37 13.89Z" fill="#825A2C"/>
        <path d="M58.94 21.11a.524.524 0 0 1-.12.45 17.876 17.876 0 0 0-3.03 5.01 3.458 3.458 0 0 1-1.18.57c-.836.231-1.72.22-2.55-.03-.25-.06-.494-.14-.73-.24-.01 0-.01-.01-.02-.01a4.9 4.9 0 0 1-2.53-2.14 3.538 3.538 0 0 1-.43-1.18 18.318 18.318 0 0 0 1.41-5.73.494.494 0 0 1 .24-.4l4.77-2.98.84-.52 1.45-.91.39 1.67 1.49 6.44Z" fill="#FEC108"/>
        <path d="M56.32 21.11a.6.6 0 0 1-.12.45 17.539 17.539 0 0 0-3.04 5.01c-.33.246-.703.43-1.1.54-.25-.06-.494-.14-.73-.24-.01 0-.01-.01-.02-.01a4.9 4.9 0 0 1-2.53-2.14 3.538 3.538 0 0 1-.43-1.18 18.318 18.318 0 0 0 1.41-5.73.494.494 0 0 1 .24-.4l4.77-2.98.06.24 1.49 6.44Z" fill="#FFDC00"/>
        <path d="M52 60H8a8 8 0 1 1 1.086-15.927A11.569 11.569 0 0 1 20.5 34c2.06-.004 4.084.549 5.856 1.6A13.5 13.5 0 0 1 51.768 44 8 8 0 1 1 52 60ZM8 46a6 6 0 1 0 0 12h44a6 6 0 1 0 0-12c-.449 0-.897.05-1.335.146a1 1 0 0 1-1.17-1.272 11.5 11.5 0 0 0-21.759-7.422 1 1 0 0 1-1.533.45A9.5 9.5 0 0 0 11 45.309a1 1 0 0 1-1.289.939A5.891 5.891 0 0 0 8 46Z" fill="#000"/>
        <path d="M9.11 46.081a1 1 0 0 1-.924-.618l-7.98-19.25A2.006 2.006 0 0 1 1.289 23.6l8.319-3.439a2.021 2.021 0 0 1 2.61 1.069l5.745 13.87a1.042 1.042 0 0 1-.507 1.347.958.958 0 0 1-1.289-.466l-.041-.09L10.375 22l-8.323 3.444L10.034 44.7a1 1 0 0 1-.924 1.384v-.003Z" fill="#000"/>
        <path d="M7.824 27.3a1 1 0 0 1-.383-1.924l4.619-1.914a1 1 0 1 1 .766 1.848l-4.619 1.917a1.014 1.014 0 0 1-.383.073ZM11.2 30.233a1 1 0 0 1-.384-1.924l2.772-1.148a1 1 0 0 1 .765 1.848l-2.771 1.148c-.121.05-.251.076-.382.076ZM10.886 34.694a1 1 0 0 1-.386-1.924l4.62-1.914a1 1 0 0 1 .765 1.848l-4.619 1.914c-.12.05-.25.075-.38.076ZM21.229 36a1 1 0 0 1-.972-.772l-5.23-22.32a1 1 0 0 1 1.947-.456l5.23 22.32A1 1 0 0 1 21.229 36ZM29.049 34.34a1 1 0 0 1-.973-.773l-5.26-22.489a1 1 0 1 1 1.948-.455l5.259 22.489a1 1 0 0 1-.974 1.228Z" fill="#000"/>
        <path d="M19.617 15.8a5.651 5.651 0 0 1-4.469-2.6 1.016 1.016 0 0 1-.148-.56l.376-10.395a2.309 2.309 0 0 1 4.338-1.016l4.954 9.146a1 1 0 0 1 .117.567c-.014.159-.4 3.877-3.978 4.716a5.2 5.2 0 0 1-1.19.142Zm-2.605-3.426a3.32 3.32 0 0 0 3.339 1.337 3.317 3.317 0 0 0 2.4-2.682l-4.795-8.848a.309.309 0 0 0-.581.136l-.363 10.057ZM53.384 28.3a6.345 6.345 0 0 1-2.447-.516 5.315 5.315 0 0 1-3.545-4.231 1 1 0 1 1 1.994-.143 3.4 3.4 0 0 0 2.314 2.525 3.4 3.4 0 0 0 3.435-.159 1 1 0 0 1 1.4.127.991.991 0 0 1-.1 1.393 4.869 4.869 0 0 1-3.051 1.004Z" fill="#000"/>
        <path d="M18.194 8.956a7 7 0 0 1-2.345-.456 1 1 0 0 1 .677-1.882 4.11 4.11 0 0 0 2.227.278 4.1 4.1 0 0 0 1.873-1.239 1 1 0 1 1 1.443 1.385 5.962 5.962 0 0 1-2.859 1.8 4.456 4.456 0 0 1-1.016.114ZM25.56 36.95a1 1 0 0 1-.973-.772l-2.93-12.5a1 1 0 0 1 1.947-.456l2.93 12.5a1 1 0 0 1-.974 1.228ZM21.491 19.579a1 1 0 0 1-.973-.772l-.913-3.894a1 1 0 0 1 1.948-.456l.912 3.894a1 1 0 0 1-.974 1.228ZM45.279 32a1 1 0 0 1-.924-1.382l2.731-6.6a1 1 0 1 1 1.848.764l-2.73 6.6a1 1 0 0 1-.925.618ZM50.71 39.791a1 1 0 0 1-.924-1.384l4.691-11.32a1 1 0 1 1 1.847.766l-4.69 11.32a1 1 0 0 1-.924.618Z" fill="#000"/>
        <path d="M55.4 28.465a1 1 0 0 1-.923-1.383 21.767 21.767 0 0 1 3.43-6l-1.115-4.813-1.487 3.581a1 1 0 0 1-1.848-.766l2.679-6.467a1 1 0 0 1 1.9.157l1.878 8.11a1.491 1.491 0 0 1-.369 1.365 18.769 18.769 0 0 0-3.222 5.6 1 1 0 0 1-.923.616Z" fill="#000"/>
        <path d="M48.006 25.4a1 1 0 0 1-.924-1.383 18.77 18.77 0 0 0 1.681-6.233c.013-.503.278-.965.706-1.23l7.061-4.407a1 1 0 0 1 1.453 1.232l-2.678 6.471a1 1 0 0 1-1.848-.766l1.484-3.584-4.192 2.616a21.74 21.74 0 0 1-1.819 6.671 1 1 0 0 1-.924.613ZM33.129 31.22a1 1 0 0 1-1-.936 49.347 49.347 0 0 1 .146-7.748c.145-1.579.353-3.191.635-4.926a.984.984 0 0 1 1.049-.838c2.246.14 4.523.28 6.83.418a1 1 0 0 1 .937.944c.17 3.714-.04 7.436-.626 11.107a1 1 0 1 1-1.978-.295 54.3 54.3 0 0 0 .654-9.814l-5.024-.307a71.442 71.442 0 0 0-.478 3.894 47.453 47.453 0 0 0-.141 7.437 1 1 0 0 1-.934 1.062l-.07.002Z" fill="#000"/>
        <path d="M40.674 19.188a1 1 0 0 1-.77-1.637 9.12 9.12 0 0 0 2.326-6.908 13.374 13.374 0 0 0-3.609-7.168c-.32 2.115-1.7 4.368-4.351 7.3a4.26 4.26 0 0 0 .309 6.259 1 1 0 0 1-1.347 1.479 7.813 7.813 0 0 1-1.815-2.7 5.852 5.852 0 0 1 1.371-6.377c3.8-4.2 4.25-6.238 3.735-8.172a1 1 0 0 1 1.585-1.05C38.333.391 43.6 4.6 44.219 10.43a11.042 11.042 0 0 1-2.773 8.4 1 1 0 0 1-.772.358Z" fill="#000"/>
        <path d="M38.685 15.7a1 1 0 0 1-.8-1.6 5.555 5.555 0 0 0 .995-4.17 1 1 0 1 1 1.932-.515 7.5 7.5 0 0 1-1.33 5.888 1 1 0 0 1-.797.397ZM38.377 24.084a28.492 28.492 0 0 1-3.893-.331c-.339-.045-.673-.09-1-.13a1 1 0 1 1 .24-1.986c.338.041.681.087 1.03.134 1.698.293 3.426.372 5.144.235a1 1 0 0 1 .212 1.988c-.576.061-1.154.091-1.733.09ZM25.78 53a1 1 0 0 1-.92-.608A6.072 6.072 0 0 1 24.37 50a6 6 0 0 1 11.43-2.556 1 1 0 0 1-1.81.852A3.96 3.96 0 0 0 30.37 46a4 4 0 0 0-4 4c0 .553.112 1.1.33 1.608A1 1 0 0 1 25.78 53Z" fill="#000"/>
        <path d="M41 50.33a1 1 0 0 1-.91-.585A3 3 0 0 0 37.37 48a2.949 2.949 0 0 0-1.856.652 1 1 0 0 1-1.247-1.564A4.926 4.926 0 0 1 37.37 46a5 5 0 0 1 4.54 2.915A1 1 0 0 1 41 50.33ZM15 45a1 1 0 0 1-1-1c0-3.678 3.533-4.9 3.684-4.949a1.002 1.002 0 0 1 .638 1.9A3.438 3.438 0 0 0 16 44a1 1 0 0 1-1 1ZM32 38a1 1 0 0 1-.971-1.243A6.229 6.229 0 0 1 37 32a1 1 0 0 1 .005 2 4.265 4.265 0 0 0-4.035 3.243A1 1 0 0 1 32 38Z" fill="#000"/>
    </g>
</svg>
