<svg viewBox="0 0 64 64" xmlns="http://www.w3.org/2000/svg">
    <path d="M6 12c0-3.3 2.7-6 6-6h40c3.3 0 6 2.7 6 6v32c0 3.3-2.7 6-6 6H12c-3.3 0-6-2.7-6-6z" fill="#fff200"/>
    <path d="M12 4c-4.4 0-8 3.6-8 8v34c0 4.4 3.6 8 8 8h38v-3h6V24.3c0 11-14.3 20-32 20-8.8 0-16-2.7-16-6V12c0-2.2 1.8-4 4-4h6V4z" fill="#facc2e"/>
    <path clip-rule="evenodd" d="M52 8H16V4h36c4.4 0 8 3.6 8 8v34c0 4.4-3.6 8-8 8h-4v-6h4c2.2 0 4-1.8 4-4V12c0-2.2-1.8-4-4-4z" fill="#314a52" fill-rule="evenodd"/>
    <path d="M18 16c0 2.2-1.8 4-4 4s-4-1.8-4-4 1.8-4 4-4 4 1.8 4 4zm8-4c-2.2 0-4 1.8-4 4s1.8 4 4 4 4-1.8 4-4-1.8-4-4-4zm12 0c-2.2 0-4 1.8-4 4s1.8 4 4 4 4-1.8 4-4-1.8-4-4-4zm12 0c-2.2 0-4 1.8-4 4s1.8 4 4 4 4-1.8 4-4-1.8-4-4-4zM14 24c-2.2 0-4 1.8-4 4s1.8 4 4 4 4-1.8 4-4-1.8-4-4-4zm36 0c-2.2 0-4 1.8-4 4s1.8 4 4 4 4-1.8 4-4-1.8-4-4-4z" fill="#fff"/>
    <path d="M4 44c0 4.4 3.6 8 8 8h40c4.4 0 8-3.6 8-8V24h4v36h-4v-4H4v4H0V24h4zm34-20c-2.2 0-4 1.8-4 4s1.8 4 4 4 4-1.8 4-4-1.8-4-4-4zM26 36c-2.2 0-4 1.8-4 4s1.8 4 4 4 4-1.8 4-4-1.8-4-4-4zm-12 8c2.2 0 4-1.8 4-4s-1.8-4-4-4-4 1.8-4 4 1.8 4 4 4z" fill="#0779e4"/>
    <path d="M42 40c0 2.2-1.8 4-4 4s-4-1.8-4-4 1.8-4 4-4 4 1.8 4 4zm8-4c-2.2 0-4 1.8-4 4s1.8 4 4 4 4-1.8 4-4-1.8-4-4-4zM26 24c-2.2 0-4 1.8-4 4s1.8 4 4 4 4-1.8 4-4-1.8-4-4-4z" fill="#d7385e"/>
</svg>
