<svg height="512" width="512" xmlns="http://www.w3.org/2000/svg">
    <path d="M347.092 389.242H164.908c-13.807 0-25 11.193-25 25s11.193 25 25 25h182.184c13.807 0 25-11.192 25-25 0-13.806-11.193-25-25-25z" fill="#ffbd86"/>
    <path d="M174.821 313.958v97.216c0 44.835 36.344 81.18 81.179 81.18 22.418 0 42.711-9.084 57.402-23.774 14.69-14.69 23.777-34.988 23.777-57.405v-97.216H174.821z" fill="#fed2a4"/>
    <path d="M256.825 240.558c-60.456-.448-109.606 48.425-109.606 108.778v5.545a5.054 5.054 0 0 0 5.054 5.054h39.412c25.537 0 49.443-12.27 64.314-32.824a79.414 79.414 0 0 0 64.314 32.824h39.412a5.054 5.054 0 0 0 5.054-5.054v-4.179c.002-59.982-47.974-109.699-107.954-110.144z" fill="#918291"/>
    <path d="M256.825 240.558c-3.67-.027-7.298.13-10.876.458 55.647 5.118 98.831 52.779 98.831 109.684v4.179a5.054 5.054 0 0 1-5.054 5.054l20 .001a5.054 5.054 0 0 0 5.054-5.054v-4.179c.001-59.981-47.975-109.698-107.955-110.143z" fill="#7a6d79"/>
    <path d="M229.915 48.676V65.15c0 3.926-2.185 7.526-5.668 9.339l-17.693 9.208a10.529 10.529 0 0 0-5.668 9.339v38.772c0 7.421 6.016 13.437 13.436 13.437h15.592v31.309c0 8.497 6.888 15.385 15.385 15.385s15.385-6.888 15.385-15.385v-21.078a2.678 2.678 0 0 1 2.677-2.677h27.827c11.004 0 19.924-8.92 19.924-19.924V48.676z" fill="#fed2a4"/>
    <path d="M291.113 48.676v84.198c0 11.004-8.92 19.925-19.924 19.925h20c11.004 0 19.924-8.92 19.924-19.924V48.676z" fill="#ffbd86"/>
    <path d="M311.113 48.676h-81.198V21.432c0-.986.799-1.785 1.785-1.785h77.629c.986 0 1.785.799 1.785 1.785v27.244z" fill="#62dbfb"/>
    <path d="M309.328 19.648h-20c.986 0 1.785.798 1.785 1.784v27.244h20V21.432c0-.986-.799-1.784-1.785-1.784z" fill="#01d0fb"/>
    <path d="m490.639 155.315-70.319-40.599 13.622-23.593a1.784 1.784 0 0 1 2.438-.653l67.228 38.814a1.784 1.784 0 0 1 .653 2.438z" fill="#5de1c4"/>
    <path d="m21.361 155.315 70.319-40.599-13.621-23.594a1.784 1.784 0 0 0-2.438-.653L8.393 129.283a1.784 1.784 0 0 0-.653 2.438z" fill="#fd8087"/>
    <path d="m420.319 114.716-8.237 14.267a10.528 10.528 0 0 1-9.578 5.254l-19.927-.872a10.528 10.528 0 0 0-9.578 5.254l-19.386 33.578c-3.71 6.427-1.508 14.644 4.918 18.354l13.503 7.796-15.655 27.114c-4.248 7.359-1.727 16.768 5.631 21.016s16.768 1.727 21.016-5.631l10.539-18.254a2.678 2.678 0 0 1 3.657-.98l24.099 13.913c9.529 5.502 21.715 2.237 27.217-7.293l42.1-72.919z" fill="#fed2a4"/>
    <path d="m503.607 129.283-14.632-8.448a1.808 1.808 0 0 1-.23.693l-14.156 24.52 16.05 9.266 13.622-23.594c.492-.853.2-1.944-.654-2.437z" fill="#0ed2b3"/>
    <path d="m474.589 146.048-42.408 73.453c-4.533 7.851-13.535 11.512-21.938 9.628l11.08 6.397c9.529 5.502 21.715 2.237 27.216-7.292l42.1-72.919z" fill="#ffbd86"/>
    <path d="m91.681 114.716 8.237 14.267a10.528 10.528 0 0 0 9.578 5.254l19.927-.872a10.528 10.528 0 0 1 9.578 5.254l19.386 33.578c3.71 6.427 1.508 14.644-4.918 18.354l-13.503 7.796 15.655 27.114c4.248 7.359 1.727 16.768-5.631 21.016s-16.768 1.727-21.016-5.631l-10.539-18.254a2.678 2.678 0 0 0-3.657-.98l-24.099 13.913c-9.529 5.502-21.715 2.237-27.217-7.293l-42.1-72.919z" fill="#fed2a4"/>
    <path d="m66.444 97.859 13.608 23.57 11.629-6.714-13.622-23.593a1.784 1.784 0 0 0-2.438-.653l-11.652 6.727a1.813 1.813 0 0 1 2.475.663z" fill="#fe646f"/>
    <path d="m80.271 121.81 8.362 14.483a10.688 10.688 0 0 0 9.723 5.334l20.228-.885a10.688 10.688 0 0 1 9.723 5.334l19.68 34.086c2.502 4.333 2.342 9.461.051 13.525l5.43-3.135c6.427-3.71 8.628-11.928 4.918-18.354L139 138.619a10.528 10.528 0 0 0-9.578-5.254l-19.927.872a10.528 10.528 0 0 1-9.578-5.254l-8.237-14.267-11.629 6.714z" fill="#ffbd86"/>
    <path d="M214.323 152.745h8.092v23.81c0 12.619 10.266 22.885 22.885 22.885s22.885-10.266 22.885-22.885v-16.256h23.005c15.122 0 27.424-12.302 27.424-27.424v-25.146a7.5 7.5 0 0 0-15 0v25.146c0 6.851-5.573 12.424-12.424 12.424h-27.827c-5.612 0-10.177 4.565-10.177 10.177v21.078c0 4.348-3.537 7.885-7.885 7.885s-7.885-3.537-7.885-7.885v-48.252a7.5 7.5 0 0 0-15 0v9.442h-8.092a5.944 5.944 0 0 1-5.937-5.936V93.036a3.02 3.02 0 0 1 1.63-2.686l17.693-9.209a17.972 17.972 0 0 0 9.705-15.992v-8.974h66.199v16.554a7.5 7.5 0 0 0 15 0V21.431c0-5.12-4.165-9.285-9.285-9.285h-77.63c-5.12 0-9.285 4.165-9.285 9.285v43.717a3.02 3.02 0 0 1-1.63 2.687l-17.693 9.209a17.97 17.97 0 0 0-9.706 15.992v38.773c.001 11.543 9.393 20.936 20.938 20.936zm89.291-125.598v14.028h-66.199V27.147zM507.359 122.788l-67.23-38.815c-4.433-2.557-10.121-1.034-12.683 3.399l-21.859 37.861a3.024 3.024 0 0 1-2.754 1.511l-19.926-.872a17.996 17.996 0 0 0-16.401 8.997l-19.386 33.578c-5.772 9.998-2.335 22.827 7.663 28.6l7.008 4.046-11.905 20.62c-6.31 10.928-2.552 24.952 8.377 31.261 10.973 6.336 24.951 2.556 31.261-8.377l8.128-14.077 19.922 11.502c13.095 7.561 29.901 3.058 37.462-10.038l55.722-96.513c2.56-4.435 1.034-10.124-3.399-12.683zM437.58 99.821l57.33 33.099-7.014 12.149-57.33-33.099zm4.466 124.663a12.341 12.341 0 0 1-7.544 5.789 12.352 12.352 0 0 1-9.428-1.241l-24.099-13.914c-4.861-2.806-11.096-1.134-13.902 3.726l-10.54 18.255a7.881 7.881 0 0 1-10.771 2.886c-3.765-2.174-5.06-7.006-2.886-10.771l24.126-41.787a7.5 7.5 0 0 0-12.99-7.5l-4.721 8.177-7.008-4.046a5.943 5.943 0 0 1-2.173-8.109l19.386-33.578a3.019 3.019 0 0 1 2.756-1.511l19.926.872a17.99 17.99 0 0 0 16.401-8.997l4.487-7.772 57.33 33.099zM153.737 252.973c10.928-6.31 14.686-20.334 8.377-31.261l-11.905-20.62 7.008-4.046c9.998-5.773 13.435-18.602 7.663-28.6l-19.386-33.578a17.968 17.968 0 0 0-16.401-8.996l-19.927.872a3.016 3.016 0 0 1-2.754-1.511L84.552 87.37c-2.56-4.431-8.249-5.956-12.682-3.396L4.641 122.787c-4.434 2.56-5.959 8.249-3.399 12.684l55.722 96.513c7.561 13.096 24.366 17.598 37.462 10.038l19.922-11.502 8.128 14.077c6.309 10.929 20.284 14.714 31.261 8.376zM74.42 99.821l7.014 12.149-57.33 33.099-7.014-12.149zm41.676 113.935c-1.725 0-3.473.438-5.071 1.361l-24.099 13.914a12.35 12.35 0 0 1-9.428 1.241 12.341 12.341 0 0 1-7.544-5.789L31.605 158.06l57.33-33.099 4.486 7.771a17.985 17.985 0 0 0 16.401 8.997l19.927-.872a3.011 3.011 0 0 1 2.755 1.511l19.386 33.578a5.942 5.942 0 0 1-2.173 8.109l-7.008 4.046-4.721-8.177a7.5 7.5 0 0 0-12.99 7.5l24.126 41.787c2.174 3.765.879 8.597-2.886 10.771a7.88 7.88 0 0 1-10.771-2.886l-10.539-18.255a10.187 10.187 0 0 0-8.832-5.085z"/>
    <path d="M214.323 152.745h8.092v23.81c0 12.619 10.266 22.885 22.885 22.885s22.885-10.266 22.885-22.885v-16.256h23.005c15.122 0 27.424-12.302 27.424-27.424v-25.146a7.5 7.5 0 0 0-15 0v25.146c0 6.851-5.573 12.424-12.424 12.424h-27.827c-5.612 0-10.177 4.565-10.177 10.177v21.078c0 4.348-3.537 7.885-7.885 7.885s-7.885-3.537-7.885-7.885v-48.252a7.5 7.5 0 0 0-15 0v9.442h-8.092a5.944 5.944 0 0 1-5.937-5.936V93.036a3.02 3.02 0 0 1 1.63-2.686l17.693-9.209a17.972 17.972 0 0 0 9.705-15.992v-8.974h66.199v16.554a7.5 7.5 0 0 0 15 0V21.431c0-5.12-4.165-9.285-9.285-9.285h-77.63c-5.12 0-9.285 4.165-9.285 9.285v43.717a3.02 3.02 0 0 1-1.63 2.687l-17.693 9.209a17.97 17.97 0 0 0-9.706 15.992v38.773c.001 11.543 9.393 20.936 20.938 20.936zm89.291-125.598v14.028h-66.199V27.147zM507.359 122.788l-67.23-38.815c-4.433-2.557-10.121-1.034-12.683 3.399l-21.859 37.861a3.024 3.024 0 0 1-2.754 1.511l-19.926-.872a17.996 17.996 0 0 0-16.401 8.997l-19.386 33.578c-5.772 9.998-2.335 22.827 7.663 28.6l7.008 4.046-11.905 20.62c-6.31 10.928-2.552 24.952 8.377 31.261 10.973 6.336 24.951 2.556 31.261-8.377l8.128-14.077 19.922 11.502c13.095 7.561 29.901 3.058 37.462-10.038l55.722-96.513c2.56-4.435 1.034-10.124-3.399-12.683zM437.58 99.821l57.33 33.099-7.014 12.149-57.33-33.099zm4.466 124.663a12.341 12.341 0 0 1-7.544 5.789 12.352 12.352 0 0 1-9.428-1.241l-24.099-13.914c-4.861-2.806-11.096-1.134-13.902 3.726l-10.54 18.255a7.881 7.881 0 0 1-10.771 2.886c-3.765-2.174-5.06-7.006-2.886-10.771l24.126-41.787a7.5 7.5 0 0 0-12.99-7.5l-4.721 8.177-7.008-4.046a5.943 5.943 0 0 1-2.173-8.109l19.386-33.578a3.019 3.019 0 0 1 2.756-1.511l19.926.872a17.99 17.99 0 0 0 16.401-8.997l4.487-7.772 57.33 33.099zM153.737 252.973c10.928-6.31 14.686-20.334 8.377-31.261l-11.905-20.62 7.008-4.046c9.998-5.773 13.435-18.602 7.663-28.6l-19.386-33.578a17.968 17.968 0 0 0-16.401-8.996l-19.927.872a3.016 3.016 0 0 1-2.754-1.511L84.552 87.37c-2.56-4.431-8.249-5.956-12.682-3.396L4.641 122.787c-4.434 2.56-5.959 8.249-3.399 12.684l55.722 96.513c7.561 13.096 24.366 17.598 37.462 10.038l19.922-11.502 8.128 14.077c6.309 10.929 20.284 14.714 31.261 8.376zM74.42 99.821l7.014 12.149-57.33 33.099-7.014-12.149zm41.676 113.935c-1.725 0-3.473.438-5.071 1.361l-24.099 13.914a12.35 12.35 0 0 1-9.428 1.241 12.341 12.341 0 0 1-7.544-5.789L31.605 158.06l57.33-33.099 4.486 7.771a17.985 17.985 0 0 0 16.401 8.997l19.927-.872a3.011 3.011 0 0 1 2.755 1.511l19.386 33.578a5.942 5.942 0 0 1-2.173 8.109l-7.008 4.046-4.721-8.177a7.5 7.5 0 0 0-12.99 7.5l24.126 41.787c2.174 3.765.879 8.597-2.886 10.771a7.88 7.88 0 0 1-10.771-2.886l-10.539-18.255a10.187 10.187 0 0 0-8.832-5.085zM347.09 381.74h-2.411v-14.306h15.047c6.922 0 12.554-5.631 12.554-12.554v-4.179c0-64.396-51.768-117.171-115.4-117.643-.297-.002-.591-.003-.888-.003-30.901 0-59.961 11.966-81.909 33.752-39.163 38.874-33.893 85.519-34.365 88.073 0 6.922 5.632 12.554 12.554 12.554h15.047v14.306h-2.411c-17.92 0-32.5 14.58-32.5 32.5s14.58 32.5 32.5 32.5h9.827a88.787 88.787 0 0 0 10.294 17.622c2.498 3.33 7.202 3.973 10.5 1.499a7.5 7.5 0 0 0 1.499-10.5c-9.414-12.55-14.708-27.864-14.708-44.188v-43.739c3.578-.654 43.018 5.247 73.681-28.452 30.516 33.521 70.382 27.849 73.677 28.452v43.739c0 19.986-7.936 38.457-21.581 52.102-13.915 13.915-32.417 21.578-52.099 21.578-12.258 0-24.404-3.072-35.125-8.885a7.5 7.5 0 0 0-10.168 3.019 7.5 7.5 0 0 0 3.019 10.168c12.91 6.999 27.528 10.698 42.275 10.698 23.688 0 45.958-9.223 62.705-25.971a88.582 88.582 0 0 0 18.554-27.142h9.831c17.92 0 32.5-14.58 32.5-32.5s-14.579-32.5-32.499-32.5zm-182.18 50c-9.649 0-17.5-7.851-17.5-17.5s7.851-17.5 17.5-17.5h2.411v14.433c0 7.015.816 13.9 2.393 20.567zm97.165-109.028c-2.991-4.13-9.158-4.134-12.151.002-13.465 18.61-35.236 29.72-58.238 29.72H154.72c.322-1.69-3.628-41.67 29.932-74.981 19.3-19.157 44.874-29.621 72.118-29.395 55.422.411 100.511 46.457 100.511 102.643v1.733h-36.966c-22.991 0-44.763-11.111-58.24-29.722zM347.09 431.74h-4.815a89.311 89.311 0 0 0 2.404-20.567V396.74h2.411c9.649 0 17.5 7.851 17.5 17.5s-7.851 17.5-17.5 17.5z"/>
    <path d="M229.353 447.635a7.5 7.5 0 0 0 13.357 6.827c2.172-4.25 7.123-8.538 13.286-8.538 6.169 0 11.123 4.288 13.295 8.538a7.5 7.5 0 0 0 13.357-6.827c-5.189-10.151-15.65-16.711-26.652-16.711-10.996.001-21.454 6.56-26.643 16.711zM236.995 400.52a7.5 7.5 0 0 0-11.934-9.088c-.443.582-2.413 1.857-5.379 1.857-2.962 0-4.93-1.275-5.374-1.857a7.501 7.501 0 0 0-11.934 9.088c3.649 4.792 10.281 7.77 17.307 7.77 7.03-.001 13.664-2.978 17.314-7.77zM292.313 408.289c7.029 0 13.663-2.977 17.312-7.77a7.5 7.5 0 0 0-11.934-9.088c-.443.582-2.413 1.857-5.379 1.857-2.962 0-4.931-1.275-5.374-1.857a7.501 7.501 0 0 0-11.934 9.088c3.651 4.793 10.283 7.77 17.309 7.77z"/>
</svg>
