<svg height="512" width="512" xmlns="http://www.w3.org/2000/svg" data-name="Layer 1">
    <path d="m82.902 221.727 15.816 27.751-28.573 80.019-19.612-6.246z" fill="#deac7a" fill-rule="evenodd"/>
    <path d="m88.141 230.919 10.577 18.559-28.573 80.019-12.16-3.872 1.461-4.587z" fill="#edbb8a" fill-rule="evenodd"/>
    <path d="m122.296 224.745 20.21-63.652 85.821-10.447-1.339-18.886-101.771 10.796c-11.126 1.18-20.001 8.398-23.365 19.069L87.149 208.26l-4.245 13.467c-1.679 5.999-.969 11.765 2.115 17.177 3.085 5.412 7.684 8.962 13.701 10.574l31.944 8.56-14.438 53.883 19.282 5.167 14.996-55.965a19.354 19.354 0 0 0-12.135-23.261l-11.691-4.232a7.148 7.148 0 0 1-4.38-8.885z" fill="#edbb8a" fill-rule="evenodd"/>
    <path d="m122.296 224.745 20.21-63.652 85.821-10.447-1.339-18.886-101.771 10.796c-3.469.368-6.719 1.323-9.651 2.786a26.782 26.782 0 0 0-1.581 3.918l-19.273 61.027-4.245 13.467c-1.68 5.999-.97 11.765 2.115 17.177 3.084 5.411 7.682 8.96 13.697 10.573h.004l24.382 6.534 7.562 2.026-14.438 53.883 11.719 3.14 14.996-55.965a19.354 19.354 0 0 0-12.135-23.261l-11.691-4.232a7.148 7.148 0 0 1-4.38-8.885z" fill="#f9c795" fill-rule="evenodd"/>
    <path d="M388.3 134.34H501v365.051H388.3z" fill="#43a2ff"/>
    <path d="M293.974 188.797h112.7v310.594h-112.7z" fill="#4fe88e"/>
    <path d="M199.65 243.254h112.7v256.137h-112.7z" fill="#fdc72e"/>
    <path d="M105.325 309.873h112.7v189.518h-112.7z" fill="#fda02f"/>
    <path d="M10.999 352.168h112.7v147.223h-112.7z" fill="#fb545c"/>
    <circle cx="292.251" cy="111.836" fill="#65718c" r="99.225"/>
    <g fill-rule="evenodd">
        <path d="M305.751 13.529c48.413 6.587 85.725 48.087 85.725 98.307s-37.312 91.72-85.725 98.307c-48.413-6.587-85.725-48.087-85.725-98.307s37.312-91.72 85.725-98.307z" fill="#727d96"/>
        <path d="M136.466 137.92c10.626 0 19.294-8.667 19.294-19.294s-8.667-19.294-19.294-19.294-19.294 8.667-19.294 19.294 8.667 19.294 19.294 19.294z" fill="#edbb8a"/>
        <path d="M140.355 99.725c8.792 1.799 15.405 9.578 15.405 18.902s-6.613 17.102-15.405 18.902c-8.792-1.799-15.405-9.578-15.405-18.902s6.613-17.103 15.405-18.902z" fill="#f9c795"/>
        <path d="m51.501 320.204-9.322 17.517 41.91 14.447 1.053-4.115a15.245 15.245 0 0 0-9.131-18.01l-24.509-9.839zM121.946 290.57l-5.173 19.303h44.297l-.365-4.232a15.246 15.246 0 0 0-14.569-13.982l-24.19-1.09z" fill="#7986bf"/>
    </g>
    <path d="M91.643 352.168H123.7v147.223H91.643z" fill="#f0414a"/>
    <path d="M185.968 309.873h32.057v189.518h-32.057z" fill="#e68207"/>
    <path d="M280.293 243.254h32.057v256.137h-32.057z" fill="#f9ac00"/>
    <path d="M374.618 188.797h32.057v310.594h-32.057z" fill="#3fc977"/>
    <path d="M468.943 134.34H501v365.051h-32.057z" fill="#2a93fc"/>
    <path d="M495.999 494.393h-84.325V188.801a5.001 5.001 0 0 0-5.001-4.998h-13.374v-44.461h102.7zM123.698 347.171h-13.374V314.88h102.7v179.513H128.7V352.17a5.003 5.003 0 0 0-5.001-4.999zm-4.999 147.221V357.173h-102.7v137.219zM77.872 325.411c8.899 3.571 13.917 12.498 12.533 21.76h9.918v-37.289a4.994 4.994 0 0 1 5.001-4.999h7.611l4.181-15.599 7.423-27.705-22.662-6.078-24.843 69.571.837.339zm-24.068 1.113 20.344 8.167c4.491 1.8 7.042 6.289 6.381 10.968l-31.185-10.757 4.461-8.378zm3.874-9.222 23.801-74.643c2.767 4.341 6.396 7.632 10.874 9.781l-24.605 68.899zM106.62 163.13c2.77-8.79 9.92-14.618 19.123-15.599l66.29-7.029c.893 3.11 1.927 6.171 3.095 9.148l-53.226 6.48a5.013 5.013 0 0 0-4.162 3.448l-20.209 63.651a12.115 12.115 0 0 0 7.444 15.103l11.69 4.238c7.084 2.561 10.958 9.982 9.007 17.262l-7.097 26.488-10.19-.461 7.107-26.528c.715-2.659-.868-5.401-3.535-6.122l-31.944-8.559c-4.738-1.271-8.224-3.959-10.652-8.221-2.416-4.238-2.962-8.579-1.665-13.279l18.924-60.021zm29.845-58.789c7.881 0 14.294 6.411 14.294 14.289s-6.413 14.294-14.294 14.294-14.293-6.411-14.293-14.294 6.411-14.289 14.293-14.289zm155.787-86.729c51.955 0 94.224 42.269 94.224 94.23s-42.27 94.22-94.224 94.22-94.227-42.259-94.227-94.22 42.271-94.23 94.227-94.23zm75.326 166.19H383.3v-21.289a104.757 104.757 0 0 1-15.722 21.289zM165.643 304.883h29.008v-61.62a4.997 4.997 0 0 1 4.999-4.998h89.326v-22.25c-39.041-1.212-72.743-24.001-89.551-56.813l-53.124 6.47-19.238 60.59a2.138 2.138 0 0 0 1.316 2.668l11.69 4.233c12.006 4.346 18.567 16.928 15.264 29.26l-6.566 24.507c9.032 1.452 15.923 8.653 16.877 17.953zm-39.907-9.133 20.175.912c4.826.221 8.703 3.6 9.634 8.221h-32.256zm92.289 9.133a4.992 4.992 0 0 1 4.999 4.999v184.511h84.326V248.262H204.648v56.621h13.376zm183.65 189.509V193.799h-45.109c-16.072 12.641-35.945 20.666-57.591 22.044v22.422h13.374a4.998 4.998 0 0 1 4.999 4.998v251.129h84.326zm99.328-365.054H394.999a104.443 104.443 0 0 0 1.477-17.497c0-57.47-46.755-104.232-104.225-104.232S188.026 54.371 188.026 111.841c0 6.431.59 12.729 1.711 18.851l-34.794 3.689c3.623-4.248 5.817-9.752 5.817-15.751 0-13.396-10.899-24.291-24.294-24.291s-24.293 10.894-24.293 24.291c0 7.912 3.803 14.951 9.678 19.391-11.759 2.261-21.114 10.512-24.769 22.108l-18.943 60.084-31.255 98.027-9.119 17.144a4.978 4.978 0 0 0-.238 4.169 4.994 4.994 0 0 0 3.022 2.899l13.694 4.719H10.998a5.001 5.001 0 0 0-4.999 4.999v147.221a4.992 4.992 0 0 0 4.999 4.998h490.005a4.993 4.993 0 0 0 4.998-4.998V134.342a5.004 5.004 0 0 0-4.998-5.003z" fill-rule="evenodd"/>
</svg>
