<svg height="512" width="512" xmlns="http://www.w3.org/2000/svg" data-name="Layer 1">
    <circle cx="251.809" cy="294.591" fill="#4eb1fc" r="89" transform="rotate(-17.25 251.245 294.409)"/>
    <g fill-rule="evenodd">
        <path d="M251.809 205.591c49.153 0 89 39.847 89 89s-39.847 89-89 89a89.384 89.384 0 0 1-18.563-1.944c-29.813-15.608-50.383-48.724-50.383-87.055s20.57-71.448 50.383-87.055a89.323 89.323 0 0 1 18.563-1.945z" fill="#70c1f9"/>
        <path d="M182.623 185.833c-.659-17.502-.872-34.721.142-53.119.882-11.466 3.447-15.775 10.645-19.995 8.708-5.105 27.696-8.517 37.445-11.721h41.909c9.749 3.204 28.737 6.615 37.445 11.721 7.198 4.221 9.764 8.529 10.645 19.995 1.013 18.398.801 35.617.142 53.119z" fill="#2a92fa"/>
        <path d="M227.86 101.927c5.244-2.867 10.055-8.461 10.055-19.166v-2.123h27.789v2.123c0 10.705 4.81 16.3 10.055 19.166-5.771 7.913-14.177 13.173-23.949 13.173s-18.179-5.26-23.949-13.173z" fill="#dea368"/>
        <path d="M265.704 80.637v2.123c0 10.705 4.81 16.3 10.055 19.166-5.771 7.913-14.177 13.173-23.949 13.173-6.212 0-11.871-2.126-16.653-5.706 4.778-3.623 9.972-10.487 9.972-19.57v-9.186z" fill="#e6b17c"/>
        <path d="M251.809 93.012c-37.369-2.423-47.237-76.557 0-76.557s37.369 74.134 0 76.557z" fill="#f2c496"/>
        <path d="M251.809 93.012a27.874 27.874 0 0 1-4.507-.674c-19.272-16.261-23.724-58.789-4.039-74.964 2.612-.594 5.454-.92 8.546-.92 47.237 0 37.369 74.134 0 76.557z" fill="#fdd7ad"/>
        <path d="M272.337 18.513c4.265-1.773 11.358.39 13.729 9.98 1.437 5.812.81 20.261-2.783 28.064-3.896-4.185-4.724-8.841-7.301-12.747-2.013-3.051-5.566-2.164-10.897-.314-14.493 5.03-29.401-3.329-36.644-2.027-5.878 1.057-7.148 9.932-8.108 15.088-6.098-6.801-6.724-25.758-2.031-40.838 24.447 3.773 44.349-14.741 54.034 2.795z" fill="#1a1a1a"/>
        <path d="M11.44 275.833c-.659-17.502-.872-34.721.142-53.119.881-11.466 3.447-15.775 10.645-19.995 8.708-5.105 27.696-8.517 37.445-11.721h41.909c9.749 3.204 28.737 6.615 37.445 11.721 7.198 4.221 9.764 8.529 10.645 19.995 1.013 18.398.801 35.617.142 53.119z" fill="#2dd62d"/>
        <path d="M56.677 191.927c5.244-2.867 10.055-8.461 10.055-19.166v-2.123h27.789v2.123c0 10.705 4.81 16.3 10.054 19.166-5.77 7.913-14.177 13.173-23.949 13.173s-18.179-5.26-23.949-13.173z" fill="#dea368"/>
        <path d="M94.521 170.637v2.123c0 10.705 4.81 16.3 10.054 19.166-5.77 7.913-14.177 13.173-23.949 13.173-6.212 0-11.871-2.126-16.653-5.706 4.777-3.623 9.972-10.487 9.972-19.57v-9.186z" fill="#e6b17c"/>
        <path d="M80.626 183.012c-37.369-2.423-47.237-76.557 0-76.557s37.369 74.134 0 76.557z" fill="#f2c496"/>
        <path d="M80.626 183.012a27.874 27.874 0 0 1-4.507-.674c-19.272-16.261-23.724-58.789-4.039-74.964 2.612-.594 5.454-.92 8.547-.92 47.237 0 37.369 74.134 0 76.557z" fill="#fdd7ad"/>
        <path d="M101.155 108.513c4.265-1.773 11.358.39 13.729 9.98 1.437 5.812.81 20.261-2.782 28.064-3.896-4.185-4.724-8.841-7.301-12.747-2.013-3.051-5.566-2.164-10.897-.314-14.493 5.03-29.401-3.329-36.644-2.027-5.878 1.057-7.148 9.932-8.108 15.088-6.098-6.801-6.724-25.758-2.031-40.838 24.447 3.773 44.349-14.741 54.034 2.795z" fill="#1a1a1a"/>
        <path d="M362.218 275.833c-.659-17.502-.872-34.721.142-53.119.882-11.466 3.447-15.775 10.645-19.995 8.708-5.105 27.696-8.517 37.445-11.721h41.909c9.749 3.204 28.737 6.615 37.445 11.721 7.198 4.221 9.764 8.529 10.645 19.995 1.013 18.398.801 35.617.142 53.119H362.219z" fill="#fdc72e"/>
        <path d="M407.455 191.927c5.244-2.867 10.055-8.461 10.055-19.166v-2.123h27.789v2.123c0 10.705 4.81 16.3 10.055 19.166-5.771 7.913-14.177 13.173-23.949 13.173s-18.179-5.26-23.949-13.173z" fill="#dea368"/>
        <path d="M445.298 170.637v2.123c0 10.705 4.81 16.3 10.055 19.166-5.771 7.913-14.177 13.173-23.949 13.173-6.212 0-11.871-2.126-16.653-5.706 4.778-3.623 9.972-10.487 9.972-19.57v-9.186z" fill="#e6b17c"/>
        <path d="M431.404 183.012c-37.369-2.423-47.237-76.557 0-76.557s37.369 74.134 0 76.557z" fill="#f2c496"/>
        <path d="M431.404 183.012a27.874 27.874 0 0 1-4.507-.674c-19.272-16.261-23.724-58.789-4.039-74.964 2.612-.594 5.454-.92 8.547-.92 47.237 0 37.369 74.134 0 76.557z" fill="#fdd7ad"/>
        <path d="M451.932 108.513c4.265-1.773 11.358.39 13.729 9.98 1.437 5.812.81 20.261-2.783 28.064-3.896-4.185-4.724-8.841-7.301-12.747-2.013-3.051-5.566-2.164-10.897-.314-14.493 5.03-29.401-3.329-36.644-2.027-5.878 1.057-7.148 9.932-8.108 15.088-6.098-6.801-6.724-25.758-2.031-40.838 24.447 3.773 44.349-14.741 54.034 2.795z" fill="#1a1a1a"/>
        <path d="M177.455 356.082c-37.018-4.536-65.8 16.515-119.245 17.224l-23.703.139-.151 115.684 23.853.101c55.854-15.088 114.446 3.074 163.636 8.542 27.412 3.047 39.102 3.982 74.06-11.016l168.073-72.973c13.189-6.176 28.249-14.381 34.551-19.268 9.895-22.77-9.257-44.886-66.202-23.625-37.587 14.033-84.685 27.948-106.084 31.904 1.639-3.672 2.414-7.898 2.139-12.757-.789-13.961-11.83-23.656-36.571-24.315-39.391-1.048-74.763-4.788-114.356-9.639z" fill="#f2c496"/>
        <path d="M177.455 356.082c-37.018-4.536-65.8 16.515-119.245 17.224l-23.703.139-.125 95.604 23.827.073c55.854-15.088 114.446 3.074 163.636 8.542 27.412 3.047 39.102 3.982 74.06-11.016l168.073-72.973c11.273-5.279 23.914-12.041 31.283-16.946.593-.394 2.083-1.389 3.587-2.402-6.479-12.271-27.727-17.922-66.522-3.438-37.586 14.033-84.685 27.948-106.084 31.904 1.639-3.672 2.414-7.898 2.139-12.757-.789-13.961-11.831-23.657-36.571-24.315-39.391-1.048-74.763-4.788-114.356-9.639z" fill="#fdd7ad"/>
        <path d="M344.194 398.721c-4.828 1.166-14.387 3.413-17.951 4.072l.003-.006c-7.293 12.423-28.123 16.824-49.807 18.05-17.432.986-35.539-.111-48.455-.893-2.174-.131-4.199-.255-6.116-.359-9.977-.541-11.584 14.082-.448 14.682 2.043.111 4.432.255 7.022.412 13.16.797 31.609 1.914 49.67.893 29.156-1.649 58.922-9.472 66.082-36.85z" fill="#f2c496"/>
    </g>
    <path d="M20.124 363.938h28.977c5.027 0 9.108 4.081 9.108 9.108v118.843c0 5.027-4.081 9.109-9.109 9.109H20.124c-5.027 0-9.108-4.081-9.108-9.108V373.047c0-5.027 4.081-9.108 9.108-9.108z" fill="#2a93fc"/>
    <path d="M37.239 363.938h11.863c5.027 0 9.108 4.081 9.108 9.108v118.843c0 5.027-4.081 9.109-9.109 9.109H37.238c-5.027 0-9.108-4.081-9.108-9.108V373.047c0-5.027 4.081-9.108 9.108-9.108z" fill="#4eb1fc"/>
    <path d="M494.411 391.337c-6.131 4.429-19.422 11.751-32.517 17.887L293.913 482.16c-34.43 14.768-45.269 13.561-71.509 10.638-12.31-1.368-25.16-3.521-38.697-5.807-37.471-6.302-79.65-13.394-120.505-4.139V378.169c24.474-.897 43.847-5.9 61.013-10.339 18.637-4.821 34.724-8.98 52.626-6.788 42.572 5.223 76.659 8.662 114.816 9.677 13.978.373 30.85 4.076 31.733 19.599.392 6.734-1.569 12.139-5.983 16.519-17.706 17.652-70.135 14.478-95.345 12.953-4.12-.25-7.7-.466-10.594-.578-2.796-.093-5.101 2.045-5.199 4.801-.098 2.761 2.06 5.086 4.806 5.189 2.796.108 6.327.319 10.398.569 9.319.564 21.286 1.29 33.94 1.29 26.092 0 54.98-3.105 69.056-17.137 2.06-2.06 3.777-4.292 5.101-6.69 23.64-4.728 69.547-18.613 104.517-31.659 27.711-10.359 49.487-11.045 58.217-1.839 4.071 4.252 4.807 10.619 2.109 17.603zM53.196 491.89c0 2.266-1.863 4.105-4.12 4.105H20.09c-2.256 0-4.071-1.839-4.071-4.105V373.048c0-2.271 1.815-4.11 4.071-4.11h28.986c2.256 0 4.12 1.839 4.12 4.11zm139.045-256.411a94.517 94.517 0 0 0 15.351 10.25c-4.365 12.791-7.014 27.721-7.455 43.862h-32.174c1.275-21.05 10.299-40.036 24.278-54.112zm143.36 54.112h-32.125c-.441-16.141-3.139-31.07-7.455-43.862a94.582 94.582 0 0 0 15.351-10.25c13.978 14.076 23.002 33.062 24.229 54.112zm-24.229 64.127c-4.806-3.968-10.005-7.401-15.449-10.3 4.463-13.031 7.112-28.005 7.553-43.827h32.174c-1.275 20.423-9.956 39.693-24.278 54.127zm-19.079-.932a88.882 88.882 0 0 1-3.973 7.823c1.226.039 2.404.078 3.629.113 3.826.103 7.259.417 10.447.898.49-.373.981-.75 1.422-1.133a83.006 83.006 0 0 0-11.526-7.7zm-35.509-10.226v16.494c6.67.451 13.34.829 20.109 1.128a78.622 78.622 0 0 0 6.327-11.687 83.86 83.86 0 0 0-26.436-5.935zm-32.468 13.767c-1.422-2.462-2.698-5.062-3.924-7.813a83.424 83.424 0 0 1 26.387-5.954v15.763a1185.278 1185.278 0 0 1-22.463-1.996zm-12.948-3.531c.343.78.687 1.54 1.079 2.3-1.422-.152-2.844-.299-4.267-.461a71.155 71.155 0 0 1 3.188-1.839zm35.411-53.205v32.949a93.81 93.81 0 0 0-29.967 6.636c-3.924-11.82-6.229-25.396-6.67-39.585zm0-42.949v32.949h-36.637c.441-14.4 2.894-27.931 6.719-39.546a93.745 93.745 0 0 0 29.918 6.597zm-35.509-20.285c3.777-8.461 8.338-15.67 13.537-21.271a84.447 84.447 0 0 0-25.013 13.639 82.951 82.951 0 0 0 11.477 7.632zm35.509-23.802v34.062c-9.074-.539-18-2.55-26.337-5.91 6.67-15.116 15.989-25.572 26.337-28.152zm31.978 2.531c5.248 5.601 9.809 12.811 13.586 21.271 4.022-2.207 7.798-4.767 11.428-7.632a83.264 83.264 0 0 0-25.013-13.639zm-21.972 31.532v-34.062c10.398 2.58 19.716 13.036 26.387 28.152a84.198 84.198 0 0 1-26.387 5.91zm0 42.974v-32.949a94.303 94.303 0 0 0 29.967-6.597c3.825 11.614 6.229 25.146 6.719 39.546zm0 10h36.686c-.441 14.164-2.796 27.755-6.719 39.56a93.203 93.203 0 0 0-29.967-6.611zm-56.648 0c.441 15.656 3.09 30.703 7.553 43.798a94.476 94.476 0 0 0-14.518 9.545c-.638-.074-1.324-.157-1.962-.231-13.929-14.508-22.07-33.125-23.247-53.112zm230.417 66.614c-31.978 11.938-73.127 24.562-97.405 30.041.245-2.085.343-4.247.196-6.494-.392-7.607-3.826-19.029-19.03-25.043 19.863-17.725 31.439-43.273 31.439-70.121 0-51.817-42.13-93.972-93.972-93.972s-93.972 42.155-93.972 93.972c0 20.634 6.621 40.213 18.785 56.378-19.226-2.03-36.539 2.438-54.882 7.18-16.774 4.34-35.755 9.235-59.394 10.049-1.962-5.395-7.161-9.26-13.242-9.26H20.09c-7.749 0-14.076 6.327-14.076 14.111v118.842c0 7.779 6.327 14.106 14.076 14.106h28.986c7.357 0 13.439-5.67 14.076-12.875 39.482-9.628 79.846-2.845 118.887 3.732 13.684 2.305 26.632 4.483 39.237 5.885 9.515 1.054 17.215 1.913 24.768 1.913 14.174 0 27.809-3.002 51.842-13.311l168.079-72.975c.049-.015.098-.039.098-.059 12.065-5.64 28.299-14.253 35.509-19.844.687-.515 1.177-1.187 1.52-1.957 4.856-11.138 3.531-22.223-3.531-29.653-6.916-7.283-25.062-17.053-69.007-.647zm-63.073-143.228c.834-10.658 2.992-12.953 8.142-15.974 5.199-3.046 15.204-5.601 24.032-7.857 2.109-.53 4.071-1.045 5.984-1.55 5.689 6.572 12.948 10.78 20.746 12.051v61.018h-31.88v-31.635a4.98 4.98 0 0 0-5.003-4.998c-2.747 0-5.003 2.236-5.003 4.998v31.635h-17.313c-.589-18.284-.49-33.165.294-47.687zm63.563-34.965c-3.972-.26-7.651-1.187-10.986-2.639-1.324 2.84-3.041 5.336-5.297 7.411 4.757 4.728 10.545 7.283 16.627 7.283 6.13 0 11.869-2.555 16.626-7.283-2.207-2.075-3.973-4.571-5.248-7.411a33.34 33.34 0 0 1-11.035 2.639c-.147.005-.245.01-.343.01s-.196-.005-.343-.01zm-25.994-41.257v-.152c.49-2.658 1.765-9.731 3.923-10.108 1.668-.304 5.297.525 8.828 1.334 7.651 1.736 18.049 4.11 28.496.49 1.03-.353 3.973-1.378 5.199-1.413.736 1.133 1.324 2.472 1.962 3.88 1.03 2.276 2.158 4.797 4.07 7.323-2.403 14.385-11.82 28.765-26.141 29.898-14.763-1.167-24.327-16.43-26.337-31.252zm-3.384-35.465c9.27.564 17.754-1.457 24.768-3.129 12.752-3.026 17.509-3.512 21.09 2.918a4.98 4.98 0 0 0 6.278 2.197c.588-.25 1.668-.309 2.845.285 1.864.942 3.335 3.163 4.071 6.263.687 2.717.785 8.068.196 13.414a15.396 15.396 0 0 0-1.226-2.084c-2.109-3.222-5.002-4.243-7.945-4.243-3.09 0-6.229 1.094-8.73 1.962-7.7 2.678-15.793.834-22.954-.795-4.905-1.123-9.172-2.094-12.85-1.427-3.188.569-5.444 2.227-7.112 4.414-.49-5.841-.049-12.904 1.57-19.775zm85.487 95.713c5.15 3.021 7.357 5.316 8.142 15.974.834 14.518.932 29.393.343 47.687h-17.509V239.03a4.98 4.98 0 0 0-5.003-4.998c-2.747 0-5.003 2.236-5.003 4.998v31.635h-31.732v-61.018c7.798-1.27 15.057-5.479 20.746-12.051 1.913.505 3.875 1.02 5.984 1.55 8.828 2.256 18.834 4.811 24.032 7.857zm-124.821 73.662a4.997 4.997 0 0 1-5.003-4.811c-.785-20.869-.736-37.363.147-53.484v-.103c.981-12.698 4.316-18.726 13.095-23.89 6.425-3.757 17.166-6.498 26.632-8.916 2.992-.77 5.837-1.496 8.338-2.198 2.844-1.682 4.806-4.085 5.885-7.283-9.074-7.705-14.517-19.8-16.234-31.326-6.915-9.579-6.572-29.594-2.011-44.269a5.006 5.006 0 0 1 5.542-3.453c9.024 1.393 17.755-.672 25.406-2.496 11.035-2.629 22.463-5.336 30.114 4.669 2.305-.108 4.708.412 6.915 1.53 4.512 2.276 7.798 6.812 9.27 12.786 1.57 6.199 1.177 21.242-2.746 30.521-1.57 11.742-7.062 24.175-16.332 32.037 1.128 3.198 3.041 5.601 5.885 7.283 2.501.702 5.346 1.427 8.338 2.198 9.515 2.418 20.256 5.16 26.632 8.916 8.828 5.164 12.114 11.192 13.095 23.89v.103c.883 16.112.932 32.605.147 53.484a4.995 4.995 0 0 1-5.003 4.811H362.331zM187.876 132.978c.834-10.663 2.992-12.953 8.141-15.974 5.199-3.046 15.204-5.601 24.081-7.857 2.06-.53 4.071-1.045 5.935-1.55 5.689 6.572 12.997 10.78 20.746 12.051v61.018h-31.831v-31.635a5.015 5.015 0 0 0-5.003-5.003 4.983 4.983 0 0 0-5.003 5.003v31.635H187.58c-.589-18.284-.491-33.16.294-47.687zm63.612-34.97c-4.022-.26-7.7-1.187-11.035-2.634a23.134 23.134 0 0 1-5.248 7.411c4.708 4.728 10.496 7.278 16.578 7.278 6.131 0 11.918-2.55 16.626-7.278-2.207-2.079-3.972-4.571-5.248-7.411-3.335 1.447-7.013 2.374-11.035 2.634a3.205 3.205 0 0 1-.637 0zm-26.043-41.257.049-.147c.441-2.658 1.766-9.731 3.875-10.108 1.667-.304 5.346.525 8.877 1.329 7.602 1.736 18 4.11 28.447.495 1.03-.358 3.972-1.378 5.199-1.413.736 1.133 1.324 2.467 1.962 3.875 1.03 2.281 2.207 4.802 4.071 7.328-2.354 14.385-11.82 28.765-26.141 29.898-14.763-1.167-24.327-16.43-26.337-31.257zm-3.384-35.46c9.27.564 17.754-1.462 24.768-3.129 12.752-3.026 17.558-3.512 21.089 2.918a4.98 4.98 0 0 0 6.278 2.197c.638-.25 1.668-.309 2.845.285 1.864.942 3.335 3.163 4.071 6.263.687 2.712.785 8.068.196 13.409a15.29 15.29 0 0 0-1.226-2.079c-2.109-3.227-5.003-4.248-7.945-4.248-3.09 0-6.229 1.099-8.73 1.967-7.7 2.678-15.793.829-22.953-.799-4.905-1.118-9.172-2.089-12.85-1.422-3.188.569-5.444 2.227-7.112 4.409-.491-5.837-.049-12.899 1.569-19.77zm85.487 95.713c5.15 3.021 7.357 5.312 8.191 15.974.785 14.518.883 29.393.294 47.687h-17.509V149.03a4.983 4.983 0 0 0-5.003-5.003c-2.746 0-4.954 2.241-4.954 5.003v31.635h-31.782v-61.018c7.798-1.27 15.057-5.479 20.747-12.051 1.913.505 3.923 1.02 5.983 1.55 8.828 2.256 18.834 4.811 24.033 7.857zm-124.821 73.662H320.84a5 5 0 0 0 5.003-4.811c.785-20.879.736-37.378-.147-53.484v-.108c-.981-12.693-4.267-18.726-13.095-23.885-6.376-3.757-17.117-6.498-26.583-8.916-3.041-.77-5.885-1.496-8.337-2.197-2.845-1.687-4.807-4.085-5.935-7.283 9.269-7.867 14.763-20.295 16.332-32.032 3.924-9.284 4.316-24.332 2.747-30.526-1.471-5.974-4.758-10.515-9.27-12.786-2.207-1.118-4.61-1.638-6.915-1.53-7.651-10.005-19.03-7.298-30.114-4.669-7.651 1.82-16.381 3.889-25.406 2.496a5 5 0 0 0-5.542 3.453c-4.561 14.675-4.905 34.69 2.06 44.269 1.668 11.526 7.112 23.615 16.185 31.326-1.079 3.198-3.041 5.596-5.886 7.283-2.501.702-5.346 1.427-8.338 2.197-9.466 2.418-20.207 5.16-26.632 8.916-8.779 5.16-12.114 11.192-13.095 23.885v.108c-.883 16.116-.932 32.615-.147 53.484.098 2.683 2.354 4.811 5.003 4.811zM16.706 222.977c.785-10.658 2.992-12.953 8.141-15.974 5.199-3.046 15.204-5.601 24.032-7.857 2.109-.53 4.071-1.045 5.984-1.55 5.689 6.572 12.948 10.78 20.746 12.051v61.018h-31.88V239.03a4.98 4.98 0 0 0-5.003-4.998c-2.747 0-5.003 2.236-5.003 4.998v31.635h-17.36c-.589-18.284-.491-33.165.343-47.687zm63.612-34.965a33.328 33.328 0 0 1-11.084-2.639c-1.275 2.84-3.041 5.336-5.248 7.411 4.757 4.728 10.496 7.283 16.627 7.283s11.869-2.555 16.626-7.283c-2.207-2.075-3.972-4.571-5.248-7.411a33.334 33.334 0 0 1-11.035 2.639c-.098.005-.245.01-.343.01s-.196-.005-.294-.01zm-26.043-41.257v-.152c.49-2.658 1.766-9.731 3.924-10.108 1.667-.304 5.346.525 8.877 1.334 7.602 1.736 18 4.11 28.447.49 1.03-.353 3.972-1.378 5.199-1.413.736 1.133 1.324 2.472 1.962 3.88 1.03 2.276 2.207 4.797 4.071 7.323-2.354 14.385-11.82 28.765-26.141 29.898-14.763-1.167-24.327-16.43-26.338-31.252zm-3.384-35.465c9.221.564 17.754-1.457 24.768-3.129 12.752-3.026 17.509-3.512 21.089 2.918a4.98 4.98 0 0 0 6.278 2.197c.588-.25 1.668-.309 2.845.285 1.864.942 3.335 3.163 4.071 6.263.687 2.717.785 8.073.196 13.414-.343-.696-.785-1.388-1.226-2.084-2.109-3.222-5.003-4.243-7.945-4.243-3.09 0-6.229 1.094-8.73 1.962-7.7 2.678-15.842.834-22.953-.795-4.905-1.123-9.172-2.094-12.899-1.427-3.139.569-5.395 2.227-7.111 4.414-.442-5.841-.049-12.904 1.618-19.775zm85.487 95.713c5.15 3.021 7.357 5.316 8.191 15.974.785 14.518.883 29.393.294 47.687h-17.509v-31.635a4.98 4.98 0 0 0-5.003-4.998c-2.746 0-5.003 2.236-5.003 4.998v31.635H85.615v-61.018c7.798-1.27 15.057-5.479 20.747-12.051 1.913.505 3.874 1.02 5.983 1.55 8.828 2.256 18.834 4.811 24.032 7.857zM11.556 280.665a4.997 4.997 0 0 1-5.003-4.811c-.785-20.869-.736-37.363.147-53.484v-.103c.981-12.698 4.316-18.726 13.095-23.89 6.425-3.757 17.166-6.498 26.632-8.916 2.992-.77 5.836-1.496 8.338-2.198 2.845-1.682 4.757-4.085 5.886-7.283-9.073-7.705-14.518-19.8-16.234-31.326-6.915-9.579-6.572-29.594-2.011-44.269a5.006 5.006 0 0 1 5.542-3.453c9.024 1.393 17.706-.677 25.406-2.496 11.084-2.629 22.463-5.336 30.114 4.669 2.305-.108 4.708.412 6.915 1.53 4.512 2.276 7.798 6.812 9.27 12.786 1.52 6.199 1.177 21.242-2.747 30.526-1.569 11.737-7.063 24.17-16.332 32.032 1.128 3.198 3.041 5.601 5.886 7.283 2.501.702 5.346 1.427 8.338 2.198 9.466 2.418 20.207 5.16 26.632 8.916 8.828 5.164 12.114 11.192 13.095 23.89v.103c.883 16.112.932 32.605.147 53.484a4.995 4.995 0 0 1-5.003 4.811H11.556z" fill-rule="evenodd"/>
</svg>
