<svg xmlns="http://www.w3.org/2000/svg" width="512" height="512">
    <g data-name="Fill out line">
        <path d="M376 307.13v75.9A40.972 40.972 0 0 1 335.03 424H64.97A40.972 40.972 0 0 1 24 383.03v-9.74A799.925 799.925 0 0 1 95.71 42.25L104 24h193.45a39.997 39.997 0 0 1 38.59 29.48l11.77 43.16A799.965 799.965 0 0 1 376 307.13Z" style="fill:#eedc9a"/>
        <path d="m347.81 96.64-11.77-43.16A40.003 40.003 0 0 0 304 24.539V24h-72v64h36.618A799.935 799.935 0 0 0 216 373.29v9.74A40.97 40.97 0 0 0 256.97 424h78.06A40.97 40.97 0 0 0 376 383.03v-75.9a799.965 799.965 0 0 0-28.19-210.49Z" style="fill:#e88604"/>
        <path d="M256 96a24 24 0 0 0 24 24H64a24 24 0 0 1-24-24V64a40 40 0 0 1 40-40h216a40 40 0 0 0-40 40Z" style="fill:#ece9c0"/>
        <path d="M256 72h48v24a24 24 0 0 1-24 24 24 24 0 0 1-24-24V72Z" style="fill:#eebe33"/>
        <path d="M104 280a127.93 127.93 0 0 0 8.699 46.368l27.466 70.628A80 80 0 0 0 214.725 448h162.55a80 80 0 0 0 74.56-51.004l27.466-70.628A127.93 127.93 0 0 0 488 280Z" style="fill:#379ec3"/>
        <path d="M488 280c0 14.41-18.67 27.55-49.35 37.48C403.51 328.85 352.62 336 296 336s-107.51-7.15-142.65-18.52C122.67 307.55 104 294.41 104 280c0-30.93 85.96-56 192-56s192 25.07 192 56Z" style="fill:#8acce7"/>
        <path d="M440 312a12.214 12.214 0 0 1-1.35 5.48C403.51 328.85 352.62 336 296 336s-107.51-7.15-142.65-18.52A12.214 12.214 0 0 1 152 312c0-22.09 64.47-40 144-40s144 17.91 144 40Z" style="fill:#eedc9a"/>
        <path d="M364.261 163.936 427.937 59.74a23.323 23.323 0 0 1 31.9-7.838 23.323 23.323 0 0 1 7.902 32.162L404.063 188.26a23.323 23.323 0 0 1-31.9 7.838 23.323 23.323 0 0 1-7.902-32.162Z" style="fill:#a6b2bc"/>
        <path d="m328 424 64.099-5.827A21.917 21.917 0 0 1 416 440a21.917 21.917 0 0 1-23.901 21.827L328 456Z" style="fill:#966342"/>
        <rect x="56" y="392" width="328" height="96" rx="48" ry="48" style="fill:#723024"/>
        <circle cx="104" cy="440" r="48" style="fill:#984e3c"/>
        <path d="M96.066 457.449 47.9 461.827A21.917 21.917 0 0 1 24 440a21.917 21.917 0 0 1 23.901-21.827l48.165 4.378A17.52 17.52 0 0 1 112 440a17.52 17.52 0 0 1-15.934 17.449Z" style="fill:#ad7d4d"/>
        <path d="M34.961 396.687A32.758 32.758 0 0 1 32 383.029v-9.741A790.594 790.594 0 0 1 70.951 128h175.183a811.727 811.727 0 0 0-18.95 70.267l15.62 3.466A795.511 795.511 0 0 1 262.957 128H280a32.036 32.036 0 0 0 32-32V72a8 8 0 0 0-8-8h-40a32.036 32.036 0 0 1 32-32h1.448a32.07 32.07 0 0 1 30.872 23.58l11.773 43.166a795.92 795.92 0 0 1 7.797 31.046l15.593-3.584a812.263 812.263 0 0 0-7.954-31.672L343.757 51.37A48.105 48.105 0 0 0 297.448 16H80a48.054 48.054 0 0 0-48 48v32a32.056 32.056 0 0 0 22.585 30.585A806.527 806.527 0 0 0 16 373.288v9.741a48.644 48.644 0 0 0 4.399 20.285ZM296 80v16a16 16 0 0 1-32 0V80ZM48 96V64a32.036 32.036 0 0 1 32-32h180.252A47.808 47.808 0 0 0 248 64v32a31.809 31.809 0 0 0 4.294 16H64a16.018 16.018 0 0 1-16-16Z"/>
        <path d="m417.821 228.492-3.642 15.58C462.762 255.432 480 270.526 480 280c0 8.145-11.56 17.597-32.936 25.949-3.735-11.899-18.763-21.737-44.835-29.302l-4.459 15.366c22.22 6.447 33.003 14.229 34.126 19.153C400.111 320.837 353.696 328 296 328c-57.698 0-104.115-7.163-135.9-16.836 1.599-7.55 24.414-20.378 72.993-27.079l-2.186-15.85c-24.374 3.363-45.088 8.577-59.902 15.081-14.598 6.41-23.33 14.002-26.067 22.634C123.561 297.598 112 288.145 112 280c0-3.373 2.749-15.354 38.117-27.94 26.942-9.586 64.72-16.284 106.377-18.858l-.988-15.97c-43.108 2.664-82.44 9.68-110.753 19.754C104.458 251.325 96 268.291 96 280a135.401 135.401 0 0 0 9.243 49.268l16.19 41.631 14.912-5.798-16.19-41.632a120.266 120.266 0 0 1-4.58-14.411c10.26 6.856 24.461 12.982 42.42 18.22C194.968 338.062 243.979 344 296 344s101.033-5.938 138.004-16.722c17.96-5.238 32.161-11.364 42.421-18.22a120.266 120.266 0 0 1-4.58 14.41l-27.466 70.628a71.905 71.905 0 0 1-10.65 18.598l12.543 9.933a87.878 87.878 0 0 0 13.019-22.732l27.466-70.627A135.401 135.401 0 0 0 496 280c0-28.911-48.981-44.68-78.179-51.508Z"/>
        <path d="M354.315 166.573a164.02 164.02 0 0 0-90.45 80.399l-23.02 46.03 14.31 7.156 23.021-46.032a147.972 147.972 0 0 1 75.659-70.22 31.71 31.71 0 0 0 1.55 4.563c-22.066 18.58-41.896 43.903-56.278 72.03l-23.55 45.75 14.226 7.323 23.56-45.77c13.349-26.106 31.63-49.542 51.918-66.728a31.889 31.889 0 0 0 2.786 1.884 31.228 31.228 0 0 0 3.3 1.706q-4.803 8.997-10.018 18.72-13.087 24.429-26.967 50.649l-18.142 34.22 14.137 7.494 18.153-34.242q13.805-26.237 26.922-50.565c4.135-7.718 8.111-15.14 11.862-22.176a146.045 146.045 0 0 1-17.677 78.805l-11.235 20.6 14.047 7.662 11.234-20.599a162.046 162.046 0 0 0 19.108-93.959 31.035 31.035 0 0 0 8.119-8.841l63.675-104.197a31.323 31.323 0 0 0-53.455-32.667l-63.675 104.197a31.55 31.55 0 0 0-3.12 6.808Zm16.772 1.535 63.676-104.196a15.323 15.323 0 1 1 26.15 15.98l-63.676 104.196a15.323 15.323 0 1 1-26.15-15.98ZM414.263 417.915a30.017 30.017 0 0 0-22.888-7.712l-7.554.687A56.018 56.018 0 0 0 336 384H104a56.031 56.031 0 0 0-47.842 26.89l-7.532-.684a29.917 29.917 0 1 0-2.693 59.71c.895 0 1.795-.04 2.692-.122l7.533-.684A56.365 56.365 0 0 0 104 496h232a55.593 55.593 0 0 0 39.594-16.4 56.293 56.293 0 0 0 8.26-10.486l7.532.684c.901.08 1.818.122 2.724.122a29.918 29.918 0 0 0 20.153-52.005ZM47.177 453.86a13.918 13.918 0 1 1-1.303-27.78q.647 0 1.303.06l48.164 4.379a9.52 9.52 0 0 1 0 18.962Zm27.74 13.544 21.873-1.988a25.52 25.52 0 0 0 0-50.832l-21.914-1.992c.279-.295.556-.59.844-.878A40 40 0 1 1 104 480a40.218 40.218 0 0 1-29.082-12.596Zm289.363.882A39.702 39.702 0 0 1 336 480H143.138a55.876 55.876 0 0 0 0-80H336a39.998 39.998 0 0 1 28.28 68.286Zm29.83-14.366c-.431 0-.867-.02-1.285-.057l-2.488-.226a56.355 56.355 0 0 0-.024-27.272l2.507-.228a13.92 13.92 0 1 1 1.29 27.783Z"/>
    </g>
</svg>
