<svg height="512" width="512" xmlns="http://www.w3.org/2000/svg">
    <path d="M462.756 398.487c24.212-37.991 38.246-83.1 38.246-131.489 0-135.311-109.691-245.002-245.002-245.002S10.998 131.687 10.998 266.998c0 48.39 14.034 93.498 38.246 131.489z" fill="#2a428c"/>
    <path d="M251.017 153.084c29.253 25.379 45.816 42.597 54.561 52.572 6.929 7.901 17.584 11.203 27.811 8.619l12.171-3.077-106.767-107.817c-4.702 2.132-9.264 5.502-10.954 10.788-3.123 9.769 4.675 22.861 23.178 38.915z" fill="#ffc839"/>
    <path d="M365.12 233.814a27.864 27.864 0 0 0-5.934-8.856l-14.851-14.997-11.314 2.86c-9.608 2.43-19.782-.703-26.315-8.155-9.092-10.37-25.729-27.575-54.706-52.715-34.599-30.019-23.595-42.438-12.068-47.42l-20.663-20.867a53.257 53.257 0 0 1-12.498 17.327 53.26 53.26 0 0 1-18.274 11.064l104.63 121.759z" fill="#ffb332"/>
    <path d="M188.622 49.275a8.902 8.902 0 0 1 1.956 8.681l-4.407 14.146a8.867 8.867 0 0 1-.792 1.773c1.678 3.166 7.074 11.841 16.952 14.293 5.272 1.311 10.919.613 16.876-2.059 9.471-19.246 6.75-43.14-8.667-59.85-12.672-13.734-30.871-19.308-48.026-16.474-3.843.635-5.435 5.299-2.794 8.162z" fill="#ffea89"/>
    <path d="M331.762 23.728 350.71 41.38 320.982 73.29l-18.947-17.654zM291.685 142.309c5.305 4.945 7.305 12.209 5.82 18.895l50.545-54.231L322.973 83.6l-50.546 54.231c6.97-2.071 14.231-.209 19.258 4.478z" fill="#bec8f7"/>
    <path d="M240.701 137.765c-10.558 9.742-11.22 26.198-1.479 36.757l20.124 21.811c9.742 10.558 26.198 11.22 36.757 1.479 10.559-9.742 11.22-26.198 1.479-36.757l-20.124-21.811c-9.742-10.559-26.198-11.221-36.757-1.479z" fill="#ffdd40"/>
    <path d="M295.796 164.627c-6.659-6.207-16.989-6.19-23.629.037l-69.334 65.021a23.617 23.617 0 0 0-3.473 4.129h43.805l51.608-63.43a21.43 21.43 0 0 0 2.588-4.066 17.386 17.386 0 0 0-1.565-1.691z" fill="#ff7186"/>
    <path d="m206.448 227.133 65.58-61.501c6.28-5.89 16.051-5.905 22.349-.034a16.458 16.458 0 0 1 2.084 2.353c5.197-8.562 3.819-19.783-3.703-26.793-8.257-7.696-21.065-7.676-29.298.045l-85.968 80.622a29.228 29.228 0 0 0-7.724 11.99h31.789a22.31 22.31 0 0 1 4.891-6.682z" fill="#ff4155"/>
    <path d="M364.713 230.666H201.467c-1.881 2.477-6.312 9.25-4.907 16.581.969 5.051 4.487 9.266 10.464 12.539-.493 2.249-1.479 7.519-1.566 14.02-.151 11.371 2.591 21.041 7.93 27.964 6.847 8.878 17.863 13.49 32.757 13.719l27.897 111.262c-1.668 2.808-8.314 15.265-4.374 29.577 3.083 11.199 11.839 20.568 26.04 27.868-2.337 3.293-7.17 11.495-4.662 20.129.495 1.705 1.262 3.317 2.267 4.846a243.318 243.318 0 0 0 77.695-25.798l-.008-.003 58.256-43.157a246.176 246.176 0 0 0 33.5-41.726V328.71c0-54.062-43.982-98.044-98.043-98.044z" fill="#deeeff"/>
    <path d="M147.287 230.666c-54.061 0-98.043 43.982-98.043 98.044v69.777a246.195 246.195 0 0 0 33.502 41.727L141 483.37l-.004.005C175.289 501.642 214.433 512 256 512a246.7 246.7 0 0 0 38.95-3.086c-8.438-11.81 3.05-25.248 3.05-25.248-45-22.001-22.348-56.668-22.348-56.668l-28.334-113.001c-53.016 0-38.568-54.997-38.568-54.997-21-10.625-5.361-28.334-5.361-28.334z" fill="#bec8f7"/>
    <path d="M364.713 259H205.674c.437.268.883.53 1.35.786-.493 2.249-1.479 7.519-1.566 14.02-.151 11.371 2.591 21.041 7.93 27.964 6.847 8.878 17.863 13.49 32.757 13.719l27.897 111.262c-1.668 2.808-8.314 15.265-4.374 29.577 3.01 10.934 11.442 20.116 25.052 27.339h69.992c2.121 0 4.215-.11 6.287-.296a245.831 245.831 0 0 0 58.304-43.193 69.478 69.478 0 0 0 5.118-26.22V328.71c.001-38.5-31.209-69.71-69.708-69.71z" fill="#ff4155"/>
    <path d="M147.287 259c-38.499 0-69.709 31.21-69.709 69.71v85.247a69.482 69.482 0 0 0 5.118 26.22A245.804 245.804 0 0 0 141 483.37c2.072.186 4.166.296 6.287.296H298c-45-22.001-22.348-56.668-22.348-56.668l-28.334-113.001c-53.016 0-38.568-54.997-38.568-54.997z" fill="#e80054"/>
    <path d="M261.485 441.165c-7.824 0-14.167-6.343-14.167-14.167V313.997c0-7.824 6.343-14.167 14.167-14.167s14.167 6.343 14.167 14.167v113.001c0 7.824-6.343 14.167-14.167 14.167zM134.246 437.712c-7.824 0-14.167-6.343-14.167-14.167V315.782c0-7.824 6.343-14.167 14.167-14.167s14.167 6.343 14.167 14.167v107.763c0 7.825-6.343 14.167-14.167 14.167z" fill="#ffdd40"/>
    <path d="M134.468 439.494a14.168 14.168 0 0 1-14.167-14.116c-.002-.398-.143-39.919-.143-55.001 0-12.503-.079-54.681-.079-54.681a14.166 14.166 0 0 1 14.167-14.195h31.057c34.961 0 58.45 27.727 58.45 68.997 0 39.258-24.096 68.173-57.295 68.752-8.85.155-30.998.24-31.937.244h-.053zm13.97-109.658c.023 13.462.054 32.753.054 40.542 0 9.248.054 27.751.095 40.71 6.386-.041 13.376-.097 17.377-.167 20.348-.355 29.455-20.558 29.455-40.422 0-12.288-2.976-23.035-8.379-30.263-5.231-6.998-12.341-10.4-21.737-10.4zM341.956 383.442a14.167 14.167 0 0 1-11.862-6.421L294 321.743c-4.278-6.552-2.434-15.33 4.117-19.608 6.55-4.278 15.331-2.435 19.608 4.117l24.214 37.084 23.944-36.781c4.269-6.558 13.045-8.412 19.602-4.143 6.557 4.268 8.412 13.045 4.144 19.602l-35.799 54.991a14.166 14.166 0 0 1-11.863 6.438l-.011-.001z" fill="#ffdd40"/>
    <path d="M341.816 441.165h-.035c-7.824-.019-14.152-6.377-14.133-14.202l.141-57.723c.019-7.812 6.358-14.132 14.166-14.132h.035c7.824.019 14.152 6.377 14.133 14.202l-.141 57.723c-.019 7.812-6.359 14.132-14.166 14.132z" fill="#ffdd40"/>
    <path d="m291.616 57.639-11.557-10.772a9.242 9.242 0 0 1-.459-13.061L308.368 2.94a9.242 9.242 0 0 1 13.061-.459l11.557 10.772a9.242 9.242 0 0 1 .459 13.061L304.677 57.18a9.242 9.242 0 0 1-13.061.459z" fill="#d3dcfb"/>
    <path d="M361.688 71.717c-.891 6.344 1.549 12.452 7.252 18.155 20.503 20.504 12.677 57.435 12.583 57.868-.024.136-1.363 8.309 1.923 18.104 2.903-.471 5.741-1.851 8.113-4.321l3.684-3.838c14.276-14.872 20.42-35.771 16.475-56.049a57.469 57.469 0 0 0-17.233-31.062l-19.666-18.33c-5.412 4.362-11.972 11.218-13.131 19.473z" fill="#deeeff"/>
    <path d="M366.365 151.069c-.188 10.447 9.768 16.838 18.512 14.469C381.606 155.968 383 148 383 148s8.344-37.844-13-59.188c-14.819-14.818-2.796-28.525 5.941-35.523l-15.15-14.121c-3.708-3.456-9.508-3.261-12.953.436l-28.892 30.999c-3.446 3.696-3.233 9.495.476 12.952l30.237 28.182a52.494 52.494 0 0 1 16.706 39.332z" fill="#d3dcfb"/>
    <path d="M11.246 256.247c39.401-16.449 109.369-49.421 126.165-82.212 19.79-38.638-37.643-66.433-57.196-77.676-40.507 41.721-66.287 97.806-68.969 159.888zM459.776 130.952c-24.008 14.177-56.572 37.934-40.938 68.456 11.465 22.384 47.709 44.853 82.094 62.093-1.062-48.246-16.071-93.051-41.156-130.549z" fill="#3c58a0"/>
    <path d="M186.17 72.103a8.896 8.896 0 0 1-6.539 6.033l-14.455 3.257a8.902 8.902 0 0 1-8.495-2.646L127.777 47.42c-2.641-2.862-7.419-1.649-8.36 2.13-4.203 16.871-.109 35.459 12.563 49.193 20.015 21.693 53.827 23.054 75.52 3.039a53.24 53.24 0 0 0 12.702-17.81C196.657 95.86 186.17 72.103 186.17 72.103z" fill="#ffdd40"/>
</svg>
