<svg height="512" viewBox="0 0 511.991 511.991" width="512" xmlns="http://www.w3.org/2000/svg">
    <path d="M432.441 251.092c-9.55 23.055-10.151 51.557-.601 74.612l8.218 16.098H85.336s-66.042-37.107 0-103.149l351.658-7.247z" fill="#f1f2f2"/>
    <path d="M440.058 341.805H85.338s-66.04-37.11 0-103.15l351.66-7.25-4.56 19.69a96.593 96.593 0 0 0-5.01 16h-321.88c-12.47 0-22.61 10.14-22.61 22.6 0 12.47 10.14 22.61 22.61 22.61h322c1.08 4.61 2.51 9.1 4.29 13.4z" fill="#dee1e1"/>
    <path d="m434.687 356.863-324.24-.511c-38.845 0-72.205-24.78-72.205-63.625 0-8.58-1.494-19.83 1.319-27.432 9.921-26.817 35.721-45.933 65.987-45.933h332.639c8.762 0 15.865 7.103 15.865 15.865s-7.103 15.865-15.865 15.865h-251.75l-24.586 5.771-21.382-5.771h-34.921c-21.321 0-38.605 17.284-38.605 38.605 0 21.321 17.284 38.605 38.605 38.605h332.639c8.762 0 15.865 7.103 15.865 15.865 0 .632-.037 1.255-.109 1.868-.924 7.882-11.126 10.828-19.256 10.828z" fill="#b7e546"/>
    <path d="M453.938 346.035a15.89 15.89 0 0 1-4.53 9.35c-2.88 2.87-6.84 4.65-11.22 4.65l-164.337 9.849-168.303-9.849c-38.85 0-70.34-31.49-70.34-70.34 0-10.13 2.14-19.76 6-28.46v14.46c0 38.85 31.49 70.34 70.34 70.34z" fill="#abd641"/>
    <path d="M186.437 297.343v-46.251H153.47l-11.705 1.175.703 43.076a2 2 0 0 0 2.729 1.862l8.272-2.022 9.254-3.623c.469-.184.99-.184 1.458 0l19.526 7.646a2.001 2.001 0 0 0 2.73-1.863z" fill="#ef5227"/>
    <path d="M153.47 251.095v44.09l-10.27 4.02c-1.31.51-2.73-.45-2.73-1.86v-46.25z" fill="#d83724"/>
    <path d="M386.846 178.975v22.55l-1 10c0 3.87-3.14 7-7 7l-266.51-1c-3.87 0-7-3.13-7-7l-2-31.55 136.813-6.538zM455.553 197.799c-6.26 15.431-12.559 30.656-18.82 46.088-3.742 9.224 2.98 19.332 12.857 19.332l11.576 1h28.159c9.877 0 16.599-10.108 12.857-19.333l-13.055-32.182-8.211-14.906h-25.363z" fill="#fdcd08"/>
    <path d="M465.633 218.392c8.228.749 16.858-1.411 23.493-5.687l-7.02-17.544-11.601 3.468.001-.003-15.123-2.018c-1.91 4.71-4.687 11.398-6.597 16.108l.001.001-13.051 32.169c-3.74 9.23 2.98 19.33 12.85 19.33h16c-9.87 0-16.59-10.1-12.85-19.33 3.251-8.008 6.499-16.015 9.748-24.023.673-1.661 2.365-2.633 4.149-2.471z" fill="#faab18"/>
    <path d="M492.042 180.229c0-10.219-6.518-18.902-15.586-22.044-2.351-.815-5.768.635-8.392.635-12.749 0-20.596 8.541-20.596 21.41s9.538 20.59 22.287 20.59c2.625 0 4.35 2.268 6.701 1.454 9.068-3.142 15.586-11.825 15.586-22.045z" fill="#fdcd08"/>
    <path d="M476.456 202.275c-2.35.82-4.88 1.26-7.5 1.26-12.75 0-23.08-10.44-23.08-23.31 0-12.86 10.33-23.3 23.08-23.3 2.62 0 5.15.44 7.5 1.26-9.07 3.14-15.58 11.83-15.58 22.04 0 10.22 6.51 18.91 15.58 22.05z" fill="#faab18"/>
    <path d="m470.805 103.279-65.959 22.834-17.999-1.846-128.029 52.398a41.96 41.96 0 0 1-27.456 0L103.336 126.31l-18-.196-65.963-22.835c-7.53-2.607-7.53-13.256 0-15.862l214.49-74.252a34.31 34.31 0 0 1 22.452 0l214.49 74.252c7.53 2.606 7.53 13.255 0 15.862z" fill="#868491"/>
    <path d="M404.846 119.345v6.77l-146.03 50.55a41.959 41.959 0 0 1-27.46 0l-146.02-50.55v-6.77c0-14.27 10.19-26.45 24.24-28.98 44.64-8 90.23-12.05 135.51-12.05s90.88 4.05 135.52 12.05c6.8 1.23 12.97 4.81 17.39 10.1 4.4 5.25 6.85 11.97 6.85 18.88z" fill="#77777f"/>
    <path d="M386.846 119.345v59.63h-280.51l-1-57.63c0-5.54 3.97-10.28 9.42-11.26 2.857-.512 3.717-3.007 6.579-3.486a750.28 750.28 0 0 1 123.751-10.284c44.29 0 88.58 3.93 132.34 11.77 2.72.49 5.08 1.92 6.75 3.92 1.68 2 2.67 4.57 2.67 7.34z" fill="#868491"/>
    <path d="M386.846 201.525v11c0 3.87-3.14 7-7 7h-269.51a7 7 0 0 1-7-7v-33.55l9-6.538 9 6.538v17.55a5 5 0 0 0 5 5z" fill="#faab18"/>
    <path d="M121.336 106.605v72.37h-18v-59.63c0-5.54 3.97-10.28 9.42-11.26 2.86-.51 5.72-1.01 8.58-1.48z" fill="#77777f"/>
    <path d="M458.864 466.143a94.088 94.088 0 0 1 0-72.014l3.043-13.518H52.994s-46.031 50.043 2.991 99.064l408.584 3.064z" fill="#f1f2f2"/>
    <path d="m464.568 482.735-408.58-3.06c-49.03-49.02-2.99-99.06-2.99-99.06l410.874.759-5.004 12.751a93.698 93.698 0 0 0-4.47 13.64H79.108c-12.47 0-22.61 10.14-22.61 22.6 0 12.47 10.14 22.61 22.61 22.61h375.41a94.86 94.86 0 0 0 4.35 13.17z" fill="#dee1e1"/>
    <path d="m457.681 497.203-369.702-.681c-38.845 0-73.021-21.921-73.021-60.766 0-12.328-3.015-29.304 2.557-39.379 11.985-21.67 35.075-36.344 61.591-36.344h385.523c8.762 0 15.865 7.103 15.865 15.865s-7.103 15.865-15.865 15.865h-95.521l-24.959 5.525-21.008-5.525H79.106c-21.321 0-38.605 17.284-38.605 38.605 0 21.321 17.284 38.605 38.605 38.605h385.523c8.762 0 15.865 7.103 15.865 15.865 0 .979-.089 1.936-.258 2.866-1.349 7.394-14.772 9.499-22.555 9.499z" fill="#ef5227"/>
    <path d="M480.238 487.705c-.59 3.24-2.16 6.12-4.39 8.35a15.826 15.826 0 0 1-11.22 4.65H79.108c-38.85 0-70.34-31.49-70.34-70.34 0-13.9 4.03-26.86 11-37.78v24.78c0 38.85 31.49 70.34 70.34 70.34z" fill="#d83724"/>
    <path d="M369.108 438.374v-46.625H338.14l-13.736.836.736 43.789a2 2 0 0 0 2.729 1.862l10.27-2.805 7.256-2.841c.469-.184.99-.184 1.458 0l19.526 7.646a2 2 0 0 0 2.729-1.862z" fill="#fdcd08"/>
    <path d="M338.14 391.745v43.69l-12.27 4.8c-1.31.51-2.73-.45-2.73-1.86v-46.63z" fill="#faab18"/>
    <path d="m510.417 238.81-16.646-41.034A30.392 30.392 0 0 0 501 178.068c0-14.16-9.661-26.09-22.693-29.457-.002-1.973.002-51.395 0-53.491 0-6.813-4.16-12.655-10.598-14.884L256.852 7.241a41.402 41.402 0 0 0-26.98 0l-52.499 18.174a7.5 7.5 0 0 0-4.634 9.54 7.5 7.5 0 0 0 9.541 4.634l52.499-18.174a26.335 26.335 0 0 1 17.165 0l210.857 72.994c.225.078.505.176.505.71s-.28.632-.505.71l-72.587 25.129v-2.246a18.727 18.727 0 0 0-15.437-18.45c-87.201-15.64-175.631-15.64-262.832 0a18.728 18.728 0 0 0-15.437 18.45v2.246L23.922 95.829c-.225-.078-.505-.176-.505-.71s.28-.632.505-.71l124.676-43.16a7.5 7.5 0 1 0-4.907-14.174L19.015 80.236c-6.438 2.229-10.598 8.07-10.598 14.884s4.16 12.655 10.598 14.884l77.494 26.827v74.226c-39.285 3.911-70.067 37.15-70.067 77.447 0 26.928 13.75 50.701 34.593 64.681C26.168 360.889 0 392.024 0 429.174c0 42.918 34.917 77.835 77.835 77.835h385.523c12.884 0 23.365-10.481 23.365-23.365 0-12.725-10.226-23.099-22.891-23.353-7.836-20.138-7.896-42.063-.181-62.229 12.749-.158 23.072-10.572 23.072-23.358 0-12.884-10.481-23.365-23.365-23.365h-4.631c1-2.599 1.554-5.418 1.554-8.365 0-12.884-10.481-23.365-23.365-23.365h-.202c-7.266-18.839-7.738-39.225-1.415-58.266a21.067 21.067 0 0 0 15.485 6.793h40.044a21.096 21.096 0 0 0 17.515-9.345 21.346 21.346 0 0 0 2.074-19.981zM486 178.068c0 8.495-6.816 15.406-15.193 15.406s-15.193-6.911-15.193-15.406 6.816-15.407 15.193-15.407S486 169.572 486 178.068zm-22.693-66.541v37.084c-13.032 3.367-22.693 15.297-22.693 29.457a30.39 30.39 0 0 0 7.229 19.708l-5.23 12.891h-52.398v-73.836zm-348.714 3.499c85.444-15.322 172.093-15.322 257.537 0a3.742 3.742 0 0 1 3.084 3.687v51.117H329c-4.142 0-7.5 3.357-7.5 7.5s3.358 7.5 7.5 7.5h46.214v25.838H111.509V184.83H294c4.142 0 7.5-3.357 7.5-7.5s-3.358-7.5-7.5-7.5H111.509v-51.117a3.742 3.742 0 0 1 3.084-3.687zm357.131 259.677c0 4.612-3.752 8.365-8.365 8.365H77.835c-25.422 0-46.105 20.683-46.105 46.105s20.683 46.104 46.105 46.104H374c4.142 0 7.5-3.357 7.5-7.5s-3.358-7.5-7.5-7.5H77.835c-17.151 0-31.105-13.953-31.105-31.104s13.954-31.105 31.105-31.105H314.37v42.042a7.499 7.499 0 0 0 10.235 6.983l20.249-7.929 20.249 7.929a7.494 7.494 0 0 0 6.962-.788 7.499 7.499 0 0 0 3.273-6.195v-42.042h72.397c-6.518 20.321-6.471 41.909.148 62.21H409c-4.142 0-7.5 3.357-7.5 7.5s3.358 7.5 7.5 7.5h54.358c4.613 0 8.365 3.753 8.365 8.365s-3.752 8.365-8.365 8.365H77.835C43.188 492.009 15 463.821 15 429.173s28.188-62.835 62.835-62.835h385.523c4.613 0 8.366 3.753 8.366 8.365zM329.37 398.069h30.968v31.051l-12.749-4.992a7.496 7.496 0 0 0-5.47 0l-12.749 4.992zM201 334.608h235.917c4.613 0 8.365 3.753 8.365 8.365s-3.752 8.365-8.365 8.365h-332.64c-34.647 0-62.835-28.188-62.835-62.836s28.188-62.835 62.835-62.835h332.25c-1.853 4.974-5.277 12.025-6.429 16.73H104.277c-25.422 0-46.105 20.683-46.105 46.105s20.683 46.104 46.105 46.104H166c4.142 0 7.5-3.357 7.5-7.5s-3.358-7.5-7.5-7.5h-61.723c-17.151 0-31.105-13.953-31.105-31.104s13.954-31.105 31.105-31.105h27.421v41.682a7.499 7.499 0 0 0 10.235 6.983l20.249-7.929 20.249 7.929a7.494 7.494 0 0 0 6.962-.788 7.499 7.499 0 0 0 3.273-6.195v-41.682h228.118c-6.568 20.311-6.568 41.899 0 62.21H201a7.5 7.5 0 0 0 0 15.001zm-54.302-77.21h30.968v30.69l-12.749-4.992a7.496 7.496 0 0 0-5.47 0l-12.749 4.992zm349.204-6.987c-.551.819-2.15 2.724-5.074 2.724h-40.044c-2.924 0-4.522-1.905-5.074-2.724-1.204-1.787-1.428-3.961-.616-5.963l15.344-37.822c3.235 1.195 6.727 1.847 10.368 1.847s7.133-.652 10.368-1.847l15.343 37.822c.813 2.003.589 4.176-.615 5.963z"/>
</svg>
