<svg height="512" width="512" xmlns="http://www.w3.org/2000/svg">
    <path d="M340 55V5h-31.5l-6 8.7-4-8.7h-23l-7 9.3-5-9.3H240l-8 18.2-27.7 5.2L186 59.8V138l18 33-18 336h135l-17-234.5V171l60-43V62z" fill="#ef917b"/>
    <path d="M300.4 107.7c-3.6 0-7.2-.6-10.7-1.7-16-5.2-23.8-20.6-24.2-21.3-.6-1.3-.7-2.7-.2-4s1.5-2.3 2.8-2.9l70-27.5 3.7 9.3-64.3 25.3c3 3.9 8.2 9.3 15.4 11.6 6.9 2.2 14.6 1.2 22.8-3 .1 0 .2-.1.3-.1l22-9.7 4 9.2-21.9 9.6c-6.7 3.5-13.4 5.2-19.7 5.2z" fill="#e96b4e"/>
    <path d="m269.9 143.7-9.8-2.2 5-22.7c.4-2 2-3.5 4.1-3.9l46.8-7.8-2.7-7.6 9.4-3.4 4.8 13.3c.5 1.4.4 2.9-.4 4.2s-2 2.2-3.5 2.4l-49.4 8.2zM242 99h-23c-2.2 0-4.2-1.5-4.8-3.6l-10.8-37.3 9.6-2.8 9.8 33.7h15.6l2.5-7.6c.7-2 2.5-3.4 4.6-3.4l24.3-.5.2 10-20.8.4-2.6 7.7c-.5 2-2.4 3.4-4.6 3.4z" fill="#e96b4e"/>
    <path d="m236.855 22.081 13.63 59.865-9.75 2.22-13.63-59.865zM273.505 14.32l1.5 68.2-10 .22-1.5-68.2zM297.572 13.593l10 .27-1.53 56.7-10-.27zM198 70h16v10h-16zM304 231v-40H202.9l-2.1 40z" fill="#e96b4e"/>
    <path d="M186 191h134v20H186z" fill="#d84861"/>
    <path d="M159 216v-50h-31.5l-6 8.7-4-8.7h-23l-7 9.3-5-9.3H59l-8 18.2-27.7 5.2L5 220.8V299l18 33-2 175h106.9l-4.9-73.5V332l60-43v-66z" fill="#f5b7a9"/>
    <path d="M119.4 268.7c-3.6 0-7.2-.6-10.7-1.7-16-5.2-23.8-20.6-24.2-21.3-.6-1.3-.7-2.7-.2-4s1.5-2.3 2.8-2.9l70-27.5 3.7 9.3-64.3 25.3c3 3.9 8.2 9.3 15.4 11.6 6.9 2.2 14.6 1.2 22.8-3 .1 0 .2-.1.3-.1l22-9.7 4 9.2-21.9 9.6c-6.7 3.5-13.4 5.2-19.7 5.2z" fill="#ef917b"/>
    <path d="m88.9 304.7-9.8-2.2 5-22.7c.4-2 2-3.5 4.1-3.9l46.8-7.8-2.7-7.6 9.4-3.4 4.8 13.3c.5 1.4.4 2.9-.4 4.2s-2 2.2-3.5 2.4l-49.4 8.2zM61 260H38c-2.2 0-4.2-1.5-4.8-3.6l-10.8-37.3 9.6-2.8 9.8 33.7h15.6l2.5-7.6c.7-2 2.5-3.4 4.6-3.4l24.3-.5.2 10-20.8.4-2.6 7.7c-.5 2-2.4 3.4-4.6 3.4z" fill="#ef917b"/>
    <path d="m55.889 183.052 13.63 59.865-9.75 2.22-13.63-59.865zM92.466 175.278l1.5 68.2-10 .22-1.5-68.2zM116.5 174.643l10 .27-1.532 56.7-10-.27zM17 231h16v10H17zM65 327h58v10H65zM22.8 352l-.7 60H123v-60z" fill="#ef917b"/>
    <path d="M5 352h134v20H5z" fill="#d84861"/>
    <path d="M483 216v-50h-31.5l-6 8.7-4-8.7h-23l-7 9.3-5-9.3H383l-8 18.2-27.7 5.2-18.3 31.4V299l18 33-2 175h106.9l-4.9-73.5V332l60-43v-66z" fill="#f5b7a9"/>
    <path d="M443.4 268.7c-3.6 0-7.2-.6-10.7-1.7-16-5.2-23.8-20.6-24.2-21.3-.6-1.3-.7-2.7-.2-4s1.5-2.3 2.8-2.9l70-27.5 3.7 9.3-64.3 25.3c3 3.9 8.2 9.3 15.4 11.6 6.9 2.2 14.6 1.2 22.8-3 .1 0 .2-.1.3-.1l22-9.7 4 9.2-21.9 9.6c-6.7 3.5-13.4 5.2-19.7 5.2z" fill="#ef917b"/>
    <path d="m412.9 304.7-9.8-2.2 5-22.7c.4-2 2-3.5 4.1-3.9l46.8-7.8-2.7-7.6 9.4-3.4 4.8 13.3c.5 1.4.4 2.9-.4 4.2s-2 2.2-3.5 2.4l-49.4 8.2zM385 260h-23c-2.2 0-4.2-1.5-4.8-3.6l-10.8-37.3 9.6-2.8 9.8 33.7h15.6l2.5-7.6c.7-2 2.5-3.4 4.6-3.4l24.3-.5.2 10-20.8.4-2.6 7.7c-.5 2-2.4 3.4-4.6 3.4z" fill="#ef917b"/>
    <path d="m379.83 183.05 13.63 59.865-9.75 2.22-13.63-59.865zM416.467 175.356l1.5 68.2-10 .22-1.5-68.2zM440.616 174.658l10 .27-1.53 56.7-10-.27zM341 231h16v10h-16zM389 327h58v10h-58zM346.8 352l-.9 77.5L447 414.4V352z" fill="#ef917b"/>
    <path d="M329 352h134v20H329z" fill="#1f3e75"/>
    <path d="m463 392-134 20v-20l134-20z" fill="#d84861"/>
    <path d="M246 166h58v10h-58z" fill="#e96b4e"/>
    <path d="M19 381h106v10H19z" fill="#d7d5c1"/>
    <g fill="#ebeae0">
        <circle cx="19" cy="386" r="14"/>
        <circle cx="54.3" cy="386" r="14"/>
        <circle cx="89.7" cy="386" r="14"/>
        <circle cx="125" cy="386" r="14"/>
    </g>
    <path d="m207.9 191.3-10-.5 1-18.6-17.3-31.8c-.4-.7-.6-1.6-.6-2.4V59.8c0-.9.2-1.8.7-2.5L200 25.9c.7-1.3 2-2.1 3.4-2.4l25.1-4.8L235.4 3c.8-1.8 2.6-3 4.6-3h23.5c1.8 0 3.5 1 4.4 2.6l1.3 2.4 2.3-3.1c.9-1.3 2.4-2 4-2h23c2 0 3.7 1.1 4.5 2.9l.3.7 1-1.5c.9-1.3 2.5-2.2 4.1-2.2H340c2.8 0 5 2.2 5 5v46.3l20.4 6c2.1.6 3.6 2.6 3.6 4.8v66c0 1.6-.8 3.1-2.1 4.1L309 173.6V191h-10v-20c0-1.6.8-3.1 2.1-4.1l57.9-41.5V65.8l-20.4-6c-2.1-.6-3.6-2.6-3.6-4.8V10h-23.9l-4.5 6.5c-1 1.5-2.8 2.3-4.5 2.1-1.8-.2-3.4-1.3-4.1-2.9l-2.7-5.8H278l-5.5 7.3c-1 1.4-2.7 2.1-4.4 2s-3.2-1.1-4-2.6l-3.6-6.7h-17.2l-6.7 15.2c-.7 1.5-2 2.6-3.6 2.9l-25.5 4.8L191 61.2v75.6l17.4 31.9c.4.8.7 1.7.6 2.7zM321 512H186c-1.4 0-2.7-.6-3.6-1.6s-1.4-2.3-1.4-3.7l15.8-295.8 10 .5L191.3 502h124.3L299 272.9V211h10v61.3l17 234.3c.1 1.4-.4 2.8-1.3 3.8s-2.3 1.6-3.7 1.6z" fill="#10203c"/>
    <path d="M300.4 107.7c-3.6 0-7.2-.6-10.7-1.7-16-5.2-23.8-20.6-24.2-21.3-.6-1.3-.7-2.7-.2-4s1.5-2.3 2.8-2.9l70-27.5 3.7 9.3-64.3 25.3c3 3.9 8.2 9.3 15.4 11.6 6.9 2.2 14.6 1.2 22.8-3 .1 0 .2-.1.3-.1l22-9.7 4 9.2-21.9 9.6c-6.7 3.5-13.4 5.2-19.7 5.2z" fill="#10203c"/>
    <path d="m269.9 143.7-9.8-2.2 5-22.7c.4-2 2-3.5 4.1-3.9l46.8-7.8-2.7-7.6 9.4-3.4 4.8 13.3c.5 1.4.4 2.9-.4 4.2s-2 2.2-3.5 2.4l-49.4 8.2zM242 99h-23c-2.2 0-4.2-1.5-4.8-3.6l-10.8-37.3 9.6-2.8 9.8 33.7h15.6l2.5-7.6c.7-2 2.5-3.4 4.6-3.4l24.3-.5.2 10-20.8.4-2.6 7.7c-.5 2-2.4 3.4-4.6 3.4z" fill="#10203c"/>
    <path d="m236.855 22.081 13.63 59.865-9.75 2.22-13.63-59.865zM273.505 14.32l1.5 68.2-10 .22-1.5-68.2zM297.572 13.593l10 .27-1.53 56.7-10-.27zM198 70h16v10h-16zM246 166h58v10h-58zM320 216H186c-2.8 0-5-2.2-5-5v-20c0-2.8 2.2-5 5-5h134c2.8 0 5 2.2 5 5v20c0 2.8-2.2 5-5 5zm-129-10h124v-10H191zM27.8 352.1l-10-.1.2-18.7L.6 301.4c-.4-.7-.6-1.6-.6-2.4v-78.2c0-.9.2-1.8.7-2.5L19 186.9c.7-1.3 2-2.1 3.4-2.4l25.1-4.8 6.9-15.7c.8-1.8 2.6-3 4.6-3h23.5c1.8 0 3.5 1 4.4 2.6l1.3 2.4 2.3-3.1c.9-1.3 2.4-2 4-2h23c2 0 3.7 1.1 4.5 2.9l.3.7 1-1.5c.9-1.3 2.5-2.2 4.1-2.2H159c2.8 0 5 2.2 5 5v30h-10v-25h-23.9l-4.5 6.5c-1 1.5-2.8 2.3-4.5 2.1-1.8-.2-3.4-1.3-4.1-2.9l-2.7-5.8H97l-5.5 7.3c-1 1.4-2.7 2.1-4.4 2s-3.2-1.1-4-2.6l-3.6-6.7H62.3l-6.7 15.2c-.7 1.5-2 2.6-3.6 2.9l-25.5 4.8L10 222.2v75.6l17.4 31.9c.4.8.6 1.6.6 2.5z" fill="#10203c"/>
    <path d="M128 352h-10v-20c0-1.6.8-3.1 2.1-4.1l57.9-41.5v-59.7l-18.8-5.5-62.7 24.6c3 3.9 8.2 9.3 15.4 11.6 6.9 2.2 14.6 1.2 22.8-3 .1 0 .2-.1.3-.1l22-9.7 4 9.2-21.9 9.6c-10.7 5.5-20.9 6.6-30.5 3.5-16-5.2-23.8-20.6-24.2-21.3-.6-1.3-.7-2.7-.2-4s1.5-2.3 2.8-2.9l70-27.5c1-.4 2.2-.5 3.2-.1l24 7c2.1.6 3.6 2.6 3.6 4.8v66c0 1.6-.8 3.1-2.1 4.1L128 334.6zM127.9 512H21c-1.3 0-2.6-.5-3.6-1.5s-1.5-2.2-1.4-3.6l1.2-107.6 10 .1L26.1 502h96.5l-4.6-68.2V400h10v33.3l4.9 73.3c.1 1.4-.4 2.7-1.3 3.8-.9 1-2.3 1.6-3.7 1.6z" fill="#10203c"/>
    <path d="m88.9 304.7-9.8-2.2 5-22.7c.4-2 2-3.5 4.1-3.9l46.8-7.8-2.7-7.6 9.4-3.4 4.8 13.3c.5 1.4.4 2.9-.4 4.2s-2 2.2-3.5 2.4l-49.4 8.2zM61 260H38c-2.2 0-4.2-1.5-4.8-3.6l-10.8-37.3 9.6-2.8 9.8 33.7h15.6l2.5-7.6c.7-2 2.5-3.4 4.6-3.4l24.3-.5.2 10-20.8.4-2.6 7.7c-.5 2-2.4 3.4-4.6 3.4z" fill="#10203c"/>
    <path d="m55.889 183.052 13.63 59.865-9.75 2.22-13.63-59.865zM92.466 175.278l1.5 68.2-10 .22-1.5-68.2zM116.5 174.643l10 .27-1.532 56.7-10-.27zM17 231h16v10H17zM65 327h58v10H65zM139 377H5c-2.8 0-5-2.2-5-5v-20c0-2.8 2.2-5 5-5h134c2.8 0 5 2.2 5 5v20c0 2.8-2.2 5-5 5zM10 367h124v-10H10zM451.9 512H345c-1.3 0-2.6-.5-3.6-1.5s-1.5-2.2-1.4-3.6l.9-77.5 10 .1-.8 72.5h96.5l-4.6-68.2V394h10v39.3l4.9 73.3c.1 1.4-.4 2.7-1.3 3.8-.9 1-2.3 1.6-3.7 1.6zM341.346 372.13l10 .12-.209 17.4-10-.12zM351.8 352.1l-10-.1.2-18.7-17.4-31.9c-.4-.7-.6-1.6-.6-2.4v-78.2c0-.9.2-1.8.7-2.5l18.3-31.4c.7-1.3 2-2.1 3.4-2.4l25.1-4.8 6.9-15.7c.8-1.8 2.6-3 4.6-3h23.5c1.8 0 3.5 1 4.4 2.6l1.3 2.4 2.3-3.1c.9-1.3 2.4-2 4-2h23c2 0 3.7 1.1 4.5 2.9l.3.7 1-1.5c.9-1.3 2.5-2.2 4.1-2.2H483c2.8 0 5 2.2 5 5v46.3l20.4 6c2.1.6 3.6 2.6 3.6 4.8v66c0 1.6-.8 3.1-2.1 4.1L452 334.6V352h-10v-20c0-1.6.8-3.1 2.1-4.1l57.9-41.5v-59.7l-20.4-6c-2.1-.6-3.6-2.6-3.6-4.8v-45h-23.9l-4.5 6.5c-1 1.5-2.8 2.3-4.5 2.1-1.8-.2-3.4-1.3-4.1-2.9l-2.7-5.8H421l-5.5 7.3c-1 1.4-2.7 2.1-4.4 2s-3.2-1.1-4-2.6l-3.6-6.7h-17.2l-6.7 15.2c-.7 1.5-2 2.6-3.6 2.9l-25.5 4.8-16.5 28.5v75.6l17.4 31.9c.4.8.6 1.6.6 2.5z" fill="#10203c"/>
    <path d="M443.4 268.7c-3.6 0-7.2-.6-10.7-1.7-16-5.2-23.8-20.6-24.2-21.3-.6-1.3-.7-2.7-.2-4s1.5-2.3 2.8-2.9l70-27.5 3.7 9.3-64.3 25.3c3 3.9 8.2 9.3 15.4 11.6 6.9 2.2 14.6 1.2 22.8-3 .1 0 .2-.1.3-.1l22-9.7 4 9.2-21.9 9.6c-6.7 3.5-13.4 5.2-19.7 5.2z" fill="#10203c"/>
    <path d="m412.9 304.7-9.8-2.2 5-22.7c.4-2 2-3.5 4.1-3.9l46.8-7.8-2.7-7.6 9.4-3.4 4.8 13.3c.5 1.4.4 2.9-.4 4.2s-2 2.2-3.5 2.4l-49.4 8.2zM385 260h-23c-2.2 0-4.2-1.5-4.8-3.6l-10.8-37.3 9.6-2.8 9.8 33.7h15.6l2.5-7.6c.7-2 2.5-3.4 4.6-3.4l24.3-.5.2 10-20.8.4-2.6 7.7c-.5 2-2.4 3.4-4.6 3.4z" fill="#10203c"/>
    <path d="m379.83 183.05 13.63 59.865-9.75 2.22-13.63-59.865zM416.467 175.356l1.5 68.2-10 .22-1.5-68.2zM440.616 174.658l10 .27-1.53 56.7-10-.27zM341 231h16v10h-16zM389 327h58v10h-58zM463 377H329c-2.8 0-5-2.2-5-5v-20c0-2.8 2.2-5 5-5h134c2.8 0 5 2.2 5 5v20c0 2.8-2.2 5-5 5zm-129-10h124v-10H334z" fill="#10203c"/>
    <path d="M329 417c-1.2 0-2.4-.4-3.3-1.2-1.1-.9-1.7-2.3-1.7-3.8v-20c0-2.5 1.8-4.6 4.3-4.9l134-20c1.4-.2 2.9.2 4 1.2 1.1.9 1.7 2.3 1.7 3.8v20c0 2.5-1.8 4.6-4.3 4.9l-134 20h-.7zm5-20.7v9.9l124-18.5v-9.9zM19 405c-10.5 0-19-8.5-19-19s8.5-19 19-19 19 8.5 19 19-8.5 19-19 19zm0-28c-5 0-9 4-9 9s4 9 9 9 9-4 9-9-4-9-9-9z" fill="#10203c"/>
    <path d="M54.3 405c-10.5 0-19-8.5-19-19s8.5-19 19-19 19 8.5 19 19-8.5 19-19 19zm0-28c-5 0-9 4-9 9s4 9 9 9 9-4 9-9-4-9-9-9z" fill="#10203c"/>
    <path d="M89.7 405c-10.5 0-19-8.5-19-19s8.5-19 19-19 19 8.5 19 19-8.6 19-19 19zm0-28c-5 0-9 4-9 9s4 9 9 9 9-4 9-9-4.1-9-9-9z" fill="#10203c"/>
    <path d="M125 405c-10.5 0-19-8.5-19-19s8.5-19 19-19 19 8.5 19 19-8.5 19-19 19zm0-28c-5 0-9 4-9 9s4 9 9 9 9-4 9-9-4-9-9-9zM33 381h7v10h-7zM68 381h8v10h-8z" fill="#10203c"/>
    <path d="M104 381h7v10h-7z" fill="#10203c"/>
</svg>
