<svg height="512" viewBox="0 0 256 256" width="512" xmlns="http://www.w3.org/2000/svg">
    <path d="M233.01 149.275c-5.9 27.34-22.38 52.72-49.4 69.19-1.59.97-3.21 1.89-4.83 2.77a107.43 107.43 0 0 1-19.22 8.09 107.39 107.39 0 0 1-27.96 4.77c-2.73.11-5.47.11-8.2-.01-9.48-.35-18.88-1.96-27.95-4.78-6.62-2.05-13.07-4.75-19.23-8.08-12.04-6.49-23.02-15.39-32.18-26.57a107.832 107.832 0 0 1-22.09-45.35c-8.79-39.83 5.1-84.23 45.03-112.77.01-.01.01-.01.02-.01 34.42-23.7 82.6-25.44 119.92-.75 39.72 26.24 55.03 72.11 46.09 113.5z" fill="#72c2e9"/>
    <g fill="#4ba5c8">
        <path d="M27.62 167.315c2.82 6.77 6.36 13.37 10.64 19.64-4.26-6.22-7.81-12.81-10.64-19.64zM73.33 194.655l2.89 26.57c-12.04-6.49-23.02-15.39-32.18-26.57zM108.73 172.015l-6.32 58c-.04.4-.05.8-.02 1.2-2.33-.56-4.65-1.2-6.94-1.91v-.05l5.15-47.32-7.33 5.1c-.25.17-.51.34-.77.49.58-1.38.9-2.91.9-4.51v-4.6l12.04-8.36c1.48-1.03 3.48.16 3.29 1.96zM138.25 231.575c.07.71.25 1.39.52 2.01-2.39.25-4.78.42-7.17.51-.14-.57-.25-1.16-.31-1.76l-2.57-23.57c-.06-.62-.6-1.09-1.22-1.09-.63 0-1.15.47-1.22 1.1l-2.57 23.55c-.06.6-.17 1.19-.31 1.76-2.39-.09-4.78-.26-7.16-.51.26-.62.44-1.29.51-2l2.57-23.57a8.222 8.222 0 0 1 8.18-7.33c4.19 0 7.73 3.17 8.18 7.33zM191.18 172.015l-4.87 44.75c-.88.58-1.79 1.14-2.7 1.7-1.59.97-3.21 1.89-4.83 2.77l4.28-39.3-7.33 5.1a12.243 12.243 0 0 1-7 2.19c-2.51 0-4.93-.76-6.99-2.19l-7.34-5.1 5.15 47.32c0 .02 0 .05.01.07-2.3.72-4.62 1.35-6.95 1.91.03-.4.02-.81-.02-1.22l-6.32-58.01c-.19-1.79 1.81-2.98 3.29-1.95l16.18 11.23a5.253 5.253 0 0 0 5.99 0l16.16-11.23c1.48-1.03 3.49.16 3.29 1.96z"/>
        <path d="m181.53 161.465-12.81 8.89-20.88-14.5a13.986 13.986 0 0 0-7.99-2.51l-24.7.01c-2.86 0-5.65.87-7.99 2.5l-13.76 9.56v-8.53l9.76-6.78c1.84-1.28 3.86-2.24 5.97-2.87a19.51 19.51 0 0 1-1.07-6.33c0-10.72 8.72-19.45 19.44-19.45s19.44 8.73 19.44 19.45c0 2.22-.39 4.34-1.07 6.33 2.1.63 4.11 1.58 5.96 2.86l16.89 11.73 11.8-8.19v3.97c0 1.4.36 2.72 1.01 3.86z"/>
    </g>
    <path d="M233.46 147.455c-.06.37-.15.76-.22 1.14-.05.25-.11.5-.16.74-1.22 5.56-2.87 10.97-4.93 16.19h-39.71c-2.97 0-5.56-1.64-6.91-4.06a7.768 7.768 0 0 1-1.01-3.86v-24.33c0-7.48-6.06-13.53-13.53-13.53h-7.71c-4.37 0-7.92-3.55-7.92-7.92v-49.59c0-4.38 3.55-7.92 7.92-7.92h49c21.72 24.5 32.1 58.47 25.18 93.14z" fill="#13bf6d"/>
    <path d="M233.08 149.335c-.53 2.42-1.14 4.81-1.84 7.17l-.05-.04-.89-.61a14.01 14.01 0 0 0-7.99-2.51l-24.71.01c-2.86 0-5.65.87-7.99 2.5l-8.08 5.61a7.768 7.768 0 0 1-1.01-3.86v-3.96l5.1-3.54c1.84-1.28 3.85-2.24 5.97-2.87-.69-1.99-1.08-4.11-1.08-6.33 0-10.72 8.73-19.45 19.45-19.45s19.44 8.73 19.44 19.45c0 2.22-.39 4.34-1.08 6.33 1.66.5 3.26 1.2 4.76 2.1z" fill="#139c6e"/>
    <path d="M118.24 48.165v42.15c0 6.43-5.21 11.64-11.64 11.64H81.76c-6.43 0-11.64 5.21-11.64 11.64v10.5c0 6.43 5.21 11.64 11.64 11.64 6.42 0 11.64 5.2 11.64 11.64v35.64c0 1.6-.32 3.12-.9 4.5v.01c-1.77 4.19-5.91 7.13-10.74 7.13H44.04a108.1 108.1 0 0 1-5.78-7.7c-4.28-6.27-7.82-12.87-10.64-19.64l-.06-.15c-.23-.57-.46-1.14-.69-1.72l-.6-1.56c-.04-.1-.08-.21-.12-.31-.19-.52-.38-1.05-.56-1.57-.27-.74-.52-1.49-.77-2.24-.27-.81-.53-1.63-.77-2.45-.08-.22-.15-.44-.21-.67-.42-1.42-.81-2.85-1.17-4.28-.26-1.02-.5-2.03-.73-3.05-.61-2.75-1.11-5.51-1.5-8.26-5.51-38.44 10.55-79.61 46.33-104.38.07-.04.14-.09.21-.14.01-.01.01-.01.02-.01h39.6c6.43 0 11.64 5.21 11.64 11.64z" fill="#13bf6d"/>
    <path d="M93.4 156.895v8.52l-7.12 4.94-20.89-14.5a14.01 14.01 0 0 0-7.99-2.51H45.05l-12.36.01a14 14 0 0 0-7.99 2.5l-.91.55c-.69-2.32-1.31-4.69-1.85-7.09 1.5-.9 3.09-1.59 4.74-2.08-.69-1.99-1.08-4.11-1.08-6.33 0-10.72 8.72-19.45 19.44-19.45s19.45 8.73 19.45 19.45c0 2.21-.39 4.34-1.08 6.32 2.12.64 4.13 1.6 5.98 2.89l16.89 11.72zM89.27 181.285l4.13-2.87v4.6c0 1.6-.32 3.12-.9 4.5a12.203 12.203 0 0 1-13.21-.48l-7.35-5.1 1.38 12.72h-7.04l-2.46-22.65c-.2-1.79 1.8-2.98 3.29-1.95l16.17 11.23a5.253 5.253 0 0 0 5.99 0z" fill="#139c6e"/>
    <path d="M22.67 152.365c.36 1.43.75 2.86 1.17 4.28-.42-1.42-.82-2.85-1.17-4.28z" fill="#13bf6d"/>
    <circle cx="45.042" cy="140.903" fill="#feb69e" r="12.444"/>
    <circle cx="127.5" cy="140.903" fill="#feb69e" r="12.444"/>
    <circle cx="209.957" cy="140.903" fill="#feb69e" r="12.444"/>
    <path d="M250.53 176.175a5.345 5.345 0 0 1-7.44 1.35l-11.07-7.47c-1.48-1.03-3.48.16-3.29 1.95l6.31 58.01c.03.26.04.53.04.79 0 3.92-3.19 7.2-7.21 7.2-3.68 0-6.77-2.77-7.16-6.43l-2.57-23.57c-.45-4.16-3.99-7.33-8.19-7.33s-7.72 3.16-8.17 7.33l-2.57 23.57a7.203 7.203 0 0 1-7.16 6.43h-.01c-4.29 0-7.63-3.73-7.17-7.99l1.44-13.25 4.87-44.75c.2-1.8-1.81-2.99-3.29-1.96l-16.16 11.23a5.253 5.253 0 0 1-5.99 0l-16.18-11.23c-1.48-1.03-3.48.16-3.29 1.95l6.32 58.01c.04.41.05.82.02 1.22-.22 3.73-3.32 6.77-7.19 6.77h-.01c-2.97 0-5.55-1.8-6.64-4.42-.27-.62-.45-1.3-.52-2.01l-2.57-23.57c-.45-4.16-3.99-7.33-8.18-7.33-4.21 0-7.72 3.16-8.18 7.33l-2.57 23.57c-.07.71-.25 1.38-.51 2a7.207 7.207 0 0 1-6.65 4.43h-.01c-3.88 0-6.99-3.05-7.19-6.79-.03-.4-.02-.8.02-1.2l6.32-58c.19-1.8-1.81-2.99-3.29-1.96l-12.04 8.36-4.13 2.87a5.253 5.253 0 0 1-5.99 0l-16.17-11.23c-1.49-1.03-3.49.16-3.29 1.95l2.46 22.65 3.85 35.36c.46 4.26-2.88 7.99-7.17 7.99h-.01a7.21 7.21 0 0 1-7.16-6.43l-2.57-23.57c-.45-4.17-3.99-7.33-8.17-7.33a8.24 8.24 0 0 0-8.19 7.33l-2.56 23.57a7.212 7.212 0 0 1-7.17 6.43h-.01c-4.29 0-7.63-3.73-7.17-7.99l6.82-62.59-13.86 8.1c-.93.64-1.99.95-3.04.95-1.7 0-3.36-.8-4.4-2.3a5.337 5.337 0 0 1 1.34-7.44l16.98-10.33.91-.55a14 14 0 0 1 7.99-2.5l12.36-.01H57.4c2.85 0 5.65.88 7.99 2.51l20.89 14.5 7.12-4.94 13.76-9.56c2.34-1.63 5.13-2.5 7.99-2.5l24.7-.01c2.86 0 5.65.88 7.99 2.51l20.88 14.5 12.81-8.89 8.08-5.61c2.34-1.63 5.13-2.5 7.99-2.5l24.71-.01c2.86 0 5.64.88 7.99 2.51l.89.61.05.04 17.95 12.23a5.337 5.337 0 0 1 1.34 7.44z" fill="#f0c020"/>
    <path d="M225.401 53.221c-1.276-5.506-2.121-9.143-9.584-11.61-2.481-.82-2.476-4.34 0-5.158 4.332-1.431 7.462-2.465 9.584-11.61.649-2.788 4.642-2.795 5.292 0 2.173 9.363 5.433 10.24 9.584 11.611 2.481.82 2.476 4.34 0 5.158-4.333 1.432-7.463 2.467-9.584 11.61-.649 2.8-4.642 2.8-5.292-.001z"/>
    <path d="M232.806 39.057c-1.771 1.195-3.357 2.836-4.694 5.313-1.076-1.912-2.618-3.716-4.965-5.269 1.869-1.228 3.52-2.923 4.911-5.541 1.413 2.661 3.053 4.345 4.748 5.497z" fill="#f0c020"/>
    <path d="M225.401 53.221c-1.276-5.506-2.121-9.143-9.584-11.61-2.481-.82-2.476-4.34 0-5.158 4.332-1.431 7.462-2.465 9.584-11.61.649-2.788 4.642-2.795 5.292 0 2.173 9.363 5.433 10.24 9.584 11.611 2.481.82 2.476 4.34 0 5.158-4.333 1.432-7.463 2.467-9.584 11.61-.649 2.8-4.642 2.8-5.292-.001z"/>
    <path d="M232.806 39.057c-1.771 1.195-3.357 2.836-4.694 5.313-1.076-1.912-2.618-3.716-4.965-5.269 1.869-1.228 3.52-2.923 4.911-5.541 1.413 2.661 3.053 4.345 4.748 5.497z" fill="#f0c020"/>
    <path d="M25.306 53.221c-1.276-5.506-2.121-9.143-9.584-11.61-2.481-.82-2.476-4.34 0-5.158 4.332-1.431 7.462-2.465 9.584-11.61.649-2.788 4.642-2.795 5.292 0 2.173 9.363 5.433 10.24 9.584 11.611 2.481.82 2.476 4.34 0 5.158-4.333 1.432-7.463 2.467-9.584 11.61-.649 2.8-4.642 2.8-5.292-.001z"/>
    <path d="M32.711 39.057c-1.771 1.195-3.357 2.836-4.694 5.313-1.076-1.912-2.618-3.716-4.965-5.269 1.869-1.228 3.52-2.923 4.911-5.541 1.413 2.661 3.053 4.345 4.748 5.497z" fill="#f0c020"/>
    <path d="M25.306 53.221c-1.276-5.506-2.121-9.143-9.584-11.61-2.481-.82-2.476-4.34 0-5.158 4.332-1.431 7.462-2.465 9.584-11.61.649-2.788 4.642-2.795 5.292 0 2.173 9.363 5.433 10.24 9.584 11.611 2.481.82 2.476 4.34 0 5.158-4.333 1.432-7.463 2.467-9.584 11.61-.649 2.8-4.642 2.8-5.292-.001z"/>
    <path d="M32.711 39.057c-1.771 1.195-3.357 2.836-4.694 5.313-1.076-1.912-2.618-3.716-4.965-5.269 1.869-1.228 3.52-2.923 4.911-5.541 1.413 2.661 3.053 4.345 4.748 5.497z" fill="#f0c020"/>
    <path d="M192.653 56.141a96.081 96.081 0 0 0-12.631-9.94c-11.878-7.861-25.688-13.009-39.937-14.888a2.5 2.5 0 0 1 .655-4.957c14.997 1.977 29.534 7.397 42.04 15.673a101.073 101.073 0 0 1 13.287 10.458 2.5 2.5 0 0 1 .119 3.534 2.498 2.498 0 0 1-3.533.12zm-62.202-25.61-.076-.001a95.244 95.244 0 0 0-2.925-.044 2.5 2.5 0 1 1 0-5c1.024 0 2.05.016 3.075.046a2.5 2.5 0 0 1-.074 4.999z" fill="#c5e5fe"/>
    <path d="M222.447 115.884c-2.415-22.876-12.992-44.092-29.783-59.74a2.5 2.5 0 0 1 3.408-3.659c17.674 16.47 28.807 38.799 31.348 62.874a2.5 2.5 0 0 1-4.973.525z" fill="#76ffbb"/>
    <path d="M212.2 110.74a2.5 2.5 0 0 1-2.5-2.5v-2.924a2.5 2.5 0 1 1 5 0v2.924a2.5 2.5 0 0 1-2.5 2.5zM183.04 93.904a2.5 2.5 0 0 1-2.5-2.5V88.48a2.5 2.5 0 1 1 5 0v2.924a2.5 2.5 0 0 1-2.5 2.5zM40.045 118.162a2.5 2.5 0 0 1-2.5-2.5v-2.924a2.5 2.5 0 1 1 5 0v2.924a2.5 2.5 0 0 1-2.5 2.5zM89.44 65.046a2.5 2.5 0 0 1-2.5-2.5v-2.924a2.5 2.5 0 1 1 5 0v2.924a2.5 2.5 0 0 1-2.5 2.5z" fill="#139c6e"/>
    <path d="M24.22 86.825c-.49 1.29.15 2.74 1.44 3.23 1.284.505 2.739-.158 3.229-1.43a2.507 2.507 0 0 0-1.43-3.23c-1.259-.49-2.759.19-3.239 1.43zM80.058 88.498c.488.488 1.128.732 1.768.732s1.279-.244 1.768-.732a2.498 2.498 0 0 0 0-3.535L72.311 73.681a2.498 2.498 0 0 0-3.536 0l-7.838 7.838-3.478-3.478a2.498 2.498 0 0 0-3.535 0l-8.673 8.672a2.498 2.498 0 0 0 0 3.535 2.498 2.498 0 0 0 3.535 0l6.905-6.904 6.905 6.904c.488.488 1.128.732 1.768.732s1.279-.244 1.768-.732a2.498 2.498 0 0 0 0-3.535l-1.659-1.659 6.07-6.07z"/>
    <circle cx="151.359" cy="75.825" r="2.5"/>
    <path d="m250.599 166.673-16.526-11.275c12.607-46.471-5.627-95.188-45.774-121.708-37.063-24.521-86.342-24.225-122.647.727-4.444 2.778-14.539 11.299-22.013 20.027-6.07 7.08-11.21 14.82-15.29 23.02-.633 1.267-.083 2.738 1.12 3.35a2.513 2.513 0 0 0 3.36-1.12c7.92-15.931 19.693-29.609 34.975-40.67H106.6c5.04 0 9.141 4.1 9.141 9.14v42.15c0 5.04-4.101 9.14-9.141 9.14H81.76c-7.797 0-14.14 6.343-14.14 14.14v10.5c0 7.797 6.343 14.14 14.14 14.14 5.04 0 9.141 4.1 9.141 9.14v16.721l-4.625 3.212-19.457-13.512a16.474 16.474 0 0 0-9.423-2.952h-1.227c2.366-2.645 3.818-6.122 3.818-9.941 0-8.24-6.704-14.944-14.944-14.944S30.1 132.662 30.1 140.902c0 3.823 1.455 7.304 3.825 9.95h-1.236c-2.58 0-5.085.598-7.363 1.735a104.923 104.923 0 0 1-3.405-26.484c0-9.56 1.31-19.05 3.89-28.22.37-1.33-.399-2.72-1.729-3.09-1.311-.37-2.721.44-3.08 1.73-2.71 9.6-4.08 19.56-4.08 29.58 0 9.848 1.339 19.639 3.95 29.149L5.513 164.6a2.09 2.09 0 0 0-.126.082 7.844 7.844 0 0 0-1.971 10.921 7.844 7.844 0 0 0 10.833 2.03l9.496-5.549-6.274 57.657c-.622 5.715 3.849 10.759 9.66 10.759a9.694 9.694 0 0 0 9.651-8.658l2.565-23.563a5.725 5.725 0 0 1 5.7-5.107 5.709 5.709 0 0 1 5.691 5.105l2.565 23.565a9.697 9.697 0 0 0 9.66 8.658c5.755 0 10.278-4.998 9.651-10.759l-.891-8.186c8.878 5.201 18.429 9.104 28.469 11.658a9.677 9.677 0 0 0 9.395 7.287 9.69 9.69 0 0 0 8.051-4.286c6.614.598 12.967.617 19.737.017a9.695 9.695 0 0 0 8.046 4.269 9.673 9.673 0 0 0 9.377-7.251 110.042 110.042 0 0 0 28.479-11.698l-.891 8.19c-.623 5.724 3.859 10.759 9.66 10.759a9.694 9.694 0 0 0 9.651-8.658l2.565-23.568a5.71 5.71 0 0 1 5.691-5.102 5.714 5.714 0 0 1 5.7 5.105l2.565 23.565a9.695 9.695 0 0 0 9.651 8.658c5.763 0 10.277-5.008 9.651-10.757l-6.212-57.153 10.354 6.984a7.844 7.844 0 0 0 10.922-1.969 7.84 7.84 0 0 0-1.985-10.932zM45.042 130.959c5.483 0 9.944 4.461 9.944 9.944s-4.461 9.944-9.944 9.944c-5.482 0-9.943-4.461-9.943-9.944s4.461-9.944 9.943-9.944zm36.718 2.276c-5.04 0-9.14-4.1-9.14-9.14v-10.5c0-5.04 4.1-9.14 9.14-9.14h24.84c7.797 0 14.141-6.343 14.141-14.14v-42.15c0-7.797-6.344-14.14-14.141-14.14H75.708c33.754-19.216 76.85-17.985 109.834 3.836a106.684 106.684 0 0 1 17.011 13.954H159.28c-5.738 0-10.408 4.664-10.419 10.4l-.002.02v3.59a2.5 2.5 0 0 0 5 0v-3.58l.001-.01a5.426 5.426 0 0 1 5.42-5.42h47.908c22.458 25.817 31.27 61.346 22.464 95.759a16.416 16.416 0 0 0-7.34-1.729h-1.229c2.365-2.645 3.817-6.122 3.817-9.941 0-8.24-6.703-14.944-14.943-14.944s-14.944 6.704-14.944 14.944c0 3.823 1.455 7.304 3.825 9.95h-1.234a16.472 16.472 0 0 0-9.425 2.944l-5.16 3.583v-24.106c0-8.839-7.19-16.03-16.029-16.03h-7.71a5.426 5.426 0 0 1-5.42-5.42l-.001-.01v-25.99a2.5 2.5 0 0 0-5 0v26l.002.019c.01 5.737 4.68 10.401 10.419 10.401h7.71c6.082 0 11.029 4.948 11.029 11.03v24.33c0 1.005.159 1.994.439 2.944l-9.734 6.76-19.458-13.512a16.453 16.453 0 0 0-9.414-2.952h-1.227c2.366-2.645 3.818-6.122 3.818-9.941 0-8.24-6.704-14.944-14.944-14.944s-14.943 6.704-14.943 14.944c0 3.823 1.455 7.304 3.825 9.95h-1.234a16.41 16.41 0 0 0-9.416 2.944l-9.83 6.826v-13.249c-.001-7.797-6.344-14.14-14.141-14.14zm118.253 7.668c0-5.483 4.461-9.944 9.944-9.944 5.482 0 9.943 4.461 9.943 9.944s-4.461 9.944-9.943 9.944c-5.483 0-9.944-4.461-9.944-9.944zm-82.457 0c0-5.483 4.461-9.944 9.943-9.944 5.483 0 9.944 4.461 9.944 9.944s-4.461 9.944-9.944 9.944c-5.482 0-9.943-4.461-9.943-9.944zm-51.16 31.702 15.454 10.731a7.792 7.792 0 0 0 8.849-.001l.192-.133c-.101 4.953-4.154 8.952-9.131 8.952H68.524zm2.672 24.55H81.76c7.797 0 14.141-6.343 14.141-14.14v-3.292l10.245-7.117-6.031 55.421a104.652 104.652 0 0 1-29.075-12.756zm50.225 34.19 2.51-23.065a5.722 5.722 0 0 1 5.691-5.108 5.715 5.715 0 0 1 5.701 5.105l2.512 23.083c-5.46.421-10.96.415-16.414-.015zm129.186-56.592a2.845 2.845 0 0 1-3.989.695l-11.041-7.446c-3.24-2.253-7.627.355-7.201 4.277l6.305 58.005a4.704 4.704 0 0 1-4.681 5.217 4.703 4.703 0 0 1-4.681-4.199l-2.565-23.563a10.706 10.706 0 0 0-10.671-9.567 10.701 10.701 0 0 0-10.662 9.564l-2.565 23.565a4.704 4.704 0 0 1-4.689 4.199 4.706 4.706 0 0 1-4.681-5.218l6.313-58.002c.427-3.928-3.962-6.528-7.202-4.278l-16.161 11.227a2.768 2.768 0 0 1-3.145 0L150.992 168c-3.25-2.254-7.627.363-7.201 4.278l.001.005v.002l1.33 12.27a2.493 2.493 0 0 0 2.76 2.21 2.494 2.494 0 0 0 2.21-2.75l-1.236-11.41 15.456 10.732a7.791 7.791 0 0 0 8.85 0l15.444-10.729-4.645 42.686c-9.118 5.773-18.731 9.993-29.072 12.77l-2.627-24.167a2.525 2.525 0 0 0-2.76-2.22 2.493 2.493 0 0 0-2.21 2.76l2.81 25.85.002.01a4.701 4.701 0 0 1-4.688 5.206 4.703 4.703 0 0 1-4.682-4.199l-2.564-23.563a10.707 10.707 0 0 0-10.672-9.566 10.716 10.716 0 0 0-10.662 9.564l-2.564 23.565a4.704 4.704 0 0 1-4.689 4.199 4.704 4.704 0 0 1-4.681-5.218l6.313-58.003c.426-3.924-3.962-6.528-7.201-4.277l-16.163 11.227a2.768 2.768 0 0 1-3.145 0l-16.171-11.228c-3.236-2.251-7.627.35-7.2 4.278l6.312 58.003a4.704 4.704 0 0 1-4.689 5.218 4.703 4.703 0 0 1-4.681-4.199l-2.565-23.562a10.699 10.699 0 0 0-10.662-9.567 10.722 10.722 0 0 0-10.671 9.564l-2.565 23.565a4.704 4.704 0 0 1-4.688 4.199c-2.833 0-4.982-2.457-4.682-5.218l6.812-62.589c.222-2.031-1.969-3.465-3.747-2.429l-13.856 8.097c-1.779 1.061-3.291.593-4.126-.609a2.844 2.844 0 0 1 .663-3.925c18.782-11.004 19.495-12.975 24.505-12.975l24.706-.009c2.355 0 4.629.713 6.573 2.06l20.881 14.501a2.498 2.498 0 0 0 2.852 0l20.883-14.502a11.431 11.431 0 0 1 6.563-2.05l24.706-.009c2.35 0 4.619.713 6.563 2.06l20.882 14.501a2.498 2.498 0 0 0 2.852 0l20.879-14.5a11.499 11.499 0 0 1 6.576-2.052l24.707-.009c2.349 0 4.619.713 6.58 2.072l18.871 12.875a2.846 2.846 0 0 1 .71 3.96z"/>
    <path d="M148.96 196.705a2.51 2.51 0 0 0 2.22-2.75c-.149-1.36-1.39-2.36-2.76-2.22-1.357.145-2.378 1.378-2.21 2.76a2.478 2.478 0 0 0 2.75 2.21z"/>
</svg>
