<svg height="512" width="512" xmlns="http://www.w3.org/2000/svg">
    <circle cx="256" cy="256" fill="#fd5" r="256"/>
    <path d="M355.407 113.576 339.91 98.079l-23.567 17.108s15.698 15.991 28.937 29.308l-.005.014-21.849 21.849L256.168 99.1l-43.045 16.087 28.905 28.905-15.555 15.555-60.796-60.796-42.885 16.336 29.38 29.38-35.423 27.235 31.306 58.982-83.281 117.413 162.149 162.149A258.508 258.508 0 0 0 256 512c141.385 0 256-114.615 256-256 0-1.418-.031-2.828-.054-4.24L359.936 99.749z" fill="#edbe00"/>
    <path d="M386.248 193.423h-89.283l-5.049-14.206 44.641-36.317h10.098l44.642 36.317zm-66.772-16h44.262l-22.131-18.004z" fill="#544f56"/>
    <path d="M348.881 149.106h-16v-25.38h8c4.708 0 8.539-3.83 8.539-8.538s-3.831-8.539-8.539-8.539-8.539 3.831-8.539 8.539h-16c0-13.531 11.008-24.539 24.539-24.539s24.539 11.008 24.539 24.539c0 10.73-6.924 19.875-16.539 23.199z" fill="#544f56"/>
    <path d="M348.881 144.711v-6.324c9.615-3.324 16.539-12.469 16.539-23.199 0-13.531-11.008-24.539-24.539-24.539s-24.539 11.008-24.539 24.539h16c0-4.708 3.831-8.539 8.539-8.539s8.539 3.831 8.539 8.539-3.831 8.538-8.539 8.538h-8v22.165l-40.965 33.327 5.049 14.206h89.283l5.049-14.206zm-29.405 32.712 22.131-18.004 22.131 18.004z" fill="#544f56"/>
    <path d="M348.881 138.387c9.615-3.324 16.539-12.469 16.539-23.199 0-13.288-10.617-24.135-23.813-24.521v16.018c4.369.37 7.813 4.039 7.813 8.502s-3.444 8.131-7.813 8.501v35.73l22.131 18.004h-22.131v16h44.641l5.049-14.206-42.416-34.506z" fill="#403b41"/>
    <path d="m312.038 162.551-34.985 25.451v.011l-47.494 47.494 35.865 35.865 21.629-21.63-10.001 184.595h54.553l10.001-110.007V175.424c-11.676 0-22.189-4.957-29.568-12.873z" fill="#6c67d2"/>
    <path d="m371.175 162.551 34.985 25.451v.011l47.494 47.494-35.865 35.865-21.629-21.63 10.001 184.595h-54.553L341.607 324.33V175.424c11.676 0 22.189-4.957 29.568-12.873z" fill="#534dca"/>
    <path d="M245.661 144.711v-6.324c9.615-3.324 16.539-12.469 16.539-23.199 0-13.531-11.008-24.539-24.539-24.539s-24.539 11.008-24.539 24.539h16c0-4.708 3.831-8.539 8.539-8.539s8.539 3.831 8.539 8.539-3.831 8.538-8.539 8.538h-8v22.165l-40.965 33.327 5.049 14.206h89.283l5.049-14.206zm-29.406 32.712 22.131-18.004 22.131 18.004z" fill="#544f56"/>
    <path d="M245.661 138.387c9.615-3.324 16.539-12.469 16.539-23.199 0-13.288-10.617-24.135-23.813-24.521v16.018c4.369.37 7.813 4.039 7.813 8.502s-3.444 8.131-7.813 8.501v35.73l22.131 18.004h-22.131v16h44.641l5.049-14.206-42.416-34.506z" fill="#403b41"/>
    <path d="m213.123 159.346 25.264 34.077v198.182h-67.741V183.423z" fill="#9cd29a"/>
    <path d="m263.65 159.346-25.263 34.077v198.182h67.74V183.423z" fill="#00a963"/>
    <path d="M155.33 144.711v-6.324c9.615-3.324 16.539-12.469 16.539-23.199 0-13.531-11.008-24.539-24.539-24.539s-24.539 11.008-24.539 24.539h16c0-4.708 3.831-8.539 8.539-8.539s8.539 3.831 8.539 8.539-3.831 8.538-8.539 8.538h-8v22.165l-40.965 33.327 5.049 14.206h89.283l5.049-14.206zm-29.406 32.712 22.131-18.004 22.131 18.004z" fill="#544f56"/>
    <path d="M155.33 138.387c9.615-3.324 16.539-12.469 16.539-23.199 0-13.288-10.617-24.135-23.813-24.521v16.018c4.369.37 7.813 4.039 7.813 8.502s-3.444 8.131-7.813 8.501v35.73l22.131 18.004h-22.131v16h44.641l5.049-14.206-42.416-34.506z" fill="#403b41"/>
    <path d="m172.9 266-24.845-94.197H96.45l14.525 85.551c-27.384 16.614-46.201 51.05-46.201 90.843h83.281z" fill="#ff5b5b"/>
    <path d="m185.136 257.354 14.525-85.551h-51.605v176.394h83.281c-.001-39.793-18.817-74.228-46.201-90.843z" fill="#c8001c"/>
</svg>
