<svg height="512" viewBox="0 0 64 64" width="512" xmlns="http://www.w3.org/2000/svg">
    <path d="m32 19 1 1-1 1-2 2-2-2-9-9-2-2 3-3 6 6z" fill="#aab2bd"/>
    <path d="m28 21-3 7-1.01-1L12 15l7-3z" fill="#ccd1d9"/>
    <path d="M23.99 27c.01.12.01.24.01.36 0 4.68-2.65 8.96-6.83 11.06L16 39v-5l1.41-1.41c.38-.38.59-.89.59-1.42V31c0-.55-.22-1.05-.59-1.41-.36-.37-.86-.59-1.41-.59v-2c0-1.66-1.34-3-3-3H6.5c-1.24 0-2.37-.5-3.18-1.32A4.457 4.457 0 0 1 2 19.5C2 17.01 4.01 15 6.5 15H12z" fill="#b27946"/>
    <path d="M16 62H2v-2c0-6.3 2.96-12.22 8-16l6-2c2.4.9 4.4 2.5 5.8 4.52s2.2 4.45 2.2 7.02V62z" fill="#ccd1d9"/>
    <path d="M17.41 29.59c.37.36.59.86.59 1.41v.17c0 .53-.21 1.04-.59 1.42L16 34v8l-6 2v-5h-.59A3.415 3.415 0 0 1 6 35.59V33l-3-1c0-1.91 1.22-4.64 2.1-6.36A3.01 3.01 0 0 1 7.78 24H13c1.66 0 3 1.34 3 3v2c.55 0 1.05.22 1.41.59z" fill="#f0d0b4"/>
    <path d="M32 32c1.1 0 2 2.9 2 4s-.9 2-2 2-2-.9-2-2 .9-4 2-4z" fill="#ff826e"/>
    <path d="M47.52 48.93c.31.97.48 2 .48 3.07 0 5.52-4.48 10-10 10s-10-4.48-10-10 4.48-10 10-10c1.62 0 3.14.38 4.49 1.07 2.37 1.19 4.2 3.3 5.02 5.86z" fill="#fcd770"/>
    <path d="M52 30c5.52 0 10 4.48 10 10s-4.48 10-10 10a9.93 9.93 0 0 1-4.48-1.07h-.01a9.983 9.983 0 0 0-5.02-5.86c-.32-.97-.49-2-.49-3.07 0-5.52 4.48-10 10-10z" fill="#fcd770"/>
    <circle cx="52" cy="12" fill="#fcd770" r="10"/>
    <path d="M17.614 39.312c3.975-1.988 6.636-5.729 7.249-10.034l.474.474 3-7L30 24.414l1-1v7.921c-1.368.956-2 3.709-2 4.665 0 1.654 1.346 3 3 3s3-1.346 3-3c0-.956-.632-3.708-2-4.665v-9.921L34.414 20 33 18.586v-6.465C33 10.4 31.6 9 29.879 9c-.834 0-1.618.324-2.207.914L26 11.586l-6-6L15.586 10l1.663 1.663L11.796 14H6.5A5.506 5.506 0 0 0 1 19.5c0 2.347 1.48 4.349 3.554 5.138a3.976 3.976 0 0 0-.34.544C3.204 27.151 2 29.933 2 32.001v.721l3 1v1.864a4.371 4.371 0 0 0 4 4.375v3.559C3.985 47.479 1 53.597 1 60v3h24v-9.456c0-5.29-3.188-10.114-8-12.217v-1.708zM32 37c-.551 0-1-.448-1-1 0-.826.571-2.436 1-2.915.429.479 1 2.089 1 2.915 0 .552-.449 1-1 1zm-2.914-25.672a1.122 1.122 0 0 1 1.914.793v4.465L27.414 13zM18.414 10 20 8.414 31.586 20 30 21.586l-.814-.814-9.958-9.957zm.357 3.186 8.042 8.043-2.151 5.02-10.911-10.912zM7 35.586V32.28l-2.944-.981c.191-1.298.862-3.108 1.938-5.205A1.995 1.995 0 0 1 7.777 25H8v-2H6.5C4.57 23 3 21.43 3 19.5S4.57 16 6.5 16h5.085l11.411 11.411c-.018 4.201-2.308 7.971-5.997 9.946v-2.943l1.121-1.121c.568-.566.88-1.32.88-2.121V31a3.006 3.006 0 0 0-2-2.829V27c0-2.206-1.794-4-4-4v2c1.103 0 2 .897 2 2v3h1c.551 0 1 .448 1 1v.172c0 .263-.107.521-.293.707L15 33.586v7.693l-4 1.333V40h2v-2l-3.585.001a2.398 2.398 0 0 1-1.707-.707A2.397 2.397 0 0 1 7 35.586zm16 17.958V61h-6v-9.343c0-.802.312-1.556.878-2.122l.829-.828-1.414-1.414-.829.828A4.968 4.968 0 0 0 15 51.657V61H3v-1c0-5.895 2.79-11.528 7.472-15.104l5.5-1.833C20.19 44.796 23 48.964 23 53.544z"/>
    <path d="M12 21h-2c0 2.586-.753 3.339-1.707 4.293l1.414 1.414C10.782 25.633 12 24.414 12 21zM38 49c.551 0 1 .448 1 1h2a2.996 2.996 0 0 0-2-2.816V45h-2v2.184A2.996 2.996 0 0 0 35 50c0 1.654 1.346 3 3 3a1.001 1.001 0 1 1-1 1h-2c0 1.302.839 2.402 2 2.816V59h2v-2.184A2.996 2.996 0 0 0 41 54c0-1.654-1.346-3-3-3a1.001 1.001 0 0 1 0-2zM52 37c.551 0 1 .448 1 1h2a2.996 2.996 0 0 0-2-2.816V33h-2v2.184A2.996 2.996 0 0 0 49 38c0 1.654 1.346 3 3 3a1.001 1.001 0 1 1-1 1h-2c0 1.302.839 2.402 2 2.816V47h2v-2.184A2.996 2.996 0 0 0 55 42c0-1.654-1.346-3-3-3a1.001 1.001 0 0 1 0-2z"/>
    <path d="M52 29c-6.065 0-11 4.935-11 11 0 .487.039.972.104 1.453A10.98 10.98 0 0 0 38 41c-6.065 0-11 4.935-11 11s4.935 11 11 11 11-4.935 11-11c0-.5-.045-.988-.11-1.471 1.007.301 2.045.471 3.11.471 6.065 0 11-4.935 11-11s-4.935-11-11-11zM38 61c-4.962 0-9-4.037-9-9s4.038-9 9-9 9 4.037 9 9-4.038 9-9 9zm14-12a8.865 8.865 0 0 1-3.697-.818 11.053 11.053 0 0 0-4.954-5.786A8.94 8.94 0 0 1 43 40c0-4.963 4.038-9 9-9s9 4.037 9 9-4.038 9-9 9zM52 15c-.551 0-1-.448-1-1h-2c0 1.302.839 2.402 2 2.816V19h2v-2.184A2.996 2.996 0 0 0 55 14c0-1.654-1.346-3-3-3a1.001 1.001 0 0 1 0-2c.551 0 1 .448 1 1h2a2.996 2.996 0 0 0-2-2.816V5h-2v2.184A2.996 2.996 0 0 0 49 10c0 1.654 1.346 3 3 3a1.001 1.001 0 0 1 0 2z"/>
    <path d="M52 23c6.065 0 11-4.935 11-11S58.065 1 52 1 41 5.935 41 12s4.935 11 11 11zm0-20c4.962 0 9 4.037 9 9s-4.038 9-9 9-9-4.037-9-9 4.038-9 9-9z"/>
</svg>
