<svg viewBox="0 0 64 64" xmlns="http://www.w3.org/2000/svg">
    <circle cx="32" cy="32" fill="#039be5" r="27"/>
    <path d="M32 59.5C16.836 59.5 4.5 47.163 4.5 32S16.836 4.5 32 4.5c15.163 0 27.5 12.337 27.5 27.5S47.163 59.5 32 59.5zm0-54C17.388 5.5 5.5 17.388 5.5 32S17.388 58.5 32 58.5 58.5 46.612 58.5 32 46.612 5.5 32 5.5z" fill="#0277bd"/>
    <path d="M14.322 14.822a.5.5 0 0 1-.354-.853c9.943-9.943 26.121-9.941 36.062 0a.5.5 0 0 1-.707.707c-9.551-9.552-25.096-9.552-34.648 0a.498.498 0 0 1-.353.146z" fill="#4fc3f7"/>
    <path d="M17.729 25C14.189 28.608 12 33.546 12 39c0 11.046 8.954 20 20 20s20-8.954 20-20c0-5.454-2.189-10.392-5.729-14z" fill="#ffa726"/>
    <path d="M32 59.5c-11.304 0-20.5-9.196-20.5-20.5 0-5.394 2.085-10.49 5.872-14.351a.5.5 0 0 1 .357-.149h28.543a.5.5 0 0 1 .356.149C50.415 28.51 52.5 33.605 52.5 39c0 11.304-9.196 20.5-20.5 20.5zm-14.06-34A19.381 19.381 0 0 0 12.5 39c0 10.752 8.748 19.5 19.5 19.5S51.5 49.752 51.5 39c0-5.062-1.931-9.847-5.44-13.5z" fill="#0277bd"/>
    <path d="M32 53c6.627 0 12-5.373 12-12H20c0 6.627 5.373 12 12 12z" fill="#039be5"/>
    <path d="M32 53.5c-6.893 0-12.5-5.607-12.5-12.5a.5.5 0 0 1 .5-.5h24a.5.5 0 0 1 .5.5c0 6.893-5.607 12.5-12.5 12.5zm-11.489-12c.263 6.11 5.316 11 11.489 11 6.174 0 11.227-4.89 11.489-11zM22.5 36.5a.5.5 0 0 1-.224-.947L27.382 33l-5.105-2.553a.5.5 0 0 1 .447-.895l6 3a.5.5 0 0 1 0 .895l-6 3a.498.498 0 0 1-.224.053zM41.5 36.5a.504.504 0 0 1-.224-.053l-6-3a.5.5 0 0 1 0-.894l6-3a.5.5 0 1 1 .447.895L36.618 33l5.105 2.553a.5.5 0 0 1-.223.947z" fill="#0277bd"/>
    <path d="M26.196 51.501C27.917 52.454 29.894 53 32 53s4.083-.546 5.804-1.499C37.137 48.914 34.795 47 32 47s-5.137 1.914-5.804 4.501z" fill="#ec407a"/>
    <path d="M32 53.5c-2.111 0-4.202-.54-6.046-1.562a.5.5 0 0 1-.242-.562 6.494 6.494 0 0 1 12.576 0 .5.5 0 0 1-.242.562A12.506 12.506 0 0 1 32 53.5zm-5.208-2.249c3.216 1.637 7.201 1.637 10.417 0a5.493 5.493 0 0 0-10.417 0z" fill="#0277bd"/>
    <path d="M20.697 45h22.605c.444-1.253.698-2.595.698-4H20c0 1.405.254 2.747.697 4z" fill="#eee"/>
    <path d="M43.303 45.5H20.697a.5.5 0 0 1-.471-.333A12.461 12.461 0 0 1 19.5 41a.5.5 0 0 1 .5-.5h24a.5.5 0 0 1 .5.5c0 1.403-.244 2.806-.726 4.167a.5.5 0 0 1-.471.333zm-22.247-1h21.888c.316-.985.499-1.991.544-3H20.511c.046 1.009.228 2.015.545 3z" fill="#0277bd"/>
    <path d="M32 57.5a18.384 18.384 0 0 1-13.082-5.419.5.5 0 0 1 .707-.707C22.931 54.68 27.326 56.5 32 56.5s9.068-1.82 12.374-5.126a.5.5 0 0 1 .707.707A18.38 18.38 0 0 1 32 57.5z" fill="#f57c00"/>
    <path d="M45.271 27.5H18.729a.5.5 0 0 1 0-1h26.543a.5.5 0 1 1-.001 1z" fill="#ffcc80"/>
</svg>
