<svg height="512" width="512" xmlns="http://www.w3.org/2000/svg">
    <path d="M175.188 291.353v34.345c0 7.811 6.332 14.142 14.142 14.142h133.34c7.81 0 14.142-6.332 14.142-14.142v-34.345c0-17.853-14.472-32.325-32.325-32.325h-96.975c-17.852.001-32.324 14.473-32.324 32.325z" fill="#9be69d"/>
    <path d="M304.487 259.029h-28.284c17.853 0 32.325 14.472 32.325 32.325v48.487h14.142c7.81 0 14.142-6.332 14.142-14.142v-34.345c0-17.853-14.472-32.325-32.325-32.325z" fill="#6fd7a3"/>
    <circle cx="256" cy="208.521" fill="#ffdfcf" r="50.508"/>
    <path d="M279.746 163.941a50.27 50.27 0 0 1 5.928 23.746c0 27.895-22.613 50.508-50.508 50.508a50.276 50.276 0 0 1-23.746-5.928c8.499 15.922 25.271 26.762 44.58 26.762 27.895 0 50.508-22.613 50.508-50.508 0-19.309-10.84-36.081-26.762-44.58z" fill="#ffcebf"/>
    <path d="M267.261 500.403a17.536 17.536 0 0 1-22.522 0c-17.528-14.67-49.348-44.866-49.348-70.753 0-17.618 14.282-31.9 31.9-31.9 12.627 0 23.606 7.337 28.71 17.864 5.104-10.527 16.082-17.864 28.71-17.864 17.618 0 31.9 14.282 31.9 31.9-.002 25.887-31.822 56.083-49.35 70.753z" fill="#fe646f"/>
    <path d="M285.785 397.777a31.738 31.738 0 0 1 4.089 15.621c0 25.887-31.82 56.083-49.348 70.753a17.495 17.495 0 0 1-9.491 3.995c4.947 4.736 9.7 8.905 13.704 12.257a17.536 17.536 0 0 0 22.522 0c17.528-14.67 49.348-44.866 49.348-70.753 0-17.258-13.706-31.305-30.824-31.873z" fill="#fd4755"/>
    <path d="M187.309 84.272V15.581A8.081 8.081 0 0 1 195.39 7.5h16.162a8.081 8.081 0 0 1 8.081 8.081v68.691a8.081 8.081 0 0 1-8.081 8.081H195.39a8.082 8.082 0 0 1-8.081-8.081z" fill="#4f66d0"/>
    <path d="M324.691 84.272V15.581A8.081 8.081 0 0 0 316.61 7.5h-16.162a8.081 8.081 0 0 0-8.081 8.081v68.691a8.081 8.081 0 0 0 8.081 8.081h16.162a8.082 8.082 0 0 0 8.081-8.081z" fill="#314dc9"/>
    <path d="M292.366 65.079h-72.731V34.774h72.731z" fill="#d3effd"/>
    <path d="M421.665 182.257h70.711c6.695 0 12.122 5.427 12.122 12.122v105.056h-94.955V194.379c.001-6.695 5.428-12.122 12.122-12.122z" fill="#75cff9"/>
    <path d="M409.544 299.435h94.955v18.183c0 6.695-5.427 12.122-12.122 12.122h-70.711c-6.695 0-12.122-5.427-12.122-12.122z" fill="#bd80e1"/>
    <path d="M492.376 182.257h-22.223c6.695 0 12.122 5.427 12.122 12.122v105.056h22.223V194.379c0-6.695-5.427-12.122-12.122-12.122z" fill="#6cbff8"/>
    <path d="M482.275 299.435v18.183c0 6.695-5.427 12.122-12.122 12.122h22.223c6.695 0 12.122-5.427 12.122-12.122v-18.183z" fill="#af66da"/>
    <ellipse cx="55.989" cy="255.998" fill="#fdb441" rx="48.487" ry="73.741"/>
    <path d="M71.054 189.562c6.53 14.828 10.352 33.411 6.264 51.977-7.298 33.144-37.487 55.745-54.71 60.744 11.278 16.74 25.967 27.457 33.381 27.457 13.019 0 48.487-33.015 48.487-73.741.001-29.247-18.289-54.514-33.422-66.437z" fill="#fea713"/>
    <path d="M143.694 79.077c-27.31 17.371-50.574 41.2-67.276 68.911a7.5 7.5 0 0 0 12.848 7.742c15.511-25.734 37.115-47.864 62.479-63.997a7.5 7.5 0 0 0 2.303-10.353 7.5 7.5 0 0 0-10.354-2.303zM360.255 91.733c25.364 16.133 46.968 38.262 62.479 63.997a7.496 7.496 0 0 0 10.295 2.553 7.501 7.501 0 0 0 2.553-10.295c-16.702-27.711-39.966-51.54-67.276-68.911a7.498 7.498 0 0 0-10.353 2.303 7.498 7.498 0 0 0 2.302 10.353zM433.029 353.714a7.503 7.503 0 0 0-10.295 2.553c-15.511 25.734-37.115 47.864-62.479 63.997a7.5 7.5 0 0 0 4.032 13.829c1.377 0 2.77-.379 4.019-1.173 27.31-17.371 50.574-41.2 67.276-68.911a7.501 7.501 0 0 0-2.553-10.295zM151.745 420.263c-25.364-16.133-46.968-38.262-62.479-63.997a7.501 7.501 0 0 0-12.848 7.742c16.702 27.711 39.966 51.54 67.276 68.911a7.492 7.492 0 0 0 10.354-2.303 7.5 7.5 0 0 0-2.303-10.353zM304.49 251.528h-9.608c11.738-10.622 19.126-25.968 19.126-43.007 0-31.985-26.022-58.007-58.007-58.007s-58.007 26.022-58.007 58.007c0 17.04 7.388 32.385 19.126 43.007h-9.608c-21.956 0-39.819 17.868-39.819 39.83v34.34c0 11.933 9.707 21.639 21.639 21.639h49.17c4.143 0 7.5-3.357 7.5-7.5s-3.357-7.5-7.5-7.5h-23.488v-12.699c0-4.143-3.357-7.5-7.5-7.5s-7.5 3.357-7.5 7.5v12.699h-10.682a6.647 6.647 0 0 1-6.64-6.64v-34.34c0-13.691 11.134-24.83 24.819-24.83h96.98c13.685 0 24.819 11.139 24.819 24.83v34.34a6.648 6.648 0 0 1-6.64 6.64h-10.682v-12.699c0-4.143-3.357-7.5-7.5-7.5s-7.5 3.357-7.5 7.5v12.699H273.5c-4.143 0-7.5 3.357-7.5 7.5s3.357 7.5 7.5 7.5h49.17c11.933 0 21.639-9.707 21.639-21.639v-34.34c0-21.962-17.863-39.83-39.819-39.83zm-91.497-43.007c0-23.715 19.293-43.007 43.007-43.007s43.007 19.293 43.007 43.007-19.292 43.007-43.007 43.007-43.007-19.292-43.007-43.007zM284.71 390.25c-10.983 0-21.373 4.629-28.71 12.356-7.337-7.727-17.726-12.356-28.71-12.356-21.724 0-39.399 17.675-39.399 39.399 0 15.035 9.027 40.513 52.035 76.505C244.583 510.052 250.291 512 256 512s11.417-1.948 16.074-5.846c43.007-35.992 52.035-61.47 52.035-76.505 0-21.724-17.675-39.399-39.399-39.399zm-22.263 104.401a10.034 10.034 0 0 1-12.894 0c-29.654-24.816-46.662-48.508-46.662-65.001 0-13.454 10.945-24.399 24.399-24.399 9.325 0 17.945 5.352 21.961 13.636a7.5 7.5 0 0 0 13.498 0c4.016-8.283 12.636-13.636 21.961-13.636 13.454 0 24.399 10.945 24.399 24.399 0 16.492-17.008 40.184-46.662 65.001zM336.813 42.426h-4.622V15.581c0-8.592-6.99-15.581-15.582-15.581h-16.162c-8.592 0-15.581 6.989-15.581 15.581v11.693h-57.732V15.581C227.134 6.989 220.145 0 211.553 0h-16.162c-8.592 0-15.582 6.989-15.582 15.581v26.845h-4.622c-4.143 0-7.5 3.357-7.5 7.5s3.357 7.5 7.5 7.5h4.622v26.846c0 8.592 6.99 15.581 15.582 15.581h16.162c8.592 0 15.581-6.989 15.581-15.581V72.579h57.732v11.693c0 8.592 6.989 15.581 15.581 15.581h16.162c8.592 0 15.582-6.989 15.582-15.581V57.426h4.622c4.143 0 7.5-3.357 7.5-7.5s-3.358-7.5-7.5-7.5zM212.134 84.272c0 .32-.261.581-.581.581h-16.162a.582.582 0 0 1-.582-.581V15.581c0-.32.261-.581.582-.581h16.162c.32 0 .581.261.581.581zm15-26.693V42.274h57.732v15.305zm90.057 26.693c0 .32-.261.581-.582.581h-16.162a.582.582 0 0 1-.581-.581V15.581c0-.32.261-.581.581-.581h16.162c.321 0 .582.261.582.581zM492.378 174.758h-70.709c-10.824 0-19.63 8.802-19.63 19.62v17.11c0 4.143 3.357 7.5 7.5 7.5s7.5-3.357 7.5-7.5v-17.11a4.63 4.63 0 0 1 4.63-4.62h70.709a4.625 4.625 0 0 1 4.62 4.62v97.556h-79.959v-45.446c0-4.143-3.357-7.5-7.5-7.5s-7.5 3.357-7.5 7.5v71.129c0 10.818 8.806 19.62 19.63 19.62h70.709c10.818 0 19.62-8.802 19.62-19.62V194.378c0-10.818-8.802-19.62-19.62-19.62zm0 147.48h-70.709a4.63 4.63 0 0 1-4.63-4.62v-10.684h79.959v10.684a4.625 4.625 0 0 1-4.62 4.62zM111.982 255.998c0-11.788-2.662-23.672-7.912-35.322a7.5 7.5 0 0 0-13.676 6.163c4.371 9.7 6.588 19.511 6.588 29.159 0 21.69-11.126 39.075-17.758 47.507-10.285 13.076-20.361 18.732-23.232 18.732s-12.948-5.656-23.232-18.732c-6.632-8.433-17.758-25.816-17.758-47.507s11.126-39.075 17.758-47.507c10.284-13.076 20.361-18.732 23.232-18.732 1.634 0 7.955 2.7 16.095 10.722a7.5 7.5 0 0 0 10.529-10.683c-4.588-4.521-16.366-15.038-26.624-15.038-18.436 0-55.99 37.605-55.99 81.24s37.553 81.24 55.99 81.24 55.99-37.608 55.99-81.242z"/>
    <path d="M70.56 239.835c0-3.997-3.129-7.254-7.07-7.478v-3.633c0-4.143-3.357-7.5-7.5-7.5s-7.5 3.357-7.5 7.5v3.633c-3.942.223-7.071 3.48-7.071 7.478s3.129 7.255 7.071 7.478v17.369c-3.942.223-7.071 3.48-7.071 7.478s3.129 7.255 7.071 7.478v3.633c0 4.143 3.357 7.5 7.5 7.5s7.5-3.357 7.5-7.5v-3.633c3.941-.224 7.07-3.481 7.07-7.478s-3.129-7.254-7.07-7.478v-17.369c3.941-.224 7.07-3.48 7.07-7.478z"/>
</svg>
