<svg height="512" width="512" xmlns="http://www.w3.org/2000/svg">
    <path d="M444.745 455.696c-.01 0 .01 0 0 0l-28.409-2.327-27.12-.12c-10.04-.67-18.749-6.339-26.779-12.489l-9.55-7.31c-7.57-5.79-18.141-6.742-27.671-6.742l-38.776-.376-3.21-8.981V300.726l42.802-.595c6.2 0 12.33-1.33 17.98-3.9l4.58-2.09a61.501 61.501 0 0 1 25.67-5.64l73.401.084 4.607 4.839 5.07-.005c4.68 0 8.91 1.9 11.98 4.96 3.07 3.07 4.96 7.31 4.96 11.99 0 1.08-.101 2.137-.294 3.161-5.052 7.765-9.099 12.095-16.646 13.789h11.85c9.36 0 16.94 7.59 16.94 16.95 0 1.08-.101 2.136-.285 3.161-.612 3.413-4.346 5.763-6.653 8.124-3.02 3.06-5.102 5.665-10.002 5.665h9.18c9.36 0 16.95 7.59 16.95 16.95 0 1.08-.101 2.137-.295 3.161-.644 3.414-3.691 6.027-6.045 8.389-3.07 3.06-5.93 5.4-10.61 5.4h9.19c9.36 0 16.94 7.65 16.94 17.08 0 1.13-.109 2.234-.317 3.303-.66 3.394-3.155 5.163-5.482 7.513-3.06 3.1-7.3 5.01-11.98 5.01l-13.192 1.264c0 1.902-.193 3.76-.56 5.554-4.6 12.382-14.915 20.853-28.224 20.853z" fill="#ffdcd0"/>
    <g fill="#ffc7b6">
        <path d="M445.98 454.286h-29.49l-27.12-.136c-10.04-.759-19.69-4.858-27.72-11.822l-9.55-8.278c-7.57-6.557-16.83-10.113-26.36-10.113h-42.51v-20.393h49c9.53 0 18.79 3.556 26.36 10.113l9.55 8.278c8.03 6.965 17.68 11.064 27.72 11.823l27.12.136h29.48c.01-6 0 0 .01 0 8.11 0 15.41 2.025 20.45-4.316-2.64 14.12-13.7 24.708-26.94 24.708zM481.34 356.26c-3.02 3.06-7.25 4.96-12.15 4.96h-21.98c-3.8 0-6.89-3.09-6.89-6.89v-.01c0-3.8 3.09-6.89 6.89-6.89l38.635.001c-.6 3.41-2.195 6.469-4.505 8.829z"/>
        <path d="M487.56 429.29h-56.72a6.89 6.89 0 0 1-6.89-6.89v-.01c0-3.8 3.08-6.89 6.89-6.89h73.33a17.03 17.03 0 0 1-4.63 8.78c-3.06 3.1-7.3 5.01-11.98 5.01zM457.34 327.32h-10.13c-3.8 0-6.89-3.09-6.89-6.89v-.01c0-3.8 3.09-6.89 6.89-6.89h26.77c-1.47 7.85-8.37 13.79-16.64 13.79zM490.36 390.16a16.94 16.94 0 0 1-11.99 4.96h-31.16a6.89 6.89 0 0 1-6.89-6.89v-.01c0-3.8 3.09-6.89 6.89-6.89h47.81c-.64 3.41-2.31 6.47-4.66 8.83z"/>
    </g>
    <path d="m179.825 443.344-.664-154.852H293.95l10.286-4.399c5.27 0 9.542 4.27 9.542 9.538l-4.771 11.489v112.23l-3.424 14.986c0 5.268-4.272 9.538-9.542 9.538z" fill="#4eb8f9"/>
    <path d="M206.064 417.35v29.4h93.396c5.27 0 9.55-4.27 9.55-9.54v-19.86z" fill="#3ba4f2"/>
    <ellipse cx="266.869" cy="333.972" fill="#f5f8f9" rx="15.155" ry="15.149"/>
    <path d="m211.025 449.952-.141-75.506c-.01-8.867-9.393-22.755-13.103-30.802v-50.012l-119.89-2.693-.57 35.003a29.379 29.379 0 0 1-6.048 17.384l-10.348 13.52a51.28 51.28 0 0 0-10.431 27.708l-.114 27.107v29.462c-.006 9.511 4.911 17.96 12.243 22.912 6.333-.945 10.272.742 15.313 4.643v14.026c0 4.672 1.907 8.915 4.996 11.976a17.077 17.077 0 0 0 12.071 4.968c.589 0 1.172-.03 1.746-.088 7.665-3.486 12.827-10.063 12.827-18.832l2.495-7.206c0 4.682 1.897 8.915 4.968 11.976a16.853 16.853 0 0 0 11.976 4.968c.553 0 1.1-.027 1.64-.078 7.656-4.409 13.584-9.137 13.584-17.937l1.71-8.11c0 4.901 1.897 9.134 4.958 12.147s7.294 4.796 11.976 4.796c.55 0 1.094-.026 1.63-.078 8.397-3.977 13.512-9.364 13.512-18.167l1.801-10.541c0 9.344 7.342 16.924 16.695 16.924 4.682 0 6.477-4.434 9.547-7.494a16.867 16.867 0 0 0 4.957-11.976z" fill="#d5877a"/>
    <path d="M62.624 464.034a27.391 27.391 0 0 0 15.313 4.643v-41.638a7.637 7.637 0 0 0-2.241-5.416 7.671 7.671 0 0 0-5.416-2.241 7.65 7.65 0 0 0-7.656 7.656zM179.825 464.339v-20.995a7.637 7.637 0 0 0-2.241-5.416 7.671 7.671 0 0 0-5.416-2.241 7.65 7.65 0 0 0-7.656 7.656v37.862c8.591-.819 15.313-8.065 15.313-16.866zM112.071 482.703v-39.359c0-2.117-.858-4.033-2.241-5.416s-3.299-2.241-5.416-2.241a7.656 7.656 0 0 0-7.656 7.656v56.217c8.61-.877 15.313-8.094 15.313-16.857zM145.948 464.339c0 .305.009.61.019.915v-21.911a7.653 7.653 0 0 0-7.657-7.657 7.656 7.656 0 0 0-7.656 7.656v47.044c8.581-.83 15.294-8.066 15.294-16.867zM213.692 452.497l-.067-78.051a61.472 61.472 0 0 0-5.635-25.668l-1.9-4.179a45.353 45.353 0 0 1-4.068-18.823l.041-32.145-21.213 1.071v31.89a41.704 41.704 0 0 0 3.74 17.263l2.238 4.922a61.45 61.45 0 0 1 5.635 25.668l.057 94.975.008.008c4.773.063 13.086-1.846 16.206-4.957a16.852 16.852 0 0 0 4.958-11.974z" fill="#c86f5c"/>
    <path d="m60.432 202.817 154.467-31.998.897 118.042a9.54 9.54 0 0 1-9.54 9.54l-21.405 5.827H69.972a9.54 9.54 0 0 1-9.54-9.54z" fill="#ff8076"/>
    <path d="M218.75 170.02v124.67c0 5.27-4.27 9.54-9.54 9.54h-24.36V177.04l.42-.08z" fill="#f66"/>
    <path d="M154.54 262.108c0-8.367 6.785-15.149 15.155-15.149s15.155 6.783 15.155 15.149-6.785 15.149-15.155 15.149-15.155-6.783-15.155-15.149z" fill="#f5f8f9"/>
    <path d="m67.255 45.684 28.409 2.327 27.12.12c10.04.67 18.749 6.339 26.779 12.489l9.55 7.31c7.57 5.79 18.141 6.742 27.671 6.742l38.776.376 3.21 8.981v112.23h-47.79c-6.2 0-12.33 1.33-17.98 3.9l-4.58 2.09a61.501 61.501 0 0 1-25.67 5.64l-78.09.07c-4.68 0-8.91-1.9-11.98-4.96a16.898 16.898 0 0 1-4.96-11.99c0-1.08.101-2.137.294-3.161 5.052-7.765 9.099-12.095 16.646-13.789H42.81c-9.36 0-16.94-7.59-16.94-16.95 0-1.08.101-2.136.285-3.161.612-3.413 4.346-5.763 6.653-8.124 3.02-3.06 5.102-5.665 10.002-5.665h-9.18c-9.36 0-16.95-7.59-16.95-16.95 0-1.08.101-2.137.295-3.161.644-3.414 3.691-6.027 6.045-8.389 3.07-3.06 5.93-5.4 10.61-5.4h-9.19c-9.36 0-16.94-7.65-16.94-17.08 0-1.13.109-2.234.317-3.303.66-3.394 3.155-5.163 5.482-7.513 3.06-3.1 7.3-5.01 11.98-5.01L38.47 72.09c0-1.902.193-3.76.56-5.554 4.601-12.382 14.916-20.852 28.225-20.852z" fill="#ffdcd0"/>
    <path d="M66.02 44.52h29.49l27.12.12c10.04.67 19.69 4.29 27.72 10.44l9.55 7.31a43.385 43.385 0 0 0 26.36 8.93h42.51v21.71h-49c-9.53 0-18.79-3.14-26.36-8.93l-9.55-7.31a51.201 51.201 0 0 0-27.72-10.44l-27.12-.12H59.53c-8.11 0-15.41 3.51-20.45 9.11 2.64-12.47 13.7-30.82 26.94-30.82zM30.66 145.12c3.02-3.06 7.25-4.96 12.15-4.96h21.98c3.8 0 6.89 3.09 6.89 6.89v.01c0 3.8-3.09 6.89-6.89 6.89l-38.635-.001c.6-3.41 2.195-6.469 4.505-8.829z" fill="#ffc7b6"/>
    <path d="M24.44 72.09h56.72a6.89 6.89 0 0 1 6.89 6.89v.01c0 3.8-3.08 6.89-6.89 6.89H7.83c.65-3.39 2.3-6.43 4.63-8.78 3.06-3.1 7.3-5.01 11.98-5.01zM54.66 174.06h10.13c3.8 0 6.89 3.09 6.89 6.89v.01c0 3.8-3.09 6.89-6.89 6.89H38.02c1.47-7.85 8.37-13.79 16.64-13.79zM21.64 111.22a16.94 16.94 0 0 1 11.99-4.96h31.16c3.8 0 6.89 3.08 6.89 6.89v.01c0 3.8-3.09 6.89-6.89 6.89H16.98c.64-3.41 2.31-6.47 4.66-8.83z" fill="#ffc7b6"/>
    <path d="m321.734 59.71 2.559 153.178H212.535c-5.27 0-9.542-4.27-9.542-9.538V84.03l4.822-14.986c0-5.268 4.272-9.538 9.542-9.538z" fill="#fcc16d"/>
    <path d="M212.54 54.63c-5.27 0-9.55 4.27-9.55 9.54v19.86h108.721v-29.4z" fill="#fbb44d"/>
    <ellipse cx="245.131" cy="167.408" fill="#f5f8f9" rx="15.155" ry="15.149"/>
    <path d="m461.216 72.115-2.327 28.409-.12 27.12c-.67 10.04-6.339 18.749-12.489 26.779l-7.31 9.55c-5.79 7.57-6.742 18.141-6.742 27.671l-.376 38.776-8.981 3.21H310.64v-47.79c0-6.2-1.33-12.33-3.9-17.98l-2.09-4.58a61.501 61.501 0 0 1-5.64-25.67l-.07-78.09c0-4.68 1.9-8.91 4.96-11.98 3.07-3.07 7.31-4.96 11.99-4.96 1.08 0 2.137.101 3.161.294 7.765 5.052 12.095 9.099 13.789 16.646V47.67c0-9.36 7.59-16.94 16.95-16.94 1.08 0 2.136.101 3.161.285 3.413.612 5.763 4.346 8.124 6.653 3.06 3.02 5.665 5.102 5.665 10.002v-9.18c0-9.36 7.59-16.95 16.95-16.95 1.08 0 2.137.101 3.161.295 3.414.644 6.027 3.691 8.389 6.045 3.06 3.07 5.4 5.93 5.4 10.61V29.3c0-9.36 7.65-16.94 17.08-16.94 1.13 0 2.234.109 3.303.317 3.394.66 5.163 3.155 7.513 5.482 3.1 3.06 5.01 7.3 5.01 11.98l1.264 13.192c1.902 0 3.76.193 5.554.56 12.382 4.6 20.852 14.915 20.852 28.224z" fill="#c86f5c"/>
    <path d="M462.38 70.88v29.49l-.12 27.12a51.201 51.201 0 0 1-10.44 27.72l-7.31 9.55a43.385 43.385 0 0 0-8.93 26.36v42.51h-22.71v-49c0-9.53 3.14-18.79 8.93-26.36l7.31-9.55A51.201 51.201 0 0 0 439.55 121l.12-27.12V64.39c0-8.11-3.51-15.41-9.11-20.45 12.47 2.64 31.82 13.7 31.82 26.94zM361.78 35.52c3.06 3.02 4.96 7.25 4.96 12.15v21.98c0 3.8-3.09 6.89-6.89 6.89h-.01c-3.8 0-6.89-3.09-6.89-6.89l.001-38.635c3.41.6 6.469 2.195 8.829 4.505z" fill="#af564a"/>
    <path d="M434.81 29.3v56.72a6.89 6.89 0 0 1-6.89 6.89h-.01a6.89 6.89 0 0 1-6.89-6.89V12.69c3.39.65 6.43 2.3 8.78 4.63 3.1 3.06 5.01 7.3 5.01 11.98zM332.84 59.52v10.13c0 3.8-3.09 6.89-6.89 6.89h-.01c-3.8 0-6.89-3.09-6.89-6.89V42.88c7.85 1.47 13.79 8.37 13.79 16.64zM395.68 26.5a16.94 16.94 0 0 1 4.96 11.99v31.16c0 3.8-3.08 6.89-6.89 6.89h-.01c-3.8 0-6.89-3.09-6.89-6.89V21.84c3.41.64 6.47 2.31 8.83 4.66z" fill="#af564a"/>
    <path d="m449.86 220.196-2.197 68.389-24.793 4.863-43.62.042c-8.86.01-17.62 1.93-25.67 5.64l-4.58 2.09a43.424 43.424 0 0 1-17.98 3.9h-22.01v-7.09c0-5.27-4.28-9.54-9.55-9.54h-5.51v-71.18c0-5.27 4.27-9.54 9.54-9.54h119.38l17.45 2.886c5.27 0 9.54 4.27 9.54 9.54z" fill="#67e88e"/>
    <path d="M452.27 217.31v76.11l-29.4.03v-85.68h19.86c5.27 0 9.54 4.27 9.54 9.54z" fill="#5bd397"/>
    <ellipse cx="339.448" cy="249.892" fill="#f5f8f9" rx="15.155" ry="15.149"/>
    <path d="M289.524 333.974c0-12.489-10.163-22.65-22.655-22.65s-22.655 10.161-22.655 22.65 10.163 22.649 22.655 22.649 22.655-10.161 22.655-22.649zm-22.655 7.649c-4.221 0-7.655-3.432-7.655-7.649 0-4.218 3.435-7.65 7.655-7.65s7.655 3.432 7.655 7.65c0 4.217-3.434 7.649-7.655 7.649zM173.25 239.458c-12.491 0-22.654 10.161-22.654 22.649 0 12.489 10.163 22.65 22.654 22.65 12.492 0 22.655-10.161 22.655-22.65 0-12.488-10.163-22.649-22.655-22.649zm0 30.299c-4.221 0-7.654-3.432-7.654-7.65s3.434-7.649 7.654-7.649 7.655 3.432 7.655 7.649c0 4.219-3.434 7.65-7.655 7.65zM245.131 190.056c12.492 0 22.655-10.161 22.655-22.649s-10.163-22.649-22.655-22.649-22.655 10.161-22.655 22.649 10.163 22.649 22.655 22.649zm0-30.299c4.221 0 7.655 3.432 7.655 7.649s-3.435 7.649-7.655 7.649-7.655-3.432-7.655-7.649 3.434-7.649 7.655-7.649zM339.448 227.243c-12.492 0-22.655 10.161-22.655 22.65s10.163 22.649 22.655 22.649 22.655-10.161 22.655-22.649c.001-12.49-10.163-22.65-22.655-22.65zm0 30.299c-4.221 0-7.655-3.432-7.655-7.649 0-4.218 3.435-7.65 7.655-7.65s7.655 3.432 7.655 7.65c.001 4.217-3.434 7.649-7.655 7.649z"/>
    <path d="M499.356 390.709a24.289 24.289 0 0 0 3.455-12.509c0-9.163-5.072-17.16-12.555-21.344 2.142-3.647 3.365-7.925 3.365-12.544 0-10.025-6.071-18.656-14.729-22.423a24.281 24.281 0 0 0 2.866-11.469c0-6.531-2.542-12.669-7.165-17.292-4.038-4.026-9.229-6.471-14.825-7.026v-68.793c0-9.276-7.456-16.83-16.689-17.021v-9.168a36.004 36.004 0 0 1 7.397-21.805l7.297-9.545a58.602 58.602 0 0 0 11.978-31.773c.011-.155.017-.311.018-.466l.021-3.75a7.5 7.5 0 0 0-7.459-7.541h-.042a7.5 7.5 0 0 0-7.499 7.459l-.02 3.508a43.658 43.658 0 0 1-8.908 23.448l-7.293 9.54c-6.765 8.816-10.489 19.799-10.489 30.925v9.15H318.137v-14.436c.225-7.53-2.681-18.002-6.676-25.695a54.353 54.353 0 0 1-4.951-22.543l-.069-78.08c.099-3.881 2.97-9.047 9.448-9.442 5.21 0 9.448 4.236 9.448 9.442 0 .02.003.038.003.058v9.632c0 4.142 3.357 7.5 7.5 7.5s7.5-3.358 7.5-7.5V47.669c0-5.209 4.239-9.447 9.45-9.447 5.477 0 9.451 3.973 9.451 9.447v21.538c0 4.142 3.357 7.5 7.5 7.5s7.5-3.358 7.5-7.5V38.483c0-5.209 4.239-9.447 9.45-9.447s9.45 4.238 9.45 9.447v30.724c0 4.142 3.357 7.5 7.5 7.5s7.5-3.358 7.5-7.5V29.298c0-5.209 4.3-9.447 9.584-9.447s9.584 4.238 9.584 9.447v56.107c0 4.142 3.357 7.5 7.5 7.5s7.5-3.358 7.5-7.5V52.28a20.022 20.022 0 0 1 6.697 4.427 19.91 19.91 0 0 1 5.873 14.192v17.84c0 4.142 3.357 7.5 7.5 7.5s7.5-3.358 7.5-7.5V70.905c.006-9.371-3.641-18.18-10.268-24.805-4.819-4.818-10.797-8.051-17.303-9.461v-7.34c0-13.48-11.028-24.447-24.584-24.447-9.252 0-17.324 5.111-21.519 12.641a24.302 24.302 0 0 0-12.516-3.456c-9.165 0-17.164 5.071-21.35 12.552-3.649-2.142-7.93-3.367-12.552-3.367-10.026 0-18.658 6.067-22.427 14.721a24.295 24.295 0 0 0-11.475-2.868c-6.528 0-12.667 2.542-17.286 7.158a24.568 24.568 0 0 0-3.796 4.896H212.53c-9.274 0-16.828 7.452-17.022 16.681h-9.17a36.104 36.104 0 0 1-21.818-7.388l-9.549-7.306a58.617 58.617 0 0 0-31.789-11.966c-.369-.046-56.489-.115-57.124-.131-9.364 0-18.17 3.645-24.793 10.264-4.821 4.818-8.058 10.794-9.469 17.298h-7.343C10.97 64.581 0 75.606 0 89.159c0 9.249 5.112 17.319 12.644 21.512a24.279 24.279 0 0 0-3.455 12.509c0 9.163 5.072 17.159 12.555 21.344-2.142 3.647-3.365 7.926-3.365 12.544 0 10.023 6.069 18.653 14.724 22.42a24.281 24.281 0 0 0-2.867 11.468c0 6.528 2.544 12.667 7.163 17.284a24.274 24.274 0 0 0 15.531 7.089v79.359c0 9.277 7.456 16.833 16.689 17.023v9.167a36.064 36.064 0 0 1-7.391 21.806l-7.309 9.546a58.581 58.581 0 0 0-11.972 31.78c-.132 14.366-.141 43.005-.131 57.089-.004 9.369 3.644 18.177 10.269 24.802 4.82 4.819 10.797 8.054 17.304 9.464v7.336c0 13.48 11.028 24.447 24.584 24.447 9.252 0 17.324-5.111 21.519-12.641a24.302 24.302 0 0 0 12.516 3.456c9.165 0 17.164-5.071 21.35-12.552 3.649 2.142 7.93 3.366 12.551 3.366 10.026 0 18.659-6.067 22.427-14.721a24.294 24.294 0 0 0 11.475 2.867c6.528 0 12.667-2.542 17.286-7.158a24.257 24.257 0 0 0 7.092-15.517h28.182c4.143 0 7.5-3.358 7.5-7.5s-3.357-7.5-7.5-7.5h-28.123l-.058-64.859c.196-10.417-3.316-23.389-8.402-33.361a35.615 35.615 0 0 1-3.226-14.864v-14.453c8.795-.182 15.961-7.05 16.622-15.721h73.287c1.125 0 2.04.915 2.04 2.04v139.18c0 1.125-.915 2.04-2.04 2.04h-15.1c-4.143 0-7.5 3.358-7.5 7.5s3.357 7.5 7.5 7.5h15.1c9.274 0 16.828-7.452 17.022-16.681h9.17a36.104 36.104 0 0 1 21.818 7.388l9.549 7.306a58.618 58.618 0 0 0 31.789 11.966c.156.01.313.016.47.017l56.641.115h.013c9.365 0 18.171-3.645 24.795-10.264 4.821-4.818 8.057-10.794 9.468-17.298h7.343c13.483 0 24.453-11.025 24.453-24.577-.002-9.25-5.114-17.32-12.646-21.513zM45.235 190.957c0-5.206 4.238-9.442 9.448-9.442.02 0 .038-.003.058-.003h9.635c4.143 0 7.5-3.358 7.5-7.5s-3.357-7.5-7.5-7.5H42.831c-5.213 0-9.453-4.236-9.453-9.444 0-5.473 3.976-9.444 9.453-9.444h21.546c4.143 0 7.5-3.358 7.5-7.5s-3.357-7.5-7.5-7.5H33.643c-5.213 0-9.454-4.236-9.454-9.444s4.241-9.444 9.454-9.444h30.734c4.143 0 7.5-3.358 7.5-7.5s-3.357-7.5-7.5-7.5H24.453C19.24 98.736 15 94.44 15 89.159s4.24-9.578 9.453-9.578h56.129c4.143 0 7.5-3.358 7.5-7.5s-3.357-7.5-7.5-7.5H47.439a20.023 20.023 0 0 1 4.428-6.688 19.946 19.946 0 0 1 14.193-5.874l56.343.114a43.65 43.65 0 0 1 23.452 8.897l9.55 7.306c8.829 6.755 19.814 10.475 30.933 10.475h9.152v32.319c0 4.142 3.357 7.5 7.5 7.5s7.5-3.358 7.5-7.5V64.17c0-1.125.915-2.04 2.04-2.04h78.913l.067 75.479c.008 9.877 2.195 19.839 6.314 28.778 2.775 5.596 5.163 11.689 5.312 19.448v14.454a16.98 16.98 0 0 0-11.801 5.102H212.53a2.042 2.042 0 0 1-2.04-2.04v-57.22c0-4.142-3.357-7.5-7.5-7.5s-7.5 3.358-7.5 7.5v42.577h-14.441a50.58 50.58 0 0 0-21.087 4.572l-4.614 2.101a54.4 54.4 0 0 1-22.555 4.951l-78.109.069c-2.523 0-4.896-.982-6.681-2.767s-2.768-4.156-2.768-6.677zm181.014 29.433h60.201v60.6h-60.201zm-22.757 238.768a9.387 9.387 0 0 1-6.682 2.767c-5.21 0-9.449-4.236-9.449-9.442l-.002-.039v-9.651c0-4.142-3.357-7.5-7.5-7.5s-7.5 3.358-7.5 7.5v21.538c0 5.209-4.24 9.447-9.451 9.447-5.476 0-9.45-3.973-9.45-9.447v-21.538c0-4.142-3.357-7.5-7.5-7.5s-7.5 3.358-7.5 7.5v30.724c0 5.209-4.239 9.447-9.45 9.447s-9.45-4.238-9.45-9.447v-30.724c0-4.142-3.357-7.5-7.5-7.5s-7.5 3.358-7.5 7.5v39.909c0 5.209-4.3 9.447-9.584 9.447s-9.584-4.238-9.584-9.447v-56.107c0-4.142-3.357-7.5-7.5-7.5s-7.5 3.358-7.5 7.5v33.129a19.997 19.997 0 0 1-6.697-4.429 19.93 19.93 0 0 1-5.875-14.192c-.025-14.076.026-42.478.113-56.313a43.607 43.607 0 0 1 8.899-23.44l7.309-9.546c6.759-8.827 10.48-19.81 10.48-30.925v-9.149h109.942v14.436a50.521 50.521 0 0 0 4.574 21.08c3.894 7.619 7.065 17.495 7.054 27.158l.069 78.08a9.373 9.373 0 0 1-2.766 6.674zm5.716-162.429H69.971a2.044 2.044 0 0 1-2.041-2.041v-79.302l64.876-.057c9.88-.008 19.844-2.195 28.786-6.312l4.583-2.086a35.675 35.675 0 0 1 14.874-3.225h14.459c.184 8.8 7.062 15.968 15.741 16.618v74.364a2.043 2.043 0 0 1-2.041 2.041zm278.339 125.069h-56.129c-4.143 0-7.5 3.358-7.5 7.5s3.357 7.5 7.5 7.5h33.143a20.023 20.023 0 0 1-4.428 6.688 19.943 19.943 0 0 1-14.194 5.875h-.007l-56.335-.114a43.652 43.652 0 0 1-23.452-8.896l-9.55-7.307c-8.83-6.754-19.815-10.475-30.933-10.475h-9.152V312.67h14.44c7.534.228 18.005-2.691 25.708-6.668a53.673 53.673 0 0 1 22.548-4.952l12.859-.01a7.5 7.5 0 0 0-.006-15h-.006l-12.862.01c-10.03.012-19.724 2.141-28.768 6.309-5.609 2.764-11.714 5.163-19.474 5.311H316.49c-.18-8.561-6.695-15.583-15.041-16.555v-63.806c0-1.124.916-2.039 2.043-2.039h139.233c1.127 0 2.043.915 2.043 2.039v68.683l-17.718.017a7.5 7.5 0 0 0-7.492 7.507 7.5 7.5 0 0 0 7.5 7.493h.008l30.253-.03c2.518 0 4.892.984 6.677 2.764a9.379 9.379 0 0 1 2.763 6.676c0 5.205-4.234 9.44-9.439 9.44-.049 0-.096.006-.145.007h-9.552c-4.143 0-7.5 3.358-7.5 7.5s3.357 7.5 7.5 7.5h21.546c5.213 0 9.453 4.237 9.453 9.444 0 5.472-3.976 9.444-9.453 9.444h-21.546c-4.143 0-7.5 3.358-7.5 7.5s3.357 7.5 7.5 7.5h30.734c5.213 0 9.454 4.237 9.454 9.444s-4.241 9.444-9.454 9.444h-30.734c-4.143 0-7.5 3.358-7.5 7.5s3.357 7.5 7.5 7.5h39.924c5.213 0 9.453 4.296 9.453 9.578s-4.24 9.578-9.453 9.578z"/>
</svg>
