<svg height="512pt" viewBox="0 -1 512 512" width="512pt" xmlns="http://www.w3.org/2000/svg">
    <path d="M512 87.09V44.664a8 8 0 0 0-8-8h-46.184V95.09H504a8 8 0 0 0 8-8zM512 179.324v-42.422a8 8 0 0 0-8-8h-46.184v58.422H504a8 8 0 0 0 8-8zM512 271.563V229.14a8 8 0 0 0-8-8h-46.184v58.422H504a8 8 0 0 0 8-8zm0 0" fill="#f288e8"/>
    <path d="M503.75 36.664h-12.188v34.59a8.252 8.252 0 0 1-8.25 8.25h-25.496v15.582h45.934a8.25 8.25 0 0 0 8.25-8.25V44.914a8.25 8.25 0 0 0-8.25-8.25zM503.75 128.902h-12.188v34.59a8.252 8.252 0 0 1-8.25 8.25h-25.496v15.582h45.934a8.25 8.25 0 0 0 8.25-8.25v-41.922a8.25 8.25 0 0 0-8.25-8.25zM503.75 221.14h-12.188v34.59a8.252 8.252 0 0 1-8.25 8.25h-25.496v15.582h45.934a8.252 8.252 0 0 0 8.25-8.25v-41.921a8.25 8.25 0 0 0-8.25-8.25zm0 0" fill="#d866d3"/>
    <path d="M359.66 305.238V8a8 8 0 0 1 8-8h94.024a8 8 0 0 1 8 8v297.238a8 8 0 0 1-8 8H367.66a8 8 0 0 1-8-8zm0 0" fill="#f288e8"/>
    <path d="M162.121 0h-42.426a8 8 0 0 0-8 8v46.184h58.426V8a8 8 0 0 0-8-8zM254.36 0h-42.426a8 8 0 0 0-8 8v46.184h58.425V8a8 8 0 0 0-8-8zm0 0" fill="#f96058"/>
    <path d="M161.871 0h-22.687a8.252 8.252 0 0 1 8.25 8.25v45.934h22.687V8.25a8.247 8.247 0 0 0-8.25-8.25zM254.11 0h-22.688a8.252 8.252 0 0 1 8.25 8.25v45.934h22.687V8.25A8.25 8.25 0 0 0 254.11 0zm0 0" fill="#e94141"/>
    <path d="M291.309 152.336H83.035a8 8 0 0 1-8-8v-94.02a8 8 0 0 1 8-8H291.31a8 8 0 0 1 8 8v94.024a7.997 7.997 0 0 1-8 7.996zm0 0" fill="#f96058"/>
    <path d="M461.434 0H441.3v287.805a8.252 8.252 0 0 1-8.25 8.25h-73.387v8.933a8.247 8.247 0 0 0 8.25 8.25h93.52a8.25 8.25 0 0 0 8.25-8.25V8.25a8.25 8.25 0 0 0-8.25-8.25zm0 0" fill="#d866d3"/>
    <path d="M291.059 42.316h-20.13v84.582a8.25 8.25 0 0 1-8.25 8.25H75.036v8.938a8.247 8.247 0 0 0 8.25 8.25H291.06a8.247 8.247 0 0 0 8.25-8.25v-93.52a8.25 8.25 0 0 0-8.25-8.25zm0 0" fill="#e94141"/>
    <path d="M401.125 377.137H8a8 8 0 0 1-8-8V188.844a8 8 0 0 1 8-8h393.125a8 8 0 0 1 8 8v180.293a8 8 0 0 1-8 8zm0 0" fill="#ffa511"/>
    <g fill="#ffdc13">
        <path d="M95.09 235.832c0 16.133-13.082 29.211-29.215 29.211s-29.21-13.078-29.21-29.211 13.077-29.21 29.21-29.21 29.215 13.077 29.215 29.21zM95.09 322.148c0 16.137-13.082 29.215-29.215 29.215s-29.21-13.078-29.21-29.215c0-16.132 13.077-29.21 29.21-29.21s29.215 13.078 29.215 29.21zM187.172 235.832c0 16.133-13.078 29.211-29.211 29.211-16.137 0-29.215-13.078-29.215-29.211s13.078-29.21 29.215-29.21c16.133 0 29.21 13.077 29.21 29.21zM187.172 322.148c0 16.137-13.078 29.215-29.211 29.215-16.137 0-29.215-13.078-29.215-29.215 0-16.132 13.078-29.21 29.215-29.21 16.133 0 29.21 13.078 29.21 29.21zM279.563 235.832c0 16.133-13.079 29.211-29.211 29.211-16.133 0-29.211-13.078-29.211-29.211s13.078-29.21 29.21-29.21c16.133 0 29.212 13.077 29.212 29.21zM279.563 322.148c0 16.137-13.079 29.215-29.211 29.215-16.133 0-29.211-13.078-29.211-29.215 0-16.132 13.078-29.21 29.21-29.21 16.133 0 29.212 13.078 29.212 29.21zM371.648 235.832c0 16.133-13.078 29.211-29.21 29.211-16.137 0-29.215-13.078-29.215-29.211s13.078-29.21 29.215-29.21c16.132 0 29.21 13.077 29.21 29.21zM371.648 322.148c0 16.137-13.078 29.215-29.21 29.215-16.137 0-29.215-13.078-29.215-29.215 0-16.132 13.078-29.21 29.215-29.21 16.132 0 29.21 13.078 29.21 29.21zm0 0"/>
    </g>
    <path d="M400.875 180.844H380.41v166.61a8.25 8.25 0 0 1-8.25 8.25H0v13.183a8.252 8.252 0 0 0 8.25 8.25h392.625a8.252 8.252 0 0 0 8.25-8.25V189.094a8.252 8.252 0 0 0-8.25-8.25zm0 0" fill="#f48500"/>
    <path d="M478.277 509.016h-208.43a8 8 0 0 1-8-8V320.719a8 8 0 0 1 8-8h208.43a8 8 0 0 1 8 8v180.297a8 8 0 0 1-8 8zm0 0" fill="#0064db"/>
    <path d="M478.027 312.719h-20.464v166.61a8.247 8.247 0 0 1-8.25 8.25H261.847v13.187a8.25 8.25 0 0 0 8.25 8.25h207.93a8.252 8.252 0 0 0 8.25-8.25V320.969a8.252 8.252 0 0 0-8.25-8.25zm0 0" fill="#0050c4"/>
    <path d="M357.23 367.707c0 16.133-13.078 29.215-29.21 29.215-16.133 0-29.211-13.082-29.211-29.215s13.078-29.21 29.21-29.21c16.133 0 29.211 13.077 29.211 29.21zM357.23 454.027c0 16.133-13.078 29.211-29.21 29.211-16.133 0-29.211-13.078-29.211-29.21 0-16.133 13.078-29.212 29.21-29.212 16.133 0 29.211 13.079 29.211 29.211zM449.316 367.707c0 16.133-13.078 29.215-29.214 29.215-16.133 0-29.211-13.082-29.211-29.215s13.078-29.21 29.21-29.21c16.137 0 29.215 13.077 29.215 29.21zM449.316 454.027c0 16.133-13.078 29.211-29.214 29.211-16.133 0-29.211-13.078-29.211-29.21 0-16.133 13.078-29.212 29.21-29.212 16.137 0 29.215 13.079 29.215 29.211zm0 0" fill="#0b9cff"/>
</svg>
