<svg height="512" width="512" xmlns="http://www.w3.org/2000/svg">
    <path d="M214.706 312.295a14.95 14.95 0 0 1-10.606-4.394c-5.858-5.857-5.858-15.355 0-21.213l151.433-151.435c5.857-5.857 15.355-5.857 21.213 0s5.858 15.355 0 21.213L225.312 307.901a14.95 14.95 0 0 1-10.606 4.394z" fill="#ffb454"/>
    <path d="M204.1 307.901c2.929 2.929 6.768 4.394 10.606 4.394s7.678-1.465 10.606-4.394l151.433-151.435c5.858-5.857 5.858-15.355 0-21.213L204.1 307.901c-.001 0-.001 0 0 0z" fill="#ff8659"/>
    <path d="M386.868 227.538a15 15 0 0 1-14.326-10.548l-18.385-59.146-59.147-18.385a15.002 15.002 0 0 1-4.209-26.572l50.57-35.763-.792-61.934a15 15 0 0 1 23.97-12.213l49.639 37.043 58.657-19.891a14.994 14.994 0 0 1 15.424 3.599 14.998 14.998 0 0 1 3.599 15.424l-19.892 58.657 37.044 49.639a15 15 0 0 1 1.344 15.781 14.981 14.981 0 0 1-13.557 8.189l-61.934-.791-35.763 50.569a14.99 14.99 0 0 1-12.242 6.342z" fill="#ffdd54"/>
    <path d="M8.787 503.213c-11.716-11.716-11.716-30.711 0-42.426l180.312-180.312c5.858-5.858 15.355-5.858 21.213 0l21.213 21.213c5.858 5.858 5.858 15.355 0 21.213L51.213 503.213c-11.716 11.716-30.71 11.716-42.426 0z" fill="#6b61b1"/>
    <g fill="#ffb454">
        <path d="M497 320h-15v-15c0-8.284-6.716-15-15-15s-15 6.716-15 15v15h-15c-8.284 0-15 6.716-15 15s6.716 15 15 15h15v15c0 8.284 6.716 15 15 15s15-6.716 15-15v-15h15c8.284 0 15-6.716 15-15s-6.716-15-15-15z"/>
        <circle cx="347" cy="320" r="15"/>
        <circle cx="467" cy="240" r="15"/>
    </g>
    <g fill="#ffdd54">
        <path d="M206 170h-15v-15c0-8.284-6.716-15-15-15s-15 6.716-15 15v15h-15c-8.284 0-15 6.716-15 15s6.716 15 15 15h15v15c0 8.284 6.716 15 15 15s15-6.716 15-15v-15h15c8.284 0 15-6.716 15-15s-6.716-15-15-15zM276 30h-15V15c0-8.284-6.716-15-15-15s-15 6.716-15 15v15h-15c-8.284 0-15 6.716-15 15s6.716 15 15 15h15v15c0 8.284 6.716 15 15 15s15-6.716 15-15V60h15c8.284 0 15-6.716 15-15s-6.716-15-15-15z"/>
        <circle cx="141" cy="90" r="15"/>
    </g>
    <path d="m354.156 157.844 18.385 59.146a15 15 0 0 0 26.571 4.209l35.763-50.569 61.934.791a14.985 14.985 0 0 0 13.557-8.189 15 15 0 0 0-1.344-15.781l-37.044-49.639 19.892-58.657a15.002 15.002 0 0 0-3.599-15.424z" fill="#ffb454"/>
    <path d="M8.787 503.213c11.716 11.716 30.711 11.716 42.426 0l180.312-180.312c5.858-5.858 5.858-15.355 0-21.213l-10.607-10.607z" fill="#453d81"/>
</svg>
