<svg height="512" viewBox="0 0 256 256" width="512" xmlns="http://www.w3.org/2000/svg">
    <path d="m216.792 192.45-21.79-10.239-66.924 18.528 47.568 13.169a16.821 16.821 0 0 1 9.025 5.588l19.059-3.548c9.154-1.704 15.359-10.294 14.099-19.519a17.468 17.468 0 0 0-1.037-3.979z" fill="#f9d0b4"/>
    <path d="m183.255 185.463 10.312 32.378 10.163-1.892c9.154-1.704 15.359-10.294 14.099-19.52a17.508 17.508 0 0 0-1.038-3.979l-21.79-10.239z" fill="#5b5d60"/>
    <path d="M185.667 220.81a16.829 16.829 0 0 0-10.022-6.902l-114.59-31.725-21.652 10.174a17.516 17.516 0 0 0-1.078 4.072c-1.259 9.226 4.945 17.815 14.099 19.519l111.155 20.693a9.926 9.926 0 0 1 6.091 3.759l6.377 8.406a11.861 11.861 0 0 0 15.681 2.924c5.75-3.551 7.376-11.18 3.573-16.766z" fill="#f9d0b4"/>
    <path d="m72.758 185.423-11.701-3.24-21.652 10.174a17.516 17.516 0 0 0-1.078 4.072c-1.259 9.226 4.945 17.815 14.099 19.52l10.015 1.865z" fill="#5b5d60"/>
    <path d="m235.437 178.582-.852-.393a2.937 2.937 0 0 1-1.363-4.047c.909-1.707-.495-3.727-2.412-3.47l-5.099.685a10.143 10.143 0 0 1-5.97-1.023l-25.498-13.043a7.049 7.049 0 0 1-3.724-5.141l-5.565-34.443a11.24 11.24 0 0 0-8.477-10.273l-19.596-4.947a23.939 23.939 0 0 1-4.741-1.743l-6.775-3.341a7.62 7.62 0 0 1-4.25-6.834v-3.952a24.542 24.542 0 0 1-13.114 3.792 24.552 24.552 0 0 1-12.958-3.692v3.851a7.62 7.62 0 0 1-4.25 6.834l-6.776 3.341a23.922 23.922 0 0 1-4.741 1.743l-19.596 4.947a11.236 11.236 0 0 0-8.477 10.273c-9.533 57.391-3.802 22.878-5.721 34.443a7.052 7.052 0 0 1-3.724 5.14L36.26 170.332a10.143 10.143 0 0 1-5.97 1.023l-5.099-.685c-1.917-.257-3.321 1.762-2.412 3.47a2.935 2.935 0 0 1-1.363 4.047l-.852.393a10.244 10.244 0 0 0-4.658 13.261c2.332 5.247 8.521 7.553 13.718 5.111l45.586-21.421A21.255 21.255 0 0 0 86.778 161.5c3.765-14.906 4.871-18.66 4.844-18.558 0-.304.428-.369.518-.079l2.546 8.156a66.54 66.54 0 0 1 3.022 19.825v21.484l30.372 8.409 30.372-8.409v-21.484a66.55 66.55 0 0 1 3.022-19.826l2.546-8.155c.091-.29.518-.225.518.079l4.687 18.558a21.253 21.253 0 0 0 11.568 14.031l45.586 21.421c5.197 2.442 11.386.136 13.718-5.111a10.244 10.244 0 0 0-4.66-13.259z" fill="#f9d0b4"/>
    <path d="M184.954 117.708a11.24 11.24 0 0 0-8.477-10.273l-19.596-4.947a23.939 23.939 0 0 1-4.741-1.743l-6.775-3.341a7.62 7.62 0 0 1-4.25-6.834v-3.952a24.542 24.542 0 0 1-13.114 3.792 24.552 24.552 0 0 1-12.958-3.692v3.851a7.62 7.62 0 0 1-4.25 6.834l-6.776 3.341a23.922 23.922 0 0 1-4.741 1.743l-19.596 4.947a11.236 11.236 0 0 0-8.477 10.273l-4.822 29.031 22.388 6.948c2.178-8.46 2.874-10.823 2.852-10.742 0-.304.428-.369.518-.079l2.546 8.156a66.54 66.54 0 0 1 3.022 19.825v21.484l30.372 8.409 30.372-8.409v-21.484a66.55 66.55 0 0 1 3.022-19.826l2.546-8.155c.091-.29.518-.225.518.079l2.712 10.737 22.395-6.95z" fill="#5290db"/>
    <path d="m148.766 99.082-3.402-1.677a7.62 7.62 0 0 1-4.25-6.834v-3.952A24.542 24.542 0 0 1 128 90.411a24.552 24.552 0 0 1-12.958-3.692v3.851a7.62 7.62 0 0 1-4.25 6.834l-3.53 1.74c3.607 7.864 11.559 13.364 20.737 13.364 9.204.001 17.174-5.528 20.767-13.426zM71.485 219.497a16.91 16.91 0 0 0-.996 1.314l-9.635 14.154c-3.803 5.586-2.177 13.216 3.573 16.766a11.86 11.86 0 0 0 15.681-2.923l6.377-8.406a9.926 9.926 0 0 1 6.091-3.759l35.503-6.609z" fill="#f9d0b4"/>
    <path d="M70.675 256.018c-2.585 0-5.201-.702-7.562-2.16a14.23 14.23 0 0 1-6.5-9.227 14.233 14.233 0 0 1 2.174-11.074l9.635-14.153a2.5 2.5 0 0 1 4.133 2.815l-9.635 14.153c-1.451 2.132-1.955 4.695-1.417 7.218s2.042 4.659 4.237 6.015a9.324 9.324 0 0 0 12.375-2.308l6.377-8.406a12.404 12.404 0 0 1 7.625-4.707l35.2-6.553a2.506 2.506 0 0 1 2.916 2 2.502 2.502 0 0 1-2 2.916l-35.2 6.553a7.415 7.415 0 0 0-4.557 2.813l-6.377 8.406a14.311 14.311 0 0 1-11.424 5.699zM185.331 221.873a2.501 2.501 0 0 1-.455-4.958l18.396-3.425a14.937 14.937 0 0 0 11.358-19.681 2.5 2.5 0 0 1 4.712-1.668c.459 1.295.783 2.624.964 3.951 1.44 10.562-5.64 20.363-16.12 22.313l-18.395 3.425a2.485 2.485 0 0 1-.46.043zM128.535 203.113a2.5 2.5 0 0 1-.666-4.91l65.588-18.158a2.5 2.5 0 1 1 1.334 4.818l-65.588 18.158a2.495 2.495 0 0 1-.668.092z"/>
    <path d="M185.481 256.018a14.311 14.311 0 0 1-11.425-5.7l-6.377-8.406a7.404 7.404 0 0 0-4.556-2.812L51.968 218.406c-10.48-1.95-17.561-11.752-16.119-22.314a19.852 19.852 0 0 1 1.026-4.114 2.5 2.5 0 0 1 4.697 1.713 14.883 14.883 0 0 0-.769 3.078 14.937 14.937 0 0 0 12.08 16.722l111.156 20.693a12.391 12.391 0 0 1 7.624 4.706l6.378 8.406a9.324 9.324 0 0 0 12.375 2.308 9.275 9.275 0 0 0 4.237-6.015 9.282 9.282 0 0 0-1.417-7.218l-9.636-14.153a14.29 14.29 0 0 0-8.532-5.877l-113.962-31.55a2.498 2.498 0 0 1-1.742-3.076 2.497 2.497 0 0 1 3.076-1.742l113.873 31.526c4.613 1.093 8.701 3.909 11.421 7.905l9.636 14.152a14.237 14.237 0 0 1 2.175 11.074 14.24 14.24 0 0 1-6.501 9.227 14.362 14.362 0 0 1-7.563 2.161z"/>
    <path d="M149.214 36.059c-1.618-1.697-4.25-1.853-6.095-.405-2.917 2.29-7.964 5.12-15.092 5.12-7.146 0-12.22-2.844-15.149-5.136-1.843-1.443-4.469-1.281-6.084.413l-.008.009a12.794 12.794 0 0 0-3.536 8.831v20.771c0 13.613 11.138 24.75 24.75 24.75 13.613 0 24.75-11.138 24.75-24.75V44.89c0-3.289-1.266-6.451-3.536-8.831z" fill="#f9d0b4"/>
    <path d="M154.338 46.799c-.541 0-1.07.046-1.588.126v18.737c0 .558-.025 1.111-.062 1.66a10.32 10.32 0 0 0 1.651.144c5.707 0 10.333-4.626 10.333-10.333s-4.627-10.334-10.334-10.334zM103.25 65.661V46.924a10.395 10.395 0 0 0-1.588-.126c-5.707 0-10.333 4.626-10.333 10.333s4.626 10.333 10.333 10.333c.563 0 1.112-.057 1.651-.144a23.962 23.962 0 0 1-.063-1.659z" fill="#f9d0b4"/>
    <path d="M152.658 25.687c-.829 0-1.547-.639-1.559-1.468-.19-13.791-15.939-16.382-31.623-13.674-13.297 2.296-23.016 13.827-23.016 27.321v10.347a10.27 10.27 0 0 1 5.202-1.415c.541 0 1.07.046 1.588.126V44.89c0-3.289 1.266-6.451 3.536-8.831l.008-.009c1.615-1.694 4.241-1.856 6.084-.413 2.929 2.292 8.003 5.136 15.149 5.136 7.129 0 12.176-2.83 15.092-5.12 1.845-1.448 4.476-1.292 6.095.405a12.794 12.794 0 0 1 3.536 8.831v2.035c.518-.08 1.048-.126 1.588-.126 1.922 0 3.715.534 5.256 1.448V39.75c.001-12.348-4.459-14.063-6.936-14.063z" fill="#5b5d60"/>
    <path d="M151.873 122.995c-5.958-5.005-14.844-4.347-20.346 1.155l-2.274 2.274a1.772 1.772 0 0 1-2.506 0l-2.274-2.274c-5.502-5.502-14.388-6.16-20.346-1.155-6.788 5.702-7.116 15.848-.984 21.98l23.073 23.073a2.523 2.523 0 0 0 3.568 0l23.073-23.073c6.132-6.131 5.804-16.277-.984-21.98z" fill="#fc657e"/>
    <circle cx="164.669" cy="3.4" fill="#fc657e" r="3.4"/>
    <path d="M35.269 125.5h2.3v2.3c0 1.8 1.4 3.2 3.2 3.2 1.7 0 3.2-1.4 3.2-3.1v-2.4h2.3c1.8 0 3.2-1.4 3.2-3.2 0-1.7-1.4-3.2-3.1-3.2h-2.4v-2.3c0-1.8-1.4-3.2-3.2-3.2-1.7 0-3.2 1.4-3.2 3.1v2.4h-2.3c-1.8 0-3.2 1.4-3.2 3.2-.1 1.7 1.3 3.2 3.2 3.2-.1 0-.1 0 0 0z" fill="#87d147"/>
    <circle cx="29.669" cy="146.6" fill="#f5c84c" r="3.4"/>
    <path d="M224.451 231.525c-3.1-.6-5.6-3-6.2-6.1 0-.1-.3-.1-.3 0-.6 3.1-3.1 5.5-6.2 6.1-.1 0-.1.2 0 .3 3.1.6 5.6 3 6.2 6.1 0 .1.3.1.3 0 .6-3.1 3.1-5.5 6.2-6.1.1-.1.1-.3 0-.3z" fill="#70d6f9"/>
    <path d="M177.251 32.2c4.5-.8 8-4.3 8.9-8.7 0-.2.4-.2.4 0 .9 4.4 4.4 7.9 8.9 8.7.2 0 .2.3 0 .4-4.5.8-8 4.3-8.9 8.7 0 .2-.4.2-.4 0-.9-4.4-4.4-7.9-8.9-8.7-.2-.1-.2-.4 0-.4z" fill="#f5c84c"/>
    <path d="M128 92.911c-15.026 0-27.25-12.225-27.25-27.25V44.89c0-3.949 1.501-7.698 4.227-10.557 2.51-2.634 6.567-2.916 9.442-.665 2.685 2.101 7.225 4.604 13.608 4.604 6.371 0 10.885-2.493 13.549-4.586 2.878-2.259 6.938-1.983 9.447.646h.001a15.231 15.231 0 0 1 4.226 10.557V65.66c0 15.027-12.225 27.251-27.25 27.251zm-17.949-55.754c-.533 0-1.057.208-1.447.617a10.265 10.265 0 0 0-2.854 7.115V65.66c0 12.269 9.981 22.25 22.25 22.25s22.25-9.981 22.25-22.25V44.89c0-2.659-1.01-5.183-2.845-7.105-.721-.756-1.898-.826-2.741-.164-3.285 2.578-8.838 5.652-16.637 5.652-7.808 0-13.386-3.082-16.689-5.667a2.083 2.083 0 0 0-1.287-.449z"/>
    <path d="M154.338 69.965c-.398 0-.79-.021-1.178-.061a2.501 2.501 0 0 1-2.231-2.743 2.503 2.503 0 0 1 2.743-2.231c.22.023.441.035.666.035 4.319 0 7.834-3.514 7.834-7.833s-3.515-7.833-7.834-7.833c-.195 0-.39.008-.581.023-1.379.1-2.579-.925-2.685-2.302s.926-2.578 2.302-2.685c.318-.023.64-.037.964-.037 7.077 0 12.834 5.757 12.834 12.833s-5.757 12.834-12.834 12.834zM101.662 69.965c-7.076 0-12.833-5.757-12.833-12.833s5.757-12.833 12.833-12.833c.346 0 .688.015 1.026.043a2.499 2.499 0 0 1 2.284 2.698 2.501 2.501 0 0 1-2.698 2.284 7.295 7.295 0 0 0-.612-.025c-4.319 0-7.833 3.514-7.833 7.833s3.514 7.833 7.833 7.833c.197 0 .391-.01.583-.026a2.5 2.5 0 0 1 .441 4.981c-.337.029-.679.045-1.024.045z"/>
    <path d="M159.595 50.208a2.5 2.5 0 0 1-2.5-2.5v-7.957c0-7.241-1.659-11.564-4.438-11.564-2.207 0-4.027-1.764-4.059-3.933-.048-3.513-1.238-6.188-3.64-8.182-4.682-3.89-13.815-5.005-25.058-3.063a25.176 25.176 0 0 0-20.94 24.857v9.842a2.5 2.5 0 1 1-5 0v-9.842a30.167 30.167 0 0 1 25.091-29.785c7.454-1.287 21.149-2.462 29.103 4.145 3.317 2.754 5.134 6.455 5.41 11.01 3.544.384 8.531 3.279 8.531 16.516v7.957a2.5 2.5 0 0 1-2.5 2.499zM230.726 200.435a12.69 12.69 0 0 1-5.412-1.218l-45.586-21.421a23.669 23.669 0 0 1-12.928-15.682l-2.76-10.927-.181.578a63.953 63.953 0 0 0-2.909 19.081v20.945a2.5 2.5 0 1 1-5 0v-20.945a68.976 68.976 0 0 1 3.136-20.571l2.546-8.155a2.743 2.743 0 0 1 3.059-1.908 2.749 2.749 0 0 1 2.309 2.275l4.648 18.402a18.688 18.688 0 0 0 10.207 12.381l45.586 21.421a7.68 7.68 0 0 0 5.997.248 7.685 7.685 0 0 0 4.374-4.112 7.753 7.753 0 0 0-3.475-10l-.798-.367a5.463 5.463 0 0 1-2.878-3.203 5.46 5.46 0 0 1 .247-4.074l-4.863.652a12.597 12.597 0 0 1-7.441-1.274l-25.499-13.044a9.592 9.592 0 0 1-5.054-6.968l-5.564-34.442a2.519 2.519 0 0 1-.028-.26 8.695 8.695 0 0 0-6.592-7.986l-19.598-4.948a26.451 26.451 0 0 1-5.234-1.925l-6.775-3.341a10.055 10.055 0 0 1-5.645-9.076v-3.549a2.5 2.5 0 1 1 5 0v3.549a5.087 5.087 0 0 0 2.854 4.592l6.776 3.341a21.489 21.489 0 0 0 4.246 1.561l19.598 4.948a13.677 13.677 0 0 1 10.354 12.421l5.544 34.319a4.568 4.568 0 0 0 2.404 3.317l25.489 13.04a7.633 7.633 0 0 0 4.499.771l5.099-.685a4.841 4.841 0 0 1 4.651 2.048 4.853 4.853 0 0 1 .3 5.074c-.073.138-.056.264-.028.345s.09.191.231.257l.852.393c.034.016.068.032.102.05 5.985 3.093 8.531 10.34 5.795 16.496a12.647 12.647 0 0 1-7.196 6.768 12.81 12.81 0 0 1-4.459.808zM25.275 200.435c-1.501 0-3.006-.269-4.458-.81a12.644 12.644 0 0 1-7.197-6.767c-2.737-6.157-.191-13.403 5.794-16.497.034-.018.067-.034.102-.05l.852-.393a.434.434 0 0 0 .203-.602 4.853 4.853 0 0 1 .3-5.074 4.851 4.851 0 0 1 4.651-2.048l5.099.685a7.61 7.61 0 0 0 4.5-.771l25.498-13.044a4.561 4.561 0 0 0 2.395-3.313l.009-.055.121-.726.011-.07.054-.323.094-.568.14-.843 5.273-31.741a13.674 13.674 0 0 1 10.355-12.416l19.594-4.946a21.454 21.454 0 0 0 4.247-1.562l6.776-3.341a5.089 5.089 0 0 0 2.855-4.592v-3.445a2.5 2.5 0 1 1 5 0v3.445c0 3.882-2.163 7.359-5.644 9.076l-6.776 3.341a26.481 26.481 0 0 1-5.237 1.926l-19.594 4.946a8.698 8.698 0 0 0-6.593 7.987 2.441 2.441 0 0 1-.03.271l-5.647 33.997-.074.445a9.584 9.584 0 0 1-5.043 6.953l-25.507 13.048a12.58 12.58 0 0 1-7.442 1.274l-4.863-.652a5.46 5.46 0 0 1 .246 4.074 5.457 5.457 0 0 1-2.876 3.203l-.798.367a7.751 7.751 0 0 0-3.474 10 7.682 7.682 0 0 0 4.374 4.112 7.677 7.677 0 0 0 5.996-.248l45.586-21.421a18.686 18.686 0 0 0 10.207-12.381c1.927-7.628 3.142-12.272 3.822-14.825.429-1.61.724-2.716.969-3.487a2.763 2.763 0 0 1 .801-1.611 2.763 2.763 0 0 1 1.521-.755 2.752 2.752 0 0 1 3.058 1.904l2.547 8.16a68.953 68.953 0 0 1 3.136 20.569v20.936a2.5 2.5 0 1 1-5 0v-20.936c0-6.477-.979-12.896-2.909-19.079l-.247-.789c-.706 2.71-1.638 6.337-2.851 11.137a23.667 23.667 0 0 1-12.929 15.682l-45.586 21.421a12.652 12.652 0 0 1-5.411 1.222zm63.931-58.139.028.008zM128.083 153.414a2.5 2.5 0 0 1-2.5-2.5v-14.381a2.5 2.5 0 1 1 5 0v14.381a2.5 2.5 0 0 1-2.5 2.5z"/>
    <path d="M135.273 146.224h-14.381a2.5 2.5 0 1 1 0-5h14.381a2.5 2.5 0 1 1 0 5z"/>
    <path d="M128 171.288a4.984 4.984 0 0 1-3.552-1.472l-23.073-23.073a17.447 17.447 0 0 1-5.081-13.064c.213-4.931 2.424-9.404 6.225-12.598 6.833-5.74 17.252-5.169 23.722 1.302l1.759 1.759 1.759-1.759c6.47-6.471 16.889-7.043 23.723-1.302 3.801 3.193 6.011 7.667 6.225 12.598a17.447 17.447 0 0 1-5.081 13.064l-23.073 23.073a4.988 4.988 0 0 1-3.553 1.472zm-14.46-49.174c-2.8 0-5.574.921-7.805 2.795-2.714 2.281-4.293 5.473-4.446 8.986a12.441 12.441 0 0 0 3.621 9.313l23.073 23.073 23.106-23.073a12.444 12.444 0 0 0 3.621-9.313c-.152-3.514-1.731-6.705-4.446-8.986-4.862-4.086-12.317-3.643-16.971 1.009l-2.273 2.273c-.806.807-1.879 1.252-3.021 1.252s-2.214-.445-3.021-1.252l-2.272-2.273a12.98 12.98 0 0 0-9.166-3.804zM87.553 155.811c-.246 0-.495-.037-.742-.113l-20.673-6.416a2.5 2.5 0 1 1 1.483-4.775l20.673 6.416a2.5 2.5 0 0 1-.741 4.888zM168.011 155.945a2.502 2.502 0 0 1-.741-4.889l20.554-6.378a2.505 2.505 0 0 1 3.129 1.646 2.5 2.5 0 0 1-1.646 3.129l-20.554 6.378a2.492 2.492 0 0 1-.742.114zM128 115.009c-9.563 0-18.211-5.33-22.57-13.911a2.5 2.5 0 1 1 4.458-2.263c3.502 6.893 10.442 11.175 18.112 11.175 7.614 0 14.531-4.237 18.052-11.059a2.5 2.5 0 1 1 4.443 2.293c-4.383 8.49-13.002 13.765-22.495 13.765zM193.259 219.376a2.502 2.502 0 0 1-2.381-1.742l-9.69-30.426a2.5 2.5 0 0 1 4.764-1.518l9.69 30.426a2.5 2.5 0 0 1-2.383 3.26zM62.792 219.212a2.502 2.502 0 0 1-2.383-3.26l9.582-30.083a2.502 2.502 0 0 1 4.765 1.518l-9.582 30.083a2.502 2.502 0 0 1-2.382 1.742z"/>
</svg>
