<svg height="512" width="512" xmlns="http://www.w3.org/2000/svg">
    <path d="M330.593 504.5c6.464 0 11.518-5.602 10.849-12.032-12.5-120.248-74.569-172.9-149.257-172.9s-136.757 52.653-149.257 172.9c-.668 6.43 4.385 12.032 10.849 12.032z" fill="#80b6fc"/>
    <path d="M341.443 492.468c-12.5-120.248-74.569-172.9-149.257-172.9-5.847 0-11.616.323-17.291.976 66.812 7.683 120.445 61.09 131.966 171.925.668 6.43-4.385 12.032-10.849 12.032h34.581c6.465-.001 11.518-5.603 10.85-12.033z" fill="#62a4fb"/>
    <path d="M78.319 206.107v-91.766c0-12.1 7.929-22.771 19.515-26.262l12.491-3.764 29.865-27.101a42.971 42.971 0 0 1 32.886-10.961l47.088 4.415c48.61 4.558 85.767 45.361 85.767 94.184v61.254H78.319z" fill="#655e67"/>
    <path d="M46.755 238.233h43.554v-56.831H46.755c-8.204 0-14.854 6.65-14.854 14.854v27.123c0 8.203 6.65 14.854 14.854 14.854z" fill="#e27c48"/>
    <path d="M121.695 156.603V266.82l-40.198-9.814c-10.222-2.496-17.477-12.264-17.477-23.533v-43.524c0-11.268 7.255-21.037 17.477-23.532z" fill="#80b6fc"/>
    <path d="M64.02 203.576v29.898c0 11.269 7.255 21.037 17.477 23.533l40.198 9.814v-29.898l-40.198-9.814c-10.222-2.497-17.477-12.265-17.477-23.533z" fill="#62a4fb"/>
    <path d="M337.617 238.233h-43.554v-56.831h43.554c8.204 0 14.854 6.65 14.854 14.854v27.123c0 8.203-6.651 14.854-14.854 14.854z" fill="#e27c48"/>
    <path d="M262.676 156.603V266.82l40.198-9.814c10.222-2.496 17.477-12.264 17.477-23.533v-43.524c0-11.268-7.255-21.037-17.477-23.532z" fill="#80b6fc"/>
    <path d="m302.874 227.108-40.198 9.814v29.898l40.198-9.814c10.222-2.496 17.477-12.264 17.477-23.533v-29.898c.001 11.269-7.254 21.037-17.477 23.533z" fill="#62a4fb"/>
    <path d="M157.604 266.82v84.734c0 19.099 15.483 34.581 34.581 34.581s34.581-15.483 34.581-34.581V266.82z" fill="#ffcdbe"/>
    <path d="M157.604 322.198a63.476 63.476 0 0 0 24.511 4.896h20.14a63.469 63.469 0 0 0 24.511-4.896V266.82h-69.163v55.378z" fill="#ebae9d"/>
    <path d="M282.589 196.888c0 25.412-4.165 45.19-11.471 60.337-15.454 32.069-45.008 43.335-78.932 43.335s-63.478-11.266-78.932-43.335c-7.306-15.147-11.471-34.925-11.471-60.337 0-12.302 2.105-24.933 5.963-37.122 3.783-12.007 9.26-23.567 16.074-33.923 3.963-6.022 12.393-6.936 17.737-2.096a174.811 174.811 0 0 0 39.647 27.029c5.747 2.857 12.598-.854 13.349-7.226l1.468-12.541c19.164 13.087 44.712 18.925 67.746 16.217a71.417 71.417 0 0 0 7.659-1.297 131.693 131.693 0 0 1 5.201 13.838c3.857 12.188 5.962 24.819 5.962 37.121z" fill="#ffcdbe"/>
    <path d="M165.556 412.034h-43.89c-5.438 0-9.846 4.408-9.846 9.846v72.774c0 5.438 4.408 9.846 9.846 9.846h43.89c5.438 0 9.846-4.408 9.846-9.846V421.88c0-5.438-4.408-9.846-9.846-9.846z" fill="#ddebfd"/>
    <path d="M371.172 317.103c-13.272 0-24.031 9.508-24.031 21.236s10.759 21.235 24.031 21.235 24.031-9.507 24.031-21.235c0-11.729-10.759-21.236-24.031-21.236zM456.637 301.363c-13.272 0-24.031 9.508-24.031 21.236s10.759 21.235 24.031 21.235 24.031-9.507 24.031-21.235-10.759-21.236-24.031-21.236z" fill="#e27c48"/>
    <path d="M292.81 352.894a7.5 7.5 0 1 0-10.659 10.552c28.431 28.718 45.869 72.388 51.83 129.801a3.364 3.364 0 0 1-.857 2.625A3.375 3.375 0 0 1 330.59 497H182.725a17.28 17.28 0 0 0 .178-2.346V421.88c0-9.564-7.781-17.346-17.346-17.346h-21.248c-2.092-12.488-12.971-22.037-26.044-22.037h-9.036c-6.3 0-11.425-5.12-11.425-11.414v-2.846c14.548-16.26 32.077-27.95 52.297-34.635v17.948c0 23.208 18.881 42.09 42.09 42.09 23.203 0 42.08-18.882 42.08-42.09v-17.94c7.607 2.517 14.905 5.749 21.775 9.68a7.496 7.496 0 0 0 10.234-2.784 7.5 7.5 0 0 0-2.784-10.235c-9.151-5.236-18.962-9.375-29.225-12.366v-16.843c15.266-5.856 27.492-15.38 36.595-28.518l33.785-8.249c9.663-2.361 17.244-9.407 20.865-18.564h12.104c12.324 0 22.35-10.026 22.35-22.351v-27.12c0-10.907-7.849-20.009-18.191-21.965l.738-6.849c4.604-42.619-9.18-85.356-37.818-117.254C276.062 18.294 235.054 0 192.19 0c-42.87 0-83.881 18.295-112.52 50.193-28.637 31.898-42.42 74.634-37.817 117.249l.738 6.852C32.249 176.25 24.4 185.353 24.4 196.26v27.12c0 12.324 10.026 22.351 22.35 22.351h12.104c3.621 9.158 11.202 16.204 20.867 18.565l3.082.752v26.807c0 4.932-4.007 8.943-8.933 8.943H52.954c-16.058 0-29.122 13.064-29.122 29.122 0 7.771 3.024 15.084 8.523 20.598 5.504 5.505 12.819 8.536 20.599 8.536h20.917c3.407 0 6.373 1.919 7.879 4.732-24.771 30.563-40.661 73.868-46.279 127.906a18.423 18.423 0 0 0 4.632 14.222A18.438 18.438 0 0 0 53.78 512h276.81a18.436 18.436 0 0 0 13.676-6.086 18.426 18.426 0 0 0 4.634-14.219c-6.323-60.895-25.194-107.595-56.09-138.801zM167.902 421.88v72.774a2.349 2.349 0 0 1-2.346 2.346h-43.891a2.35 2.35 0 0 1-2.346-2.346V421.88a2.349 2.349 0 0 1 2.346-2.346h43.891a2.349 2.349 0 0 1 2.346 2.346zm51.368-70.33c0 14.938-12.148 27.09-27.08 27.09-14.938 0-27.09-12.152-27.09-27.09v-46.12c8.325 1.744 17.35 2.63 27.085 2.63s18.76-.886 27.084-2.63v46.12zm6.11-63.216a7.463 7.463 0 0 0-1.674.525c-9.208 2.803-19.693 4.201-31.52 4.201-11.828 0-22.314-1.398-31.523-4.202a7.378 7.378 0 0 0-1.67-.524c-17.864-5.874-30.738-17.258-38.983-34.367-7.118-14.758-10.727-33.962-10.727-57.08 0-11.361 1.889-23.089 5.617-34.867 3.599-11.425 8.708-22.21 15.186-32.055.887-1.348 2.192-1.698 2.891-1.787a4.454 4.454 0 0 1 3.547 1.128 182.038 182.038 0 0 0 41.343 28.186 16.801 16.801 0 0 0 15.455-.271 16.806 16.806 0 0 0 8.681-12.799l.126-1.082c18.751 9.63 41.329 13.827 62.503 11.336a86.867 86.867 0 0 0 2.179-.281 123.458 123.458 0 0 1 2.666 7.636c3.725 11.768 5.613 23.495 5.613 34.857 0 23.119-3.609 42.323-10.728 57.082-8.245 17.107-21.118 28.49-38.982 34.364zm75.711-38.61-20.704 5.055c6.435-15.852 9.701-35.283 9.701-57.891 0-8.741-.999-17.644-2.928-26.584l13.936 3.403c6.811 1.658 11.754 8.489 11.754 16.243v43.52c0 7.753-4.946 14.589-11.759 16.254zm43.879-53.464v27.12c0 4.053-3.297 7.351-7.35 7.351h-9.77v-40.78c0-.354-.031-.699-.042-1.05h5.654l.018.001.021-.001h4.12c4.052-.001 7.349 3.301 7.349 7.359zM90.832 60.215C116.629 31.48 153.573 15 192.19 15c38.611 0 75.551 16.479 101.347 45.212 25.797 28.733 38.213 67.231 34.066 105.625l-.868 8.063h-3.007c-2.494-4.491-6.017-8.28-10.298-11.002V144.85c0-22.055-6.932-43.064-20.047-60.758-12.936-17.453-30.678-30.114-51.309-36.615a7.5 7.5 0 0 0-4.508 14.306c36.405 11.472 60.864 44.854 60.864 83.066v12.765l-15.896-3.883a140.904 140.904 0 0 0-4.246-10.829 7.498 7.498 0 0 0-8.534-4.286 64.34 64.34 0 0 1-6.864 1.16c-21.758 2.554-45.174-3.035-62.64-14.962a7.506 7.506 0 0 0-7.339-.632 7.503 7.503 0 0 0-4.339 5.953l-1.467 12.535c-.089.757-.552 1.155-.924 1.357-.372.2-.957.37-1.646.027a167.098 167.098 0 0 1-37.943-25.868 19.422 19.422 0 0 0-15.507-4.89 19.038 19.038 0 0 0-13.53 8.422c-6.52 9.91-11.784 20.667-15.699 32.009l-16.035 3.916V114.34c0-8.856 5.696-16.523 14.172-19.078l12.49-3.76a7.491 7.491 0 0 0 2.878-1.628l29.869-27.109c7.355-6.672 17.253-9.963 27.139-9.048l32.06 3.01c4.122.395 7.782-2.642 8.168-6.766a7.5 7.5 0 0 0-6.766-8.168l-32.065-3.011c-14.076-1.31-28.151 3.38-38.617 12.874l-28.615 25.971-10.869 3.272C80.805 85.378 70.82 98.817 70.82 114.34v48.632c-4.227 2.717-7.706 6.479-10.177 10.928h-3.007l-.869-8.066c-4.147-38.39 8.269-76.887 34.065-105.619zM39.4 223.38v-27.12c0-4.058 3.297-7.359 7.35-7.359h9.812c-.011.351-.042.696-.042 1.05v40.78h-9.77c-4.053-.001-7.35-3.298-7.35-7.351zm32.12 10.09v-43.52c0-7.754 4.943-14.585 11.759-16.244l13.933-3.402c-1.931 8.946-2.929 17.846-2.929 26.583 0 22.608 3.267 42.039 9.702 57.891l-20.704-5.054c-6.815-1.665-11.761-8.501-11.761-16.254zm2.351 110.585H52.954a14.03 14.03 0 0 1-9.984-4.135 14.074 14.074 0 0 1-4.138-9.999c0-7.787 6.335-14.122 14.122-14.122h20.917c13.196 0 23.933-10.741 23.933-23.943V268.71l15.703 3.834c9.103 13.137 21.328 22.661 36.593 28.516v16.831c-22.323 6.483-41.791 18.13-58.104 34.494-4.392-5.095-10.886-8.33-18.125-8.33zM51.246 495.872a3.362 3.362 0 0 1-.856-2.627c4.694-45.153 16.842-82.182 35.527-109.739 4.455 8.318 13.232 13.991 23.312 13.991h9.036c4.743 0 8.818 2.91 10.538 7.037h-7.136c-9.564 0-17.346 7.781-17.346 17.346v72.774c0 .797.073 1.577.178 2.346H53.78a3.375 3.375 0 0 1-2.534-1.128z"/>
    <path d="M207.427 231.63c-10.397 7.273-20.083 7.273-30.482 0a7.498 7.498 0 0 0-10.445 1.847 7.499 7.499 0 0 0 1.846 10.444c7.798 5.455 15.819 8.183 23.84 8.183s16.042-2.728 23.84-8.183a7.5 7.5 0 0 0-8.599-12.291zM149.575 185.417a7.5 7.5 0 0 0-7.5 7.5v2.563c0 4.143 3.358 7.5 7.5 7.5s7.5-3.357 7.5-7.5v-2.563a7.5 7.5 0 0 0-7.5-7.5zM234.796 185.417a7.5 7.5 0 0 0-7.5 7.5v2.563c0 4.143 3.358 7.5 7.5 7.5s7.5-3.357 7.5-7.5v-2.563a7.5 7.5 0 0 0-7.5-7.5zM137.183 455.389h12.856c4.142 0 7.5-3.357 7.5-7.5s-3.358-7.5-7.5-7.5h-12.856c-4.142 0-7.5 3.357-7.5 7.5s3.358 7.5 7.5 7.5zM483.003 237.37a14.304 14.304 0 0 0-11.775-3.083l-71.78 13.219a14.341 14.341 0 0 0-11.745 14.105v52.271c-4.81-2.71-10.473-4.279-16.531-4.279-17.386 0-31.531 12.891-31.531 28.736s14.145 28.735 31.531 28.735 31.531-12.891 31.531-28.735v-76.181l70.465-12.977v48.961c-4.81-2.71-10.473-4.279-16.531-4.279-17.386 0-31.531 12.891-31.531 28.735s14.145 28.735 31.531 28.735 31.531-12.891 31.531-28.735v-74.207c0-4.271-1.882-8.287-5.165-11.021zM371.172 352.074c-9.115 0-16.531-6.162-16.531-13.735 0-7.574 7.416-13.736 16.531-13.736s16.531 6.162 16.531 13.736c0 7.573-7.416 13.735-16.531 13.735zm85.465-15.74c-9.115 0-16.531-6.162-16.531-13.735s7.416-13.735 16.531-13.735 16.531 6.162 16.531 13.735-7.416 13.735-16.531 13.735z"/>
</svg>
