<svg height="512" viewBox="0 0 62 62.28" width="512" xmlns="http://www.w3.org/2000/svg">
    <path d="M44 43.28H6a1 1 0 0 1-1-1v-26a1 1 0 0 1 1-1h38z" fill="#69d6f4"/>
    <path d="M55 36.65v10.63c0 2.21-1.79 4-4 4H5c-2.21 0-4-1.79-4-4v-32c0-2.21 1.79-4 4-4h24.2l-.8 4H6c-.55 0-1 .45-1 1v26c0 .55.45 1 1 1h38c1.3 0 2.56-.41 3.61-1.18l6.64-4.87c.26-.19.51-.38.75-.58z" fill="#ccd1d9"/>
    <path d="M43 58.28v2c0 .55-.45 1-1 1H14c-.55 0-1-.45-1-1v-2c0-.55.45-1 1-1h28c.55 0 1 .45 1 1z" fill="#969faa"/>
    <path d="M19 51.28h18v6H19zM61 60.28c0 .55-.45 1-1 1h-8c-.55 0-1-.45-1-1 0-1.38.56-2.63 1.46-3.54a5.022 5.022 0 0 1 7.08 0c.9.91 1.46 2.16 1.46 3.54z" fill="#aab2bd"/>
    <path d="M60.68 20.68c.21 1.06.32 2.15.32 3.23 0 4.94-2.22 9.61-6 12.74-.24.2-.49.39-.75.58l-6.64 4.87c-1.05.77-2.31 1.18-3.61 1.18s-2.56-.41-3.61-1.18l-6.64-4.87a16.535 16.535 0 0 1-4.97-5.85A16.639 16.639 0 0 1 27 23.91c0-.54.03-1.09.08-1.63.06-.54.14-1.07.24-1.6l1.08-5.4.8-4 .8-4 2.75-.61a27.38 27.38 0 0 0 5.93-2.05c1.89-.9 3.68-2.02 5.32-3.34a27.58 27.58 0 0 0 11.25 5.39l2.75.61z" fill="#fcd770"/>
    <path d="M50 15.28v4h-4v-4c0-1.1-.9-2-2-2-.55 0-1.05.22-1.41.59-.37.36-.59.86-.59 1.41v4h-4v-4c0-1.66.67-3.16 1.76-4.24A5.944 5.944 0 0 1 44 9.28c3.31 0 6 2.69 6 6z" fill="#969faa"/>
    <path d="M53 22.28v10c0 1.66-1.34 3-3 3H38c-1.66 0-3-1.34-3-3v-10c0-1.66 1.34-3 3-3h12c1.66 0 3 1.34 3 3z" fill="#b4dd7f"/>
    <path d="M47 26.28c0 .89-.39 1.67-1 2.22v1.78c0 .55-.45 1-1 1h-2c-.55 0-1-.45-1-1V28.5c-.73-.66-1.15-1.65-.95-2.75.21-1.21 1.2-2.21 2.41-2.42A3 3 0 0 1 47 26.28z" fill="#ccd1d9"/>
    <path d="M42 56.28h-4v-4h13c2.757 0 5-2.243 5-5V37.099c3.778-3.304 6-8.126 6-13.184 0-1.15-.114-2.306-.34-3.434L58.853 6.445l-3.385-.753A26.717 26.717 0 0 1 44.625.499L44 0l-.625.499a26.705 26.705 0 0 1-10.843 5.193l-3.385.753-.767 3.835H5c-2.757 0-5 2.243-5 5v32c0 2.757 2.243 5 5 5h13v4h-4c-1.103 0-2 .897-2 2v2c0 1.103.897 2 2 2h28c1.103 0 2-.897 2-2v-2c0-1.102-.897-2-2-2zM57.147 8.115l2.552 12.759c.199.999.301 2.022.301 3.041a15.56 15.56 0 0 1-6.338 12.506l-6.641 4.87c-.605.444-1.3.724-2.021.864V36.28h5c2.206 0 4-1.794 4-4v-10c0-1.859-1.279-3.411-3-3.858V15.28c0-3.519-2.614-6.432-6-6.92v-5.1a28.757 28.757 0 0 0 10.034 4.386zM26.34 20.481c-.053.264-.078.533-.119.799h-3.807l-3-3H14v2h4.586l3 3h4.445c-.007.212-.031.423-.031.635 0 2.954.763 5.826 2.144 8.365h-5.73l-3-3H14v2h4.586l3 3h7.824a17.444 17.444 0 0 0 3.744 3.754l5.79 4.246H6v-26h21.18zM44 10.28c2.757 0 5 2.243 5 5v3h-2v-3c0-1.654-1.346-3-3-3s-3 1.346-3 3v3h-2v-3c0-2.757 2.243-5 5-5zm1 8h-2v-3a1 1 0 0 1 2 0zm-7 2h12c1.103 0 2 .897 2 2v10c0 1.103-.897 2-2 2H38c-1.103 0-2-.897-2-2v-10c0-1.102.897-2 2-2zM32.966 7.646A28.794 28.794 0 0 0 43 3.26v5.1c-3.386.488-6 3.401-6 6.92v3.142c-1.721.447-3 1.999-3 3.858v10c0 2.206 1.794 4 4 4h5v5.875a5.008 5.008 0 0 1-2.021-.864l-6.641-4.87A15.56 15.56 0 0 1 28 23.915c0-1.019.102-2.042.301-3.041l2.552-12.759zM2 47.28v-32c0-1.654 1.346-3 3-3h22.98l-.4 2H6c-1.103 0-2 .897-2 2v26c0 1.103.897 2 2 2h38a7.065 7.065 0 0 0 4.205-1.376L54 38.654v8.626c0 1.654-1.346 3-3 3H5c-1.654 0-3-1.345-3-3zm18 5h16v4H20zm-6 8v-2h28l.002 2z"/>
    <circle cx="24" cy="47.28" r="1"/>
    <circle cx="28" cy="47.28" r="1"/>
    <circle cx="32" cy="47.28" r="1"/>
    <path d="M56 54.28c-3.309 0-6 2.691-6 6 0 1.103.897 2 2 2h8c1.103 0 2-.897 2-2 0-3.308-2.691-6-6-6zm-4 6c0-2.206 1.794-4 4-4s4 1.794 4.002 4zM41 30.28c0 1.103.897 2 2 2h2c1.103 0 2-.897 2-2v-1.37a3.99 3.99 0 0 0 1-2.63c0-1.184-.52-2.3-1.427-3.062a3.996 3.996 0 0 0-3.282-.877c-1.618.281-2.945 1.61-3.229 3.232A3.987 3.987 0 0 0 41 28.91zm1.032-4.361c.139-.794.812-1.47 1.601-1.606.124-.021.248-.032.369-.032.473 0 .919.161 1.284.469.454.381.714.938.714 1.53 0 .564-.238 1.09-.67 1.479l-.33.299v2.223h-2v-2.224l-.331-.298a1.975 1.975 0 0 1-.637-1.84zM8 22.28v2h4.586l3 3H24v-2h-7.586l-3-3zM10 18.28h2v2h-2zM8 33.28v2h4.586l3 3H24v-2h-7.586l-3-3zM10 29.28h2v2h-2z"/>
</svg>
