<svg height="512" width="512" xmlns="http://www.w3.org/2000/svg">
    <path d="M83.5 393.5c19.3 0 35 15.7 35 35V442h-70v-13.5c0-19.3 15.7-35 35-35z" fill="#f4b594"/>
    <path d="M498.5 195.9c0-10.7-9.6-19-20.2-17.3-5 .8-10 1.9-14.8 3.3L338 433 19.9 443.3c-4 5.7-6.4 12.7-6.4 20.2 0 19.3 15.7 35 35 35h415c19.3 0 35-15.7 35-35z" fill="#38c714"/>
    <path d="M258.2 463.5c113.4 0 205.3-91.9 205.3-205.3v-76.3c-29.6 8.5-55.4 27.6-72.2 54.3l-24 38.2c-5.5 8.7-15.1 14-25.4 14-31 0-57.6 22-63.4 52.5-5.8 30.5-32.4 52.5-63.4 52.5h-24.5c-14.7 0-28.9 6.2-38.5 17.4-9.5 11.2-23.5 17.6-38.2 17.6H48.5c-11.8 0-22.2 5.9-28.6 14.8 12.5 12.5 29.8 20.2 48.9 20.2h189.4z" fill="#60d243"/>
    <path d="M343.7 197.3c9-3.5 13.4-13.7 9.9-22.7L340.8 142c-3.5-9-13.7-13.4-22.7-9.9s-13.4 13.7-9.9 22.7l12.8 32.6c3.5 9 13.7 13.4 22.7 9.9zM167 153.5 122.6 270c5.9 11 17.5 18.5 30.9 18.5 19.3 0 35-15.7 35-35l14.5-100z" fill="#facf23"/>
    <path d="M131 271c19.9 0 36-16.1 36-36v-81.5h-13.5c-4.8 0-9.3 1-13.5 2.7l-21.5 82.3v15c0 6 1.5 11.6 4.1 16.5 2.7.7 5.5 1 8.4 1z" fill="#fae77d"/>
    <path d="M118.5 188.5v50c11.9-.3 21.5-10 21.5-22v-60.3c-12.6 5.3-21.5 17.8-21.5 32.3z" fill="#fcf0ac"/>
    <path d="M188.5 251.7v53.7L203 343l-37 31.2-12.5 24 30.1 15.6 44.5-54.2c10.3-12.5 15.9-28.2 15.9-44.4v-63.5z" fill="#27aae1"/>
    <path d="m203.8 366.8 12.8-16c6.7-8.3 3.4-20.8-6.5-24.7-9.8-3.9-17.4-11.5-21.6-20.7v23.8c0 1.1-.2 2.1-.7 3.1l-21.8 42 12.9 2.1c9.4 1.5 18.9-2.2 24.9-9.6z" fill="#0cf"/>
    <path d="M293.5 226.5h-105v25.2C203 280 221 280 221 280l81 9-9.4 52.6.9 24.9h35v-105c0-19.3-15.7-35-35-35z" fill="#27aae1"/>
    <path d="M311 316v-27.4c0-9.7-7.9-17.6-17.6-17.6h-70.9c-14.1 0-27-7.5-34-19.3v9.8c0 19.3 15.7 35 35 35 15.3 0 30.4-2.5 44.8-7.5 10.7-3.7 22 3.9 23 15.2l1.3 37.4C303.3 338 311 327.9 311 316z" fill="#0cf"/>
    <path d="M223.5 141.9c-19.3 0-35 15.7-35 35v70h35c19.3 0 35-15.7 35-35v-35c0-19.3-15.7-35-35-35z" fill="#c0f6ff"/>
    <path d="M223.5 141.9c24.9 0 45-20.1 45-45V82h-90v14.9c0 24.9 20.1 45 45 45zM361.8 170.7c-4.2-8.9-15.3-12.3-24-7.9l-51.5 25.8c-2.9 1.4-6.4.9-8.7-1.4l-8.3-8.3L248 181l-4.1 22 13.3 13.3c10.8 10.8 27.2 13.3 40.8 6.4l55.9-28.8c8.5-4.3 12-14.7 7.9-23.2z" fill="#ffcdbe"/>
    <path d="M237.5 147.1c-6.8-6.8-17.9-6.8-24.7 0-6.8 6.8-6.8 17.9 0 24.7L244 203l25.4-24.1z" fill="#e0f4ff"/>
    <path d="M270.1 42.5H257L155.4 76.8c3.7 10.6 12.7 18.8 24.1 21.2 29 6.2 59 6.2 88 0 15.2-3.2 26-16.7 26-32.2 0-12.8-10.5-23.3-23.4-23.3z" fill="#c0f6ff"/>
    <path d="M231 74.6c15.1-3.2 26-16.6 26-32.1h-80.1c-12.9 0-23.4 10.5-23.4 23.4 0 3.8.7 7.5 1.9 10.9 25.1 3.8 50.7 3.1 75.6-2.2z" fill="#e0f4ff"/>
    <path d="m246.9 22.4-58.4 28.7v8c0 3.1 1.9 5.8 4.7 7 19.4 8 41.2 8 60.6 0 2.8-1.2 4.7-3.9 4.7-7V48.5c0-10.4-4.5-19.7-11.6-26.1z" fill="#0cf"/>
    <path d="M231.1 52.9C241 50.6 248 41.6 248 31.3c0-3.1-.4-6.1-1.1-8.9-5.1-4.6-11.7-7.7-18.9-8.6L190.5 37c-1.3 3.6-2 7.5-2 11.6v2.6c13.8 4.4 28.6 5 42.6 1.7z" fill="#75eeff"/>
    <path d="M223.5 13.5c-15.3 0-28.3 9.8-33 23.4 6.9.2 13.9-.5 20.7-2 9.8-2.3 16.7-11.1 16.9-21.1-1.6-.2-3.1-.3-4.6-.3z" fill="#c0f6ff"/>
    <path d="M216.6 421.9c3-9.2-2-19.1-11.2-22.1l-33.3-10.9c-9.2-3-19.1 2-22.1 11.2s2 19.1 11.2 22.1l33.3 10.9c9.2 3 19.1-2 22.1-11.2z" fill="#e0f4ff"/>
    <path d="M363.5 369.2c0-9.7-7.8-17.5-17.5-17.5h-35c-9.7 0-17.5 7.8-17.5 17.5s7.8 17.5 17.5 17.5h35c9.7 0 17.5-7.8 17.5-17.5z" fill="#c0f6ff"/>
    <path d="M136 238.5h-17.5v-50H136c9.7 0 17.5 7.8 17.5 17.5v15c0 9.7-7.8 17.5-17.5 17.5z" fill="#fac116"/>
    <path d="M118.5 238.5v-50H140V217c0 11.9-9.6 21.5-21.5 21.5z" fill="#facf23"/>
    <path d="M393.5 428.5c19.3 0 35 15.7 35 35h-70c0-19.3 15.7-35 35-35z" fill="#f4b594"/>
    <path d="M497.2 176.8c-5.6-4.8-12.9-6.8-20.2-5.6-7.9 1.3-15.8 3.3-23.3 6-3.9 1.4-5.9 5.7-4.6 9.6 1.4 3.9 5.7 5.9 9.6 4.6 6.7-2.4 13.7-4.2 20.7-5.3 2.9-.5 5.8.3 8.1 2.3 2.2 1.9 3.5 4.7 3.5 7.6v267.6c0 15.2-12.3 27.5-27.5 27.5h-415C33.3 491 21 478.7 21 463.5S33.3 436 48.5 436H114c13 0 25.5-4.4 35.6-12.3 2.6 2.5 5.8 4.4 9.4 5.6l33.3 10.9c2.6.8 5.2 1.3 7.8 1.3 10.5 0 20.3-6.7 23.8-17.2 2.7-8.3.8-17-4.2-23.4 31.8-2 58.8-24.8 65.8-56 0 0 .6 23.4.6 24.4 0 13.8 11.2 25 25 25h35c13.8 0 25-11.2 25-25s-11.2-25-25-25h-10v-47.9c2-.2 4-.3 5.9-.3 10.7 0 20.6-4.5 27.6-12.2l25.1 64c1.2 3 4 4.8 7 4.8.9 0 1.8-.2 2.7-.5 3.9-1.5 5.8-5.9 4.2-9.7l-28.9-73.6 17.9-28.5c8.3-13.3 19.1-24.7 31.9-33.8 3.4-2.4 4.2-7.1 1.8-10.5s-7.1-4.2-10.5-1.8c-14.4 10.2-26.5 23-35.9 38l-12 19.1-19.3-49 3.5-1.8c12.1-6.1 17.2-20.9 11.4-33.1-2.9-6-8-10.5-14.4-12.7-.2-.1-.3-.1-.5-.1l-6-15.3c-2.4-6.2-7.2-11.1-13.3-13.8s-12.9-2.8-19.1-.4-11.1 7.2-13.8 13.3-2.8 12.9-.3 19.1l5 12.6-23.2 11.6-37.3-37.3c5.4-2.5 10.3-5.9 14.6-10.2 8.6-8.4 13.9-19.3 15.3-31 15-6.1 25.4-20.9 25.4-37.5 0-17-13.9-30.9-30.9-30.9h-6.3c-5.7-16.8-21.6-29-40.3-29s-34.6 12.2-40.3 29h-6.3c-17 0-30.9 13.9-30.9 30.9 0 16.6 10.4 31.4 25.4 37.5 1.4 11.7 6.8 22.6 15.3 31 3.4 3.4 7.3 6.2 11.4 8.5-10.4 7.8-17.1 20.1-17.1 34v76.6c0 15.2-12.3 27.5-27.5 27.5S126 268.7 126 253.5V246h10c13.8 0 25-11.2 25-25v-15c0-13.8-11.2-25-25-25h-9c3.3-11.5 13.9-20 26.5-20h5c4.1 0 7.5-3.4 7.5-7.5s-3.4-7.5-7.5-7.5h-5c-23.4 0-42.5 19.1-42.5 42.5v65c0 23.4 19.1 42.5 42.5 42.5 10.5 0 20.1-3.8 27.5-10.1v43.2l-29.4 56.5c-4 3-7 7.2-8.6 12.1-1.4 4.2-1.6 8.5-.8 12.6-4.9 4.4-10.8 7.5-17.2 9.3-4.1-19.1-21.2-33.5-41.5-33.5-21.1 0-38.6 15.4-41.9 35.6C21.4 424.9 6 442.4 6 463.5 6 486.9 25.1 506 48.5 506h415c23.4 0 42.5-19.1 42.5-42.5V195.9c0-7.4-3.2-14.3-8.8-19.1zM126 196h10c5.5 0 10 4.5 10 10v15c0 5.5-4.5 10-10 10h-10zm145.1 143.6c-5.1 26.5-28.1 45.9-55 46.4l17.8-21.6c11.3-13.8 17.6-31.3 17.6-49.2v-13.9c6.5-1.3 12.9-3 19.2-5.2 2.9-1 6-.6 8.5 1.1 2.6 1.7 4.2 4.4 4.5 7.5l.2 5.6c-6.3 8.6-10.7 18.7-12.8 29.3zm74.9 19.6c5.5 0 10 4.5 10 10s-4.5 10-10 10h-35c-5.5 0-10-4.5-10-10s4.5-10 10-10zm17-92.1-2.1 3.3c-4.1 6.6-11.2 10.5-19 10.5-2 0-4 .1-5.9.3v-19.8c0-16.6-9.6-31-23.4-38l27.7-14.3zm-47.8-115c-1-2.5-.9-5.2.1-7.7s3-4.3 5.5-5.3 5.2-.9 7.7.1c2.4 1.1 4.3 3 5.3 5.5l3.9 9.9c-1.1.4-2.2.8-3.3 1.4l-14.8 7.4zm-25.6 43.2 51.5-25.8c2.5-1.3 5.5-1.5 8.2-.5 2.6.9 4.6 2.6 5.7 5 2.3 4.9.3 10.8-4.6 13.3l-55.9 28.8c-3.9 2-8 3-12.1 3.1h-.7c-7 0-14-2.8-19.2-8.1l-7.8-7.8 14.5-13.8 3.1 3.1c4.6 4.4 11.5 5.6 17.3 2.7zm-71.5-42.9c2-1.9 4.5-2.9 7.1-2.9s5.1 1 7.1 2.9l26.4 26.4-14.5 13.8-26-26c-4-4-4-10.3-.1-14.2zM196 48.5c0-15.2 12.3-27.5 27.5-27.5S251 33.3 251 48.5v10.2c-17.5 7.2-37.5 7.2-55 0zm-35 17.4c0-8.8 7.1-15.9 15.9-15.9h4.1v13.5c0 2.9 1.6 5.5 4.2 6.7 12 5.9 25.2 8.9 38.3 8.9s26.3-3 38.3-8.9c2.6-1.3 4.2-3.9 4.2-6.7V50h4.1c8.8 0 15.9 7.1 15.9 15.9 0 11.9-8.4 22.3-20.1 24.8-28.2 6-56.7 6-84.9 0-11.6-2.5-20-12.9-20-24.8zm26.5 41.3c12 2 24 3.1 36 3.1s24.1-1 36-3.1c-4.5 15.7-19.1 27.2-36 27.2s-31.5-11.5-36-27.2zm8.5 69.7c0-5.4 1.6-10.5 4.3-14.7.6 5.5 3 10.7 7.2 14.9l42.5 42.5c-3.4 11.5-14.1 19.9-26.4 19.9H196zm0 77.5h27.5c17 0 32.1-10.3 38.8-25.2 6.1 3.2 12.8 4.8 19.6 4.8h11.6c15.2 0 27.5 12.3 27.5 27.5v82.7h-10c-3.8 0-7.4.8-10.6 2.3l-1.7-42.7v-.3c-.6-7.8-4.7-14.7-11.3-18.9-6.5-4.2-14.3-5.2-21.6-2.7-13.7 4.7-27.9 7.1-42.4 7.1-15.2 0-27.5-12.3-27.5-27.5v-7.1zm-1.5 81.3c.1-.1.1-.2.2-.3.9-2 1.4-4.1 1.4-6.2v-35.3c7.4 6.3 17 10.1 27.5 10.1 4.4 0 8.7-.2 13-.6v11.8c0 14.4-5 28.5-14.2 39.6l-27.6 33.6-20.2-6.6c-1.2-.4-2.4-.7-3.6-.9zm-37.3 66.7c.8-2.5 2.6-4.6 5-5.8 1.4-.7 3-1.1 4.5-1.1 1 0 2.1.2 3.1.5l33.3 10.9c5.2 1.7 8.1 7.4 6.4 12.6s-7.4 8.1-12.6 6.4L163.6 415c-5.2-1.7-8.1-7.4-6.4-12.6zM83.5 401c12.5 0 23.2 8.5 26.4 20H57c3.3-11.5 13.9-20 26.5-20z"/>
    <path d="M463.5 456h-28.2c-3.6-19.9-20.9-35-41.8-35s-38.3 15.1-41.8 35h-28.2c-4.1 0-7.5 3.4-7.5 7.5s3.4 7.5 7.5 7.5h140c4.1 0 7.5-3.4 7.5-7.5s-3.4-7.5-7.5-7.5zm-96.5 0c3.3-11.5 13.9-20 26.5-20s23.2 8.5 26.5 20zM253.5 471h-30c-4.1 0-7.5-3.4-7.5-7.5s3.4-7.5 7.5-7.5h30c4.1 0 7.5 3.4 7.5 7.5s-3.4 7.5-7.5 7.5z"/>
    <circle cx="288.5" cy="463.5" r="7.5"/>
</svg>
