<svg height="512" viewBox="0 0 64 64" width="512" xmlns="http://www.w3.org/2000/svg">
    <path d="m21 42 1.73 12.09v.01c-.18-.07-.38-.1-.58-.1-.71 0-1.35.4-1.66 1.02L20 56h-3l2-14z" fill="#ffeaa7"/>
    <path d="M22.75 39.37 21 42h-2l-1.75-2.62L20 38z" fill="#fcd770"/>
    <path d="M26 51v5.18c-.31-.12-.65-.18-1-.18h-1v-.15c0-.82-.53-1.51-1.27-1.75v-.01L21 42l1.75-2.63L26 41zM17.25 39.38 19 42l-2 14h-3V41z" fill="#b4dd7f"/>
    <path d="M26 34v7l-3.25-1.63L20 38l4-4zM20 38l-2.75 1.38L14 41v-6.72c.65-.14 1.32-.23 2-.28z" fill="#a0d468"/>
    <path d="M30 34c8.84 0 16-7.16 16-16v3c0 .55.22 1.05.59 1.41.36.37.86.59 1.41.59 1.1 0 2-.9 2-2v-2c0 .55.22 1.05.59 1.41.36.37.86.59 1.41.59v2.78a21 21 0 0 1-8 16.5V39c0-.55-.45-1-1-1h-2c-.55 0-1 .45-1 1v3.76c-1.53.72-3.16 1.27-4.88 1.62L32 45v5h-5c-.55 0-1 .45-1 1V34zM14 56h6v6h-8C6.48 62 2 57.52 2 52v-2.96c0-7.23 5.1-13.34 12-14.76V41z" fill="#e6e9ed"/>
    <path d="M50 8v5h-4V8c0-1.1.9-2 2-2 .55 0 1.05.22 1.41.59.37.36.59.86.59 1.41z" fill="#ccd1d9"/>
    <path d="M50 19v2c0 1.1-.9 2-2 2-.55 0-1.05-.22-1.41-.59-.37-.36-.59-.86-.59-1.41v-8h4v2z" fill="#69d6f4"/>
    <path d="M36 18c0 3.31-2.69 6-6 6H29.93c.05-.29.07-.58.07-.88v-3.3c1.17-.4 2-1.51 2-2.82s-.83-2.42-2-2.82V12c0-1.1-.9-2-2-2h-8c-2.21 0-4 1.79-4 4v2h-1.53C13.11 16 12 17.11 12 18.47c0 .94.53 1.79 1.37 2.21L16 22v7.46c-.59.35-1.27.54-2 .54-2.21 0-4-1.79-4-4a3.999 3.999 0 0 1-2.9-6.75A5.988 5.988 0 0 1 4 14c0-3.31 2.69-6 6-6 0-3.31 2.69-6 6-6 1.54 0 2.94.58 4 1.54A5.93 5.93 0 0 1 24 2c1.86 0 3.51.84 4.62 2.17.44-.11.9-.17 1.38-.17 3.31 0 6 2.69 6 6 0 1.54-.58 2.94-1.54 4A5.93 5.93 0 0 1 36 18z" fill="#656d78"/>
    <path d="M30 14.17v.01c-.31-.12-.65-.18-1-.18-1.31 0-2.42.83-2.82 2h-4.34l-.02.01A2.977 2.977 0 0 0 19 14c-1.33 0-2.45.86-2.84 2.06L16 16v-2c0-2.21 1.79-4 4-4h8c1.1 0 2 .9 2 2z" fill="#f0d0b4"/>
    <path d="M30 19.83v3.29c0 .3-.02.59-.07.88a6.832 6.832 0 0 1-6.69 5.99V30l.76 4-4 4-4-4V22l-2.63-1.32A2.466 2.466 0 0 1 12 18.47c0-1.36 1.11-2.47 2.47-2.47H16l.16.06c-.11.29-.16.61-.16.94 0 1.66 1.34 3 3 3s3-1.34 3-3c0-.35-.06-.68-.18-.99l.02-.01h4.34c-.12.31-.18.65-.18 1 0 1.66 1.34 3 3 3 .35 0 .69-.06 1-.18z" fill="#f0d0b4"/>
    <path d="M29 14c.35 0 .69.06 1 .18 1.17.4 2 1.51 2 2.82s-.83 2.42-2 2.82c-.31.12-.65.18-1 .18-1.66 0-3-1.34-3-3 0-.35.06-.69.18-1 .4-1.17 1.51-2 2.82-2zM21.82 16.01c.12.31.18.64.18.99 0 1.66-1.34 3-3 3s-3-1.34-3-3c0-.33.05-.65.16-.94.39-1.2 1.51-2.06 2.84-2.06 1.31 0 2.42.84 2.82 2.01z" fill="#69d6f4"/>
    <path d="M54 19c0 1.1-.9 2-2 2-.55 0-1.05-.22-1.41-.59-.37-.36-.59-.86-.59-1.41v-4c0-1.1.9-2 2-2 .55 0 1.05.22 1.41.59.37.36.59.86.59 1.41zM45.41 13.59c.37.36.59.86.59 1.41s-.22 1.05-.59 1.41c-.36.37-.86.59-1.41.59-1.1 0-2-.9-2-2 0-.55.22-1.05.59-1.41.36-.37.86-.59 1.41-.59s1.05.22 1.41.59zM28 59c0 1.04-.52 1.95-1.32 2.49h-.01c-.48.32-1.05.51-1.67.51h-5v-6l.49-.98c.31-.62.95-1.02 1.66-1.02.2 0 .4.03.58.1.74.24 1.27.93 1.27 1.75V56h1c.35 0 .69.06 1 .18.43.14.81.39 1.12.7.54.54.88 1.29.88 2.12z" fill="#f0d0b4"/>
    <path d="M36 58v2c0 .7-.36 1.32-.91 1.68-.32.2-.69.32-1.09.32h-6c-.51 0-.97-.19-1.32-.51A2.99 2.99 0 0 0 28 59c0-.83-.34-1.58-.88-2.12-.31-.31-.69-.56-1.12-.7V51c0-.55.45-1 1-1h8c.55 0 1 .45 1 1v5.53z" fill="#ffeaa7"/>
    <path d="M56 39v5h-4v-5c0-.55.45-1 1-1h2c.55 0 1 .45 1 1zM44 40.28V44h-4v-5c0-.55.45-1 1-1h2c.55 0 1 .45 1 1z" fill="#cf9e76"/>
    <path d="M40 44h4v4h-4z" fill="#ccd1d9"/>
    <path d="M44.67 56C42 56 42 58 39.33 58c-1.76 0-2.36-.87-3.33-1.47v-.2L40 51v-3h4v3l2.28 3.04 2.92 3.89c-1.9-.35-2.17-1.93-4.53-1.93z" fill="#e6e9ed"/>
    <path d="M62 55.87c0 .04 0 .09-.01.13-2.66-.01-2.66-2-5.32-2-2.67 0-2.67 2-5.34 2-2.56 0-2.66-1.85-5.04-1.99.35-1.1 1.01-2.1 1.92-2.85L52 48v-4h4v4l3.79 3.16A6.135 6.135 0 0 1 62 55.87z" fill="#e6e9ed"/>
    <path d="M36 56.53c.97.6 1.57 1.47 3.33 1.47 2.67 0 2.67-2 5.34-2 2.36 0 2.63 1.58 4.53 1.93l.35.47a2.247 2.247 0 0 1-.2 2.93l-.01.01c-.41.41-.97.66-1.59.66h-11.5c-.42 0-.82-.12-1.16-.32.55-.36.91-.98.91-1.68v-2z" fill="#4fc1e9"/>
    <path d="M46.29 54.01c2.38.14 2.48 1.99 5.04 1.99 2.67 0 2.67-2 5.34-2 2.66 0 2.66 1.99 5.32 2-.06 3.33-2.77 6-6.12 6h-3.74c-1 0-1.95-.24-2.78-.67a2.247 2.247 0 0 0 .2-2.93l-.35-.47-2.92-3.89c0-.01.01-.02.01-.03z" fill="#69d6f4"/>
    <path d="M25 23.764c-.381.762-1.147 1.236-2 1.236s-1.619-.474-2-1.236l-.105-.211-1.789.895.105.21C19.933 26.103 21.385 27 23 27s3.067-.897 3.789-2.342l.105-.211-1.789-.895z"/>
    <path d="M60.436 50.394 57 47.532V39c0-1.103-.897-2-2-2h-2c-1.103 0-2 .897-2 2v8.532l-3.436 2.862a7.095 7.095 0 0 0-1.479 1.719L45 50.667v-9.921c5.087-4.198 8-10.348 8-16.961v-1.968a2.996 2.996 0 0 0 2-2.816v-4c0-1.654-1.346-3-3-3-.352 0-.686.072-1 .184V8c0-1.654-1.346-3-3-3s-3 1.346-3 3v4.184A2.966 2.966 0 0 0 44 12c-1.654 0-3 1.346-3 3s1.346 3 3 3c.352 0 .686-.072 1-.184V18c0 8.271-6.729 15-15 15h-5.172l-.401-2.118a7.893 7.893 0 0 0 6.348-5.927C34.271 24.567 37 21.598 37 18c0-1.437-.443-2.83-1.263-4A6.963 6.963 0 0 0 37 10c0-4.196-3.729-7.571-8.022-6.921A6.98 6.98 0 0 0 20 2.263 6.973 6.973 0 0 0 16 1c-3.542 0-6.478 2.645-6.938 6.063C5.645 7.522 3 10.458 3 14a7.001 7.001 0 0 0 2.675 5.502A4.952 4.952 0 0 0 5 22a5.01 5.01 0 0 0 4.084 4.916A5.01 5.01 0 0 0 14 31c.338 0 .672-.045 1-.112v2.226C7.08 34.149 1 40.958 1 49.036V52c0 6.065 4.935 11 11 11h13c.577 0 1.123-.128 1.619-.349.424.221.894.349 1.381.349h6c.39 0 .76-.08 1.102-.216.366.138.753.216 1.148.216h11.5c.641 0 1.236-.193 1.74-.515a7.154 7.154 0 0 0 2.639.515h3.742A7.137 7.137 0 0 0 63 55.871a7.113 7.113 0 0 0-2.564-5.477zM55 39v4h-2v-4zm-6.154 12.93L53 48.468V45h2v3.468l4.154 3.462a5.113 5.113 0 0 1 1.73 2.863c-.339-.143-.623-.348-.951-.593-.713-.535-1.601-1.2-3.268-1.2s-2.554.666-3.267 1.2c-.62.464-1.067.8-2.067.8-.999 0-1.446-.335-2.065-.8-.414-.311-.894-.669-1.553-.913a5.08 5.08 0 0 1 1.133-1.357zm-2.997 3.201A5.226 5.226 0 0 0 44.665 55c-1.667 0-2.554.666-3.267 1.2-.62.464-1.067.8-2.067.8-.969 0-1.421-.318-2.011-.76L41 51.333V49h2v2.333zM33 45.82l2.314-.463A22.118 22.118 0 0 0 39 44.274v6.393l-2 2.667V51c0-1.103-.897-2-2-2h-2zM43 47h-2v-2h2zm0-4h-2v-4h2zm9-29c.552 0 1 .449 1 1v4a1.001 1.001 0 0 1-2 0v-4c0-.551.448-1 1-1zm-4-7c.552 0 1 .449 1 1v4h-2V8c0-.551.448-1 1-1zm-4 9a1.001 1.001 0 0 1 0-2 1.001 1.001 0 0 1 0 2zm3-2h2v7a1.001 1.001 0 0 1-2 0zm-.868 9.329A2.971 2.971 0 0 0 48 24a2.995 2.995 0 0 0 2.884-2.22c.037.015.078.022.116.036v1.969c0 5.512-2.227 10.67-6.161 14.432A2 2 0 0 0 43 37h-2c-1.103 0-2 .897-2 2v3.106a20.067 20.067 0 0 1-4.078 1.29L33 43.78V41h-2v8h-4V35h3c7.512 0 13.89-4.902 16.132-11.671zM25 55h-.131a2.856 2.856 0 0 0-1.225-1.564l-1.6-11.2 1.048-1.572 1.908.954zm-5.407-.422-.211.422h-1.229l1.714-12h.265l1.44 10.08a2.818 2.818 0 0 0-1.979 1.498zM15.636 35.05l2.676 2.676L15 39.382v-4.255a13.3 13.3 0 0 1 .636-.077zm8.778-.05H25v4.382l-3.312-1.656zm-3.949 6h-.93l-.825-1.237 1.29-.645 1.29.645zM15 41.618l1.908-.954 1.048 1.572L16.132 55H15zm14-18.501A5.89 5.89 0 0 1 23.117 29c-.634 0-1.26-.102-1.86-.302l-1.94-.647-.633 1.897 1.94.647a7.89 7.89 0 0 0 1.779.347l.516 2.724L20 36.586l-3-3V21.382l-3.187-1.593A1.474 1.474 0 0 1 14.472 17H15c0 2.206 1.794 4 4 4s4-1.794 4-4h2c0 2.206 1.794 4 4 4zM28 11c.552 0 1 .449 1 1v1c-1.474 0-2.75.81-3.444 2h-3.113c-.694-1.19-1.97-2-3.444-2a3.95 3.95 0 0 0-1.953.531A3 3 0 0 1 20 11zm1 8c-1.103 0-2-.897-2-2s.897-2 2-2 2 .897 2 2-.897 2-2 2zm-10-4c1.103 0 2 .897 2 2s-.897 2-2 2-2-.897-2-2 .897-2 2-2zm-5 14c-1.654 0-3-1.346-3-3v-1h-1c-1.654 0-3-1.346-3-3 0-.763.295-1.494.829-2.058l.89-.938-1.132-.625A5.006 5.006 0 0 1 5 14c0-2.757 2.243-5 5-5h1V8c0-2.757 2.243-5 5-5 1.227 0 2.41.455 3.333 1.281l.667.598.667-.598a4.99 4.99 0 0 1 7.18.525l.396.477.604-.143C32.142 4.365 35 6.871 35 10a4.984 4.984 0 0 1-1.281 3.332l-.6.668.6.668A4.984 4.984 0 0 1 35 18a5.01 5.01 0 0 1-4 4.899v-2.455c1.19-.694 2-1.97 2-3.444s-.81-2.75-2-3.444V12c0-1.654-1.346-3-3-3h-4a1.001 1.001 0 0 1 0-2h1V5h-1c-1.654 0-3 1.346-3 3 0 .352.072.686.184 1H20c-2.757 0-5 2.243-5 5v1h-.528A3.477 3.477 0 0 0 11 18.472a3.45 3.45 0 0 0 1.919 3.105L15 22.618v6.188A2.986 2.986 0 0 1 14 29zM3 52v-2.964c0-6.282 4.202-11.688 10-13.455V55h-1c-1.654 0-3-1.346-3-3v-7H7v7c0 2.757 2.243 5 5 5h7v4h-7c-4.963 0-9-4.038-9-9zm18 9v-4.764l.382-.764a.855.855 0 0 1 1.618.382V57h2c1.103 0 2 .897 2 2s-.897 2-2 2zm7.444 0A3.959 3.959 0 0 0 29 59c0-1.474-.81-2.75-2-3.444V51h8v2h-4v2h4v2h-2v2h2v1c0 .551-.448 1-1 1zm19.306 0H36.816c.112-.314.184-.648.184-1v-1.572c.576.319 1.305.572 2.331.572 1.667 0 2.554-.666 3.267-1.2.62-.464 1.067-.8 2.067-.8 1.001 0 1.448.336 2.068.8.466.35 1.047.762 1.867 1l.15.2a1.252 1.252 0 0 1-1 2zm8.121 0h-3.742c-.455 0-.896-.064-1.325-.178.119-.337.196-.694.196-1.072 0-.698-.23-1.391-.65-1.95l-.854-1.139c.491.199 1.08.339 1.835.339 1.667 0 2.554-.666 3.267-1.2.62-.464 1.067-.8 2.067-.8 1.001 0 1.448.335 2.068.8.536.402 1.172.878 2.164 1.089A5.137 5.137 0 0 1 55.871 61z"/>
</svg>
