<svg height="512" viewBox="0 0 511.937 511.937" width="512" xmlns="http://www.w3.org/2000/svg">
    <path d="M410.518 227.3a2.151 2.151 0 0 1-1.408-1.974l-.01-.547v-31.547l5.969-25.245c1.145-4.841-2.527-9.482-7.502-9.482h-93.818c-4.974 0-8.646 4.641-7.502 9.482l5.969 25.245v31.547c0 .91-.574 1.716-1.431 2.025-55.926 20.187-95.868 73.808-95.676 136.74.245 79.929 64.933 144.409 144.862 144.408 80.004-.001 144.859-64.857 144.859-144.861.001-62.225-39.234-115.28-94.312-135.791z" fill="#c8effd"/>
    <path d="M243.123 383.774c-.181-59.007 34.924-109.828 85.405-132.579 7.079-3.19 11.701-10.15 11.701-17.914v-13.69c0-4.072-.473-8.131-1.41-12.094l-.25-1.058c-3.344-14.144 7.385-27.705 21.918-27.705h52.04l2.541-10.749c1.145-4.841-2.527-9.482-7.502-9.482h-93.818c-4.974 0-8.646 4.641-7.502 9.482l5.969 25.245v31.547c0 .911-.574 1.716-1.431 2.025-55.926 20.187-95.868 73.808-95.676 136.74.167 54.449 30.243 101.719 74.666 126.33-28.586-26.354-46.523-64.088-46.651-106.098z" fill="#9be5fb"/>
    <path d="m305.214 350.593 23.641-11.701a98.724 98.724 0 0 1 84.333-1.536 98.701 98.701 0 0 0 45.994 8.557l7.653-.983c3.621-.465 6.906 2.183 7.21 5.821.26 3.119.392 6.265.392 9.433 0 59.777-46.336 108.934-104.977 113.441h-90.771V352.646z" fill="#6ef5c2"/>
    <path d="M385.211 471.291c1.73-12.62-1.064-25.548-8.318-36.84l-58.153-90.553-13.527 6.695-26.525 2.053v120.979h90.771a113.233 113.233 0 0 0 15.752-2.334z" fill="#05f2a7"/>
    <path d="M383.269 492.764c10.654-19.507 9.844-42.317-2.167-61.014L266.139 252.736c-31.329 26.659-51.166 66.416-51.03 110.808.245 79.929 64.932 144.409 144.862 144.408 4.09 0 8.137-.179 12.141-.511 4.35-4.196 8.119-9.116 11.157-14.677z" fill="#9be5fb"/>
    <path d="M390.409 470.013c1.359-13.152-1.763-26.519-9.307-38.263l-57.852-90.083-18.037 8.927-26.525 2.053v120.979h90.771a113.178 113.178 0 0 0 20.95-3.613z" fill="#13e29d"/>
    <path d="M364.272 442.556c17.03 26.51-2.01 61.36-33.51 61.36H47.432c-31.5 0-50.54-34.85-33.51-61.36L130.985 260.27a20.79 20.79 0 0 0 3.297-11.235V146.536h109.63v102.499c0 3.984 1.144 7.883 3.297 11.235z" fill="#dff6fd"/>
    <path d="M206.329 160.953v-6.564h-72.047v94.647c0 3.984-1.145 7.883-3.297 11.235L13.922 442.556c-17.03 26.51 2.01 61.36 33.51 61.36h48.057c-15.58-11.845-21.518-34.667-9.511-53.358l117.063-182.286a20.79 20.79 0 0 0 3.297-11.235v-96.084z" fill="#c8effd"/>
    <path d="M339.032 458.766c2.74 4.27 1.4 8.12.36 10.03-1.05 1.91-3.56 5.12-8.63 5.12H47.432c-5.07 0-7.58-3.21-8.63-5.12-1.04-1.91-2.38-5.76.36-10.03l88.254-137.407a11.058 11.058 0 0 1 9.33-5.066 118.425 118.425 0 0 1 36.486 5.793v.01a118.581 118.581 0 0 0 69.35 1.211c4.713-1.352 9.757.475 12.406 4.6z" fill="#fd9ba1"/>
    <path d="M339.032 458.766c2.74 4.27 1.4 8.12.36 10.03-1.05 1.91-3.56 5.12-8.63 5.12H47.432c-5.07 0-7.58-3.21-8.63-5.12-1.04-1.91-2.38-5.76.36-10.03l88.254-137.407a11.058 11.058 0 0 1 9.33-5.066 118.425 118.425 0 0 1 36.486 5.793v.01a118.581 118.581 0 0 0 69.35 1.211c4.713-1.352 9.757.475 12.406 4.6z" fill="#fd9ba1"/>
    <path d="m85.979 450.558 83.279-129.678a118.462 118.462 0 0 0-32.511-4.587 11.06 11.06 0 0 0-9.33 5.066L39.162 458.766c-2.74 4.27-1.4 8.12-.36 10.03 1.05 1.91 3.56 5.12 8.63 5.12h32.224c-.39-7.805 1.538-15.909 6.323-23.358z" fill="#fd828a"/>
    <path d="M339.032 458.766c2.74 4.27 1.4 8.12.36 10.03-1.05 1.91-3.56 5.12-8.63 5.12H47.432c-5.07 0-7.58-3.21-8.63-5.12-1.04-1.91-2.38-5.76.36-10.03l25.94-40.38 44.12-10.46c21.17-5.02 43.32-4.11 64.01 2.62 11.95 3.88 24.33 5.81 36.68 5.81 16.88 0 33.7-3.59 49.3-10.73l34.49-15.77.76-.49z" fill="#fd828a"/>
    <path d="m85.979 450.558 28.033-43.652c-1.601.31-3.198.643-4.789 1.02l-44.12 10.46-25.94 40.38c-2.74 4.27-1.4 8.12-.36 10.03 1.05 1.91 3.56 5.12 8.63 5.12h32.224c-.391-7.805 1.537-15.909 6.322-23.358z" fill="#fd6773"/>
    <path d="M241.702 160.532H136.494c-7.87 0-14.25-6.38-14.25-14.25s6.38-14.25 14.25-14.25h105.209c7.87 0 14.25 6.38 14.25 14.25-.001 7.87-6.381 14.25-14.251 14.25z" fill="#9be5fb"/>
    <circle cx="400.746" cy="395.103" fill="#13e29d" r="21.769"/>
    <circle cx="160.623" cy="364.046" fill="#fd828a" r="16.328"/>
    <circle cx="189.098" cy="74.985" fill="#fd9ba1" r="23.818"/>
    <circle cx="360.87" cy="97.792" fill="#9df8d3" r="23.818"/>
    <circle cx="128.526" cy="24.12" fill="#fd9ba1" r="16.147"/>
    <path d="M130.19 308.952a7.498 7.498 0 0 0-5.932 3.438L32.852 454.717c-3.53 5.498-3.759 11.939-.628 17.673 3.132 5.735 8.676 9.025 15.212 9.025H330.76c6.536 0 12.08-3.29 15.212-9.024s2.903-12.177-.627-17.674l-88.629-138a7.501 7.501 0 0 0-8.873-2.996c-23.176 8.424-48.848 8.864-72.286 1.239-14.657-4.768-29.917-6.791-45.367-6.008zm202.618 156.25c-.612 1.121-1.318 1.214-2.048 1.214H47.436c-.729 0-1.435-.093-2.047-1.214-.612-1.123-.31-1.766.084-2.379l24.301-37.838 41.174-9.759a111.027 111.027 0 0 1 59.969 2.453c30.134 9.802 62.6 7.944 91.418-5.234l29.4-13.445 40.989 63.822c.393.613.696 1.257.084 2.38zm-85.555-135.463 36.293 56.511-27.451 12.552c-25.389 11.609-53.99 13.247-80.539 4.611a126.023 126.023 0 0 0-68.068-2.784L81.452 406.8l53.302-82.996a110.524 110.524 0 0 1 36.163 5.419c24.692 8.032 51.569 8.18 76.336.516z"/>
    <path d="M416.6 219.596v-25.49l5.768-24.394c1.076-4.552.029-9.267-2.873-12.936s-7.25-5.772-11.927-5.772H313.75c-4.678 0-9.025 2.104-11.928 5.772s-3.949 8.383-2.873 12.936l5.768 24.394v25.491c-19.631 7.822-37.475 19.756-52.289 34.924l-1.017-1.583v-87.201c7.132-3.573 12.042-10.949 12.042-19.455 0-11.993-9.757-21.75-21.75-21.75h-105.21c-11.993 0-21.75 9.757-21.75 21.75 0 8.506 4.91 15.882 12.043 19.455v28.023c0 4.142 3.357 7.5 7.5 7.5s7.5-3.358 7.5-7.5v-25.729h94.624v87.107c0 1.437.413 2.844 1.189 4.053l7.412 11.54.035.054 20.082 31.269a7.494 7.494 0 0 0 10.363 2.258 7.5 7.5 0 0 0 2.258-10.363l-16.978-26.437c14.893-16.041 33.441-28.327 53.971-35.673a7.5 7.5 0 0 0 4.974-7.062V193.23a7.49 7.49 0 0 0-.201-1.726l-5.969-25.245c-.012-.051-.023-.099.039-.178s.112-.079.164-.079h93.818c.052 0 .101 0 .163.079s.051.127.039.178l-5.969 25.245a7.483 7.483 0 0 0-.201 1.726v31.547a7.5 7.5 0 0 0 4.974 7.062c54.049 19.339 90.363 70.917 90.363 128.344 0 73.553-58.575 133.673-131.526 136.187a48.5 48.5 0 0 0 6.89-9.599 49.146 49.146 0 0 0 2.836-6.185A121.045 121.045 0 0 0 428.15 460.9a7.5 7.5 0 0 0-8.367-12.45 106.082 106.082 0 0 1-41.612 16.552c.193-9.166-2.337-18.328-7.584-26.499l-54.532-84.909 16.127-7.982c24.547-12.149 52.951-12.667 77.926-1.419 15.453 6.959 32.566 10.141 49.487 9.208a7.55 7.55 0 0 0 .541-.05l6.522-.838c.185 2.55.278 5.125.278 7.669 0 24.778-8.755 48.917-24.651 67.972a7.5 7.5 0 0 0 5.755 12.304 7.486 7.486 0 0 0 5.763-2.695c18.143-21.746 28.134-49.298 28.134-77.581 0-3.338-.141-6.722-.419-10.057a13.962 13.962 0 0 0-5.115-9.654 13.997 13.997 0 0 0-10.523-2.982l-7.378.948a91.618 91.618 0 0 1-42.234-7.922c-29.081-13.098-62.155-12.496-90.739 1.653l-17.629 8.726-12.878-20.052a7.5 7.5 0 0 0-12.621 8.105l75.566 117.661c6.49 10.105 6.928 22.432 1.17 32.972-4.373 8.005-11.547 13.552-20.006 15.761-.051.013-.103.022-.154.036a33.071 33.071 0 0 1-8.216 1.036H47.436c-12.011 0-22.618-6.293-28.376-16.833-5.757-10.54-5.319-22.866 1.171-32.971L140.597 259.19a7.504 7.504 0 0 0 1.189-4.053V225.72c0-4.142-3.357-7.5-7.5-7.5s-7.5 3.358-7.5 7.5v27.215L7.61 438.505c-9.501 14.794-10.143 32.838-1.714 48.268s23.957 24.643 41.54 24.643H330.76c3.661 0 7.225-.422 10.663-1.193a153.043 153.043 0 0 0 19.235 1.241c83.416 0 151.279-67.864 151.279-151.279 0-61.969-38.095-117.802-95.337-140.589zm-280.107-66.564c-3.722 0-6.75-3.028-6.75-6.75s3.028-6.75 6.75-6.75h105.209c3.722 0 6.75 3.028 6.75 6.75s-3.028 6.75-6.75 6.75z"/>
    <path d="M371.478 395.103c0 16.139 13.13 29.269 29.269 29.269s29.269-13.13 29.269-29.269-13.13-29.269-29.269-29.269-29.269 13.13-29.269 29.269zm43.537 0c0 7.868-6.4 14.269-14.269 14.269s-14.269-6.401-14.269-14.269 6.4-14.269 14.269-14.269 14.269 6.401 14.269 14.269zM160.622 387.874c13.139 0 23.828-10.689 23.828-23.828s-10.689-23.828-23.828-23.828-23.828 10.689-23.828 23.828 10.69 23.828 23.828 23.828zm0-32.656c4.868 0 8.828 3.96 8.828 8.828s-3.96 8.828-8.828 8.828-8.828-3.96-8.828-8.828 3.96-8.828 8.828-8.828zM189.099 106.304c17.269 0 31.317-14.049 31.317-31.318s-14.049-31.318-31.317-31.318-31.319 14.049-31.319 31.318c0 17.268 14.05 31.318 31.319 31.318zm0-47.637c8.997 0 16.317 7.32 16.317 16.318s-7.32 16.318-16.317 16.318c-8.998 0-16.318-7.32-16.318-16.318-.001-8.997 7.32-16.318 16.318-16.318zM360.869 129.11c17.269 0 31.318-14.049 31.318-31.318s-14.05-31.318-31.318-31.318-31.317 14.049-31.317 31.318 14.049 31.318 31.317 31.318zm0-47.636c8.998 0 16.318 7.32 16.318 16.318s-7.32 16.318-16.318 16.318c-8.997 0-16.317-7.32-16.317-16.318s7.32-16.318 16.317-16.318zM128.526 47.767c13.039 0 23.647-10.608 23.647-23.647S141.565.474 128.526.474 104.88 11.082 104.88 24.12c-.001 13.039 10.607 23.647 23.646 23.647zm0-32.294c4.769 0 8.647 3.879 8.647 8.646 0 4.768-3.879 8.647-8.647 8.647s-8.646-3.879-8.646-8.647c-.001-4.767 3.878-8.646 8.646-8.646z"/>
</svg>
