<svg height="512" viewBox="0 0 528.133 528.133" width="512" xmlns="http://www.w3.org/2000/svg">
    <circle cx="232.328" cy="211.988" fill="#ff8d5c" r="203.644"/>
    <path d="M298.242 19.255C334.574 125.77 277.68 241.57 171.165 277.902a203.772 203.772 0 0 1-131.57 0c36.42 106.427 152.22 163.178 258.647 126.759S461.42 252.44 425 146.014A203.672 203.672 0 0 0 298.242 19.255z" fill="#ff774d"/>
    <path d="M512.507 364.927a221.869 221.869 0 0 0 9.02-34.518 24.893 24.893 0 0 0-10.2-24.625 221.863 221.863 0 0 0-30.794-18.034l7.462 38.589z" fill="#b56959"/>
    <path d="M212.762 505.155a221.625 221.625 0 0 1-49.437-26.627 24.935 24.935 0 0 1-10.021-24.194 221.674 221.674 0 0 1 16.071-53.654l32.332 52.237z" fill="#a85b4a"/>
    <path d="M247.349 515.362c36.756 7.625 82.484 7.142 134.303-14.321 60.425-25.029 95.146-64.511 115.076-100.66l-16.195-68.706-36.17-57.819c-39.659-11.48-92.147-14.86-152.597 10.179-51.822 21.466-84.5 53.463-105.098 84.847l21.695 76.711z" fill="#b56959"/>
    <path d="M389.063 476.502c-86.562-.001-157.286-69.118-159.277-155.658a215.23 215.23 0 0 0-43.119 48.038l21.695 76.711 38.987 69.768c36.756 7.625 82.484 7.143 134.303-14.321a246.429 246.429 0 0 0 56.189-32.156 159.161 159.161 0 0 1-48.778 7.618z" fill="#a85b4a"/>
    <path d="m444.304 273.85 52.411 126.531a229.742 229.742 0 0 0 15.791-35.467l-31.957-77.151a229.74 229.74 0 0 0-36.245-13.913z" fill="#f2f2ff"/>
    <path d="M212.619 505.094a220.564 220.564 0 0 0 34.73 10.257L186.68 368.883a220.43 220.43 0 0 0-17.305 31.81z" fill="#ccccf0"/>
    <circle cx="93.514" cy="409.045" fill="#f2f2ff" r="87.26"/>
    <path d="M132.807 331.109c-7.756 61.22-59.505 107.322-121.21 107.984 16.607 45.242 66.745 68.455 111.987 51.848s68.455-66.745 51.848-111.987a87.269 87.269 0 0 0-42.625-47.845z" fill="#e6e6ff"/>
    <path d="M514.922 300.674a227.102 227.102 0 0 0-31.667-18.548 236.298 236.298 0 0 0-37.039-14.226c-.04-.013-.075-.035-.116-.047a227.464 227.464 0 0 0-10.659-2.809 210.418 210.418 0 0 0 6.78-53.057c0-115.735-94.157-209.893-209.893-209.893S22.435 96.253 22.435 211.988A208.74 208.74 0 0 0 54.742 323.92a94.13 94.13 0 0 0-19.348 11.873c-40.457 32.097-47.233 90.914-15.136 131.37s90.913 47.233 131.37 15.136a94.076 94.076 0 0 0 3.404-2.834c3.774 4.086 97.909 81.655 229.012 27.348 52.577-21.777 92.331-56.571 118.156-103.414l-.009-.005a236.224 236.224 0 0 0 16.214-36.417 227.435 227.435 0 0 0 9.279-35.496 31.268 31.268 0 0 0-12.762-30.807zm.449 28.663a205.776 205.776 0 0 1-3.753 17.107l-18.636-44.992a205.385 205.385 0 0 1 14.749 9.444 18.718 18.718 0 0 1 7.64 18.441zm-92.18-66.872a224.79 224.79 0 0 0-14.647-2.178c-1.601-73.82-40.201-118.079-67.151-150.484-12.793-15.382-24.121-29.021-30.734-42.592 31.137 1.572 55.599 11.219 76.781 22.823a197.368 197.368 0 0 1 35.751 172.431zm-113.439 8.28C308.476 221.4 297.889 146.48 244.739 74.93a227.882 227.882 0 0 1 52.177-7.879c6.806 16.982 19.886 32.729 34.869 50.744 28.635 34.43 62.461 75.125 64.292 141.411a233.852 233.852 0 0 0-86.325 11.539zm55.394-204.659a176.962 176.962 0 0 0-59.235-11.76 60.63 60.63 0 0 1-.393-25.657 197.818 197.818 0 0 1 59.628 37.417zm-71.503-41.732a73.064 73.064 0 0 0-.504 30.09 243.828 243.828 0 0 0-56.759 9.728 289.599 289.599 0 0 0-45.386-45.212 197.599 197.599 0 0 1 102.649 5.394zm-118.228-1.385c6.579 4.586 26.335 19.352 48.038 45.185-12.929 4.262-32.095 10.493-60.935 29.42-23.673-21.48-50.746-25.474-69.952-24.846a197.621 197.621 0 0 1 82.849-49.759zM80.042 86.527c14.85-2.358 45.703-3.695 71.873 18.376-66.17 48.002-96.403 114.748-108.745 163.631-18.802-63.023-4.976-131.27 36.872-182.007zM51.216 290.625c5.574-32.035 27.745-118.303 109.729-176.814 16.849 19.97 11.643 41.026 3.357 74.533-9.018 36.469-20.541 83.149-8.793 150.772a93.473 93.473 0 0 0-88.77-19.697 196.694 196.694 0 0 1-15.523-28.794zM13.035 399.776a80.398 80.398 0 0 1 23.843-48.659 128.256 128.256 0 0 1 4.163 13.984l-9.118 5.624c-7.104 4.384-.401 14.927 6.561 10.638l5.139-3.17c.97 6.304 1.59 12.657 1.859 19.03l-8.98-1.034c-8.207-.942-9.648 11.47-1.43 12.415l10.512 1.211a194.154 194.154 0 0 1-2.1 23.773l-8.25-4.749c-7.167-4.132-13.393 6.709-6.236 10.831l12.097 6.964a213.289 213.289 0 0 1-5.153 19.402 80.666 80.666 0 0 1-22.907-66.26zm71.21 89.749a80.541 80.541 0 0 1-38.013-14.68c1.851-5.519 4.112-12.738 6.224-21.673l5.192 2.989c7.098 4.091 13.47-6.665 6.236-10.831l-8.777-5.053a208.199 208.199 0 0 0 3.038-29.016l9.323 1.074c8.209.949 9.65-11.47 1.43-12.415l-10.745-1.237a181.766 181.766 0 0 0-2.953-27.63l12.107-7.468c7.033-4.339.483-14.976-6.561-10.638l-8.487 5.235a122.977 122.977 0 0 0-5.217-15.477c33.573-23.559 79.465-18.258 106.783 12.334a122.917 122.917 0 0 0-8.572 13.856l-7.076-7.029c-5.867-5.833-14.671 3.044-8.808 8.866l10.101 10.034a181.668 181.668 0 0 0-9.153 26.229l-10.756-1.239c-8.207-.956-9.65 11.47-1.43 12.415l9.345 1.077a207.649 207.649 0 0 0-3.654 28.943l-9.701 2.927c-7.944 2.398-4.278 14.35 3.61 11.966l5.738-1.731c.025 9.206.562 16.468 1.136 22.517a80.61 80.61 0 0 1-40.36 5.655zm52.377-11.897a212.812 212.812 0 0 1-.579-20.071l13.334-4.023c7.93-2.393 4.285-14.353-3.61-11.966l-9.073 2.737a194.272 194.272 0 0 1 3.379-23.608l10.454 1.204c8.209.949 9.65-11.47 1.43-12.415l-8.915-1.027a174.437 174.437 0 0 1 6.126-18.063l4.229 4.201c5.791 5.756 14.743-2.972 8.808-8.866l-7.556-7.507a130.639 130.639 0 0 1 7.178-12.642c24.031 37.676 12.97 87.7-24.706 111.731l-.499.315zm27.256-6.997a92.408 92.408 0 0 0 16.525-26.987l20.581 49.688c-17.567-8.227-33.882-19.026-37.106-22.701zm53.482 29.579-31.552-76.173a92.905 92.905 0 0 0-1.837-38.593c.536-.96 1.062-1.925 1.613-2.878l51.313 123.883a216.109 216.109 0 0 1-19.537-6.239zm161.9-4.943c-42.742 17.705-85.593 22.61-127.412 14.614l-58.112-140.293a209.143 209.143 0 0 1 29.234-34.4c6.009-5.684-2.587-14.763-8.589-9.078a221.568 221.568 0 0 0-32.939 39.345c-.023.036-.035.075-.058.112a205.088 205.088 0 0 0-2.885 4.529 93.791 93.791 0 0 0-5.92-10.864c-17.754-74.681-7.24-123.021 3.854-167.886 8.216-33.226 14.812-59.978-5.114-84.566 27.961-18.013 47.358-24.05 60.547-28.151 53.708 69.988 64.503 144.457 65.431 196.504a266.947 266.947 0 0 0-42.261 20.313c-7.176 4.287-.607 14.922 6.41 10.728 38.04-22.725 103.367-47.705 178.243-27.13l50.09 120.929c-24.451 42.979-61.614 75.036-110.519 95.294zM497.319 385.51l-42.071-101.571a224.555 224.555 0 0 1 20.445 8.43l30.124 72.725a225.001 225.001 0 0 1-8.498 20.416z"/>
    <circle cx="237.783" cy="314.535" r="6.249"/>
    <path d="M419.475 309.445c-13.641 2.239-27.467 5.243-41.479 9.014l-4.097-9.891c-3.163-7.632-14.713-2.861-11.547 4.782l3.535 8.535c-14.66 4.362-29.428 9.522-44.306 15.48l-3.411-8.234c-3.165-7.648-14.707-2.848-11.546 4.782l3.41 8.23c-14.698 6.286-28.79 13.08-42.275 20.383l-3.534-8.53c-3.171-7.655-14.703-2.838-11.546 4.782l4.093 9.881a436.611 436.611 0 0 0-24.175 14.991c-6.963 4.644.147 14.929 6.935 10.396a419.17 419.17 0 0 1 22.067-13.733l4.697 11.339c3.159 7.629 14.726 2.891 11.546-4.782l-5.276-12.737c13.42-7.313 27.503-14.128 42.25-20.443l5.425 13.097c3.159 7.629 14.726 2.891 11.546-4.782l-5.424-13.095c14.875-5.959 29.652-11.099 44.331-15.421l5.275 12.735c3.163 7.634 14.723 2.885 11.547-4.782l-4.697-11.34c13.049-3.452 25.942-6.227 38.681-8.327 8.153-1.336 6.146-13.665-2.025-12.33z"/>
</svg>
