<svg height="511pt" viewBox="-7 1 511 511.996" width="511pt" xmlns="http://www.w3.org/2000/svg">
    <path d="M313.008 61.57H265.25a225.602 225.602 0 0 0-95.918 21.407A324.401 324.401 0 0 1 30.57 113.766l3.438 25.175c7.43 54.356 41.957 101.22 91.672 124.426zm0 0" fill="#ff5d5d"/>
    <g fill="#72d8ff">
        <path d="m231.11 152.637 54.495 54.496c24.872 24.87 24.872 65.336 0 90.203l-54.496 54.5c-4.863 4.863-11.238 7.293-17.613 7.293s-12.75-2.43-17.613-7.293c-9.727-9.73-9.727-25.5 0-35.227l51.918-51.918c5.445-5.445 5.445-14.304 0-19.753l-43.36-30.543c-19.43-13.688-21.832-41.586-5.027-58.391l17.496-17.496"/>
        <path d="m219.918 226.848-56.371 83.554a24.934 24.934 0 0 1-6.676 7.23l-81.656 63.02a24.81 24.81 0 0 1-14.59 4.735c-7.715 0-15.32-3.575-20.195-10.301-8.067-11.145-5.575-26.715 5.566-34.781l77.594-60.078 64.61-99.778M282.328 203.926l-65.418-65.418 63.39-63.39c18.063-18.063 47.352-18.063 65.419 0 18.062 18.066 18.062 47.355 0 65.417zm0 0"/>
    </g>
    <path d="M400.906 19.93c-13.273-13.274-34.793-13.274-48.062 0l-7.14 7.14c-13.274 13.274-13.274 34.793 0 48.063 13.269 13.273 34.788 13.273 48.062 0l7.14-7.14c13.27-13.274 13.27-34.79 0-48.063zm0 0" fill="#ffcdab"/>
    <path d="M404.367 120.633c-24.75 9.504-52.48 10.777-79.023 2.582-11.266-3.48-17.578-15.434-14.098-26.7 3.477-11.265 15.43-17.578 26.7-14.097 30.269 9.348 62.925-.344 83.195-24.691l28.816-34.618c7.547-9.062 21.008-10.293 30.07-2.746 9.059 7.543 10.29 21.004 2.746 30.067l-28.816 34.613c-13.559 16.289-30.707 28.336-49.59 35.59zm0 0" fill="#72d8ff"/>
    <path d="m254.336 501.922 198.816-198.817 13.856 13.856 20.71-90.113-90.109 20.714 13.856 13.852-240.508 240.508zm0 0" fill="#ff5d5d"/>
    <path d="M39.988 332.305c-15.468 11.32-18.914 33.101-7.656 48.648 6.543 9.04 17.121 14.434 28.293 14.434 7.387 0 14.457-2.293 20.453-6.637.082-.059.164-.117.246-.18l81.547-62.933a34.763 34.763 0 0 0 9.086-9.825l51.254-75.96 17.91 12.617c.652.886.762 1.824.762 2.351 0 .614-.149 1.801-1.153 2.805l-51.917 51.914c-6.594 6.594-10.227 15.36-10.227 24.688 0 9.324 3.633 18.09 10.226 24.683 6.59 6.594 15.36 10.223 24.684 10.223 9.324 0 18.09-3.63 24.684-10.223l54.5-54.5c13.914-13.914 21.578-32.445 21.578-52.172 0-17.906-6.332-34.812-17.906-48.191l56.437-56.438a56.64 56.64 0 0 0 7.328-9.027c.34 0 .684.02 1.024.02 15.945 0 31.863-2.891 46.812-8.633 20.793-7.985 39.356-21.309 53.692-38.524l28.816-34.613c5.355-6.437 7.887-14.574 7.125-22.914-.762-8.34-4.727-15.883-11.16-21.238-13.285-11.063-33.094-9.25-44.153 4.035l-21.468 25.789c-.356-10.774-4.625-21.438-12.828-29.64-17.149-17.153-45.055-17.153-62.207 0l-7.141 7.14c-8.305 8.309-12.883 19.355-12.883 31.101 0 .66.02 1.317.05 1.97a56.462 56.462 0 0 0-11.765-1.45 9.812 9.812 0 0 0-1.023-.05H265.25c-34.398 0-69.035 7.73-100.168 22.355-41.57 19.527-87.797 29.84-133.734 29.84-.258.003-.52.02-.778 0a10 10 0 0 0-7.527 3.418 9.994 9.994 0 0 0-2.383 7.937l3.442 25.172c7.746 56.664 42.683 105.11 93.757 130.387l-1.738 2.683zm115.27-27.496c-.09.128-.176.261-.258.394a14.88 14.88 0 0 1-3.992 4.332l-.246.18-81.524 62.914a14.778 14.778 0 0 1-8.613 2.758 14.96 14.96 0 0 1-12.094-6.168c-4.82-6.657-3.328-15.996 3.332-20.817.086-.062.172-.125.254-.191l77.598-60.074a9.92 9.92 0 0 0 2.27-2.473l51.812-80.02a48.193 48.193 0 0 0 14.887 16.926l8.175 5.762zm123.277-14.543-54.496 54.5a14.828 14.828 0 0 1-10.543 4.363c-3.98 0-7.726-1.55-10.543-4.363a14.828 14.828 0 0 1-4.363-10.543c0-3.98 1.55-7.727 4.363-10.54l51.918-51.917c4.524-4.524 7.012-10.543 7.012-16.95s-2.488-12.425-7.012-16.945a10.134 10.134 0 0 0-1.312-1.105l-43.36-30.547a28.237 28.237 0 0 1-11.898-20.707 28.233 28.233 0 0 1 8.187-22.434l10.422-10.426 58.344 58.344c.23.23.473.445.723.649l2.558 2.562c10.137 10.137 15.723 23.645 15.723 38.027 0 14.387-5.582 27.891-15.723 38.032zm3.828-100.52-44.183-44.184a10.37 10.37 0 0 0-.723-.652l-6.406-6.402 56.316-56.317c9.488-9.488 22.969-12.597 35.082-9.351a31.717 31.717 0 0 0-5.445 2.254c-7.406 3.91-12.844 10.469-15.316 18.472-2.47 8-1.676 16.485 2.234 23.891 3.91 7.402 10.469 12.844 18.469 15.313 4.464 1.378 8.996 2.5 13.558 3.39zM428.828 64.125l28.817-34.617c4.003-4.813 11.175-5.469 15.984-1.461a11.284 11.284 0 0 1 4.039 7.691 11.28 11.28 0 0 1-2.578 8.293l-28.82 34.614c-12.149 14.597-27.88 25.886-45.489 32.652-23.031 8.848-48.773 9.683-72.488 2.36a11.271 11.271 0 0 1-6.684-5.544 11.263 11.263 0 0 1-.808-8.648 11.29 11.29 0 0 1 5.543-6.688 11.281 11.281 0 0 1 8.648-.804 88.942 88.942 0 0 0 16.344 3.406 9.902 9.902 0 0 0 2.695.258c7.758.629 15.5.222 23.031-1.164.954-.16 1.895-.348 2.829-.567l.16-.035c.199-.047.394-.09.59-.14 18.468-4.208 35.484-14.352 48.187-29.606zm-83.082-13.023c0-6.407 2.496-12.43 7.027-16.961L359.914 27c4.676-4.676 10.816-7.012 16.961-7.012 6.14 0 12.281 2.336 16.957 7.012 4.531 4.531 7.027 10.555 7.027 16.96s-2.496 12.43-7.027 16.958l-7.14 7.144c-3.376 3.376-7.52 5.512-11.876 6.454-.296.058-.593.12-.89.18-7.356 1.296-15.192-.844-20.918-6.419-.074-.078-.145-.156-.223-.23-.101-.106-.21-.2-.316-.3-4.332-4.493-6.723-10.384-6.723-16.645zM43.918 137.586l-1.914-13.992c45.324-1.473 90.582-12.305 131.582-31.567 28.492-13.382 60.187-20.457 91.664-20.457h4.453l-59.863 59.864c-.016.015-.028.03-.043.046l-17.45 17.454a48.211 48.211 0 0 0-13.75 27.941L128.81 253.77c-46.243-22.032-77.946-65.368-84.891-116.184zM106.848 391.504l-76.684 76.683c-3.906 3.907-3.906 10.239 0 14.145 1.953 1.953 4.512 2.93 7.07 2.93s5.121-.977 7.07-2.93l76.684-76.684c3.907-3.906 3.907-10.238 0-14.144-3.902-3.902-10.234-3.902-14.14 0zM10.5 491.996c-2.633 0-5.21 1.067-7.07 2.93-1.864 1.86-2.934 4.441-2.934 7.07s1.07 5.211 2.934 7.07a10.073 10.073 0 0 0 7.07 2.93c2.629 0 5.207-1.07 7.07-2.93 1.86-1.859 2.93-4.441 2.93-7.07s-1.07-5.21-2.93-7.07a10.087 10.087 0 0 0-7.07-2.93zM191.438 391.504c-3.903-3.902-10.235-3.902-14.141 0l-49.668 49.668c-3.906 3.906-3.906 10.238 0 14.144a9.968 9.968 0 0 0 7.07 2.93 9.968 9.968 0 0 0 7.07-2.93l49.668-49.668c3.907-3.906 3.907-10.238 0-14.144zM485.477 217.105l-90.11 20.711a9.996 9.996 0 0 0-7.37 6.985 10.004 10.004 0 0 0 2.538 9.832l6.785 6.781-233.433 233.438c-3.907 3.906-3.907 10.238 0 14.144a9.977 9.977 0 0 0 7.07 2.93c2.559 0 5.121-.98 7.07-2.93l240.508-240.508c3.906-3.906 3.906-10.238 0-14.144l-1.082-1.082 56.942-13.09-13.086 56.941-1.082-1.082c-3.907-3.902-10.239-3.902-14.145 0L273.164 468.953c-3.906 3.902-3.906 10.235 0 14.14 3.902 3.907 10.234 3.907 14.14 0l165.848-165.847 6.785 6.785a9.99 9.99 0 0 0 9.833 2.54 9.99 9.99 0 0 0 6.984-7.372l20.71-90.11a9.997 9.997 0 0 0-11.987-11.984zm0 0"/>
    <path d="M254.34 491.926c-2.64 0-5.211 1.058-7.082 2.918a10.096 10.096 0 0 0-2.918 7.082c0 2.629 1.058 5.199 2.918 7.07 1.87 1.86 4.453 2.93 7.082 2.93s5.2-1.07 7.07-2.93a10.1 10.1 0 0 0 2.93-7.07c0-2.64-1.07-5.211-2.93-7.082a10.068 10.068 0 0 0-7.07-2.918zm0 0"/>
</svg>
