<svg clip-rule="evenodd" fill-rule="evenodd" height="512" image-rendering="optimizeQuality" shape-rendering="geometricPrecision" text-rendering="geometricPrecision" viewBox="0 0 850 850" width="512" xmlns="http://www.w3.org/2000/svg">
    <linearGradient id="a" gradientUnits="userSpaceOnUse" x1="425" x2="425" y1="850" y2="0">
        <stop offset="0" stop-color="#1aa8dc"/>
        <stop offset=".49" stop-color="#ae3b89"/>
        <stop offset="1" stop-color="#f26270"/>
    </linearGradient>
    <circle cx="425" cy="425" fill="url(#a)" r="425"/>
    <g fill="#fff">
        <path d="M555 614c-42 0-82-22-105-57h-49c-23 35-64 57-106 57-69 0-126-57-126-126s57-126 126-126h260c69 0 126 57 126 126 0 70-56 126-126 126zm-252-67h-35c-4 0-7-4-7-8v-26h-27c-4 0-7-4-7-8v-34c0-4 3-8 7-8h27v-26c0-4 3-7 7-7h35c4 0 7 3 7 7v26h26c4 0 8 4 8 8v34c0 4-4 8-8 8h-26v26c0 4-3 8-7 8zm-28-15h20v-27c0-4 4-7 8-7h26v-20h-26c-4 0-8-3-8-7v-26h-20v26c0 5-3 8-7 8h-26v19h26c4 0 7 4 7 8zm286-57c-14 0-25-11-25-25s11-24 25-24c13 0 24 11 24 24 0 14-11 25-24 25zm0-35c-6 0-10 5-10 10 0 6 4 10 10 10 5 0 10-4 10-10 0-5-5-10-10-10zm0 111c-14 0-25-11-25-25 0-13 11-24 25-24 13 0 24 11 24 24 0 14-11 25-24 25zm0-34c-6 0-10 4-10 10 0 5 4 10 10 10 5 0 10-5 10-10 0-6-5-10-10-10zm38-4c-14 0-24-11-24-25 0-13 11-24 24-24 14 0 25 11 25 24 0 14-12 25-25 25zm0-35c-5 0-10 5-10 10s5 10 10 10 10-5 10-10-5-10-10-10zm-76 35c-14 0-25-11-25-25 0-13 11-24 25-24 13 0 24 11 24 24 0 14-11 25-24 25zm0-35c-6 0-10 5-10 10s4 10 10 10c5 0 10-5 10-10s-5-10-10-10zm-73 37h-50c-4 0-7-3-7-7v-24c0-4 3-7 7-7h50c4 0 8 3 8 7v24c0 4-4 7-8 7zm-42-14h35v-9h-35zM380 348v-19c0-4 4-7 8-7h74c4 0 8 3 8 7v19zM418 308v-1c0-15 13-28 28-28h74c8 0 14-6 14-14s-6-14-14-14h-99c-5 0-8-3-8-8 0-4 3-7 8-7h99c16 0 29 12 29 28s-13 29-29 29h-73c-8 0-14 6-14 14v1z"/>
    </g>
</svg>
