<svg width="18" height="18" viewBox="0 0 18 18" fill="none" xmlns="http://www.w3.org/2000/svg">
<path d="M14 4.59829C12.6543 3.5641 11.1163 3 9.52451 3C6.81 3 4.28004 4.62963 2.51906 7.45014C1.82698 8.55484 1.82698 10.4117 2.51906 11.5164C3.12656 12.4879 3.83403 13.3262 4.60301 14" fill="#E4F3FF"/>
<path d="M14 4.59829C12.6543 3.5641 11.1163 3 9.52451 3C6.81 3 4.28004 4.62963 2.51906 7.45014C1.82698 8.55484 1.82698 10.4117 2.51906 11.5164C3.12656 12.4879 3.83403 13.3262 4.60301 14" stroke="#2196F3" stroke-linecap="round" stroke-linejoin="round"/>
<path d="M6 14.4603C6.85297 14.8104 7.75832 15 8.67864 15C11.3199 15 13.7815 13.483 15.4949 10.8574C16.1684 9.82901 16.1684 8.10049 15.4949 7.07212C15.248 6.69287 14.9787 6.33549 14.7018 6" stroke="#2196F3" stroke-linecap="round" stroke-linejoin="round"/>
<path d="M12 10C11.8156 11 11 11.8156 10 12" stroke="#2196F3" stroke-linecap="round" stroke-linejoin="round"/>
<path d="M8 11L2 17" stroke="#2196F3" stroke-linecap="round" stroke-linejoin="round"/>
<path d="M17 2L11 8" stroke="#2196F3" stroke-linecap="round" stroke-linejoin="round"/>
<path d="M11 6.85925L6.85925 11C6.32733 10.4681 6 9.73977 6 8.92962C6 7.30933 7.30933 6 8.92962 6C9.73977 6 10.4681 6.32733 11 6.85925Z" fill="#E4F3FF" stroke="#2196F3" stroke-linecap="round" stroke-linejoin="round"/>
</svg>
