<svg width="24" height="25" viewBox="0 0 24 25" fill="none" xmlns="http://www.w3.org/2000/svg">
<path d="M3.93656 14.7575L3.92156 14.7725C3.71906 14.33 3.59156 13.8275 3.53906 13.2725C3.59156 13.82 3.73406 14.315 3.93656 14.7575Z" fill="#28A6FF"/>
<path d="M8.74984 8.28484C9.73567 8.28484 10.5348 7.48567 10.5348 6.49984C10.5348 5.51402 9.73567 4.71484 8.74984 4.71484C7.76402 4.71484 6.96484 5.51402 6.96484 6.49984C6.96484 7.48567 7.76402 8.28484 8.74984 8.28484Z" fill="#28A6FF"/>
<g filter="url(#filter0_d_596_2591)">
<path d="M14.1425 2H7.8575C5.1275 2 3.5 3.6275 3.5 6.3575V12.6425C3.5 13.46 3.6425 14.1725 3.92 14.7725C4.565 16.1975 5.945 17 7.8575 17H14.1425C16.8725 17 18.5 15.3725 18.5 12.6425V10.925V6.3575C18.5 3.6275 16.8725 2 14.1425 2ZM17.2775 9.875C16.6925 9.3725 15.7475 9.3725 15.1625 9.875L12.0425 12.5525C11.4575 13.055 10.5125 13.055 9.9275 12.5525L9.6725 12.3425C9.14 11.8775 8.2925 11.8325 7.6925 12.2375L4.8875 14.12C4.7225 13.7 4.625 13.2125 4.625 12.6425V6.3575C4.625 4.2425 5.7425 3.125 7.8575 3.125H14.1425C16.2575 3.125 17.375 4.2425 17.375 6.3575V9.9575L17.2775 9.875Z" fill="#28A6FF"/>
<path d="M11.7169 12.1731L11.7167 12.1732C11.3191 12.5148 10.6509 12.5148 10.2533 12.1732L10.2534 12.1731L10.2454 12.1665L9.99552 11.9608C9.28651 11.3466 8.19282 11.297 7.41338 11.8227C7.41317 11.8228 7.41297 11.8229 7.41276 11.8231L5.18139 13.3206C5.14504 13.113 5.125 12.8877 5.125 12.6425V6.3575C5.125 5.38407 5.3812 4.72216 5.80168 4.30168C6.22216 3.8812 6.88407 3.625 7.8575 3.625H14.1425C15.1159 3.625 15.7778 3.8812 16.1983 4.30168C16.6188 4.72216 16.875 5.38407 16.875 6.3575V9.09645C16.1869 8.88344 15.3946 9.01652 14.8367 9.49572L11.7169 12.1731ZM14.1425 1.5H7.8575C6.39306 1.5 5.16445 1.93845 4.30145 2.80145C3.43845 3.66445 3 4.89306 3 6.3575V12.6425C3 13.5165 3.15219 14.3026 3.46533 14.9805C4.20885 16.6212 5.79484 17.5 7.8575 17.5H14.1425C15.6069 17.5 16.8356 17.0616 17.6986 16.1986C18.5616 15.3356 19 14.1069 19 12.6425V10.925V6.3575C19 4.89306 18.5616 3.66445 17.6986 2.80145C16.8356 1.93845 15.6069 1.5 14.1425 1.5Z" stroke="white"/>
</g>
<defs>
<filter id="filter0_d_596_2591" x="0.5" y="1" width="23" height="24" filterUnits="userSpaceOnUse" color-interpolation-filters="sRGB">
<feFlood flood-opacity="0" result="BackgroundImageFix"/>
<feColorMatrix in="SourceAlpha" type="matrix" values="0 0 0 0 0 0 0 0 0 0 0 0 0 0 0 0 0 0 127 0" result="hardAlpha"/>
<feOffset dx="1" dy="4"/>
<feGaussianBlur stdDeviation="1.5"/>
<feComposite in2="hardAlpha" operator="out"/>
<feColorMatrix type="matrix" values="0 0 0 0 0.156863 0 0 0 0 0.65098 0 0 0 0 1 0 0 0 0.18 0"/>
<feBlend mode="normal" in2="BackgroundImageFix" result="effect1_dropShadow_596_2591"/>
<feBlend mode="normal" in="SourceGraphic" in2="effect1_dropShadow_596_2591" result="shape"/>
</filter>
</defs>
</svg>
