<svg width="22" height="22" viewBox="0 0 22 22" fill="none" xmlns="http://www.w3.org/2000/svg">
<path d="M19.6958 5.41951C19.0822 4.31087 18.4454 3.6396 18.3593 3.53127C16.4366 1.36546 13.6304 0 10.5046 0C8.09499 0 5.87657 0.810837 4.10612 2.17329C1.61361 4.09142 1 6.94854 1 10.3299C1 16.1202 4.839 20 10.6356 20C14.6954 20 18.2212 18.6421 19.9638 15.0326L19.9633 15.0329C21.4081 12.041 21.3644 8.43932 19.6958 5.41951Z" fill="#B930D6"/>
<path d="M21 12.8323C19.1806 14.2247 16.9177 15.026 14.5154 15.026C8.63807 15.026 3.87359 10.2808 3.87359 4.42721C3.87359 3.59222 3.97102 2.7797 4.15459 2C1.62737 3.93908 0 6.98281 0 10.4012C0 16.2548 4.76448 21 10.6418 21C14.7582 21 18.4657 18.6482 20.2326 14.9992L20.2321 14.9996C20.5686 14.3048 20.8244 13.5774 21 12.8323Z" fill="#8D1BA5"/>
<path d="M19.6277 5H17.4667C17.368 5 17.2733 4.96814 17.2035 4.91142C17.1337 4.8547 17.0944 4.77777 17.0944 4.69756V4.30244C17.0944 4.26272 17.1041 4.22339 17.1228 4.1867C17.1415 4.15001 17.1689 4.11667 17.2035 4.08858C17.238 4.0605 17.2791 4.03822 17.3242 4.02302C17.3694 4.00782 17.4178 4 17.4667 4H19.6277C19.6766 4 19.725 4.00782 19.7702 4.02302C19.8154 4.03822 19.8564 4.0605 19.891 4.08858C19.9255 4.11667 19.953 4.15001 19.9717 4.1867C19.9904 4.22339 20 4.26272 20 4.30244V4.69756C20 4.77777 19.9608 4.8547 19.891 4.91142C19.8212 4.96814 19.7265 5 19.6277 5ZM6.53329 5H4.37227C4.27354 5 4.17885 4.96814 4.10903 4.91142C4.03922 4.8547 4 4.77777 4 4.69756V4.30244C4 4.26272 4.00963 4.22339 4.02834 4.1867C4.04705 4.15001 4.07447 4.11667 4.10903 4.08858C4.1436 4.0605 4.18464 4.03822 4.22981 4.02302C4.27497 4.00782 4.32338 4 4.37227 4H6.53329C6.58218 4 6.63059 4.00782 6.67576 4.02302C6.72092 4.03822 6.76196 4.0605 6.79653 4.08858C6.8311 4.11667 6.85852 4.15001 6.87723 4.1867C6.89593 4.22339 6.90556 4.26272 6.90556 4.30244V4.69756C6.90556 4.77777 6.86634 4.8547 6.79653 4.91142C6.72671 4.96814 6.63203 5 6.53329 5Z" fill="#05CDFF"/>
<path d="M21.84 11.4377C21.829 11.4028 21.8176 11.3679 21.8059 11.333L20.0661 6.16968C19.831 5.47193 19.1608 5 18.405 5H17.1109C16.852 5 16.5984 5.07141 16.3797 5.2059C16.1609 5.3404 15.986 5.53246 15.8752 5.75975H6.92584C6.81504 5.53246 6.64009 5.3404 6.42134 5.2059C6.20258 5.07141 5.94901 5 5.69012 5H5.27045L2 12.763L5.56683 15.7983L5.57252 15.7967L6.62876 12.1864H6.6519C6.61771 12.0993 6.59799 12.0075 6.59349 11.9144C6.57363 11.4839 6.9849 11.1172 7.41417 11.1172H18.1075C18.1116 11.1172 18.1156 11.1178 18.1198 11.1178C18.1221 11.1177 18.1244 11.1173 18.1267 11.1172C18.5699 11.0979 18.9474 11.4975 18.9474 11.9144V16C21.067 15.6273 22.4941 13.5257 21.84 11.4377Z" fill="#453D49"/>
<path d="M5.72605 16.3874L5.8295 16.0202C4.71764 15.2642 3.96367 14.1082 3.68908 12.8257C3.53265 12.0949 4.08626 11.4088 4.82737 11.3966L4.8562 11.396C6.01991 11.3621 6.97717 10.4171 7.03378 9.24416C7.07085 8.47593 6.7284 7.78665 6.1791 7.35032C5.48047 6.79535 5.20942 5.85287 5.48483 5H4.57324C3.81896 5 3.15038 5.48956 2.91675 6.21293L1.19148 11.5548C1.17992 11.5903 1.16876 11.6259 1.15799 11.6616C0.446927 14.0157 2.22745 16.3874 4.66731 16.3874H5.72605ZM20.3243 15.8604L19.5325 13.0501C19.2944 12.2049 19.4806 11.2867 20.056 10.6271C20.4244 10.2048 20.6394 9.64315 20.6132 9.03068C20.5632 7.86117 19.6168 6.91144 18.4571 6.86661C17.1761 6.81712 16.1222 7.84987 16.1222 9.13089C16.1222 9.13872 16.1223 9.1465 16.1224 9.15433C16.1326 10.1737 15.3268 11.0096 14.3162 11.0096H8.93376L9.07406 12.4379H16.3199L17.6866 17.2886C17.9021 17.874 18.5599 18.1578 19.1284 17.9105C19.8731 17.5866 20.505 17.1035 21 16.5165C20.6992 16.4165 20.4437 16.1849 20.3243 15.8604Z" fill="#2B282D"/>
<path d="M5.93866 15.6525L5.93121 15.6785C5.71857 16.2458 5.06928 16.5207 4.50824 16.2811C2.38948 15.3763 1.19442 13.1918 1.50125 11L1.25301 11.7546C0.437307 14.2162 1.65259 16.8873 4.05493 17.9133C4.61602 18.1529 5.26531 17.8779 5.47791 17.3107L5.9536 15.6532C5.94862 15.653 5.94364 15.6528 5.93866 15.6525ZM17.0614 15.6525L17.0688 15.6785C17.2815 16.2458 17.9308 16.5207 18.4918 16.2811C20.6105 15.3763 21.8056 13.1918 21.4988 11L21.747 11.7546C22.5627 14.2162 21.3474 16.8873 18.9451 17.9133C18.384 18.1529 17.7347 17.8779 17.5221 17.3107C17.5221 17.3107 17.0564 15.6528 17.0614 15.6525Z" fill="#2B282D"/>
<path d="M7.19175 10C6.75318 9.99929 6.32944 10.1756 6 10.4958L7.19175 14C8.19044 14 9 13.1045 9 12C9 10.8955 8.19044 10 7.19175 10Z" fill="#F73C9A"/>
<path d="M8.20319 12.5956C8.6829 12.4229 9.01989 11.9729 8.99909 11.4504C8.97535 10.8537 8.47484 10.3621 7.8502 10.3235C7.58024 10.3068 7.32747 10.3731 7.1172 10.4984C6.96342 10.59 6.78029 10.423 6.86796 10.2716L6.8763 10.2574C6.97632 10.0885 6.75571 9.91659 6.60289 10.0444C6.21951 10.3651 5.98274 10.8415 6.00098 11.3701C6.03153 12.2557 6.79376 12.977 7.72227 12.9994C7.90548 13.0039 8.08256 12.9817 8.24957 12.9367C8.34691 12.9104 8.33641 12.7748 8.23578 12.7651L8.22688 12.7642C8.13207 12.7545 8.11399 12.6278 8.20319 12.5956Z" fill="#E0248B"/>
<path d="M7.5 13C8.32843 13 9 12.3284 9 11.5C9 10.6716 8.32843 10 7.5 10C6.67157 10 6 10.6716 6 11.5C6 12.3284 6.67157 13 7.5 13Z" fill="#2B282D"/>
<path d="M8 13C8.55228 13 9 12.5523 9 12C9 11.4477 8.55228 11 8 11C7.44772 11 7 11.4477 7 12C7 12.5523 7.44772 13 8 13Z" fill="#594D5E"/>
<path d="M7.5 12C7.77614 12 8 11.7761 8 11.5C8 11.2239 7.77614 11 7.5 11C7.22386 11 7 11.2239 7 11.5C7 11.7761 7.22386 12 7.5 12Z" fill="#453D49"/>
<path d="M15.1918 10C14.7532 9.99929 14.3294 10.1756 14 10.4958L15.1918 14C16.1904 14 17 13.1045 17 12C17 10.8955 16.1904 10 15.1918 10Z" fill="#F73C9A"/>
<path d="M15.2032 12.5956C15.6829 12.4229 16.0199 11.9729 15.9991 11.4504C15.9754 10.8537 15.4748 10.3621 14.8502 10.3235C14.5802 10.3068 14.3275 10.3731 14.1172 10.4984C13.9634 10.59 13.7803 10.423 13.868 10.2716L13.8763 10.2574C13.9763 10.0885 13.7557 9.91659 13.6029 10.0444C13.2195 10.3651 12.9827 10.8415 13.001 11.3701C13.0315 12.2557 13.7938 12.977 14.7223 12.9994C14.9055 13.0039 15.0826 12.9817 15.2496 12.9367C15.3469 12.9104 15.3364 12.7748 15.2358 12.7651L15.2269 12.7642C15.1321 12.7545 15.114 12.6278 15.2032 12.5956Z" fill="#E0248B"/>
<path d="M15.5 13C16.3284 13 17 12.3284 17 11.5C17 10.6716 16.3284 10 15.5 10C14.6716 10 14 10.6716 14 11.5C14 12.3284 14.6716 13 15.5 13Z" fill="#2B282D"/>
<path d="M15 13C15.5523 13 16 12.5523 16 12C16 11.4477 15.5523 11 15 11C14.4477 11 14 11.4477 14 12C14 12.5523 14.4477 13 15 13Z" fill="#594D5E"/>
<path d="M15.5 12C15.7761 12 16 11.7761 16 11.5C16 11.2239 15.7761 11 15.5 11C15.2239 11 15 11.2239 15 11.5C15 11.7761 15.2239 12 15.5 12Z" fill="#453D49"/>
<path d="M5 10C6.10457 10 7 9.10457 7 8C7 6.89543 6.10457 6 5 6C3.89543 6 3 6.89543 3 8C3 9.10457 3.89543 10 5 10Z" fill="#2B282D"/>
<path d="M18 10C19.1046 10 20 9.10457 20 8C20 6.89543 19.1046 6 18 6C16.8954 6 16 6.89543 16 8C16 9.10457 16.8954 10 18 10Z" fill="#2B282D"/>
<path d="M14.2808 10H8.77442C8.50318 10 8.28331 9.77833 8.28331 9.50488V6.49512C8.28331 6.22167 8.50318 6 8.77442 6H14.2808C14.5521 6 14.7719 6.22167 14.7719 6.49512V9.50488C14.7719 9.77833 14.5521 10 14.2808 10ZM7.39368 8.20836C7.28927 8.20836 7.18914 8.16654 7.11531 8.09211C7.04148 8.01767 7 7.91672 7 7.81146V7.23028C7 7.12501 7.04148 7.02406 7.11531 6.94963C7.18914 6.87519 7.28927 6.83338 7.39368 6.83338C7.49809 6.83338 7.59823 6.87519 7.67206 6.94963C7.74589 7.02406 7.78736 7.12501 7.78736 7.23028V7.81146C7.78735 7.91672 7.74587 8.01766 7.67204 8.09209C7.59822 8.16652 7.49809 8.20834 7.39368 8.20836ZM15.6063 8.13513C15.5019 8.13513 15.4018 8.09331 15.3279 8.01888C15.2541 7.94444 15.2126 7.84349 15.2126 7.73823V7.15709C15.2126 7.05183 15.2541 6.95087 15.3279 6.87644C15.4018 6.80201 15.5019 6.76019 15.6063 6.76019C15.7107 6.76019 15.8109 6.80201 15.8847 6.87644C15.9585 6.95087 16 7.05183 16 7.15709V7.73823C16 7.84349 15.9585 7.94444 15.8847 8.01888C15.8109 8.09331 15.7107 8.13513 15.6063 8.13513Z" fill="#453D49"/>
<path d="M13.5459 9H8.45413C8.20331 9 8 8.77833 8 8.50488V5.49512C8 5.22167 8.20331 5 8.45413 5H13.5459C13.7967 5 14 5.22167 14 5.49512V8.50488C14 8.77833 13.7967 9 13.5459 9Z" fill="#2B282D"/>
<path d="M7.39368 7C7.28927 7 7.18914 6.97113 7.11531 6.91973C7.04148 6.86833 7 6.79862 7 6.72594V6.32463C7 6.25194 7.04148 6.18223 7.11531 6.13084C7.18914 6.07944 7.28927 6.05057 7.39368 6.05057C7.49809 6.05057 7.59823 6.07944 7.67206 6.13084C7.74589 6.18223 7.78736 6.25194 7.78736 6.32463V6.72594C7.78735 6.79862 7.74587 6.86833 7.67204 6.91972C7.59822 6.97112 7.49809 6.99999 7.39368 7ZM15.6063 6.94943C15.5019 6.94943 15.4018 6.92056 15.3279 6.86916C15.2541 6.81777 15.2126 6.74806 15.2126 6.67537V6.27406C15.2126 6.20138 15.2541 6.13167 15.3279 6.08027C15.4018 6.02887 15.5019 6 15.6063 6C15.7107 6 15.8109 6.02887 15.8847 6.08027C15.9585 6.13167 16 6.20138 16 6.27406V6.67537C16 6.74806 15.9585 6.81777 15.8847 6.86916C15.8109 6.92056 15.7107 6.94943 15.6063 6.94943Z" fill="#2B282D"/>
<path d="M18.5 8C18.7761 8 19 7.77614 19 7.5C19 7.22386 18.7761 7 18.5 7C18.2239 7 18 7.22386 18 7.5C18 7.77614 18.2239 8 18.5 8Z" fill="#FFC305"/>
<path d="M18.5 10C18.7761 10 19 9.77614 19 9.5C19 9.22386 18.7761 9 18.5 9C18.2239 9 18 9.22386 18 9.5C18 9.77614 18.2239 10 18.5 10Z" fill="#BE5AB9"/>
<path d="M19.5 9C19.7761 9 20 8.77614 20 8.5C20 8.22386 19.7761 8 19.5 8C19.2239 8 19 8.22386 19 8.5C19 8.77614 19.2239 9 19.5 9Z" fill="#F73C9A"/>
<path d="M17.5 9C17.7761 9 18 8.77614 18 8.5C18 8.22386 17.7761 8 17.5 8C17.2239 8 17 8.22386 17 8.5C17 8.77614 17.2239 9 17.5 9Z" fill="#5AB4FF"/>
<path d="M4.5 8C4.77614 8 5 7.77614 5 7.5C5 7.22386 4.77614 7 4.5 7C4.22386 7 4 7.22386 4 7.5C4 7.77614 4.22386 8 4.5 8Z" fill="#FFC305"/>
<path d="M4.5 10C4.77614 10 5 9.77614 5 9.5C5 9.22386 4.77614 9 4.5 9C4.22386 9 4 9.22386 4 9.5C4 9.77614 4.22386 10 4.5 10Z" fill="#BE5AB9"/>
<path d="M5.5 9C5.77614 9 6 8.77614 6 8.5C6 8.22386 5.77614 8 5.5 8C5.22386 8 5 8.22386 5 8.5C5 8.77614 5.22386 9 5.5 9Z" fill="#F73C9A"/>
<path d="M3.5 9C3.77614 9 4 8.77614 4 8.5C4 8.22386 3.77614 8 3.5 8C3.22386 8 3 8.22386 3 8.5C3 8.77614 3.22386 9 3.5 9Z" fill="#5AB4FF"/>
</svg>
