<svg width="24" height="25" viewBox="0 0 24 25" fill="none" xmlns="http://www.w3.org/2000/svg">
<path d="M10.0693 3.31985L3.13929 8.86985C2.35929 9.48985 1.85929 10.7998 2.02929 11.7798L3.35929 19.7398C3.59929 21.1598 4.95929 22.3098 6.39929 22.3098H17.5993C19.0293 22.3098 20.3993 21.1498 20.6393 19.7398L21.9693 11.7798C22.1293 10.7998 21.6293 9.48985 20.8593 8.86985L13.9293 3.32985C12.8593 2.46985 11.1293 2.46985 10.0693 3.31985Z" fill="#00BAFF"/>
<path d="M10.0693 3.31985L3.13929 8.86985C2.35929 9.48985 1.85929 10.7998 2.02929 11.7798L3.35929 19.7398C3.59929 21.1598 4.95929 22.3098 6.39929 22.3098H17.5993C19.0293 22.3098 20.3993 21.1498 20.6393 19.7398L21.9693 11.7798C22.1293 10.7998 21.6293 9.48985 20.8593 8.86985L13.9293 3.32985C12.8593 2.46985 11.1293 2.46985 10.0693 3.31985Z" stroke="white" stroke-width="1.5" stroke-linecap="round" stroke-linejoin="round"/>
<path d="M12 18.5V15.5" stroke="white" stroke-width="1.5" stroke-linecap="round" stroke-linejoin="round"/>
</svg>
