<svg width="24" height="24" viewBox="0 0 24 24" fill="none" xmlns="http://www.w3.org/2000/svg">
<path d="M10.072 2.64837L3.14302 8.30405C2.36314 8.93585 1.86322 10.2708 2.03319 11.2695L3.36299 19.381C3.60295 20.8281 4.96274 22 6.40252 22H17.6008C19.0306 22 20.4004 20.8179 20.6404 19.381L21.9702 11.2695C22.1302 10.2708 21.6302 8.93585 20.8603 8.30405L13.9314 2.65857C12.8615 1.78219 11.1318 1.78218 10.072 2.64837Z" stroke="#819EBE" stroke-width="2" stroke-linecap="round" stroke-linejoin="round"/>
<path d="M12.5 16C13.8807 16 15 14.8807 15 13.5C15 12.1193 13.8807 11 12.5 11C11.1193 11 10 12.1193 10 13.5C10 14.8807 11.1193 16 12.5 16Z" stroke="#819EBE" stroke-width="2" stroke-linecap="round" stroke-linejoin="round"/>
</svg>
