<svg width="25" height="24" viewBox="0 0 25 24" fill="none" xmlns="http://www.w3.org/2000/svg">
<path d="M9.57198 2.64837L2.64302 8.30405C1.86314 8.93585 1.36322 10.2708 1.53319 11.2695L2.86299 19.3811C3.10295 20.8281 4.46274 22 5.90252 22H17.1008C18.5306 22 19.9004 20.8179 20.1404 19.3811L21.4702 11.2695C21.6302 10.2708 21.1302 8.93585 20.3603 8.30405L13.4314 2.65857C12.3615 1.78219 10.6318 1.78218 9.57198 2.64837Z" fill="#0180DA" stroke="#28A6FF" stroke-width="2" stroke-linecap="round" stroke-linejoin="round"/>
<path d="M12 16C13.3807 16 14.5 14.8807 14.5 13.5C14.5 12.1193 13.3807 11 12 11C10.6193 11 9.5 12.1193 9.5 13.5C9.5 14.8807 10.6193 16 12 16Z" stroke="#DAF5FF" stroke-width="2" stroke-linecap="round" stroke-linejoin="round"/>
</svg>
