<svg width="24" height="24" viewBox="0 0 24 24" fill="none" xmlns="http://www.w3.org/2000/svg">
<g clip-path="url(#clip0_368_700)">
<path d="M12 24C18.6274 24 24 18.6274 24 12C24 5.37258 18.6274 0 12 0C5.37258 0 0 5.37258 0 12C0 18.6274 5.37258 24 12 24Z" fill="#434D70"/>
<path d="M9.53614 3.21511C7.99011 9.77299 9.90159 15.8847 13.8055 16.8661C17.7095 17.8475 22.1276 13.3268 23.6736 6.76902C25.2196 0.21119 20.9826 3.96375 17.0787 2.9824C13.1748 2.00104 11.0822 -3.34276 9.53614 3.21511Z" fill="#F9CB3F"/>
<path d="M14 17C9.93785 16.0109 7.9492 9.85057 9.55794 3.24059C10.515 -0.69228 11.6734 -0.378462 13.3101 0.729998C12.9092 1.11566 12.5111 2.04639 12.0715 3.85284C10.4628 10.4627 11.3261 16.349 14 17Z" fill="#E5B832"/>
<path d="M12.954 6.35249C13.8158 6.54368 14.6808 6.38123 15.3664 5.96766C14.9343 6.87929 13.8328 7.40203 12.7385 7.15922C11.6442 6.9164 10.9296 5.99069 11.0055 5C11.4059 5.65455 12.0922 6.16126 12.954 6.35249ZM19.5876 7.82446C20.4494 8.01565 21.3144 7.85319 22 7.43963C21.5679 8.35126 20.4664 8.874 19.3721 8.63118C18.2778 8.38836 17.5632 7.46266 17.6391 6.47197C18.0395 7.12647 18.7259 7.63323 19.5876 7.82446ZM15.1503 11.7221C13.6989 11.4 12.2419 11.6737 11.0873 12.3703C11.815 10.8349 13.6703 9.95454 15.5132 10.3635C17.3561 10.7724 18.5599 12.3315 18.4318 14C17.7577 12.8977 16.6017 12.0442 15.1503 11.7221Z" fill="#434D70"/>
<path d="M11.2539 24C9.8312 23.9321 8.47416 23.6116 7.22672 23.0817C4.69366 22.0068 2.61153 20.0707 1.34329 17.6387C1.34329 17.6387 1.34283 17.6387 1.34283 17.6382C0.932467 16.6879 0.587802 15.6644 0.326115 14.5836C0.165333 13.9198 0.0673388 13.3652 0.0243712 12.9021L0.0229389 12.8857C0.00408861 12.6728 -0.00311886 12.4794 0.0012241 12.3043C0.000761785 12.3024 0.000761785 12.3005 0.0012241 12.2985C0.0760709 9.21971 3.61757 11.7085 6.92114 10.9007C10.8252 9.94604 12.918 4.74884 14.4638 11.1272C15.8628 16.8978 14.4309 22.3142 11.2539 24Z" fill="#F43380"/>
<path d="M7 23C4.54642 21.9575 2.52913 20.0794 1.30073 17.7208C0.903246 16.7992 0.569396 15.8066 0.31592 14.7584C0.160183 14.1147 0.0652636 13.5768 0.0236442 13.1277C0.0236442 13.1244 0.0231967 13.1211 0.0227044 13.1179C0.00399802 12.9091 -0.00302805 12.7196 0.00117864 12.548C0.0376516 10.9431 1.04068 10.8923 2.45614 11.0705C2.31585 11.5732 2.39676 12.5103 2.79375 14.1518C3.7356 18.042 5.33952 21.2799 7 23Z" fill="#E02D77"/>
<path d="M4.95398 15.3795C5.81578 15.1849 6.6808 15.3503 7.36637 15.7711C6.9343 14.8434 5.83278 14.3114 4.7385 14.5585C3.64422 14.8056 2.92957 15.7477 3.00552 16.756C3.40587 16.0898 4.09218 15.5741 4.95398 15.3795ZM11.5876 13.8814C12.4494 13.6869 13.3144 13.8522 14 14.2731C13.5679 13.3453 12.4664 12.8133 11.3721 13.0604C10.2778 13.3075 9.5632 14.2497 9.63914 15.2579C10.0395 14.5918 10.7259 14.076 11.5876 13.8814ZM9.43564 19.5155C7.98426 19.8433 6.52725 19.5648 5.37266 18.8559C6.10036 20.4185 7.95562 21.3144 9.79851 20.8983C11.6415 20.4821 12.8452 18.8953 12.7172 17.1973C12.0431 18.3192 10.8871 19.1878 9.43564 19.5155Z" fill="#434D70"/>
</g>
<defs>
<clipPath id="clip0_368_700">
<rect width="24" height="24" fill="white"/>
</clipPath>
</defs>
</svg>
