<svg width="30" height="31" viewBox="0 0 30 31" fill="none" xmlns="http://www.w3.org/2000/svg">
<circle cx="15" cy="15.5" r="15" fill="#DAF5FF"/>
<g filter="url(#filter0_d_596_2540)">
<path d="M18.33 8.82422C16.9725 8.82422 15.7575 9.48422 15 10.4967C14.2425 9.48422 13.0275 8.82422 11.67 8.82422C9.3675 8.82422 7.5 10.6992 7.5 13.0167C7.5 13.9092 7.6425 14.7342 7.89 15.4992C9.075 19.2492 12.7275 21.4917 14.535 22.1067C14.79 22.1967 15.21 22.1967 15.465 22.1067C17.2725 21.4917 20.925 19.2492 22.11 15.4992C22.3575 14.7342 22.5 13.9092 22.5 13.0167C22.5 10.6992 20.6325 8.82422 18.33 8.82422Z" fill="#CE395F"/>
<path d="M14.5996 10.7962L15 11.3314L15.4004 10.7962C16.0679 9.90395 17.1374 9.32422 18.33 9.32422C20.354 9.32422 22 10.973 22 13.0167C22 13.8548 21.8664 14.628 21.6343 15.3453L21.6332 15.3486C21.0765 17.1103 19.9341 18.5345 18.695 19.5994C17.4537 20.6662 16.1442 21.3475 15.3039 21.6334L15.3039 21.6333L15.2986 21.6352C15.2412 21.6555 15.133 21.6742 15 21.6742C14.867 21.6742 14.7588 21.6555 14.7014 21.6352L14.7014 21.6352L14.6961 21.6334C13.8558 21.3475 12.5462 20.6662 11.305 19.5994C10.0659 18.5345 8.92346 17.1103 8.36676 15.3486L8.36677 15.3486L8.36572 15.3453C8.13364 14.628 8 13.8548 8 13.0167C8 10.973 9.64598 9.32422 11.67 9.32422C12.8626 9.32422 13.9321 9.90395 14.5996 10.7962Z" stroke="white"/>
</g>
<defs>
<filter id="filter0_d_596_2540" x="3.9" y="8.82422" width="22.2" height="20.5496" filterUnits="userSpaceOnUse" color-interpolation-filters="sRGB">
<feFlood flood-opacity="0" result="BackgroundImageFix"/>
<feColorMatrix in="SourceAlpha" type="matrix" values="0 0 0 0 0 0 0 0 0 0 0 0 0 0 0 0 0 0 127 0" result="hardAlpha"/>
<feOffset dy="3.6"/>
<feGaussianBlur stdDeviation="1.8"/>
<feComposite in2="hardAlpha" operator="out"/>
<feColorMatrix type="matrix" values="0 0 0 0 0.807843 0 0 0 0 0.223529 0 0 0 0 0.372549 0 0 0 0.3 0"/>
<feBlend mode="normal" in2="BackgroundImageFix" result="effect1_dropShadow_596_2540"/>
<feBlend mode="normal" in="SourceGraphic" in2="effect1_dropShadow_596_2540" result="shape"/>
</filter>
</defs>
</svg>
