<svg width="18" height="18" viewBox="0 0 18 18" fill="none" xmlns="http://www.w3.org/2000/svg">
<path d="M17 5H12" stroke="#2196F3" stroke-miterlimit="10" stroke-linecap="round" stroke-linejoin="round"/>
<path d="M5 5H2" stroke="#2196F3" stroke-miterlimit="10" stroke-linecap="round" stroke-linejoin="round"/>
<path d="M7.5 7C8.88071 7 10 5.88071 10 4.5C10 3.11929 8.88071 2 7.5 2C6.11929 2 5 3.11929 5 4.5C5 5.88071 6.11929 7 7.5 7Z" fill="#E4F3FF" stroke="#2196F3" stroke-miterlimit="10" stroke-linecap="round" stroke-linejoin="round"/>
<path d="M17 13H14" stroke="#2196F3" stroke-miterlimit="10" stroke-linecap="round" stroke-linejoin="round"/>
<path d="M7 13H2" stroke="#2196F3" stroke-miterlimit="10" stroke-linecap="round" stroke-linejoin="round"/>
<path d="M10.5 16C11.8807 16 13 14.8807 13 13.5C13 12.1193 11.8807 11 10.5 11C9.11929 11 8 12.1193 8 13.5C8 14.8807 9.11929 16 10.5 16Z" fill="#E4F3FF" stroke="#2196F3" stroke-miterlimit="10" stroke-linecap="round" stroke-linejoin="round"/>
</svg>
