<svg width="24" height="25" viewBox="0 0 24 25" fill="none" xmlns="http://www.w3.org/2000/svg">
<path d="M12 22.5C17.5228 22.5 22 18.0228 22 12.5C22 6.97715 17.5228 2.5 12 2.5C6.47715 2.5 2 6.97715 2 12.5C2 18.0228 6.47715 22.5 12 22.5Z" fill="#FFC117"/>
<path d="M8 14.5C8 14.5 9.5 16.5 12 16.5C14.5 16.5 16 14.5 16 14.5M15 9.5H15.01M9 9.5H9.01M22 12.5C22 18.0228 17.5228 22.5 12 22.5C6.47715 22.5 2 18.0228 2 12.5C2 6.97715 6.47715 2.5 12 2.5C17.5228 2.5 22 6.97715 22 12.5ZM15.5 9.5C15.5 9.77614 15.2761 10 15 10C14.7239 10 14.5 9.77614 14.5 9.5C14.5 9.22386 14.7239 9 15 9C15.2761 9 15.5 9.22386 15.5 9.5ZM9.5 9.5C9.5 9.77614 9.27614 10 9 10C8.72386 10 8.5 9.77614 8.5 9.5C8.5 9.22386 8.72386 9 9 9C9.27614 9 9.5 9.22386 9.5 9.5Z" stroke="white" stroke-width="1.5" stroke-linecap="round" stroke-linejoin="round"/>
</svg>
