<svg width="18" height="18" viewBox="0 0 18 18" fill="none" xmlns="http://www.w3.org/2000/svg">
<path d="M16.5 11.25V6.75C16.5 3 15 1.5 11.25 1.5H6.75C3 1.5 1.5 3 1.5 6.75V11.25C1.5 15 3 16.5 6.75 16.5H11.25C15 16.5 16.5 15 16.5 11.25Z" stroke="#28A6FF" stroke-width="1.125" stroke-linecap="round" stroke-linejoin="round"/>
<path d="M6.3152 12.8321C6.96552 12.8321 7.49271 12.3049 7.49271 11.6546C7.49271 11.0042 6.96552 10.4771 6.3152 10.4771C5.66489 10.4771 5.1377 11.0042 5.1377 11.6546C5.1377 12.3049 5.66489 12.8321 6.3152 12.8321Z" stroke="#28A6FF" stroke-width="1.125" stroke-linecap="round" stroke-linejoin="round"/>
<path d="M11.8125 10.8671V6.26205C11.8125 5.27955 11.1975 5.14459 10.575 5.31709L8.22002 5.96208C7.79252 6.08208 7.5 6.41958 7.5 6.90708V7.73207V8.28706V11.6621" stroke="#28A6FF" stroke-width="1.125" stroke-linecap="round" stroke-linejoin="round"/>
<path d="M10.6345 12.0445C11.2849 12.0445 11.812 11.5173 11.812 10.867C11.812 10.2166 11.2849 9.68945 10.6345 9.68945C9.98422 9.68945 9.45703 10.2166 9.45703 10.867C9.45703 11.5173 9.98422 12.0445 10.6345 12.0445Z" stroke="#28A6FF" stroke-width="1.125" stroke-linecap="round" stroke-linejoin="round"/>
<path d="M7.49219 8.27956L11.8122 7.10205" stroke="#28A6FF" stroke-width="1.125" stroke-linecap="round" stroke-linejoin="round"/>
</svg>
