<svg width="18" height="18" viewBox="0 0 18 18" fill="none" xmlns="http://www.w3.org/2000/svg">
<path d="M7.25 17H11.75C15.5 17 17 15.5 17 11.75V7.25C17 3.5 15.5 2 11.75 2H7.25C3.5 2 2 3.5 2 7.25V11.75C2 15.5 3.5 17 7.25 17Z" fill="#E4F3FF" stroke="#2196F3" stroke-linecap="round" stroke-linejoin="round"/>
<path d="M5 7C5.82418 5.66667 7.16758 5.66667 8 7" stroke="#2196F3" stroke-miterlimit="10" stroke-linecap="round" stroke-linejoin="round"/>
<path d="M10 7C10.8242 5.66667 12.1676 5.66667 13 7" stroke="#2196F3" stroke-miterlimit="10" stroke-linecap="round" stroke-linejoin="round"/>
<path d="M6.7 13H12.3C12.6889 13 13 12.7037 13 12.3333C13 10.4889 11.4367 9 9.5 9C7.56333 9 6 10.4889 6 12.3333C6 12.7037 6.31111 13 6.7 13Z" stroke="#2196F3" stroke-miterlimit="10" stroke-linecap="round" stroke-linejoin="round"/>
</svg>
