<svg width="44" height="49" viewBox="0 0 44 49" fill="none" xmlns="http://www.w3.org/2000/svg">
<g filter="url(#filter0_d_601_2731)">
<path d="M24.5523 9.01947C26.0037 9.24101 27.3599 8.24399 27.5815 6.79258C27.803 5.34116 26.806 3.98497 25.3546 3.76343C23.9032 3.54189 22.547 4.53891 22.3254 5.99033C22.1039 7.44174 23.1009 8.79794 24.5523 9.01947Z" fill="url(#paint0_linear_601_2731)"/>
<path d="M22.3263 5.9903C22.1047 7.44173 23.1017 8.79791 24.5532 9.01944C26.0046 9.24098 27.3608 8.24398 27.5823 6.79255C27.6303 6.4782 27.6209 6.16838 27.5624 5.87357L22.6195 5.11912C22.4718 5.39023 22.3726 5.68505 22.3263 5.9903Z" fill="url(#paint1_linear_601_2731)"/>
<path d="M22.8108 7.96591C23.6804 9.14884 25.3444 9.40288 26.5274 8.53319C27.7103 7.66355 27.9643 5.99954 27.0946 4.81662C26.912 4.5677 26.6873 4.35258 26.4307 4.18094L22.4021 7.14259C22.4894 7.43872 22.6277 7.71734 22.8108 7.96591Z" fill="url(#paint2_linear_601_2731)"/>
<path d="M32.245 20.0127C32.485 19.3913 32.6591 18.7465 32.7645 18.0887C33.5928 12.9342 30.0522 8.03836 24.897 7.21435C19.6922 6.3824 14.8139 9.94862 14.0199 15.1506C13.9098 15.8716 13.884 16.5861 13.9352 17.2839C14.1435 20.1257 12.8477 22.8386 10.6305 24.6283C10.3301 24.8707 10.1477 25.1458 10.1011 25.4513C9.81335 27.3366 14.8055 29.6624 21.2513 30.6463C27.6971 31.6302 33.1558 30.8994 33.4436 29.0142C33.4925 28.6937 33.3888 28.3605 33.1514 28.0233C31.5061 25.6871 31.2143 22.6778 32.245 20.0127Z" fill="url(#paint3_linear_601_2731)"/>
<path d="M32.2441 20.0127C32.4841 19.3914 32.6583 18.7465 32.7636 18.0888C33.5919 12.9343 30.0513 8.03843 24.8961 7.21442C23.8656 7.04971 22.848 7.05804 21.8722 7.21672L18.3794 30.1003C19.2923 30.31 20.2539 30.4943 21.2505 30.6464C27.6964 31.6302 33.155 30.8995 33.4428 29.0142C33.4917 28.6937 33.388 28.3606 33.1506 28.0234C31.5052 25.6872 31.2134 22.6779 32.2441 20.0127Z" fill="url(#paint4_linear_601_2731)"/>
<path d="M14.0206 15.1506C13.9105 15.8717 13.8848 16.5861 13.9359 17.284C14.1442 20.1258 12.8484 22.8387 10.6312 24.6283C10.3309 24.8708 10.1485 25.1459 10.1018 25.4514C9.81407 27.3366 14.8062 29.6625 21.252 30.6464C27.6979 31.6302 33.1565 30.8995 33.4443 29.0142C33.4932 28.6937 33.3895 28.3606 33.1521 28.0234C31.5068 25.6872 31.2149 22.6778 32.2456 20.0127C32.4856 19.3913 32.6597 18.7465 32.7651 18.0888C32.8902 17.3119 32.9176 16.5225 32.8465 15.7388L14.6298 12.9583C14.3397 13.6621 14.1352 14.3981 14.0206 15.1506Z" fill="url(#paint5_linear_601_2731)"/>
<path d="M20.8289 33.4197C27.718 34.4712 33.7173 32.6074 34.2288 29.2567C34.7402 25.906 29.57 22.3373 22.6809 21.2858C15.7918 20.2343 9.79244 22.0981 9.28101 25.4488C8.76958 28.7995 13.9397 32.3682 20.8289 33.4197Z" fill="url(#paint6_linear_601_2731)"/>
<path d="M9.28114 25.4489C9.46536 24.2419 10.3617 23.228 11.7551 22.4736L32.7551 25.679C33.86 26.8146 34.4131 28.0498 34.2289 29.2568C33.7175 32.6074 27.7181 34.4713 20.829 33.4198C13.9399 32.3683 8.76971 28.7996 9.28114 25.4489Z" fill="url(#paint7_linear_601_2731)"/>
<path d="M20.9953 32.3208C26.6362 33.1818 31.5177 31.8577 31.8985 29.3634C32.2792 26.869 28.0149 24.149 22.374 23.288C16.733 22.427 11.8515 23.7511 11.4708 26.2454C11.0901 28.7398 15.3543 31.4598 20.9953 32.3208Z" fill="url(#paint8_linear_601_2731)"/>
<path d="M20.9953 32.3208C26.6362 33.1818 31.5177 31.8577 31.8985 29.3634C32.2792 26.869 28.0149 24.149 22.374 23.288C16.733 22.427 11.8515 23.7511 11.4708 26.2454C11.0901 28.7398 15.3543 31.4598 20.9953 32.3208Z" fill="url(#paint9_linear_601_2731)"/>
<path d="M23.3965 21.4058C29.9244 22.5871 34.7226 26.0234 34.229 29.2571C33.7355 32.4907 28.1306 34.3392 21.5475 33.5193L23.3965 21.4058Z" fill="url(#paint10_linear_601_2731)"/>
<path d="M21.9853 32.4501L18.7038 27.9865L19.4603 23.0305C20.3941 23.0512 21.3727 23.1348 22.3755 23.2879C28.0164 24.1489 32.2807 26.8689 31.9 29.3633C31.5417 31.7106 27.1973 33.0213 21.9853 32.4501Z" fill="url(#paint11_linear_601_2731)"/>
<path d="M17.8947 24.8129C17.9921 24.1706 18.2378 23.5598 18.6125 23.0291C18.6125 23.0291 19.823 22.8299 22.3846 23.2209C24.9461 23.6118 26.0421 24.1631 26.0421 24.1631C26.2413 24.7814 26.2937 25.4377 26.195 26.0798C25.8452 28.3719 23.7035 29.9464 21.4114 29.5966C19.1193 29.2467 17.5448 27.105 17.8947 24.8129Z" fill="url(#paint12_linear_601_2731)"/>
<path d="M17.8947 24.8129C17.9921 24.1706 18.2378 23.5598 18.6125 23.0291C18.6125 23.0291 19.823 22.8299 22.3846 23.2209C24.9461 23.6118 26.0421 24.1631 26.0421 24.1631C26.2413 24.7814 26.2937 25.4377 26.195 26.0798C25.8452 28.3719 23.7035 29.9464 21.4114 29.5966C19.1193 29.2467 17.5448 27.105 17.8947 24.8129Z" fill="url(#paint13_linear_601_2731)"/>
<path d="M22.3848 23.2209C24.9464 23.6119 26.0423 24.1631 26.0423 24.1631C26.2416 24.7814 26.294 25.4377 26.1953 26.0798C25.8454 28.3719 23.7037 29.9464 21.4117 29.5966C21.0914 29.5475 20.7779 29.4616 20.4774 29.3406L21.4308 23.0942C21.7496 23.1301 22.0677 23.1723 22.3848 23.2209Z" fill="url(#paint14_linear_601_2731)"/>
<path d="M17.8944 24.8129C17.8997 24.7782 17.9071 24.7443 17.9132 24.7099L26.2074 25.9759C26.203 26.0106 26.2 26.0451 26.1947 26.0798C25.8449 28.3718 23.7032 29.9463 21.4111 29.5965C19.119 29.2467 17.5445 27.1049 17.8944 24.8129Z" fill="url(#paint15_linear_601_2731)"/>
</g>
<defs>
<filter id="filter0_d_601_2731" x="0.246094" y="0.732422" width="43.0176" height="47.981" filterUnits="userSpaceOnUse" color-interpolation-filters="sRGB">
<feFlood flood-opacity="0" result="BackgroundImageFix"/>
<feColorMatrix in="SourceAlpha" type="matrix" values="0 0 0 0 0 0 0 0 0 0 0 0 0 0 0 0 0 0 127 0" result="hardAlpha"/>
<feOffset dy="6"/>
<feGaussianBlur stdDeviation="4.5"/>
<feComposite in2="hardAlpha" operator="out"/>
<feColorMatrix type="matrix" values="0 0 0 0 0.656563 0 0 0 0 0.779476 0 0 0 0 0.825 0 0 0 0.7 0"/>
<feBlend mode="normal" in2="BackgroundImageFix" result="effect1_dropShadow_601_2731"/>
<feBlend mode="normal" in="SourceGraphic" in2="effect1_dropShadow_601_2731" result="shape"/>
</filter>
<linearGradient id="paint0_linear_601_2731" x1="23.7948" y1="4.81542" x2="25.7721" y2="7.50501" gradientUnits="userSpaceOnUse">
<stop stop-color="#FEF0AE"/>
<stop offset="1" stop-color="#FAC600"/>
</linearGradient>
<linearGradient id="paint1_linear_601_2731" x1="25.0198" y1="5.9625" x2="24.7851" y2="7.50001" gradientUnits="userSpaceOnUse">
<stop stop-color="#FE9738" stop-opacity="0"/>
<stop offset="1" stop-color="#FE9738"/>
</linearGradient>
<linearGradient id="paint2_linear_601_2731" x1="24.8046" y1="6.21811" x2="26.7923" y2="8.54203" gradientUnits="userSpaceOnUse">
<stop stop-color="#FE9738" stop-opacity="0"/>
<stop offset="1" stop-color="#FE9738"/>
</linearGradient>
<linearGradient id="paint3_linear_601_2731" x1="16.6774" y1="17.9539" x2="26.5389" y2="19.4591" gradientUnits="userSpaceOnUse">
<stop stop-color="#FEF0AE"/>
<stop offset="1" stop-color="#FAC600"/>
</linearGradient>
<linearGradient id="paint4_linear_601_2731" x1="23.7462" y1="19.2149" x2="31.5753" y2="21.4041" gradientUnits="userSpaceOnUse">
<stop stop-color="#FE9738" stop-opacity="0"/>
<stop offset="1" stop-color="#FE9738"/>
</linearGradient>
<linearGradient id="paint5_linear_601_2731" x1="23.0684" y1="18.7466" x2="22.2175" y2="24.3214" gradientUnits="userSpaceOnUse">
<stop stop-color="#FE9738" stop-opacity="0"/>
<stop offset="1" stop-color="#FE9738"/>
</linearGradient>
<linearGradient id="paint6_linear_601_2731" x1="-125.891" y1="-0.758834" x2="-127.614" y2="10.5259" gradientUnits="userSpaceOnUse">
<stop stop-color="#FEF0AE"/>
<stop offset="1" stop-color="#FAC600"/>
</linearGradient>
<linearGradient id="paint7_linear_601_2731" x1="-126.945" y1="6.14503" x2="-127.716" y2="11.1959" gradientUnits="userSpaceOnUse">
<stop stop-color="#FE9738" stop-opacity="0"/>
<stop offset="1" stop-color="#FE9738"/>
</linearGradient>
<linearGradient id="paint8_linear_601_2731" x1="-122.79" y1="-5.18534" x2="-129.162" y2="11.2526" gradientUnits="userSpaceOnUse">
<stop stop-color="#FE9738" stop-opacity="0"/>
<stop offset="1" stop-color="#FE9738"/>
</linearGradient>
<linearGradient id="paint9_linear_601_2731" x1="-127.078" y1="7.00555" x2="-126.093" y2="0.557509" gradientUnits="userSpaceOnUse">
<stop stop-color="#FE9738" stop-opacity="0"/>
<stop offset="1" stop-color="#FE9738"/>
</linearGradient>
<linearGradient id="paint10_linear_601_2731" x1="-132.118" y1="5.00072" x2="-137.859" y2="8.01239" gradientUnits="userSpaceOnUse">
<stop stop-color="#FE9738" stop-opacity="0"/>
<stop offset="1" stop-color="#FE9738"/>
</linearGradient>
<linearGradient id="paint11_linear_601_2731" x1="-133.117" y1="6.3659" x2="-128.292" y2="2.94547" gradientUnits="userSpaceOnUse">
<stop stop-color="#FE9738" stop-opacity="0"/>
<stop offset="1" stop-color="#FE9738"/>
</linearGradient>
<linearGradient id="paint12_linear_601_2731" x1="-124.532" y1="2.23516" x2="-129.078" y2="4.30441" gradientUnits="userSpaceOnUse">
<stop stop-color="#F5FBFF"/>
<stop offset="1" stop-color="#DBD5EF"/>
</linearGradient>
<linearGradient id="paint13_linear_601_2731" x1="-126.441" y1="4.49573" x2="-126.421" y2="0.195172" gradientUnits="userSpaceOnUse">
<stop stop-color="#DBD5EF" stop-opacity="0"/>
<stop offset="0.285" stop-color="#D9D2EE" stop-opacity="0.285"/>
<stop offset="0.474" stop-color="#D4C9E9" stop-opacity="0.474"/>
<stop offset="0.635" stop-color="#CBBAE2" stop-opacity="0.635"/>
<stop offset="0.779" stop-color="#BFA5D7" stop-opacity="0.78"/>
<stop offset="0.913" stop-color="#AF8ACA" stop-opacity="0.913"/>
<stop offset="1" stop-color="#A274BF"/>
</linearGradient>
<linearGradient id="paint14_linear_601_2731" x1="-126.823" y1="3.70871" x2="-130.838" y2="3.09595" gradientUnits="userSpaceOnUse">
<stop stop-color="#DBD5EF" stop-opacity="0"/>
<stop offset="0.285" stop-color="#D9D2EE" stop-opacity="0.285"/>
<stop offset="0.474" stop-color="#D4C9E9" stop-opacity="0.474"/>
<stop offset="0.635" stop-color="#CBBAE2" stop-opacity="0.635"/>
<stop offset="0.779" stop-color="#BFA5D7" stop-opacity="0.78"/>
<stop offset="0.913" stop-color="#AF8ACA" stop-opacity="0.913"/>
<stop offset="1" stop-color="#A274BF"/>
</linearGradient>
<linearGradient id="paint15_linear_601_2731" x1="-125.782" y1="2.81704" x2="-129.513" y2="6.11124" gradientUnits="userSpaceOnUse">
<stop stop-color="#DBD5EF" stop-opacity="0"/>
<stop offset="0.285" stop-color="#D9D2EE" stop-opacity="0.285"/>
<stop offset="0.474" stop-color="#D4C9E9" stop-opacity="0.474"/>
<stop offset="0.635" stop-color="#CBBAE2" stop-opacity="0.635"/>
<stop offset="0.779" stop-color="#BFA5D7" stop-opacity="0.78"/>
<stop offset="0.913" stop-color="#AF8ACA" stop-opacity="0.913"/>
<stop offset="1" stop-color="#A274BF"/>
</linearGradient>
</defs>
</svg>
