<svg width="30" height="32" viewBox="0 0 30 32" fill="none" xmlns="http://www.w3.org/2000/svg">
<circle cx="15" cy="15" r="15" fill="#DAF5FF"/>
<g filter="url(#filter0_d_1634_4068)">
<path d="M17.069 9.29408L10.3749 11.5188C5.87505 13.0241 5.87505 15.4787 10.3749 16.9767L12.3616 17.6367L13.0214 19.624C14.5188 24.1253 16.98 24.1253 18.4775 19.624L20.7089 12.9351C21.7022 9.93182 20.0713 8.29297 17.069 9.29408ZM17.3062 13.2837L14.4892 16.1164C14.378 16.2277 14.2371 16.2796 14.0963 16.2796C13.9554 16.2796 13.8146 16.2277 13.7034 16.1164C13.4884 15.9014 13.4884 15.5454 13.7034 15.3304L16.5204 12.4976C16.7354 12.2826 17.0912 12.2826 17.3062 12.4976C17.5212 12.7127 17.5212 13.0686 17.3062 13.2837Z" fill="#2AC7AB"/>
<path d="M10.2172 11.0443L10.2162 11.0446C9.05928 11.4316 8.15247 11.8918 7.52505 12.4107C6.89931 12.9282 6.5 13.5509 6.5 14.2505C6.5 14.9502 6.89946 15.5725 7.52542 16.0892C8.153 16.6072 9.05994 17.0659 10.2169 17.4511L10.2172 17.4512L11.9661 18.0321L12.5468 19.7816L12.5469 19.7819C12.932 20.9393 13.391 21.8466 13.9095 22.4744C14.4267 23.1006 15.0495 23.5 15.7494 23.5C16.4493 23.5 17.0721 23.1006 17.5893 22.4744C18.1078 21.8466 18.5668 20.9394 18.9519 19.782C18.9519 19.7819 18.9519 19.7819 18.9519 19.7819L21.1832 13.0934L21.1836 13.0922C21.7056 11.5139 21.5957 10.1157 20.7412 9.2597C19.886 8.4031 18.4892 8.29352 16.9111 8.81966C16.911 8.81969 16.9109 8.81972 16.9108 8.81975L10.2172 11.0443ZM16.9526 12.9302L16.9517 12.9311L14.1356 15.763C14.1355 15.763 14.1354 15.7631 14.1353 15.7632C14.1276 15.7708 14.1215 15.7741 14.117 15.776C14.112 15.778 14.1052 15.7796 14.0963 15.7796C14.0874 15.7796 14.0806 15.778 14.0756 15.776C14.071 15.7741 14.0648 15.7707 14.057 15.763C14.0488 15.7547 14.0421 15.7417 14.0421 15.7234C14.0421 15.7052 14.0488 15.6921 14.057 15.6839L14.0579 15.683L16.874 12.8511C16.8741 12.8511 16.8742 12.851 16.8742 12.8509C16.8824 12.8428 16.8954 12.8363 16.9133 12.8363C16.9314 12.8363 16.9444 12.8429 16.9526 12.8511L17.3062 12.4976L16.9526 12.8511C16.9608 12.8593 16.9674 12.8724 16.9674 12.8907C16.9674 12.9089 16.9608 12.922 16.9526 12.9302Z" stroke="white"/>
</g>
<defs>
<filter id="filter0_d_1634_4068" x="2.4" y="8.0011" width="23.199" height="23.1989" filterUnits="userSpaceOnUse" color-interpolation-filters="sRGB">
<feFlood flood-opacity="0" result="BackgroundImageFix"/>
<feColorMatrix in="SourceAlpha" type="matrix" values="0 0 0 0 0 0 0 0 0 0 0 0 0 0 0 0 0 0 127 0" result="hardAlpha"/>
<feOffset dy="3.6"/>
<feGaussianBlur stdDeviation="1.8"/>
<feComposite in2="hardAlpha" operator="out"/>
<feColorMatrix type="matrix" values="0 0 0 0 0.52549 0 0 0 0 0.596078 0 0 0 0 0.662745 0 0 0 0.3 0"/>
<feBlend mode="normal" in2="BackgroundImageFix" result="effect1_dropShadow_1634_4068"/>
<feBlend mode="normal" in="SourceGraphic" in2="effect1_dropShadow_1634_4068" result="shape"/>
</filter>
</defs>
</svg>
