<svg width="20" height="22" viewBox="0 0 20 22" fill="none" xmlns="http://www.w3.org/2000/svg">
<path d="M3.6868 21.9617C3.17917 21.8167 2.88942 21.3018 3.03966 20.8118L3.90175 18L5.74007 18.5252L4.87798 21.337C4.72774 21.8271 4.19442 22.1068 3.6868 21.9617ZM14.3132 21.9617C14.8208 21.8167 15.1106 21.3018 14.9603 20.8118L14.0983 18L12.2599 18.5252L13.122 21.337C13.2723 21.8271 13.8056 22.1068 14.3132 21.9617Z" fill="#E19974"/>
<path d="M6.14655 18.5252L5.32235 21.3371C5.17882 21.8272 4.66863 22.1069 4.18333 21.9616C4.11954 21.9428 4.05804 21.9168 4 21.8841C4.21068 21.7668 4.36692 21.5702 4.43471 21.3371L5.36882 18.2928L6.14655 18.5252ZM14.3432 21.9616C14.2267 21.9966 14.1044 22.0079 13.9835 21.9946C13.8627 21.9812 13.7456 21.9437 13.6393 21.8841C14.0081 21.6793 14.1993 21.2362 14.0744 20.8119L13.3216 18.2437L14.1379 18L14.9621 20.8119C15.1056 21.3019 14.8289 21.8167 14.3432 21.9616Z" fill="#DC8758"/>
<path d="M9 21C13.9706 21 18 16.7467 18 11.5C18 6.25329 13.9706 2 9 2C4.02944 2 0 6.25329 0 11.5C0 16.7467 4.02944 21 9 21Z" fill="#FE646F"/>
<path d="M18 10.8628C18 15.909 13.836 20 8.69863 20C6.55139 20 4.57456 19.2855 3 18.0848C4.38874 18.8955 6.01118 19.361 7.74378 19.361C12.8806 19.361 17.0452 15.27 17.0452 10.2238C17.0452 7.28562 15.6336 4.67148 13.4398 3C16.1703 4.5925 18 7.51771 18 10.8628Z" fill="#FD4755"/>
<path d="M9 19C12.866 19 16 15.6421 16 11.5C16 7.35786 12.866 4 9 4C5.13401 4 2 7.35786 2 11.5C2 15.6421 5.13401 19 9 19Z" fill="#F9F8F9"/>
<path d="M16 11.3397C16 15.5705 12.814 19 8.88354 19C7.85695 19 6.8815 18.766 6 18.3453C6.64761 18.5538 7.33371 18.6658 8.04432 18.6658C11.9744 18.6658 15.1608 15.2364 15.1608 11.0055C15.1608 7.87978 13.4214 5.19114 10.9279 4C13.8618 4.94567 16 7.87428 16 11.3397Z" fill="#EFEDEF"/>
<path d="M9.5 17C12.5376 17 15 14.5376 15 11.5C15 8.46243 12.5376 6 9.5 6C6.46243 6 4 8.46243 4 11.5C4 14.5376 6.46243 17 9.5 17Z" fill="#FE646F"/>
<path d="M14 11.3311C14 14.4622 11.627 17 8.69933 17C7.71365 17 6.7906 16.7122 6 16.2107C6.56349 16.4289 7.17155 16.548 7.80529 16.548C10.7329 16.548 13.106 14.0102 13.106 10.8791C13.106 8.80317 12.0622 6.98761 10.5055 6C12.5437 6.78975 14 8.87874 14 11.3311Z" fill="#FD4755"/>
<path d="M9.5 15C11.433 15 13 13.433 13 11.5C13 9.567 11.433 8 9.5 8C7.567 8 6 9.567 6 11.5C6 13.433 7.567 15 9.5 15Z" fill="#F9F8F9"/>
<path d="M12 11.413C12 13.3943 10.5657 15 8.79586 15C8.1304 15 7.51231 14.7729 7 14.3845C7.31916 14.4999 7.65254 14.5585 7.98794 14.5581C9.75735 14.5581 11.1921 12.9524 11.1921 10.9711C11.1921 9.73476 10.6332 8.64426 9.78303 8C11.0697 8.46527 12 9.81784 12 11.413Z" fill="#EFEDEF"/>
<path d="M8.5 13C9.32843 13 10 12.3284 10 11.5C10 10.6716 9.32843 10 8.5 10C7.67157 10 7 10.6716 7 11.5C7 12.3284 7.67157 13 8.5 13Z" fill="#FE646F"/>
<path d="M11 11.4967C11 12.3272 10.1642 13 9.13259 13C8.72327 13.0004 8.3252 12.8922 8 12.6921C8.05763 12.6966 8.11575 12.6987 8.17491 12.6987C9.20601 12.6987 10.0423 12.0259 10.0423 11.1954C10.0423 10.7081 9.7542 10.2746 9.3075 10C10.257 10.071 11 10.7143 11 11.4967Z" fill="#FD4755"/>
<path d="M9.31438 11C9.2522 11 9.19142 10.9815 9.13972 10.947C9.08803 10.9124 9.04773 10.8633 9.02394 10.8059C9.00014 10.7484 8.99391 10.6852 9.00603 10.6242C9.01815 10.5632 9.04808 10.5072 9.09204 10.4632L17.4661 2.08921C17.5253 2.03151 17.6049 1.99947 17.6876 2.00001C17.7703 2.00055 17.8494 2.03363 17.9079 2.0921C17.9664 2.15057 17.9994 2.22971 18 2.3124C18.0005 2.39508 17.9685 2.47466 17.9108 2.53389L9.53672 10.9079C9.50755 10.9371 9.47289 10.9603 9.43474 10.9761C9.39658 10.9919 9.35568 11 9.31438 11Z" fill="#8B8089"/>
<path d="M18 2.3878L17.7236 0.168136C17.7039 0.00975528 17.5135 -0.0564314 17.4023 0.0564835L14.0554 3.45567C14.0336 3.47777 14.0175 3.50491 14.0084 3.53476C13.9993 3.56461 13.9976 3.59626 14.0033 3.62696L14.4433 6L18 2.3878Z" fill="#FEE97D"/>
<path d="M17 1.995L14.1671 5L14 4.05691L16.8814 1L17 1.995Z" fill="#FEDF30"/>
<path d="M18.0102 2L19.8599 2.27643C19.9919 2.29614 20.047 2.48654 19.9529 2.59767L17.1203 5.94464C17.1019 5.96639 17.0792 5.9825 17.0544 5.99158C17.0295 6.00066 17.0031 6.00243 16.9775 5.99673L15 5.55671L18.0102 2Z" fill="#FEDF30"/>
<path d="M19.9518 2.45075L17.0493 5.94244C17.0303 5.96502 17.0071 5.98175 16.9816 5.99119C16.9561 6.00064 16.9291 6.00252 16.9029 5.99668L16 5.79201L19.0485 2.12525C19.0767 2.09198 19.0938 2.04741 19.0965 2L19.8563 2.11588C19.9916 2.13659 20.0482 2.33487 19.9518 2.45075Z" fill="#FED402"/>
</svg>
