<svg width="18" height="18" viewBox="0 0 18 18" fill="none" xmlns="http://www.w3.org/2000/svg">
<path d="M6.75 16.5H11.25C15 16.5 16.5 15 16.5 11.25V6.75C16.5 3 15 1.5 11.25 1.5H6.75C3 1.5 1.5 3 1.5 6.75V11.25C1.5 15 3 16.5 6.75 16.5Z" stroke="#2196F3" stroke-width="1.3" stroke-linecap="round" stroke-linejoin="round"/>
<path d="M6.82422 9.00012V7.89012C6.82422 6.45762 7.83672 5.88012 9.07422 6.59262L10.0342 7.14762L10.9942 7.70262C12.2317 8.41512 12.2317 9.58511 10.9942 10.2976L10.0342 10.8526L9.07422 11.4076C7.83672 12.1201 6.82422 11.5351 6.82422 10.1101V9.00012Z" stroke="#2196F3" stroke-width="1.3" stroke-miterlimit="10" stroke-linecap="round" stroke-linejoin="round"/>
</svg>
