<svg width="25" height="24" viewBox="0 0 25 24" fill="none" xmlns="http://www.w3.org/2000/svg">
<path d="M9.5 10C10.6046 10 11.5 9.10457 11.5 8C11.5 6.89543 10.6046 6 9.5 6C8.39543 6 7.5 6.89543 7.5 8C7.5 9.10457 8.39543 10 9.5 10Z" stroke="#819EBE" stroke-width="2" stroke-linecap="round" stroke-linejoin="round"/>
<path d="M12.5 2H9.5C4.5 2 2.5 4 2.5 9V15C2.5 20 4.5 22 9.5 22H15.5C20.5 22 22.5 20 22.5 15V11" stroke="#819EBE" stroke-width="2" stroke-linecap="round" stroke-linejoin="round"/>
<path d="M16.6162 4.62349C16.2793 3.63486 16.6774 2.40857 17.7799 2.07586C18.3618 1.90475 19.0866 2.04734 19.495 2.57018C19.8829 2.02833 20.6281 1.89525 21.21 2.07586C22.3227 2.40857 22.7208 3.63486 22.384 4.62349C21.8531 6.18248 20.0156 7 19.5052 7C18.9845 7 17.1572 6.20149 16.6162 4.62349Z" stroke="#819EBE" stroke-width="2" stroke-linecap="round" stroke-linejoin="round"/>
<path d="M2.5 19L7.34584 15.6674C8.12235 15.1338 9.24289 15.1942 9.94077 15.8083L10.2651 16.1003C11.0318 16.7749 12.2703 16.7749 13.037 16.1003L17.126 12.5059C17.8927 11.8314 19.1311 11.8314 19.8978 12.5059L21.5 13.9155" stroke="#819EBE" stroke-width="2" stroke-linecap="round" stroke-linejoin="round"/>
</svg>
