<svg id="Capa_1" enable-background="new 0 0 512 512" height="512" viewBox="0 0 512 512" width="512" xmlns="http://www.w3.org/2000/svg"><g><path d="m379.509 234.972c-11.076 11.075-10.686 25.681-10.663 26.297.145 4.049 3.475 7.264 7.494 7.264.09 0 .18-.001.271-.005 4.14-.148 7.376-3.592 7.228-7.731-.002-.088-.084-8.857 6.276-15.218 2.93-2.929 2.93-7.677.001-10.606-2.929-2.93-7.678-2.931-10.607-.001z"/><path d="m98.365 234.972c-2.929 2.929-2.929 7.678 0 10.606 6.288 6.288 6.279 14.931 6.276 15.211-.116 4.114 3.108 7.558 7.229 7.706.091.003.183.005.273.005 4.018 0 7.345-3.184 7.49-7.231.022-.616.414-15.222-10.662-26.297-2.929-2.929-7.678-2.929-10.606 0z"/><path d="m263.268 328.864c-5.082 5.083-11.84 7.882-19.028 7.882s-13.946-2.799-19.029-7.882c-2.928-2.93-7.677-2.929-10.606 0s-2.929 7.677 0 10.606c7.916 7.916 18.44 12.276 29.635 12.276 11.194 0 21.719-4.36 29.635-12.276 2.929-2.929 2.929-7.678-.001-10.606-2.927-2.93-7.676-2.929-10.606 0z"/><path d="m215.335 262.659c-2.929-2.93-7.678-2.929-10.606 0-5.48 5.48-12.767 8.499-20.517 8.499s-15.036-3.018-20.517-8.499c-2.928-2.929-7.677-2.929-10.606 0s-2.929 7.677 0 10.606c8.313 8.313 19.366 12.892 31.123 12.892s22.81-4.579 31.123-12.892c2.929-2.929 2.929-7.677 0-10.606z"/><path d="m321.821 262.659c-5.479 5.48-12.766 8.499-20.516 8.499-7.751 0-15.037-3.018-20.517-8.499-2.929-2.929-7.678-2.929-10.606 0-2.93 2.929-2.93 7.677-.001 10.606 8.313 8.313 19.366 12.892 31.124 12.892 11.757 0 22.81-4.579 31.123-12.892 2.929-2.929 2.929-7.678-.001-10.606-2.928-2.93-7.677-2.929-10.606 0z"/><path d="m466.643 65.575c-3.793-1.669-8.218.052-9.886 3.843-1.669 3.791.052 8.217 3.843 9.886 2.935 1.292 3.107 4.083 3.091 4.908-.021 1.053-.39 3.627-3.341 4.786l-40.64 15.96c-1.941.762-3.478 2.298-4.24 4.24l-15.961 40.643c-1.184 3.019-3.822 3.346-4.901 3.346-.001 0-.002 0-.003 0-1.083 0-3.725-.327-4.912-3.347l-15.95-40.64c-.762-1.942-2.299-3.479-4.24-4.241l-40.65-15.96c-3.016-1.184-3.341-3.823-3.341-4.904s.325-3.72 3.342-4.904l40.649-15.96c1.941-.762 3.479-2.3 4.24-4.242l15.948-40.643c1.188-3.02 3.831-3.346 4.914-3.346h.003c1.079 0 3.719.327 4.902 3.341l15.96 40.65c.763 1.942 2.299 3.478 4.24 4.24l8.609 3.38c3.857 1.514 8.209-.385 9.723-4.24 1.514-3.856-.385-8.208-4.24-9.722l-5.564-2.185-14.765-37.605c-3.065-7.808-10.469-12.856-18.859-12.859-.004 0-.006 0-.009 0-8.392 0-15.8 5.045-18.875 12.861l-14.674 37.396c-30.336-32.001-72.595-50.257-116.814-50.257-42.996 0-83.409 16.74-113.793 47.137-6.324 6.324-12.112 13.168-17.289 20.42l-7.609-19.379c-2.396-6.104-8.182-10.049-14.74-10.049 0 0 0 0-.001 0-6.558 0-12.344 3.944-14.741 10.049l-9.222 23.49-23.49 9.222c-6.104 2.396-10.049 8.183-10.049 14.741s3.945 12.344 10.049 14.741l23.49 9.223 9.223 23.49c1.456 3.707 4.165 6.609 7.534 8.323-.187 3.178-.292 6.363-.292 9.523v48.759c-9.343 7.912-15.29 19.717-15.29 32.891 0 10.334 2.47 20.233 7.197 29.135-6.934 4.423-13.045 10.12-17.938 16.771-2.455 3.336-1.74 8.031 1.597 10.485 1.338.985 2.895 1.459 4.438 1.459 2.304 0 4.577-1.058 6.047-3.056 3.919-5.327 8.852-9.854 14.446-13.328 7.002 7.839 15.935 13.844 25.793 17.339 3.889 23.461 13.869 45.495 29.027 63.989 4.265 5.204 8.896 10.05 13.828 14.536h-41.345c-13.85 0-26.863-5.392-36.649-15.186-9.79-9.781-15.181-22.794-15.181-36.644 0-.605.008-1.21.033-1.815.174-4.139-3.041-7.634-7.179-7.808-4.157-.166-7.634 3.042-7.808 7.179-.034.815-.047 1.629-.047 2.444 0 17.859 6.954 34.642 19.575 47.25 12.614 12.626 29.396 19.58 47.255 19.58h61.204c6.953 4.315 14.29 8.019 21.946 11.028v5.361c0 .846.022 1.688.063 2.525-45.509 13.407-83.972 44.88-106.193 87.188-1.221 2.325-1.138 5.119.221 7.366s3.793 3.621 6.419 3.621h298.92c2.627 0 5.062-1.374 6.42-3.622 1.357-2.249 1.44-5.043.219-7.368-5.43-10.328-11.899-20.138-19.228-29.159-2.611-3.214-7.334-3.705-10.551-1.092-3.215 2.612-3.703 7.335-1.092 10.55 4.05 4.985 7.812 10.233 11.253 15.691h-272.968c20.656-32.791 52.498-57.169 89.546-68.417 6.927 19.134 24.976 33.032 46.098 33.386.282.004.563.007.845.007 13.208 0 25.628-5.079 35.058-14.355 5.515-5.425 9.603-11.896 12.095-18.97 19.868 6.047 38.149 15.777 54.423 29.008 1.392 1.131 3.064 1.681 4.727 1.681 2.18 0 4.342-.946 5.824-2.769 2.613-3.214 2.126-7.938-1.088-10.55-18.224-14.816-38.755-25.618-61.097-32.189.022-.609.045-1.218.045-1.831v-6.053c7.657-3.012 14.995-6.719 21.949-11.037h61.199c36.851 0 66.83-29.98 66.83-66.83 0-13.994-4.279-27.389-12.372-38.734-5.024-7.047-11.363-13.046-18.594-17.652 4.632-8.764 7.228-18.699 7.228-29.114 0-11.508-4.484-22.33-12.626-30.473-.857-.857-1.75-1.664-2.664-2.439v-44.439c3.687-2.248 6.637-5.666 8.302-9.908l14.764-37.596 37.596-14.764c7.761-3.047 12.687-10.115 12.855-18.445.167-8.213-4.561-15.648-12.044-18.942zm-391.27 41.252-26.534-10.418c-.198-.078-.531-.208-.531-.778s.333-.7.531-.778l26.534-10.418c1.941-.762 3.478-2.299 4.24-4.24l10.418-26.535c.078-.199.208-.531.779-.531.57 0 .7.332.778.531l10.418 26.534c.762 1.942 2.298 3.478 4.24 4.24l26.534 10.418c.198.078.531.208.531.778s-.333.7-.531.778l-26.534 10.418c-1.941.762-3.478 2.299-4.24 4.24l-10.419 26.535c-.078.198-.208.53-.778.53s-.701-.332-.778-.531l-10.418-26.534c-.762-1.94-2.298-3.477-4.24-4.239zm344.242 191.229c6.271 8.789 9.585 19.171 9.585 30.024 0 28.579-23.251 51.83-51.83 51.83h-41.348c4.931-4.485 9.56-9.332 13.824-14.535 15.155-18.495 25.135-40.525 29.023-63.983 10.125-3.567 18.93-9.618 25.801-17.344 5.818 3.611 10.924 8.369 14.945 14.008zm-49.387-9.688c-2.949.778-5.134 3.265-5.525 6.291-2.903 22.464-12.053 43.629-26.459 61.209-14.235 17.371-32.904 30.435-53.989 37.78-3.014 1.05-5.033 3.891-5.033 7.083v11.269c0 9.446-3.711 18.299-10.449 24.927-6.74 6.632-15.65 10.198-25.135 10.044-18.955-.317-34.375-16.32-34.375-35.671v-10.58c0-3.192-2.02-6.034-5.035-7.083-21.088-7.34-39.76-20.401-53.997-37.771-14.406-17.577-23.556-38.742-26.46-61.207-.391-3.025-2.575-5.512-5.524-6.291-9.908-2.614-18.867-8.533-25.225-16.667-6.541-8.367-9.999-18.437-9.999-29.121 0-15.495 12.605-28.1 28.1-28.1h3.803c3.577.309 29.867 2.281 63.301-3.302 31.025-5.173 58.099-15.124 80.566-29.577l18.55 7.283 9.223 23.49c2.397 6.104 8.184 10.049 14.741 10.049s12.344-3.944 14.741-10.049l2.726-6.942c17.023 6.007 35.299 9.049 54.44 9.049h4.14c7.509 0 14.568 2.924 19.877 8.233 5.31 5.31 8.233 12.365 8.233 19.867-.003 21.485-14.491 40.314-35.236 45.787zm-53.487-112.251c-1.941.763-3.478 2.299-4.24 4.24l-10.418 26.534c-.078.199-.208.531-.778.531s-.7-.333-.778-.531l-10.418-26.534c-.763-1.941-2.299-3.478-4.24-4.24l-26.534-10.417c-.198-.078-.531-.208-.531-.779s.333-.701.531-.778l26.534-10.418c1.941-.763 3.478-2.299 4.24-4.24l10.418-26.534c.077-.199.208-.531.778-.531s.701.332.778.531l10.418 26.534c.763 1.942 2.299 3.478 4.24 4.24l26.534 10.418c.199.078.531.209.531.779s-.332.701-.531.778zm60.61 23.363h-4.14c-17.245 0-33.675-2.699-48.953-8.024l1.01-2.572 23.489-9.223c6.104-2.396 10.049-8.183 10.049-14.741s-3.944-12.344-10.049-14.741l-23.489-9.222-9.223-23.49c-2.397-6.104-8.184-10.048-14.741-10.048s-12.344 3.944-14.741 10.049l-9.223 23.49-23.489 9.223c-6.104 2.397-10.048 8.183-10.048 14.741 0 2.59.624 5.055 1.744 7.243-19.717 11.641-43.143 19.776-69.791 24.219-33.186 5.542-59.522 3.156-59.781 3.132-.237-.023-.476-.034-.714-.034h-4.14c-4.459 0-8.762.681-12.81 1.943v-40.495c0-3.271.12-6.571.34-9.859 3.074-1.746 5.536-4.516 6.899-7.988l9.223-23.49 23.489-9.223c6.104-2.396 10.049-8.183 10.049-14.741s-3.945-12.344-10.049-14.741l-12.643-4.964c4.633-6.449 9.797-12.544 15.436-18.183 27.553-27.562 64.199-42.741 103.187-42.741 38.107 0 74.611 14.952 101.755 41.345l-22.625 8.883c-7.812 3.067-12.86 10.472-12.86 18.866s5.048 15.8 12.859 18.866l37.604 14.764 14.757 37.599c2.517 6.402 7.945 10.943 14.439 12.377v33.714c-4.098-1.27-8.407-1.934-12.82-1.934z"/></g></svg>