<svg width="23" height="24" viewBox="0 0 23 24" fill="none" xmlns="http://www.w3.org/2000/svg">
<path d="M11 14.9854C11.4315 15.5622 11.982 16.0395 12.6141 16.3849C13.2463 16.7303 13.9454 16.9357 14.6639 16.9872C15.3824 17.0386 16.1036 16.935 16.7785 16.6832C17.4535 16.4314 18.0664 16.0374 18.5756 15.5279L21.5898 12.5137C22.5049 11.5662 23.0113 10.2972 22.9998 8.98005C22.9884 7.66285 22.46 6.40284 21.5286 5.47141C20.5972 4.53997 19.3372 4.01164 18.02 4.00019C16.7028 3.98874 15.4339 4.4951 14.4864 5.41021L12.7583 7.12832" fill="#DFF1FF"/>
<path d="M15 13.0146C14.5685 12.4378 14.018 11.9605 13.3859 11.6151C12.7537 11.2697 12.0546 11.0643 11.3361 11.0128C10.6176 10.9614 9.89641 11.065 9.22148 11.3168C8.54654 11.5686 7.93365 11.9626 7.42437 12.4721L4.41019 15.4863C3.4951 16.4338 2.98874 17.7028 3.00019 19.02C3.01164 20.3372 3.53997 21.5972 4.47139 22.5286C5.40281 23.46 6.6628 23.9884 7.97998 23.9998C9.29716 24.0113 10.5661 23.5049 11.5136 22.5898L13.2317 20.8717" fill="#DFF1FF"/>
<path d="M9 11.9854C9.43148 12.5622 9.98198 13.0395 10.6141 13.3849C11.2463 13.7303 11.9454 13.9357 12.6639 13.9872C13.3824 14.0386 14.1036 13.935 14.7785 13.6832C15.4535 13.4314 16.0664 13.0374 16.5756 12.5279L19.5898 9.51373C20.5049 8.56625 21.0113 7.29725 20.9998 5.98005C20.9884 4.66285 20.46 3.40284 19.5286 2.47141C18.5972 1.53997 17.3372 1.01164 16.02 1.00019C14.7028 0.988744 13.4339 1.4951 12.4864 2.41021L10.7583 4.12832" stroke="#2196F3" stroke-width="2" stroke-linecap="round" stroke-linejoin="round"/>
<path d="M13 10.0146C12.5685 9.43776 12.018 8.96046 11.3859 8.61507C10.7537 8.26968 10.0546 8.06429 9.33612 8.01283C8.61759 7.96137 7.89641 8.06505 7.22148 8.31682C6.54654 8.56859 5.93365 8.96258 5.42437 9.47205L2.41019 12.4863C1.4951 13.4338 0.988744 14.7028 1.00019 16.02C1.01164 17.3372 1.53997 18.5972 2.47139 19.5286C3.40281 20.46 4.6628 20.9884 5.97998 20.9998C7.29716 21.0113 8.56613 20.5049 9.5136 19.5898L11.2317 17.8717" stroke="#2196F3" stroke-width="2" stroke-linecap="round" stroke-linejoin="round"/>
</svg>
