<svg width="23" height="22" viewBox="0 0 23 22" fill="none" xmlns="http://www.w3.org/2000/svg">
<path d="M20.8889 3H6.11111C4.94518 3 4 3.94518 4 5.11111V19.8889C4 21.0548 4.94518 22 6.11111 22H20.8889C22.0548 22 23 21.0548 23 19.8889V5.11111C23 3.94518 22.0548 3 20.8889 3Z" fill="#FAE4FF"/>
<path d="M17 1H3C1.89543 1 1 1.89543 1 3V17C1 18.1046 1.89543 19 3 19H17C18.1046 19 19 18.1046 19 17V3C19 1.89543 18.1046 1 17 1Z" stroke="#DE40FF" stroke-width="2" stroke-linecap="round" stroke-linejoin="round"/>
<path d="M6.5 8C7.32843 8 8 7.32843 8 6.5C8 5.67157 7.32843 5 6.5 5C5.67157 5 5 5.67157 5 6.5C5 7.32843 5.67157 8 6.5 8Z" stroke="#DE40FF" stroke-width="2" stroke-linecap="round" stroke-linejoin="round"/>
<path d="M19 13L14 8L3 19" stroke="#DE40FF" stroke-width="2" stroke-linecap="round" stroke-linejoin="round"/>
</svg>
